<svg width="20" height="21" viewBox="0 0 20 21" fill="none" xmlns="http://www.w3.org/2000/svg">
<path d="M15.033 11.7918C14.683 12.1335 14.483 12.6252 14.533 13.1502C14.608 14.0502 15.433 14.7085 16.333 14.7085H17.9163V15.7002C17.9163 17.4252 16.508 18.8335 14.783 18.8335H5.21634C3.49134 18.8335 2.08301 17.4252 2.08301 15.7002V10.0918C2.08301 8.36684 3.49134 6.9585 5.21634 6.9585H14.783C16.508 6.9585 17.9163 8.36684 17.9163 10.0918V11.2918H16.233C15.7663 11.2918 15.3413 11.4752 15.033 11.7918Z" stroke="white" stroke-width="1.5" stroke-linecap="round" stroke-linejoin="round"/>
<path opacity="0.4" d="M2.08301 10.8416V7.0333C2.08301 6.04163 2.69134 5.15826 3.61634 4.80826L10.233 2.30826C11.2663 1.91659 12.3747 2.68329 12.3747 3.79162V6.95828" stroke="white" stroke-width="1.5" stroke-linecap="round" stroke-linejoin="round"/>
<path d="M18.7997 12.1415V13.8582C18.7997 14.3165 18.433 14.6915 17.9663 14.7082H16.333C15.433 14.7082 14.608 14.0498 14.533 13.1498C14.483 12.6248 14.683 12.1332 15.033 11.7915C15.3413 11.4748 15.7663 11.2915 16.233 11.2915H17.9663C18.433 11.3082 18.7997 11.6831 18.7997 12.1415Z" stroke="white" stroke-width="1.5" stroke-linecap="round" stroke-linejoin="round"/>
<path opacity="0.4" d="M5.83301 10.5H11.6663" stroke="white" stroke-width="1.5" stroke-linecap="round" stroke-linejoin="round"/>
</svg>
