<svg width="20" height="20" viewBox="0 0 20 20" fill="none" xmlns="http://www.w3.org/2000/svg">
<path d="M19.5999 19.6091C19.1764 20.0228 18.8471 19.9135 18.4236 19.4998L11.7707 12.9997C11.3472 12.586 10.9177 11.9309 11.3411 11.5172C11.7646 11.1035 12.3708 11.586 12.7942 11.9998L19.5999 18.4998C20 18.9366 19.9998 19.1952 19.5999 19.6091Z" fill="#515165"/>
<path d="M19.6932 19.7011C19.5049 19.885 19.2461 20 18.9401 20H13.2931C12.7049 20 12.2344 19.5403 12.2344 18.9656C12.2344 18.3909 12.7049 18.4998 13.2931 18.4998H18.4235V13.4998C18.4235 12.925 18.3519 12.4138 18.9401 12.4138C19.5283 12.4138 19.9989 12.8735 19.9989 13.4483V18.9655C19.999 19.2414 19.8814 19.5172 19.6932 19.7011Z" fill="#515165"/>
<path d="M19.6003 0.390487C20.0238 0.804195 19.87 1.08605 19.4466 1.49976L12.7937 7.99974C12.3702 8.41345 11.7415 8.87311 11.3181 8.4594C10.8946 8.04569 11.3467 7.41345 11.7702 6.99974L18.4231 0.499407C18.8465 0.108625 19.1767 -0.000294313 19.6003 0.390487Z" fill="#515165"/>
<path d="M19.6951 0.298929C19.8833 0.482856 20.001 0.735748 20.001 1.03464V6.55184C20.001 7.12655 19.5304 7.58628 18.9422 7.58628C18.354 7.58628 18.4235 7.12655 18.4235 6.55184V1.49976H13.3058C12.7176 1.49976 12.2363 1.60939 12.2363 1.03468C12.2363 0.45997 12.7069 0.000244141 13.2951 0.000244141H18.9421C19.2246 0.000244141 19.5068 0.115005 19.6951 0.298929Z" fill="#515165"/>
<path d="M0.400186 0.390603C0.823627 -0.0231048 1.11225 -0.0231048 1.53569 0.390603L8.18845 6.99976C8.61189 7.41346 9.21219 7.99976 8.70042 8.49976C8.18866 8.99976 7.58837 8.41346 7.16493 7.99976L0.512163 1.49976C0.112189 1.08588 0.000211805 0.804312 0.400186 0.390603Z" fill="#515165"/>
<path d="M0.305711 0.298654C0.493965 0.114726 0.776252 -0.000244141 1.05873 -0.000244141H6.70573C7.29396 -8.37969e-05 7.67644 0.425047 7.67644 0.999756C7.67644 1.57446 7.24114 1.49976 6.65291 1.49976H1.53529V6.55152C1.53529 7.12623 1.60813 7.49976 1.0199 7.49976C0.431671 7.49976 0 7.12623 0 6.55152V1.03431C0 0.758343 0.117625 0.482602 0.305711 0.298654Z" fill="#515165"/>
<path d="M0.40074 19.6089C-0.0227003 19.1952 0.0895989 18.9134 0.51304 18.4997L7.16453 11.9998C7.58797 11.5861 8.23603 11.1262 8.65947 11.5399C9.08291 11.9537 8.61149 12.586 8.18805 12.9998L1.53514 19.4997C1.11153 19.8905 0.824181 19.9996 0.40074 19.6089Z" fill="#515165"/>
<path d="M0.30593 19.7007C0.117675 19.5168 0 19.241 0 18.965V13.4478C0.000164116 12.8731 0.470709 12.4133 1.05894 12.4133C1.64717 12.4133 1.53529 12.925 1.53529 13.4998V18.4998H6.65291C7.24114 18.4998 7.76466 18.3902 7.76466 18.9649C7.76483 19.5398 7.29412 19.9995 6.70589 19.9995H1.0589C0.776596 19.9995 0.494205 19.8846 0.30593 19.7007Z" fill="#515165"/>
</svg>
