<svg
  width="20"
  height="20"
  viewBox="0 0 20 20"
  fill="none"
  xmlns="http://www.w3.org/2000/svg"
>
<path
    d="M6.64165 18.3334C8.4826 18.3334 9.97499 16.841 9.97499 15C9.97499 13.1591 8.4826 11.6667 6.64165 11.6667C4.8007 11.6667 3.30832 13.1591 3.30832 15C3.30832 16.841 4.8007 18.3334 6.64165 18.3334Z"
    stroke="#0f0f0f"
    stroke-width="1.5"
    stroke-linecap="round"
    stroke-linejoin="round"
  />
<path
    opacity="0.4"
    d="M9.97501 15V3.33331"
    stroke="#0f0f0f"
    stroke-width="1.5"
    stroke-linecap="round"
    stroke-linejoin="round"
  />
<path
    d="M12.175 1.75835L15.8583 2.98335C16.75 3.28335 17.4833 4.29169 17.4833 5.23335V6.20835C17.4833 7.48335 16.5 8.19169 15.2917 7.79169L11.6083 6.56669C10.7167 6.26669 9.98333 5.25835 9.98333 4.31669V3.33335C9.975 2.06669 10.9667 1.35002 12.175 1.75835Z"
    stroke="#0f0f0f"
    stroke-width="1.5"
    stroke-linecap="round"
    stroke-linejoin="round"
  />
</svg>
