<svg width="31" height="30" viewBox="0 0 31 30" fill="none" xmlns="http://www.w3.org/2000/svg">
<rect width="31" height="30" rx="15" fill="#F5F5F5"/>
<path d="M11.7334 20.2917L14.3167 22.2917C14.6501 22.625 15.4001 22.7917 15.9001 22.7917H19.0667C20.0667 22.7917 21.1501 22.0417 21.4001 21.0417L23.4001 14.9583C23.8167 13.7917 23.0667 12.7917 21.8167 12.7917H18.4834C17.9834 12.7917 17.5667 12.375 17.6501 11.7917L18.0667 9.12501C18.2334 8.37501 17.7334 7.54168 16.9834 7.29168C16.3167 7.04168 15.4834 7.37501 15.1501 7.87501L11.7334 12.9583" fill="#0493A3"/>
<path opacity="0.4" d="M7.4834 20.2917V12.125C7.4834 10.9583 7.9834 10.5417 9.15007 10.5417H9.9834C11.1501 10.5417 11.6501 10.9583 11.6501 12.125V20.2917C11.6501 21.4583 11.1501 21.875 9.9834 21.875H9.15007C7.9834 21.875 7.4834 21.4583 7.4834 20.2917Z" stroke="#0493A3" stroke-width="1.5" stroke-linecap="round" stroke-linejoin="round"/>
</svg>
