<svg width="274" height="210" viewBox="0 0 274 210" fill="none" xmlns="http://www.w3.org/2000/svg">
<g clip-path="url(#clip0_0_2773)">
<path d="M266.509 209.665H144.105L148.669 198.523H260.84L266.509 209.665Z" fill="#B9D4DB"/>
<path d="M117.558 187.754H101.029L97.3983 184.254C95.9144 182.823 95.025 180.886 94.9078 178.828C94.7906 176.77 95.4541 174.744 96.7659 173.154L97.2862 172.524C97.8957 171.785 98.2347 170.861 98.2473 169.903C98.2598 168.946 97.945 168.012 97.3551 167.258L97.3499 167.252C96.9014 166.678 96.6095 165.998 96.5028 165.278C96.396 164.558 96.4781 163.822 96.7411 163.143L101.029 152.071H117.558L121.845 163.141C122.108 163.821 122.19 164.557 122.083 165.277C121.976 165.998 121.683 166.679 121.234 167.252C120.643 168.006 120.328 168.94 120.34 169.898C120.352 170.855 120.691 171.781 121.3 172.52L121.824 173.155C123.135 174.744 123.798 176.77 123.68 178.828C123.563 180.885 122.674 182.822 121.19 184.252L117.558 187.754Z" fill="#30B52D"/>
<path d="M102.389 180.447C100.905 179.017 100.016 177.079 99.8983 175.022C99.781 172.964 100.445 170.938 101.756 169.348L102.279 168.715C102.888 167.977 103.227 167.052 103.239 166.095C103.251 165.138 102.936 164.206 102.346 163.452L102.34 163.445C101.892 162.873 101.6 162.193 101.493 161.473C101.386 160.754 101.468 160.019 101.73 159.34L104.546 152.071H101.029L96.74 163.146C96.4772 163.825 96.3953 164.56 96.5022 165.28C96.6092 165.999 96.9013 166.679 97.3499 167.251L97.3551 167.258C97.9454 168.012 98.2606 168.944 98.2485 169.902C98.2363 170.859 97.8975 171.783 97.2883 172.521L96.7659 173.154C95.4541 174.744 94.7906 176.77 94.9078 178.828C95.025 180.886 95.9144 182.823 97.3983 184.254L101.029 187.754H117.558L121.19 184.252C121.292 184.154 121.382 184.049 121.477 183.947H111.063C107.827 183.947 104.718 182.693 102.389 180.447Z" fill="#30B52D"/>
<path d="M136.803 209.663H81.6712C81.3996 209.663 81.1342 209.582 80.9091 209.43C80.684 209.278 80.5094 209.063 80.4077 208.811C80.306 208.559 80.2819 208.283 80.3385 208.017C80.395 207.751 80.5297 207.509 80.7251 207.32L83.3245 205.658C90.4799 201.083 96.5214 194.965 101.007 187.752H117.467C121.952 194.965 127.994 201.083 135.149 205.658L137.749 207.32C137.944 207.509 138.079 207.751 138.135 208.017C138.192 208.283 138.168 208.559 138.066 208.811C137.964 209.063 137.79 209.278 137.565 209.43C137.34 209.582 137.074 209.663 136.803 209.663Z" fill="#30B52D"/>
<path d="M135.149 205.658C134.21 205.058 133.292 204.431 132.393 203.777H96.126C95.8544 203.777 95.589 203.696 95.3639 203.544C95.1387 203.392 94.9641 203.176 94.8625 202.924C94.7608 202.673 94.7367 202.396 94.7932 202.13C94.8498 201.865 94.9844 201.622 95.1799 201.434L97.7794 199.771C102.881 196.507 107.429 192.45 111.253 187.752H101.007C96.5214 194.965 90.4799 201.083 83.3245 205.658L80.7251 207.32C80.5297 207.509 80.395 207.751 80.3385 208.017C80.2819 208.283 80.306 208.559 80.4077 208.811C80.5094 209.063 80.684 209.278 80.9091 209.43C81.1343 209.582 81.3996 209.663 81.6712 209.663H136.803C137.074 209.663 137.339 209.582 137.565 209.43C137.79 209.278 137.964 209.063 138.066 208.811C138.168 208.559 138.192 208.283 138.135 208.017C138.079 207.751 137.944 207.509 137.749 207.32L135.149 205.658Z" fill="#30B52D"/>
<path d="M72.8242 35.5879C73.7537 36.798 74.6373 38.032 75.5455 39.2531L78.1917 42.9572C79.9506 45.4293 81.6664 47.9238 83.3616 50.4289C86.083 55.786 88.8809 61.1035 91.6369 66.4428L108.232 98.4476L124.827 130.452L133.124 146.455C134.18 149.291 135.236 152.128 136.245 154.989L137.756 159.281C138.238 160.724 138.74 162.155 139.204 163.607C138.284 162.392 137.404 161.156 136.502 159.932L133.865 156.223C132.108 153.75 130.398 151.252 128.689 148.755L120.391 132.752L103.796 100.747L87.2014 68.7426C84.4257 63.4136 81.6919 58.0628 78.8817 52.7517C77.8112 49.9227 76.7612 47.083 75.7543 44.221L74.2517 39.9239C73.7771 38.478 73.2777 37.0449 72.8242 35.5879Z" fill="#EE781D"/>
<path d="M109.288 166.106C94.0177 166.099 79.1916 160.964 67.1884 151.523C55.1851 142.083 46.7003 128.885 43.0948 114.046C39.4893 99.207 40.9721 83.587 47.3054 69.6915C53.6386 55.796 64.4553 44.4301 78.0205 37.4171C78.6091 37.1138 79.294 37.0566 79.9248 37.2581C80.5555 37.4595 81.0805 37.9031 81.3843 38.4914C81.6882 39.0797 81.746 39.7646 81.5452 40.3955C81.3444 41.0264 80.9013 41.5518 80.3133 41.8563C65.4497 49.5319 54.2392 62.7918 49.1427 78.725C44.0462 94.6582 45.4802 111.963 53.1299 126.84C60.7796 141.716 74.0199 152.95 89.9441 158.074C105.868 163.199 123.175 161.795 138.066 154.171C138.655 153.869 139.341 153.814 139.971 154.017C140.602 154.221 141.126 154.667 141.428 155.256C141.729 155.846 141.785 156.532 141.581 157.162C141.378 157.793 140.932 158.316 140.342 158.618C130.726 163.528 120.085 166.094 109.288 166.106Z" fill="#409CB5"/>
<path d="M109.288 152.98C139.672 152.98 164.304 128.348 164.304 97.9636C164.304 67.5789 139.672 42.9473 109.288 42.9473C78.9031 42.9473 54.2715 67.5789 54.2715 97.9636C54.2715 128.348 78.9031 152.98 109.288 152.98Z" fill="#409CB5"/>
<path d="M110.896 164.497L110.851 162.681C112.639 162.637 114.443 162.519 116.213 162.328L116.408 164.134C114.588 164.33 112.734 164.452 110.896 164.497ZM105.374 164.4C103.539 164.292 101.69 164.104 99.879 163.843L100.138 162.045C101.899 162.299 103.697 162.481 105.481 162.587L105.374 164.4ZM121.871 163.316L121.527 161.532C123.282 161.194 125.041 160.779 126.757 160.298L127.248 162.047C125.484 162.542 123.675 162.968 121.871 163.316ZM94.45 162.826C92.6645 162.413 90.8731 161.918 89.1257 161.356L89.6824 159.627C91.3815 160.173 93.1233 160.654 94.8594 161.056L94.45 162.826ZM132.5 160.337L131.867 158.634C133.539 158.012 135.206 157.311 136.821 156.553L137.593 158.197C135.934 158.977 134.22 159.697 132.5 160.337ZM83.9403 159.443C82.2505 158.739 80.5661 157.952 78.9338 157.105L79.77 155.493C81.3581 156.316 82.9964 157.081 84.6398 157.767L83.9403 159.443ZM74.1387 154.362C72.5876 153.387 71.056 152.335 69.5862 151.234L70.6756 149.78C72.1056 150.851 73.596 151.875 75.1052 152.824L74.1387 154.362ZM65.3054 147.743C63.9335 146.528 62.5939 145.241 61.324 143.917L62.6352 142.659C63.8712 143.948 65.1748 145.201 66.5101 146.383L65.3054 147.743ZM57.6677 139.778C56.5098 138.355 55.3976 136.867 54.3619 135.355L55.8602 134.328C56.8682 135.798 57.9505 137.246 59.0774 138.632L57.6677 139.778ZM51.4299 130.677C50.5204 129.084 49.6672 127.434 48.8937 125.773L50.5406 125.006C51.2931 126.622 52.123 128.226 53.0077 129.777L51.4299 130.677ZM46.7737 120.676C46.1403 118.954 45.5727 117.186 45.0872 115.421L46.8389 114.939C47.311 116.655 47.8628 118.375 48.4787 120.049L46.7737 120.676ZM43.8475 110.038C43.5115 108.235 43.2482 106.395 43.065 104.571L44.8728 104.39C45.0509 106.164 45.3068 107.952 45.6337 109.706L43.8475 110.038ZM42.7435 99.0583C42.7373 98.6942 42.7342 98.329 42.7344 97.9627C42.7344 96.4932 42.7841 95.0033 42.8819 93.5347L44.6947 93.6553C44.5995 95.084 44.5512 96.5331 44.5512 97.9627C44.5512 98.3189 44.5541 98.6741 44.5598 99.0282L42.7435 99.0583ZM45.276 88.3126L43.4796 88.0412C43.7541 86.2248 44.1083 84.3995 44.5326 82.6164L46.3002 83.0369C45.8874 84.7713 45.543 86.5459 45.276 88.3126ZM47.759 77.865L46.0322 77.2999C46.6036 75.5554 47.2547 73.8144 47.9679 72.1253L49.6415 72.8324C48.948 74.4753 48.3146 76.1684 47.759 77.865ZM51.9345 67.9718L50.3248 67.1291C51.1747 65.5056 52.1037 63.8964 53.086 62.3457L54.6207 63.318C53.665 64.8265 52.7613 66.3923 51.9345 67.9718ZM57.6817 58.9023L56.2326 57.8067C57.3375 56.3452 58.5187 54.9107 59.743 53.5428L61.0967 54.7546C59.9057 56.0853 58.7567 57.4807 57.6817 58.9023ZM64.8426 50.9054L63.594 49.5853C64.9275 48.3239 66.3292 47.1045 67.7597 45.9606L68.8943 47.38C67.5028 48.4924 66.1396 49.6785 64.8426 50.9054ZM73.2241 44.2027L72.2114 42.6946C73.7317 41.674 75.3157 40.7035 76.9194 39.811L77.8032 41.3981C76.2434 42.2666 74.7027 43.21 73.2241 44.2027ZM111.366 55.9059C110.373 57.6125 108.6 60.6485 105.253 61.7743C102.278 62.7728 100.342 61.489 95.7168 62.0188C92.9202 62.3397 91.1626 62.5384 89.3594 63.7305C86.741 65.4624 86.8989 67.3626 84.958 69.3543C80.7707 73.6538 72.9207 72.1357 72.4877 72.044C69.1473 71.2898 66.1159 69.536 63.7971 67.0161C68.8383 59.5951 75.62 53.5214 83.5498 49.3257C91.4796 45.1299 100.316 42.9398 109.287 42.9465C110.663 42.9465 112.033 42.9975 113.383 43.0943C113.923 46.4513 114.01 51.3773 111.366 55.9059ZM94.4942 77.1789C98.3349 72.4307 102.288 67.5434 107.209 68.1318C111.089 68.5958 114.699 72.3597 115.523 76.2008C116.552 80.9982 112.652 83.2013 114.056 87.6931C115.01 90.7475 116.994 90.3092 119.924 94.7841C121.308 96.898 123.645 100.468 123.347 105.054C123.279 106.103 122.723 112.58 117.234 115.324C113.627 117.126 109.11 116.706 106.231 114.59C102.906 112.145 103.974 109.06 100.852 107.499C98.005 106.076 96.3478 108.257 91.5599 107.254C89.795 106.885 86.5375 106.203 84.958 103.831C82.7883 100.573 84.8945 95.7897 88.1367 88.4267C89.9631 84.2791 91.4115 80.9901 94.4942 77.1789ZM164.304 97.9628C164.306 102.609 163.722 107.237 162.567 111.737C157.508 112.929 151.548 112.726 146.821 109.7C145.425 108.808 141.859 106.526 140.952 102.609C140.27 99.6541 141.757 98.6251 141.931 93.317C142.007 90.9075 142.109 87.8001 140.708 84.5144C139.073 80.6786 137.086 80.592 135.818 77.668C133.923 73.3023 135.848 67.7701 138.018 64.7086C140.331 61.4484 143.922 59.5941 147.85 58.7281C153.069 63.8414 157.213 69.9463 160.038 76.6841C162.864 83.4219 164.314 90.6565 164.304 97.9628ZM126.526 128.038C125.344 126.088 125.675 122.819 127.259 121.681C128.714 120.636 130.394 121.984 132.394 120.703C133.861 119.764 133.549 118.66 134.84 118.013C136.62 117.12 139.554 118.045 140.952 119.969C142.753 122.447 141.647 126.085 139.974 128.038C136.582 132.001 128.677 131.589 126.526 128.038ZM110.235 152.964C109.919 152.974 109.603 152.979 109.287 152.979C100.452 152.985 91.7463 150.861 83.9071 146.786C76.0679 142.711 69.3269 136.806 64.2557 129.572C65.0065 127.557 66.1414 125.708 67.5974 124.126C68.0456 123.642 73.6492 117.799 80.3123 119.236C82.6231 119.8 84.7364 120.984 86.4252 122.659C88.5749 124.849 88.0655 126.077 89.8484 127.549C92.1866 129.48 94.1988 128.303 99.14 129.261C101.932 129.801 105.859 130.565 108.432 133.418C111.07 136.342 111.096 140.142 111.121 143.932C111.137 145.761 111.162 149.546 110.235 152.964Z" fill="#0493A3"/>
<path d="M41.5873 115.093C40.8788 116.046 40.2 117.019 39.5334 117.997C38.8649 118.974 38.2246 119.968 37.6127 120.978C37.5587 121.067 37.4714 121.132 37.37 121.157C37.2686 121.182 37.1613 121.166 37.0719 121.112C36.9824 121.058 36.9181 120.97 36.893 120.869C36.8679 120.768 36.8841 120.66 36.9381 120.571C36.9426 120.564 36.9478 120.555 36.9527 120.549C37.639 119.568 38.3527 118.61 39.0938 117.674C39.8349 116.738 40.6136 115.834 41.4029 114.943C41.4232 114.92 41.4516 114.906 41.4822 114.903C41.5128 114.901 41.5431 114.91 41.5669 114.929C41.5907 114.949 41.6061 114.977 41.6099 115.007C41.6137 115.037 41.6056 115.068 41.5873 115.093ZM34.412 127.252C33.5058 129.381 32.8845 131.621 32.5641 133.913C32.5514 134.015 32.5188 134.114 32.4681 134.203C32.4174 134.292 32.3497 134.37 32.2687 134.433C32.1878 134.496 32.0952 134.543 31.9963 134.57C31.8974 134.597 31.7941 134.605 31.6923 134.592C31.5905 134.579 31.4922 134.547 31.4031 134.496C31.3139 134.445 31.2355 134.378 31.1725 134.297C31.1095 134.216 31.0631 134.123 31.0358 134.024C31.0086 133.925 31.0011 133.822 31.0138 133.72L31.0176 133.693C31.4431 131.284 32.2059 128.947 33.2834 126.751C33.3521 126.605 33.4753 126.492 33.6265 126.436C33.7777 126.379 33.9449 126.384 34.0923 126.45C34.2398 126.515 34.3558 126.636 34.4156 126.786C34.4753 126.936 34.4741 127.103 34.412 127.252ZM33.2678 140.502C33.5159 140.989 33.7128 141.5 33.9915 141.968C34.2722 142.435 34.5883 142.88 34.937 143.299C35.6474 144.138 36.4706 144.875 37.3833 145.488C37.6013 145.636 37.7514 145.865 37.8007 146.124C37.8499 146.383 37.7942 146.651 37.6459 146.869C37.4975 147.087 37.2687 147.237 37.0096 147.286C36.7506 147.336 36.4826 147.28 36.2646 147.132L36.2445 147.118C35.2005 146.377 34.2642 145.495 33.4626 144.497C33.063 143.993 32.7028 143.458 32.3852 142.898C32.0697 142.337 31.8444 141.732 31.5758 141.15C31.477 140.936 31.466 140.691 31.5453 140.469C31.6245 140.247 31.7877 140.065 31.9998 139.962C32.2119 139.858 32.456 139.842 32.6797 139.917C32.9034 139.992 33.0889 140.151 33.1964 140.361L33.2678 140.502ZM43.5716 148.132C45.8175 148.667 48.1068 149 50.4121 149.127C50.6926 149.145 50.9545 149.273 51.1405 149.484C51.3265 149.695 51.4215 149.971 51.4047 150.251C51.3878 150.532 51.2606 150.794 51.0507 150.981C50.8408 151.168 50.5654 151.264 50.2848 151.249C47.8425 151.126 45.4187 150.758 43.0503 150.149C42.7829 150.08 42.5538 149.907 42.4135 149.669C42.2733 149.431 42.2333 149.147 42.3024 148.88C42.3716 148.612 42.5441 148.383 42.7821 148.243C43.0201 148.103 43.3041 148.063 43.5716 148.132ZM57.4084 149.142C59.7465 149.019 62.085 148.815 64.4239 148.527C64.6546 148.499 64.8872 148.562 65.0719 148.703C65.2567 148.844 65.3791 149.052 65.4129 149.282C65.4467 149.512 65.3892 149.746 65.2528 149.934C65.1164 150.122 64.9119 150.249 64.6828 150.289C62.3155 150.704 59.9287 150.999 57.5316 151.173C57.2624 151.191 56.9967 151.102 56.7932 150.925C56.5896 150.748 56.4647 150.497 56.446 150.228C56.4273 149.959 56.5164 149.693 56.6935 149.49C56.8707 149.286 57.1214 149.161 57.3907 149.143L57.4084 149.142ZM71.41 147.417L78.3359 145.893L78.3652 145.886C78.5088 145.855 78.6591 145.881 78.7838 145.959C78.9086 146.036 78.998 146.16 79.033 146.303C79.0679 146.446 79.0456 146.596 78.9709 146.723C78.8961 146.85 78.7748 146.942 78.6328 146.98L71.7172 148.844C71.5303 148.894 71.3311 148.868 71.1634 148.772C70.9957 148.675 70.8732 148.516 70.8229 148.329C70.7725 148.142 70.7984 147.943 70.8948 147.775C70.9913 147.607 71.1504 147.484 71.3372 147.434C71.3474 147.431 71.3575 147.429 71.3677 147.426L71.41 147.417ZM85.1798 143.988C87.4304 143.25 89.6708 142.478 91.9126 141.709L91.9271 141.704C92.0191 141.673 92.1198 141.679 92.2073 141.721C92.2947 141.764 92.3618 141.839 92.3937 141.931C92.4257 142.023 92.4199 142.124 92.3778 142.211C92.3356 142.299 92.2604 142.366 92.1687 142.398C89.9245 143.191 87.679 143.979 85.4435 144.802C85.3908 144.822 85.3348 144.83 85.2786 144.828C85.2225 144.826 85.1673 144.813 85.1163 144.789C85.0653 144.766 85.0195 144.732 84.9814 144.691C84.9433 144.65 84.9137 144.601 84.8943 144.548C84.8749 144.496 84.866 144.44 84.8683 144.384C84.8705 144.327 84.8838 144.272 84.9074 144.221C84.931 144.17 84.9643 144.124 85.0056 144.086C85.0469 144.048 85.0953 144.019 85.148 143.999L85.1607 143.995L85.1798 143.988ZM98.5274 139.098C100.699 138.147 102.855 137.159 105.017 136.19L105.031 136.183C105.084 136.16 105.14 136.147 105.197 136.145C105.254 136.144 105.311 136.153 105.364 136.174C105.418 136.194 105.467 136.225 105.508 136.264C105.55 136.303 105.583 136.35 105.607 136.403C105.63 136.455 105.643 136.511 105.644 136.568C105.646 136.625 105.636 136.682 105.616 136.736C105.596 136.789 105.565 136.838 105.526 136.879C105.487 136.921 105.44 136.954 105.387 136.978L105.381 136.981C103.191 137.917 100.994 138.834 98.8142 139.788C98.7693 139.807 98.7208 139.818 98.6717 139.819C98.6226 139.82 98.5738 139.812 98.528 139.794C98.4822 139.776 98.4404 139.749 98.405 139.715C98.3696 139.681 98.3412 139.641 98.3215 139.596C98.3018 139.551 98.2912 139.502 98.2903 139.453C98.2894 139.404 98.2982 139.355 98.3162 139.31C98.3341 139.264 98.361 139.222 98.3951 139.187C98.4292 139.151 98.47 139.123 98.5151 139.104L98.5274 139.098ZM111.368 132.995L114.491 131.296C115.532 130.732 116.572 130.166 117.597 129.572C117.677 129.526 117.765 129.496 117.856 129.484C117.948 129.471 118.041 129.477 118.13 129.501C118.22 129.525 118.303 129.566 118.377 129.622C118.45 129.678 118.511 129.748 118.558 129.828C118.604 129.908 118.634 129.996 118.646 130.088C118.658 130.179 118.652 130.273 118.628 130.362C118.605 130.451 118.563 130.535 118.507 130.608C118.451 130.681 118.381 130.743 118.301 130.789L118.277 130.802L118.27 130.806C117.214 131.359 116.141 131.879 115.074 132.41L111.873 133.999C111.741 134.065 111.589 134.076 111.449 134.03C111.309 133.985 111.192 133.886 111.124 133.756C111.056 133.625 111.042 133.473 111.085 133.333C111.128 133.192 111.224 133.073 111.353 133.003L111.368 132.995ZM123.694 125.931L129.677 122.118L129.706 122.099C129.814 122.031 129.933 121.984 130.058 121.962C130.184 121.94 130.312 121.943 130.436 121.971C130.56 121.998 130.678 122.05 130.782 122.123C130.886 122.196 130.975 122.289 131.044 122.396C131.112 122.503 131.159 122.623 131.181 122.748C131.203 122.873 131.2 123.002 131.172 123.126C131.145 123.25 131.093 123.368 131.02 123.472C130.947 123.576 130.854 123.665 130.747 123.733L130.721 123.749L124.565 127.405C124.372 127.52 124.142 127.554 123.924 127.501C123.705 127.447 123.517 127.31 123.399 127.119C123.281 126.927 123.243 126.697 123.293 126.478C123.343 126.259 123.477 126.069 123.667 125.948L123.694 125.931ZM135.52 118.103L141.226 113.904L141.262 113.877C141.382 113.789 141.517 113.726 141.661 113.691C141.804 113.655 141.954 113.648 142.1 113.671C142.246 113.693 142.387 113.744 142.514 113.82C142.64 113.897 142.751 113.998 142.838 114.117C142.926 114.236 142.99 114.372 143.025 114.515C143.06 114.659 143.067 114.808 143.045 114.955C143.023 115.101 142.972 115.242 142.895 115.368C142.819 115.495 142.718 115.605 142.599 115.693L142.584 115.704L136.74 119.86C136.51 120.023 136.225 120.089 135.947 120.043C135.669 119.997 135.42 119.844 135.255 119.615C135.089 119.387 135.021 119.103 135.064 118.824C135.107 118.546 135.259 118.296 135.486 118.128L135.52 118.103ZM146.746 109.476L152.049 104.801L152.096 104.76C152.343 104.542 152.667 104.432 152.996 104.453C153.324 104.474 153.631 104.624 153.849 104.871C154.067 105.119 154.178 105.442 154.157 105.771C154.137 106.1 153.987 106.407 153.74 106.625L153.725 106.638L148.256 111.304C148.018 111.506 147.71 111.606 147.398 111.583C147.087 111.559 146.797 111.414 146.593 111.178C146.388 110.942 146.285 110.635 146.305 110.324C146.326 110.012 146.469 109.721 146.702 109.514L146.746 109.476ZM157.107 99.8855C158.747 98.2046 160.322 96.4645 161.84 94.6833C162.058 94.4284 162.367 94.2699 162.7 94.2424C163.034 94.2149 163.365 94.3206 163.621 94.5364C163.877 94.7522 164.037 95.0606 164.066 95.3941C164.095 95.7276 163.991 96.0591 163.777 96.3161C162.232 98.1663 160.596 99.9335 158.92 101.654C158.686 101.895 158.365 102.033 158.029 102.037C157.693 102.041 157.37 101.912 157.129 101.678C156.888 101.443 156.751 101.123 156.746 100.787C156.742 100.451 156.871 100.127 157.106 99.8865L157.107 99.8855ZM166.146 89.1577C167.483 87.2608 168.693 85.2773 169.767 83.2203C169.907 82.9499 170.147 82.7453 170.436 82.6508C170.726 82.5563 171.04 82.5794 171.313 82.7151C171.585 82.8509 171.793 83.0884 171.891 83.3762C171.99 83.6641 171.971 83.9791 171.839 84.2533C170.767 86.4379 169.535 88.5402 168.152 90.5429C167.97 90.8099 167.69 90.9939 167.373 91.0543C167.055 91.1147 166.727 91.0466 166.46 90.8651C166.192 90.6835 166.008 90.4033 165.948 90.086C165.887 89.7687 165.955 89.4403 166.136 89.173L166.146 89.1577ZM172.227 76.8321C172.8 74.6743 172.882 72.4155 172.467 70.2218L172.466 70.2179C172.413 69.9732 172.458 69.7174 172.592 69.5056C172.725 69.2939 172.937 69.1431 173.181 69.0858C173.424 69.0286 173.681 69.0694 173.895 69.1996C174.109 69.3297 174.263 69.5387 174.324 69.7815C174.894 72.2566 174.89 74.8294 174.313 77.3028C174.284 77.4404 174.228 77.5709 174.149 77.6868C174.069 77.8027 173.967 77.9018 173.85 77.9784C173.732 78.0551 173.6 78.1077 173.462 78.1333C173.323 78.1589 173.181 78.157 173.044 78.1277C172.906 78.0984 172.776 78.0423 172.66 77.9626C172.544 77.8828 172.445 77.7811 172.369 77.6631C172.293 77.5451 172.24 77.4131 172.215 77.2749C172.189 77.1366 172.192 76.9946 172.221 76.8572L172.227 76.8321ZM169.228 64.6075C167.518 63.0936 165.518 61.942 163.35 61.2222C163.192 61.1665 163.062 61.0512 162.988 60.9008C162.914 60.7505 162.902 60.5771 162.954 60.4178C163.006 60.2585 163.119 60.126 163.267 60.0487C163.416 59.9713 163.589 59.9553 163.749 60.004C166.141 60.6785 168.37 61.8319 170.302 63.3941C170.383 63.4627 170.45 63.5466 170.499 63.6411C170.548 63.7356 170.578 63.8388 170.587 63.9448C170.596 64.0508 170.584 64.1576 170.552 64.259C170.52 64.3605 170.468 64.4546 170.4 64.5359C170.331 64.6173 170.247 64.6844 170.153 64.7334C170.058 64.7824 169.955 64.8122 169.849 64.8213C169.743 64.8304 169.636 64.8185 169.535 64.7863C169.433 64.7541 169.339 64.7023 169.258 64.6337C169.249 64.6259 169.237 64.6156 169.228 64.6075ZM156.531 59.67C154.186 59.3797 151.825 59.2413 149.462 59.2555C149.408 59.2554 149.356 59.2343 149.316 59.1965C149.277 59.1587 149.254 59.1072 149.252 59.0528C149.25 58.9984 149.269 58.9453 149.306 58.9047C149.342 58.8641 149.392 58.8391 149.447 58.835C151.833 58.6521 154.229 58.6333 156.618 58.7786C156.677 58.7823 156.734 58.7976 156.787 58.8235C156.84 58.8494 156.887 58.8854 156.926 58.9296C156.965 58.9737 156.995 59.0251 157.014 59.0807C157.033 59.1364 157.041 59.1953 157.037 59.254C157.033 59.3128 157.018 59.3702 156.992 59.423C156.966 59.4759 156.93 59.5231 156.886 59.562C156.842 59.6009 156.79 59.6307 156.735 59.6498C156.679 59.6688 156.62 59.6767 156.562 59.673C156.552 59.6723 156.541 59.6713 156.531 59.67Z" fill="#E6F4F6"/>
<path d="M147.642 39.658C145.275 45.8836 127.858 61.2498 124.294 64.3509C124.232 64.4049 124.157 64.4411 124.076 64.4557C123.995 64.4702 123.912 64.4624 123.836 64.4333C123.759 64.4041 123.692 64.3547 123.641 64.2902C123.59 64.2257 123.558 64.1486 123.548 64.0672C122.945 59.3812 120.139 36.3252 122.507 30.0996C123.774 26.7665 126.314 24.0734 129.567 22.6127C132.82 21.1521 136.52 21.0436 139.854 22.3111C143.187 23.5787 145.88 26.1184 147.341 29.3715C148.801 32.6247 148.91 36.3248 147.642 39.658Z" fill="#FD6769"/>
<path d="M135.075 41.1532C138.541 41.1532 141.35 38.3439 141.35 34.8786C141.35 31.4132 138.541 28.604 135.075 28.604C131.61 28.604 128.801 31.4132 128.801 34.8786C128.801 38.3439 131.61 41.1532 135.075 41.1532Z" fill="#E6F4F6"/>
<path d="M91.7535 116.436C92.271 120.234 87.7005 132.794 86.7529 135.342C86.7366 135.386 86.7086 135.425 86.6718 135.455C86.635 135.484 86.5908 135.503 86.5441 135.51C86.4973 135.516 86.4497 135.51 86.4063 135.491C86.363 135.472 86.3255 135.442 86.298 135.404C84.703 133.202 76.9381 122.324 76.4205 118.526C76.1434 116.493 76.6854 114.433 77.9272 112.799C79.169 111.165 81.0089 110.092 83.0421 109.815C85.0754 109.537 87.1355 110.079 88.7692 111.321C90.4029 112.563 91.4764 114.403 91.7535 116.436Z" fill="#FD6769"/>
<path d="M84.0911 121.09C86.0851 121.09 87.7016 119.473 87.7016 117.479C87.7016 115.485 86.0851 113.869 84.0911 113.869C82.097 113.869 80.4805 115.485 80.4805 117.479C80.4805 119.473 82.097 121.09 84.0911 121.09Z" fill="#E6F4F6"/>
<path d="M131.318 198.522L153.282 209.664L175.246 198.522L197.209 209.664L219.173 198.522L241.141 209.664L263.108 198.522L247.259 154.69L230.575 163.152L213.891 154.69L197.21 163.152L180.529 154.69L163.849 163.152L147.168 154.69L131.318 198.522Z" fill="#409CB5"/>
<path d="M131.318 198.522L153.282 209.664L175.246 198.522L197.209 209.664L219.173 198.522L241.141 209.664L263.108 198.522L247.259 154.69L230.575 163.152L213.891 154.69L197.21 163.152L180.529 154.69L163.849 163.152L147.168 154.69L131.318 198.522Z" fill="#409CB5"/>
<path d="M142.073 168.79C145.029 170.151 147.967 171.549 150.903 172.949L155.311 175.044L159.706 177.163H159.242C162.306 175.529 165.378 173.909 168.456 172.303C171.529 170.686 174.609 169.082 177.695 167.491L178.048 167.309L178.412 167.491L187.73 172.141L197.029 176.828H196.225L205.526 172.138C208.624 170.569 211.729 169.017 214.843 167.481L215.215 167.296L215.571 167.481C218.655 169.076 221.74 170.668 224.812 172.287C227.887 173.899 230.966 175.506 234.029 177.142L233.544 177.142C236.635 175.636 239.737 174.15 242.848 172.683L247.509 170.47C249.06 169.727 250.627 169.016 252.185 168.288C250.677 169.115 249.177 169.96 247.662 170.772L243.123 173.225C240.1 174.866 237.069 176.49 234.029 178.099L233.798 178.221L233.544 178.099C230.414 176.593 227.299 175.059 224.181 173.531C221.06 172.009 217.953 170.46 214.843 168.915H215.57C212.488 170.513 209.4 172.101 206.308 173.68L197.029 178.413L196.627 178.618L196.225 178.413L186.951 173.676L177.695 168.905H178.412C175.306 170.456 172.192 171.992 169.071 173.515C165.956 175.049 162.834 176.57 159.706 178.078L159.462 178.196L159.242 178.078L154.937 175.781L150.643 173.461C147.78 171.917 144.917 170.372 142.073 168.79ZM257.679 183.749L252.716 186.454L247.737 189.128C244.42 190.915 241.095 192.688 237.763 194.445L237.53 194.567L237.281 194.445L227.13 189.477L217.003 184.462H217.726C214.379 186.19 211.035 187.924 207.676 189.629L197.61 194.764L197.208 194.969L196.805 194.764L186.741 189.629C183.384 187.924 180.039 186.193 176.694 184.464H177.419L167.292 189.479L157.141 194.447L156.891 194.57L156.657 194.447C153.323 192.694 150 190.922 146.687 189.13L141.709 186.455L136.748 183.749L141.862 186.153L146.961 188.589C150.362 190.208 153.756 191.842 157.141 193.492H156.657L166.663 188.239L176.694 183.034L177.049 182.85L177.419 183.034C180.791 184.712 184.163 186.387 187.522 188.089L197.61 193.176H196.805L206.896 188.09C210.256 186.388 213.631 184.715 217.003 183.036L217.372 182.852L217.726 183.036L227.756 188.242L237.763 193.494H237.281C240.665 191.84 244.06 190.205 247.464 188.591L252.564 186.154L257.679 183.749Z" fill="#0493A3"/>
<path d="M163.85 163.152C163.329 167.11 162.636 171.029 161.884 174.934C161.523 176.89 161.101 178.832 160.708 180.781L159.435 186.605L158.068 192.409C157.58 194.336 157.124 196.271 156.603 198.19C155.595 202.037 154.525 205.87 153.283 209.664C153.802 205.706 154.494 201.787 155.247 197.882C155.607 195.926 156.031 193.984 156.423 192.035L157.698 186.211L159.067 180.408C159.555 178.481 160.013 176.547 160.533 174.627C161.541 170.78 162.61 166.946 163.85 163.152ZM180.531 154.69C180.456 158.387 180.208 162.063 179.897 165.731C179.759 167.567 179.557 169.396 179.384 171.228L178.773 176.713L178.066 182.186C177.796 184.007 177.56 185.831 177.258 187.648C176.688 191.285 176.056 194.914 175.247 198.522C175.319 194.825 175.567 191.149 175.878 187.481C176.016 185.645 176.22 183.817 176.391 181.984L177.005 176.5L177.714 171.027C177.982 169.206 178.221 167.382 178.522 165.565C179.093 161.928 179.725 158.299 180.531 154.69ZM197.211 163.152C197.58 167.028 197.773 170.904 197.904 174.78C197.986 176.718 198.004 178.656 198.052 180.594L198.101 186.408L198.054 192.222C198.004 194.16 197.989 196.098 197.906 198.036C197.775 201.912 197.581 205.788 197.21 209.664C196.84 205.788 196.646 201.912 196.516 198.036C196.433 196.098 196.417 194.16 196.367 192.222L196.321 186.408L196.37 180.594C196.418 178.656 196.437 176.718 196.519 174.78C196.65 170.904 196.843 167.028 197.211 163.152ZM213.893 154.69C214.699 158.299 215.331 161.928 215.901 165.566C216.202 167.382 216.441 169.206 216.709 171.027L217.418 176.5L218.031 181.985C218.202 183.817 218.407 185.645 218.544 187.481C218.855 191.15 219.103 194.825 219.175 198.522C218.366 194.914 217.734 191.285 217.164 187.648C216.862 185.831 216.626 184.007 216.357 182.186L215.65 176.713L215.039 171.228C214.866 169.396 214.664 167.567 214.526 165.731C214.216 162.063 213.967 158.387 213.893 154.69ZM230.577 163.152C231.816 166.946 232.885 170.78 233.893 174.627C234.414 176.547 234.871 178.481 235.359 180.408L236.728 186.211L238.003 192.035C238.394 193.984 238.819 195.926 239.179 197.882C239.932 201.787 240.623 205.706 241.142 209.664C239.9 205.87 238.831 202.037 237.823 198.19C237.302 196.271 236.846 194.336 236.358 192.409L234.991 186.605L233.719 180.781C233.325 178.832 232.903 176.89 232.543 174.934C231.79 171.029 231.098 167.11 230.577 163.152Z" fill="#0493A3"/>
<path d="M156.599 181.616L152.468 180.61C152.149 180.533 151.828 180.728 151.75 181.047L150.429 186.472C150.351 186.79 150.547 187.111 150.866 187.189L154.997 188.195C155.315 188.273 155.637 188.077 155.714 187.759L157.035 182.334C157.113 182.015 156.917 181.694 156.599 181.616Z" fill="#30B52D"/>
<path d="M227.538 169.339L223.321 169.888C222.996 169.93 222.767 170.228 222.809 170.554L223.531 176.09C223.573 176.415 223.871 176.645 224.196 176.602L228.413 176.053C228.738 176.01 228.967 175.712 228.925 175.387L228.203 169.851C228.161 169.525 227.863 169.296 227.538 169.339Z" fill="#30B52D"/>
<path d="M254.549 181.298L250.516 182.645C250.205 182.749 250.037 183.086 250.141 183.397L251.911 188.692C252.015 189.003 252.351 189.171 252.662 189.067L256.695 187.72C257.006 187.616 257.174 187.28 257.07 186.968L255.301 181.673C255.197 181.362 254.86 181.194 254.549 181.298Z" fill="#30B52D"/>
<path d="M182.967 190.92L178.777 190.335C178.618 190.313 178.457 190.355 178.329 190.452C178.201 190.548 178.117 190.692 178.095 190.85L176.906 199.364L182.035 201.966L183.482 191.603C183.504 191.444 183.462 191.283 183.366 191.155C183.269 191.027 183.126 190.943 182.967 190.92ZM139.113 176.969C139.977 176.475 140.882 176.058 141.818 175.721C142.288 175.554 142.764 175.403 143.248 175.277L144.724 174.964C144.754 174.957 144.785 174.957 144.815 174.962C144.845 174.968 144.873 174.979 144.899 174.996C144.925 175.012 144.947 175.034 144.964 175.059C144.981 175.084 144.993 175.112 145 175.142C145.006 175.172 145.007 175.203 145.001 175.233C144.995 175.263 144.984 175.291 144.967 175.317C144.95 175.342 144.929 175.364 144.904 175.382C144.878 175.399 144.85 175.411 144.82 175.417L144.805 175.42L144.775 175.424L143.328 175.627C142.846 175.717 142.369 175.833 141.895 175.964C140.945 176.233 140.016 176.568 139.113 176.969ZM150.693 174.772L156.629 174.773C156.764 174.772 156.893 174.825 156.988 174.919C157.084 175.014 157.138 175.142 157.139 175.276C157.139 175.411 157.087 175.54 156.992 175.635C156.898 175.731 156.769 175.785 156.635 175.786C156.63 175.786 156.619 175.785 156.614 175.785L150.675 175.572C150.57 175.568 150.471 175.524 150.399 175.448C150.326 175.372 150.287 175.27 150.289 175.165C150.29 175.061 150.333 174.961 150.408 174.887C150.483 174.814 150.584 174.772 150.688 174.772L150.693 174.772ZM162.562 174.774L165.509 174.7L166.982 174.664C167.473 174.661 167.966 174.611 168.458 174.586L168.475 174.585C168.632 174.577 168.785 174.632 168.901 174.737C169.017 174.842 169.087 174.989 169.095 175.145C169.103 175.301 169.049 175.454 168.944 175.571C168.839 175.687 168.693 175.757 168.537 175.766L168.532 175.766C168.036 175.788 167.543 175.834 167.043 175.834L165.549 175.86L162.56 175.913C162.409 175.915 162.264 175.858 162.156 175.754C162.047 175.649 161.985 175.506 161.981 175.356C161.978 175.205 162.035 175.06 162.139 174.951C162.242 174.842 162.385 174.778 162.536 174.774L162.562 174.774ZM174.305 173.98C176.236 173.682 178.144 173.253 180.017 172.696C180.149 172.656 180.291 172.669 180.413 172.733C180.535 172.797 180.627 172.907 180.668 173.038C180.71 173.17 180.698 173.312 180.635 173.435C180.572 173.557 180.463 173.65 180.332 173.692C178.424 174.316 176.47 174.792 174.489 175.115C174.338 175.139 174.185 175.103 174.061 175.014C173.938 174.925 173.855 174.79 173.83 174.64C173.806 174.489 173.842 174.335 173.931 174.212C174.02 174.088 174.155 174.005 174.305 173.98ZM185.445 170.531C187.189 169.64 188.843 168.583 190.384 167.375C190.442 167.33 190.514 167.31 190.587 167.317C190.659 167.325 190.726 167.361 190.773 167.417C190.819 167.473 190.842 167.545 190.837 167.617C190.831 167.69 190.797 167.758 190.743 167.806C189.239 169.136 187.599 170.302 185.849 171.285C185.75 171.34 185.633 171.354 185.524 171.323C185.415 171.293 185.322 171.22 185.267 171.121C185.211 171.022 185.198 170.905 185.228 170.796C185.259 170.687 185.332 170.594 185.431 170.539L185.445 170.531ZM194.696 163.344L195.584 162.33L194.794 163.425C194.784 163.438 194.769 163.447 194.753 163.449C194.736 163.451 194.72 163.447 194.706 163.438C194.693 163.428 194.684 163.413 194.681 163.397C194.678 163.381 194.681 163.364 194.691 163.35L194.696 163.344ZM145.865 205.896L148.17 204.026C148.177 204.02 148.186 204.016 148.194 204.013C148.203 204.011 148.212 204.01 148.221 204.011C148.23 204.012 148.239 204.014 148.247 204.019C148.255 204.023 148.262 204.029 148.268 204.036C148.274 204.043 148.278 204.051 148.28 204.06C148.283 204.069 148.284 204.078 148.283 204.087C148.282 204.096 148.279 204.105 148.275 204.113C148.271 204.121 148.265 204.128 148.258 204.134L148.254 204.136L145.865 205.896ZM153.026 200.3L158.004 196.733C158.035 196.711 158.07 196.695 158.107 196.687C158.143 196.678 158.182 196.677 158.219 196.683C158.256 196.689 158.292 196.702 158.324 196.722C158.357 196.742 158.385 196.768 158.407 196.799C158.429 196.83 158.445 196.865 158.453 196.902C158.462 196.939 158.463 196.977 158.457 197.014C158.45 197.052 158.437 197.088 158.417 197.12C158.397 197.152 158.371 197.18 158.34 197.202L158.333 197.207L158.324 197.213L153.238 200.596L153.233 200.599C153.193 200.626 153.144 200.635 153.098 200.626C153.051 200.617 153.01 200.59 152.982 200.551C152.955 200.512 152.945 200.464 152.953 200.417C152.961 200.37 152.987 200.328 153.026 200.3ZM163.127 193.371L168.383 190.211C168.43 190.183 168.483 190.164 168.538 190.156C168.592 190.147 168.648 190.15 168.702 190.163C168.756 190.177 168.806 190.201 168.851 190.234C168.895 190.267 168.933 190.308 168.962 190.355C168.99 190.403 169.009 190.455 169.017 190.51C169.025 190.565 169.023 190.621 169.009 190.675C168.996 190.728 168.972 190.779 168.939 190.823C168.906 190.868 168.865 190.906 168.817 190.934L168.812 190.938L168.794 190.947L163.501 193.979L163.488 193.986C163.407 194.033 163.31 194.045 163.219 194.021C163.129 193.997 163.051 193.938 163.003 193.857C162.956 193.776 162.942 193.68 162.965 193.588C162.989 193.497 163.047 193.419 163.127 193.371ZM173.777 187.285C175.605 186.339 177.488 185.503 179.415 184.781C179.479 184.757 179.547 184.746 179.615 184.748C179.683 184.75 179.75 184.766 179.812 184.794C179.875 184.823 179.93 184.863 179.977 184.913C180.023 184.963 180.059 185.021 180.083 185.085C180.107 185.149 180.118 185.217 180.115 185.285C180.113 185.353 180.097 185.42 180.068 185.482C180.039 185.544 179.999 185.6 179.949 185.646C179.899 185.692 179.84 185.728 179.776 185.752L179.77 185.754C177.876 186.457 176.02 187.259 174.21 188.157C174.095 188.212 173.962 188.22 173.841 188.178C173.72 188.137 173.62 188.049 173.563 187.934C173.506 187.82 173.497 187.687 173.537 187.566C173.577 187.444 173.663 187.343 173.777 187.285ZM185.399 183.148L188.485 182.767C189.525 182.667 190.572 182.651 191.615 182.719C191.763 182.728 191.902 182.796 192 182.907C192.099 183.018 192.149 183.164 192.14 183.312C192.131 183.461 192.064 183.599 191.953 183.698C191.842 183.797 191.696 183.847 191.548 183.839L191.544 183.838C191.047 183.805 190.552 183.787 190.058 183.791C189.564 183.798 189.067 183.809 188.568 183.864L185.582 184.211L185.528 184.218C185.387 184.233 185.245 184.192 185.134 184.104C185.023 184.016 184.951 183.887 184.934 183.747C184.917 183.606 184.957 183.464 185.044 183.352C185.131 183.24 185.259 183.166 185.399 183.148ZM197.737 183.51C199.749 183.866 201.762 184.218 203.766 184.607C203.918 184.637 204.051 184.725 204.138 184.853C204.225 184.981 204.257 185.138 204.228 185.289C204.199 185.441 204.111 185.575 203.984 185.662C203.856 185.749 203.699 185.782 203.548 185.754L197.542 184.658L197.531 184.656C197.38 184.628 197.245 184.542 197.157 184.415C197.07 184.288 197.036 184.132 197.063 183.98C197.09 183.829 197.177 183.694 197.303 183.606C197.429 183.518 197.586 183.483 197.737 183.51ZM209.77 185.817L215.757 187.121C215.897 187.152 216.019 187.236 216.096 187.356C216.174 187.476 216.2 187.622 216.171 187.762C216.141 187.902 216.057 188.024 215.937 188.102C215.817 188.18 215.671 188.207 215.531 188.178L215.524 188.176L209.544 186.918L209.535 186.916C209.463 186.901 209.394 186.872 209.333 186.83C209.272 186.789 209.219 186.735 209.179 186.674C209.138 186.612 209.11 186.542 209.097 186.47C209.083 186.397 209.084 186.322 209.099 186.25C209.114 186.178 209.144 186.109 209.185 186.048C209.227 185.987 209.281 185.935 209.343 185.895C209.405 185.854 209.474 185.827 209.547 185.813C209.619 185.8 209.694 185.801 209.766 185.816L209.77 185.817ZM221.702 188.349C222.682 188.483 223.672 188.522 224.659 188.465C225.158 188.45 225.653 188.36 226.151 188.312L227.643 188.146L227.691 188.141C227.819 188.126 227.948 188.163 228.049 188.243C228.15 188.323 228.215 188.44 228.23 188.567C228.246 188.695 228.21 188.824 228.131 188.926C228.052 189.027 227.936 189.094 227.808 189.11L226.264 189.31C225.747 189.364 225.236 189.46 224.714 189.479C223.664 189.547 222.61 189.513 221.567 189.377L221.563 189.377C221.426 189.359 221.303 189.287 221.219 189.178C221.135 189.069 221.099 188.931 221.117 188.794C221.135 188.658 221.206 188.534 221.316 188.451C221.425 188.367 221.563 188.33 221.699 188.348L221.702 188.349ZM233.446 186.571C235.327 185.843 237.139 184.945 238.857 183.888C238.938 183.839 239.034 183.823 239.126 183.845C239.218 183.866 239.298 183.923 239.348 184.003C239.398 184.083 239.415 184.179 239.394 184.272C239.374 184.364 239.318 184.444 239.238 184.495C237.502 185.614 235.668 186.573 233.758 187.359C233.707 187.38 233.652 187.391 233.596 187.391C233.54 187.391 233.485 187.38 233.433 187.359C233.382 187.337 233.335 187.306 233.296 187.266C233.256 187.227 233.225 187.18 233.204 187.128C233.183 187.077 233.172 187.021 233.173 186.966C233.173 186.91 233.184 186.855 233.206 186.803C233.227 186.752 233.259 186.705 233.299 186.666C233.338 186.627 233.385 186.596 233.437 186.575L233.446 186.571ZM243.703 180.27C245.206 178.913 246.564 177.403 247.754 175.764C247.783 175.725 247.825 175.699 247.872 175.691C247.919 175.683 247.968 175.694 248.007 175.722C248.046 175.749 248.073 175.791 248.082 175.838C248.091 175.885 248.081 175.934 248.054 175.974C246.903 177.68 245.578 179.262 244.099 180.693C244.072 180.72 244.039 180.741 244.004 180.755C243.968 180.769 243.931 180.775 243.893 180.775C243.854 180.774 243.817 180.766 243.782 180.751C243.747 180.736 243.715 180.714 243.689 180.687C243.662 180.659 243.642 180.627 243.628 180.591C243.614 180.556 243.607 180.518 243.607 180.48C243.608 180.442 243.616 180.405 243.631 180.37C243.646 180.335 243.668 180.303 243.696 180.277L243.703 180.27ZM250.839 170.514L251.993 167.788L250.967 170.571C250.963 170.58 250.959 170.588 250.952 170.595C250.946 170.601 250.939 170.607 250.93 170.611C250.922 170.615 250.913 170.617 250.904 170.617C250.895 170.618 250.885 170.616 250.877 170.613C250.868 170.61 250.86 170.605 250.853 170.599C250.847 170.592 250.841 170.585 250.837 170.576C250.834 170.568 250.832 170.559 250.831 170.55C250.831 170.541 250.832 170.531 250.836 170.523L250.837 170.52L250.839 170.514Z" fill="#30B52D"/>
<path d="M253.608 172.249L251.179 172.568L249.968 172.717C249.566 172.781 249.166 172.859 248.767 172.94C247.176 173.258 245.61 173.691 244.082 174.236C242.569 174.81 241.102 175.496 239.692 176.29C238.262 177.064 236.835 177.852 235.411 178.653C232.567 180.257 229.705 181.832 226.842 183.406L218.223 188.075C216.785 188.85 215.296 189.558 213.836 190.302L211.635 191.405C210.907 191.784 210.16 192.123 209.398 192.434C206.355 193.705 203.248 194.744 200.146 195.769C193.942 197.822 187.709 199.775 181.453 201.671C187.558 199.339 193.688 197.079 199.843 194.893C202.907 193.765 205.994 192.709 208.955 191.401C210.453 190.777 211.874 189.977 213.329 189.258C214.775 188.511 216.232 187.807 217.667 187.026C223.425 183.947 229.193 180.885 234.971 177.841C236.421 177.087 237.866 176.322 239.338 175.601C240.807 174.847 242.331 174.207 243.897 173.687C245.475 173.22 247.085 172.867 248.713 172.631C249.119 172.572 249.525 172.515 249.933 172.473L251.16 172.391L253.608 172.249Z" fill="#30B52D"/>
<path d="M213.895 146.511C213.895 151.611 205.612 167.35 203.904 170.54C203.875 170.595 203.831 170.642 203.777 170.674C203.723 170.706 203.662 170.724 203.599 170.724C203.536 170.724 203.474 170.706 203.421 170.674C203.367 170.642 203.323 170.595 203.293 170.54C201.586 167.35 193.303 151.611 193.303 146.511C193.303 143.78 194.388 141.161 196.318 139.231C198.249 137.3 200.868 136.215 203.599 136.215C206.33 136.215 208.948 137.3 210.879 139.231C212.81 141.161 213.895 143.78 213.895 146.511Z" fill="#FD6769"/>
<path d="M203.598 151.316C206.251 151.316 208.403 149.164 208.403 146.511C208.403 143.857 206.251 141.706 203.598 141.706C200.944 141.706 198.793 143.857 198.793 146.511C198.793 149.164 200.944 151.316 203.598 151.316Z" fill="#E6F4F6"/>
<path d="M262.991 169.632C262.362 173.052 254.866 182.582 253.328 184.51C253.301 184.544 253.266 184.57 253.226 184.585C253.186 184.6 253.142 184.604 253.1 184.596C253.058 184.588 253.019 184.569 252.987 184.541C252.955 184.512 252.931 184.476 252.918 184.435C252.167 182.086 248.555 170.511 249.185 167.091C249.522 165.26 250.572 163.638 252.105 162.582C253.638 161.525 255.528 161.121 257.358 161.458C259.189 161.795 260.811 162.846 261.868 164.379C262.924 165.911 263.328 167.801 262.991 169.632Z" fill="#FD6769"/>
<path d="M256.09 171.638C257.899 171.638 259.366 170.171 259.366 168.362C259.366 166.553 257.899 165.086 256.09 165.086C254.281 165.086 252.814 166.553 252.814 168.362C252.814 170.171 254.281 171.638 256.09 171.638Z" fill="#E6F4F6"/>
<path d="M164.738 35.9658H182.744" stroke="#B9D4DB" stroke-width="1.78154" stroke-miterlimit="10" stroke-linecap="round"/>
<path d="M164.738 41.1558H182.744" stroke="#B9D4DB" stroke-width="1.78154" stroke-miterlimit="10" stroke-linecap="round"/>
<path d="M164.738 46.3452H182.744" stroke="#B9D4DB" stroke-width="1.78154" stroke-miterlimit="10" stroke-linecap="round"/>
<path d="M252.73 120.393H270.736" stroke="#B9D4DB" stroke-width="1.78154" stroke-miterlimit="10" stroke-linecap="round"/>
<path d="M252.73 125.583H270.736" stroke="#B9D4DB" stroke-width="1.78154" stroke-miterlimit="10" stroke-linecap="round"/>
<path d="M252.73 130.771H270.736" stroke="#B9D4DB" stroke-width="1.78154" stroke-miterlimit="10" stroke-linecap="round"/>
<path d="M0.160156 198.904H18.1656" stroke="#B9D4DB" stroke-width="1.78154" stroke-miterlimit="10" stroke-linecap="round"/>
<path d="M0.160156 204.094H18.1656" stroke="#B9D4DB" stroke-width="1.78154" stroke-miterlimit="10" stroke-linecap="round"/>
<path d="M0.160156 209.283H18.1656" stroke="#B9D4DB" stroke-width="1.78154" stroke-miterlimit="10" stroke-linecap="round"/>
<path d="M206.013 105.72C210.263 105.72 213.709 102.274 213.709 98.0234C213.709 93.7729 210.263 90.3271 206.013 90.3271C201.762 90.3271 198.316 93.7729 198.316 98.0234C198.316 102.274 201.762 105.72 206.013 105.72Z" fill="#B9D4DB"/>
<path d="M193.368 118.852C195.572 118.852 197.358 117.066 197.358 114.862C197.358 112.658 195.572 110.871 193.368 110.871C191.164 110.871 189.377 112.658 189.377 114.862C189.377 117.066 191.164 118.852 193.368 118.852Z" fill="#B9D4DB"/>
<path d="M186.427 95.0835C189.576 95.0835 192.128 92.5311 192.128 89.3826C192.128 86.234 189.576 83.6816 186.427 83.6816C183.279 83.6816 180.727 86.234 180.727 89.3826C180.727 92.5311 183.279 95.0835 186.427 95.0835Z" fill="#B9D4DB"/>
<path d="M62.247 199.579C67.3043 199.579 71.4041 195.479 71.4041 190.422C71.4041 185.364 67.3043 181.265 62.247 181.265C57.1896 181.265 53.0898 185.364 53.0898 190.422C53.0898 195.479 57.1896 199.579 62.247 199.579Z" fill="#B9D4DB"/>
<path d="M44.7483 188.669C47.3826 188.669 49.5181 186.534 49.5181 183.9C49.5181 181.265 47.3826 179.13 44.7483 179.13C42.114 179.13 39.9785 181.265 39.9785 183.9C39.9785 186.534 42.114 188.669 44.7483 188.669Z" fill="#B9D4DB"/>
<path d="M49.1302 170.437C50.6497 170.437 51.8815 169.205 51.8815 167.686C51.8815 166.166 50.6497 164.935 49.1302 164.935C47.6107 164.935 46.3789 166.166 46.3789 167.686C46.3789 169.205 47.6107 170.437 49.1302 170.437Z" fill="#B9D4DB"/>
<path d="M64.3595 176.229C68.0023 176.229 70.9554 173.276 70.9554 169.633C70.9554 165.99 68.0023 163.037 64.3595 163.037C60.7167 163.037 57.7637 165.99 57.7637 169.633C57.7637 173.276 60.7167 176.229 64.3595 176.229Z" fill="#B9D4DB"/>
<path d="M91.0477 32.3899C96.1051 32.3899 100.205 28.2901 100.205 23.2328C100.205 18.1755 96.1051 14.0757 91.0477 14.0757C85.9904 14.0757 81.8906 18.1755 81.8906 23.2328C81.8906 28.2901 85.9904 32.3899 91.0477 32.3899Z" fill="#B9D4DB"/>
<path d="M93.8538 9.54003C96.488 9.54003 98.6235 7.40453 98.6235 4.77026C98.6235 2.13599 96.488 0.000488281 93.8538 0.000488281C91.2195 0.000488281 89.084 2.13599 89.084 4.77026C89.084 7.40453 91.2195 9.54003 93.8538 9.54003Z" fill="#B9D4DB"/>
<path d="M124.99 15.8057C127.27 15.8057 129.118 13.9573 129.118 11.6772C129.118 9.39719 127.27 7.54883 124.99 7.54883C122.71 7.54883 120.861 9.39719 120.861 11.6772C120.861 13.9573 122.71 15.8057 124.99 15.8057Z" fill="#B9D4DB"/>
<path d="M110.618 8.49281C112.138 8.49281 113.37 7.26102 113.37 5.74153C113.37 4.22203 112.138 2.99023 110.618 2.99023C109.099 2.99023 107.867 4.22203 107.867 5.74153C107.867 7.26102 109.099 8.49281 110.618 8.49281Z" fill="#B9D4DB"/>
<path d="M111.832 27.6434C115.475 27.6434 118.428 24.6903 118.428 21.0475C118.428 17.4047 115.475 14.4517 111.832 14.4517C108.189 14.4517 105.236 17.4047 105.236 21.0475C105.236 24.6903 108.189 27.6434 111.832 27.6434Z" fill="#B9D4DB"/>
<path d="M201.957 70.9936C200.343 75.2379 188.469 85.7138 186.039 87.8279C185.997 87.8647 185.946 87.8894 185.891 87.8993C185.836 87.9092 185.779 87.904 185.727 87.8841C185.674 87.8642 185.628 87.8305 185.594 87.7865C185.559 87.7426 185.537 87.69 185.53 87.6345C185.119 84.4399 183.207 68.7215 184.821 64.4772C185.685 62.2048 187.416 60.3688 189.634 59.3731C191.852 58.3773 194.374 58.3033 196.647 59.1674C198.919 60.0316 200.755 61.763 201.751 63.9808C202.747 66.1987 202.821 68.7212 201.957 70.9936Z" fill="#409CB5"/>
<path d="M193.387 72.012C195.749 72.012 197.664 70.0969 197.664 67.7345C197.664 65.3721 195.749 63.457 193.387 63.457C191.024 63.457 189.109 65.3721 189.109 67.7345C189.109 70.0969 191.024 72.012 193.387 72.012Z" fill="#E6F4F6"/>
<path d="M51.1859 162.342C51.7728 166.845 46.271 181.693 45.1308 184.705C45.1112 184.758 45.0777 184.804 45.0339 184.838C44.9901 184.873 44.9377 184.895 44.8822 184.903C44.8268 184.91 44.7704 184.902 44.7192 184.879C44.6679 184.857 44.6238 184.821 44.5914 184.776C42.7171 182.156 33.5934 169.214 33.0066 164.712C32.851 163.518 32.932 162.305 33.2451 161.143C33.5582 159.981 34.0971 158.891 34.8312 157.937C36.3136 156.01 38.5008 154.751 40.9116 154.437C43.3223 154.123 45.7591 154.779 47.6859 156.262C49.6127 157.744 50.8717 159.932 51.1859 162.342Z" fill="#409CB5"/>
<path d="M42.0997 167.805C44.4621 167.805 46.3772 165.89 46.3772 163.527C46.3772 161.165 44.4621 159.25 42.0997 159.25C39.7374 159.25 37.8223 161.165 37.8223 163.527C37.8223 165.89 39.7374 167.805 42.0997 167.805Z" fill="#E6F4F6"/>
</g>
<defs>
<clipPath id="clip0_0_2773">
<rect width="274" height="210" fill="white"/>
</clipPath>
</defs>
</svg>
