<svg width="26" height="20" viewBox="0 0 26 20" fill="none" xmlns="http://www.w3.org/2000/svg">
<g clip-path="url(#clip0_0_5284)">
<path d="M4.67646 19.9007V18.577C4.67646 18.0695 4.36752 17.7386 3.83797 17.7386C3.57324 17.7386 3.28641 17.8268 3.08782 18.1137C2.93344 17.871 2.71284 17.7386 2.38189 17.7386C2.16118 17.7386 1.94068 17.8047 1.7641 18.0475V17.7827H1.30078V19.9007H1.7641V18.7314C1.7641 18.3564 1.96269 18.1798 2.27164 18.1798C2.58038 18.1798 2.73495 18.3784 2.73495 18.7314V19.9007H3.19827V18.7314C3.19827 18.3564 3.41877 18.1798 3.70561 18.1798C4.01455 18.1798 4.16892 18.3784 4.16892 18.7314V19.9007H4.67646ZM11.5379 17.7827H10.7878V17.1429H10.3245V17.7827H9.9053V18.2018H10.3244V19.1727C10.3244 19.6581 10.523 19.9448 11.0525 19.9448C11.2511 19.9448 11.4716 19.8787 11.6262 19.7905L11.4937 19.3933C11.3614 19.4815 11.207 19.5036 11.0967 19.5036C10.8761 19.5036 10.7878 19.3713 10.7878 19.1506V18.2018H11.5379V17.7827ZM15.4651 17.7385C15.2004 17.7385 15.0239 17.871 14.9135 18.0475V17.7827H14.4502V19.9007H14.9135V18.7094C14.9135 18.3564 15.0679 18.1578 15.3548 18.1578C15.443 18.1578 15.5533 18.1799 15.6416 18.2019L15.7739 17.7607C15.6857 17.7386 15.5533 17.7386 15.4651 17.7386V17.7385ZM9.53023 17.9592C9.30953 17.8047 9.00068 17.7386 8.66973 17.7386C8.14028 17.7386 7.78731 18.0033 7.78731 18.4225C7.78731 18.7756 8.05204 18.9741 8.51536 19.0403L8.73596 19.0624C8.97867 19.1064 9.11103 19.1727 9.11103 19.283C9.11103 19.4374 8.93455 19.5478 8.62561 19.5478C8.31676 19.5478 8.07405 19.4374 7.91958 19.3272L7.69897 19.6801C7.94169 19.8566 8.27264 19.9448 8.6035 19.9448C9.22128 19.9448 9.57435 19.6581 9.57435 19.2609C9.57435 18.8858 9.28752 18.6873 8.84621 18.6211L8.62561 18.599C8.42701 18.5769 8.27264 18.5329 8.27264 18.4005C8.27264 18.246 8.42701 18.1578 8.66973 18.1578C8.93455 18.1578 9.19927 18.2681 9.33164 18.3343L9.53023 17.9592ZM21.8413 17.7386C21.5765 17.7386 21.4 17.871 21.2896 18.0475V17.7827H20.8263V19.9007H21.2896V18.7094C21.2896 18.3564 21.4441 18.1578 21.7308 18.1578C21.8192 18.1578 21.9295 18.1799 22.0178 18.2019L22.1501 17.7607C22.0619 17.7386 21.9295 17.7386 21.8413 17.7386ZM15.9284 18.8417C15.9284 19.4815 16.3696 19.9448 17.0536 19.9448C17.3625 19.9448 17.5831 19.8787 17.8037 19.7022L17.5831 19.3272C17.4066 19.4595 17.2301 19.5256 17.0315 19.5256C16.6565 19.5256 16.3917 19.2609 16.3917 18.8417C16.3917 18.4446 16.6565 18.1798 17.0315 18.1578C17.2301 18.1578 17.4066 18.2239 17.5831 18.3564L17.8037 17.9813C17.5831 17.8047 17.3625 17.7386 17.0536 17.7386C16.3696 17.7386 15.9284 18.2019 15.9284 18.8417ZM20.2086 18.8417V17.7827H19.7453V18.0475C19.5908 17.849 19.3702 17.7386 19.0834 17.7386C18.4877 17.7386 18.0244 18.2019 18.0244 18.8417C18.0244 19.4815 18.4877 19.9448 19.0834 19.9448C19.3922 19.9448 19.6129 19.8346 19.7453 19.636V19.9007H20.2086V18.8417ZM18.5097 18.8417C18.5097 18.4666 18.7524 18.1578 19.1495 18.1578C19.5246 18.1578 19.7894 18.4446 19.7894 18.8417C19.7894 19.2168 19.5246 19.5256 19.1495 19.5256C18.7524 19.5035 18.5097 19.2168 18.5097 18.8417ZM12.972 17.7386C12.3542 17.7386 11.9129 18.1798 11.9129 18.8417C11.9129 19.5036 12.3541 19.9448 12.994 19.9448C13.3029 19.9448 13.6118 19.8566 13.8546 19.6581L13.6338 19.3272C13.4574 19.4595 13.2368 19.5478 13.0162 19.5478C12.7293 19.5478 12.4425 19.4154 12.3763 19.0402H13.9428V18.8638C13.9649 18.1798 13.5678 17.7386 12.972 17.7386ZM12.972 18.1357C13.2588 18.1357 13.4575 18.3123 13.5015 18.6432H12.3984C12.4425 18.3564 12.6411 18.1357 12.972 18.1357ZM24.4667 18.8417V16.9443H24.0034V18.0475C23.8489 17.849 23.6283 17.7386 23.3415 17.7386C22.7458 17.7386 22.2825 18.2019 22.2825 18.8417C22.2825 19.4815 22.7458 19.9448 23.3415 19.9448C23.6504 19.9448 23.871 19.8346 24.0034 19.636V19.9007H24.4667V18.8417ZM22.7679 18.8417C22.7679 18.4666 23.0105 18.1578 23.4077 18.1578C23.7828 18.1578 24.0475 18.4446 24.0475 18.8417C24.0475 19.2168 23.7828 19.5256 23.4077 19.5256C23.0105 19.5035 22.7679 19.2168 22.7679 18.8417ZM7.27978 18.8417V17.7827H6.81646V18.0475C6.66199 17.849 6.44138 17.7386 6.15455 17.7386C5.55887 17.7386 5.09556 18.2019 5.09556 18.8417C5.09556 19.4815 5.55887 19.9448 6.15455 19.9448C6.4635 19.9448 6.6841 19.8346 6.81646 19.636V19.9007H7.27978V18.8417ZM5.55887 18.8417C5.55887 18.4666 5.80159 18.1578 6.19867 18.1578C6.57375 18.1578 6.83857 18.4446 6.83857 18.8417C6.83857 19.2168 6.57375 19.5256 6.19867 19.5256C5.80159 19.5035 5.55887 19.2168 5.55887 18.8417Z" fill="black"/>
<path d="M9.375 1.69922H16.3247V14.1868H9.375V1.69922Z" fill="#FF5F00"/>
<path d="M9.81799 7.94261C9.81799 5.40543 11.0093 3.15497 12.8405 1.69879C11.4948 0.639799 9.79598 0 7.94271 0C3.55206 0 0 3.55206 0 7.94261C0 12.3331 3.55206 15.8852 7.94261 15.8852C9.79588 15.8852 11.4947 15.2454 12.8405 14.1863C11.0093 12.7523 9.81799 10.4798 9.81799 7.94261Z" fill="#EB001B"/>
<path d="M25.7038 7.94261C25.7038 12.3331 22.1517 15.8852 17.7612 15.8852C15.9079 15.8852 14.2091 15.2454 12.8633 14.1863C14.7165 12.7303 15.8859 10.4798 15.8859 7.94261C15.8859 5.40543 14.6944 3.15497 12.8633 1.69879C14.209 0.639799 15.9079 0 17.7612 0C22.1517 0 25.7038 3.57417 25.7038 7.94261Z" fill="#F79E1B"/>
</g>
<defs>
<clipPath id="clip0_0_5284">
<rect width="25.7286" height="20" fill="white"/>
</clipPath>
</defs>
</svg>
