<svg width="20" height="20" viewBox="0 0 20 20" fill="none" xmlns="http://www.w3.org/2000/svg">
<path d="M15.8327 7.49996C15.8327 8.70829 15.4743 9.81664 14.8577 10.7416C13.9577 12.075 12.5327 13.0166 10.8743 13.2583C10.591 13.3083 10.2993 13.3333 9.99935 13.3333C9.69935 13.3333 9.40768 13.3083 9.12435 13.2583C7.46602 13.0166 6.04102 12.075 5.14102 10.7416C4.52435 9.81664 4.16602 8.70829 4.16602 7.49996C4.16602 4.27496 6.77435 1.66663 9.99935 1.66663C13.2243 1.66663 15.8327 4.27496 15.8327 7.49996Z" stroke="#FD6769" stroke-width="1.5" stroke-linecap="round" stroke-linejoin="round"/>
<path opacity="0.4" d="M17.7092 15.3917L16.3342 15.7167C16.0259 15.7917 15.7842 16.025 15.7175 16.3333L15.4259 17.5583C15.2675 18.225 14.4175 18.425 13.9759 17.9L10.0009 13.3333L6.02588 17.9083C5.58421 18.4333 4.73421 18.2333 4.57588 17.5667L4.28421 16.3417C4.20921 16.0333 3.96755 15.7917 3.66755 15.725L2.29255 15.4C1.65921 15.25 1.43421 14.4583 1.89255 14L5.14255 10.75C6.04255 12.0833 7.46755 13.025 9.12588 13.2667C9.40921 13.3167 9.70088 13.3417 10.0009 13.3417C10.3009 13.3417 10.5925 13.3167 10.8759 13.2667C12.5342 13.025 13.9592 12.0833 14.8592 10.75L18.1092 14C18.5675 14.45 18.3425 15.2417 17.7092 15.3917Z" stroke="#FD6769" stroke-width="1.5" stroke-linecap="round" stroke-linejoin="round"/>
<path opacity="0.4" d="M10.4836 4.98337L10.9753 5.9667C11.042 6.10003 11.217 6.23337 11.3753 6.25837L12.267 6.40837C12.8336 6.50003 12.967 6.91671 12.5586 7.32504L11.867 8.01669C11.7503 8.13336 11.6836 8.35837 11.7253 8.52504L11.9253 9.38337C12.0836 10.0584 11.7253 10.325 11.1253 9.96669L10.292 9.47503C10.142 9.38336 9.89197 9.38336 9.74197 9.47503L8.90864 9.96669C8.30864 10.3167 7.9503 10.0584 8.10864 9.38337L8.30864 8.52504C8.34197 8.36671 8.28364 8.13336 8.16697 8.01669L7.4753 7.32504C7.06697 6.91671 7.2003 6.50837 7.76697 6.40837L8.65864 6.25837C8.80864 6.23337 8.98364 6.10003 9.0503 5.9667L9.54197 4.98337C9.78364 4.45004 10.217 4.45004 10.4836 4.98337Z" stroke="#FD6769" stroke-width="1.5" stroke-linecap="round" stroke-linejoin="round"/>
</svg>
