<svg width="20" height="20" viewBox="0 0 20 20" fill="none" xmlns="http://www.w3.org/2000/svg">
<path d="M6.64193 18.3333C8.48288 18.3333 9.97526 16.8409 9.97526 15C9.97526 13.159 8.48288 11.6666 6.64193 11.6666C4.80098 11.6666 3.30859 13.159 3.30859 15C3.30859 16.8409 4.80098 18.3333 6.64193 18.3333Z" stroke="#FD6769" stroke-width="1.5" stroke-linecap="round" stroke-linejoin="round"/>
<path opacity="0.4" d="M9.97461 15V3.33337" stroke="#FD6769" stroke-width="1.5" stroke-linecap="round" stroke-linejoin="round"/>
<path d="M12.1751 1.75829L15.8585 2.98329C16.7501 3.28329 17.4835 4.29162 17.4835 5.23329V6.20829C17.4835 7.48329 16.5001 8.19162 15.2918 7.79162L11.6085 6.56662C10.7168 6.26662 9.98345 5.25829 9.98345 4.31662V3.33329C9.97512 2.06662 10.9668 1.34996 12.1751 1.75829Z" stroke="#FD6769" stroke-width="1.5" stroke-linecap="round" stroke-linejoin="round"/>
</svg>
