<svg width="21" height="20" viewBox="0 0 21 20" fill="none" xmlns="http://www.w3.org/2000/svg">
<path opacity="0.4" d="M10.5999 10.65C10.5416 10.6417 10.4666 10.6417 10.3999 10.65C8.93327 10.6 7.7666 9.40001 7.7666 7.92501C7.7666 6.41668 8.98327 5.19168 10.4999 5.19168C12.0083 5.19168 13.2333 6.41668 13.2333 7.92501C13.2249 9.40001 12.0666 10.6 10.5999 10.65Z" stroke="#949494" stroke-width="1.5" stroke-linecap="round" stroke-linejoin="round"/>
<path opacity="0.34" d="M16.1166 16.15C14.6333 17.5083 12.6666 18.3333 10.5 18.3333C8.3333 18.3333 6.36663 17.5083 4.8833 16.15C4.96663 15.3667 5.46663 14.6 6.3583 14C8.64163 12.4833 12.375 12.4833 14.6416 14C15.5333 14.6 16.0333 15.3667 16.1166 16.15Z" stroke="#949494" stroke-width="1.5" stroke-linecap="round" stroke-linejoin="round"/>
<path d="M10.4998 18.3333C15.1022 18.3333 18.8332 14.6024 18.8332 9.99999C18.8332 5.39762 15.1022 1.66666 10.4998 1.66666C5.89746 1.66666 2.1665 5.39762 2.1665 9.99999C2.1665 14.6024 5.89746 18.3333 10.4998 18.3333Z" stroke="#949494" stroke-width="1.5" stroke-linecap="round" stroke-linejoin="round"/>
</svg>
