<svg width="300" height="234" viewBox="0 0 300 234" fill="none" xmlns="http://www.w3.org/2000/svg">
<g clip-path="url(#clip0_0_2839)">
<path d="M65.1564 191.808C42.5451 153.427 29.758 109.793 78.5081 81.1643C127.258 52.5359 228.116 113.126 250.727 151.506C273.338 189.887 209.14 191.528 160.39 220.155C111.64 248.783 87.7676 230.19 65.1564 191.808Z" fill="#FFE3CB"/>
<path d="M61.5104 198.053C36.9694 156.395 23.0903 109.037 76.0018 77.9648C128.913 46.8929 233.848 110.057 257.946 154.284" stroke="#FFE3CB" stroke-width="0.514286" stroke-miterlimit="10"/>
<path d="M263.479 90.2896V233.458H295.899V90.2896C295.899 89.4315 295.202 88.7366 294.343 88.7366H265.035C264.176 88.7366 263.479 89.4315 263.479 90.2896Z" fill="#935B50"/>
<path d="M292.555 136.17H266.825C265.966 136.17 265.27 135.474 265.27 134.617V116.336C265.27 115.478 265.966 114.783 266.825 114.783H292.555C293.415 114.783 294.111 115.479 294.111 116.336V134.617C294.111 135.474 293.415 136.17 292.555 136.17ZM292.555 112.453H266.825C265.966 112.453 265.27 111.758 265.27 110.9V92.6197C265.27 91.7616 265.966 91.0667 266.825 91.0667H292.555C293.415 91.0667 294.111 91.7622 294.111 92.6197V110.9C294.111 111.758 293.415 112.453 292.555 112.453Z" fill="#E19974"/>
<path d="M292.28 109.739C292.771 110.108 292.668 110.77 292.308 111.123C291.956 111.483 291.292 111.588 290.922 111.094C291.097 110.841 291.188 110.686 291.26 110.554C291.332 110.428 291.385 110.341 291.456 110.272C291.602 110.124 291.791 110.08 292.28 109.739ZM290.921 92.4244C291.291 91.934 291.954 92.0369 292.307 92.3962C292.668 92.7476 292.773 93.4107 292.279 93.7801C292.025 93.605 291.87 93.5148 291.738 93.4425C291.612 93.3703 291.524 93.318 291.455 93.247C291.307 93.1014 291.264 92.9124 290.921 92.4244ZM267.102 93.7807C266.611 93.4113 266.714 92.7494 267.074 92.3968C267.426 92.0363 268.09 91.9316 268.46 92.4251C268.285 92.6784 268.194 92.8336 268.122 92.9654C268.05 93.0911 267.997 93.1784 267.926 93.2476C267.78 93.395 267.591 93.4389 267.102 93.7807ZM268.46 111.094C268.09 111.585 267.427 111.482 267.074 111.123C266.713 110.771 266.608 110.108 267.102 109.739C267.356 109.914 267.511 110.004 267.643 110.076C267.769 110.149 267.857 110.201 267.926 110.272C268.074 110.418 268.118 110.606 268.46 111.094ZM292.28 133.455C292.771 133.825 292.668 134.487 292.308 134.839C291.956 135.2 291.292 135.304 290.922 134.811C291.097 134.558 291.188 134.402 291.26 134.271C291.332 134.145 291.385 134.058 291.456 133.988C291.602 133.84 291.791 133.797 292.28 133.455ZM290.921 116.141C291.291 115.651 291.954 115.754 292.307 116.113C292.668 116.464 292.773 117.127 292.279 117.497C292.025 117.322 291.87 117.231 291.738 117.159C291.612 117.087 291.524 117.035 291.455 116.964C291.307 116.818 291.264 116.629 290.921 116.141ZM267.102 117.497C266.611 117.128 266.714 116.466 267.074 116.113C267.426 115.753 268.09 115.648 268.46 116.142C268.285 116.395 268.194 116.55 268.122 116.682C268.05 116.808 267.997 116.895 267.926 116.964C267.78 117.112 267.591 117.155 267.102 117.497ZM268.46 134.811C268.09 135.301 267.427 135.199 267.074 134.839C266.713 134.488 266.608 133.825 267.102 133.455C267.356 133.63 267.511 133.721 267.643 133.793C267.769 133.865 267.857 133.917 267.926 133.988C268.074 134.134 268.118 134.323 268.46 134.811Z" fill="#D6694B"/>
<path d="M292.555 159.886H266.825C265.966 159.886 265.27 159.19 265.27 158.333V140.052C265.27 139.194 265.966 138.499 266.825 138.499H292.555C293.415 138.499 294.111 139.195 294.111 140.052V158.333C294.111 159.191 293.415 159.886 292.555 159.886ZM292.555 183.602H266.825C265.966 183.602 265.27 182.907 265.27 182.049V163.769C265.27 162.911 265.966 162.216 266.825 162.216H292.555C293.415 162.216 294.111 162.911 294.111 163.769V182.049C294.111 182.907 293.415 183.602 292.555 183.602ZM292.555 207.319H266.825C265.966 207.319 265.27 206.623 265.27 205.766V187.485C265.27 186.627 265.966 185.932 266.825 185.932H292.555C293.415 185.932 294.111 186.628 294.111 187.485V205.766C294.111 206.624 293.415 207.319 292.555 207.319ZM292.555 231.036H266.825C265.966 231.036 265.27 230.34 265.27 229.483V211.202C265.27 210.344 265.966 209.649 266.825 209.649H292.555C293.415 209.649 294.111 210.344 294.111 211.202V229.483C294.111 230.34 293.415 231.036 292.555 231.036Z" fill="#E19974"/>
<path d="M283.52 102.109H275.859C275.526 102.109 275.256 101.84 275.256 101.507V99.449C275.256 99.1169 275.526 98.8473 275.859 98.8473H283.52C283.853 98.8473 284.123 99.1169 284.123 99.449V101.507C284.123 101.84 283.854 102.109 283.52 102.109ZM283.52 149.542H275.859C275.526 149.542 275.256 149.273 275.256 148.941V146.882C275.256 146.55 275.526 146.28 275.859 146.28H283.52C283.853 146.28 284.123 146.55 284.123 146.882V148.941C284.123 149.273 283.854 149.542 283.52 149.542ZM283.52 173.259H275.859C275.526 173.259 275.256 172.989 275.256 172.657V170.599C275.256 170.267 275.526 169.997 275.859 169.997H283.52C283.853 169.997 284.123 170.267 284.123 170.599V172.657C284.123 172.989 283.854 173.259 283.52 173.259ZM283.52 220.691H275.859C275.526 220.691 275.256 220.422 275.256 220.09V218.031C275.256 217.699 275.526 217.43 275.859 217.43H283.52C283.853 217.43 284.123 217.699 284.123 218.031V220.09C284.123 220.422 283.854 220.691 283.52 220.691Z" fill="#D6694B"/>
<path d="M283.52 196.975H275.859C275.526 196.975 275.256 196.705 275.256 196.373V194.315C275.256 193.983 275.526 193.713 275.859 193.713H283.52C283.853 193.713 284.123 193.983 284.123 194.315V196.373C284.123 196.706 283.854 196.975 283.52 196.975Z" fill="#D6694B"/>
<path d="M283.52 125.826H275.859C275.526 125.826 275.256 125.556 275.256 125.224V123.165C275.256 122.833 275.526 122.564 275.859 122.564H283.52C283.853 122.564 284.123 122.833 284.123 123.165V125.224C284.123 125.556 283.854 125.826 283.52 125.826Z" fill="#D6694B"/>
<path d="M292.28 157.172C292.771 157.541 292.668 158.203 292.308 158.556C291.956 158.916 291.292 159.021 290.922 158.527C291.097 158.274 291.188 158.119 291.26 157.987C291.332 157.861 291.385 157.774 291.456 157.705C291.602 157.557 291.791 157.514 292.28 157.172ZM290.921 139.858C291.291 139.368 291.954 139.471 292.307 139.83C292.668 140.181 292.773 140.844 292.279 141.214C292.025 141.039 291.87 140.948 291.738 140.876C291.612 140.804 291.524 140.752 291.455 140.681C291.307 140.535 291.264 140.346 290.921 139.858ZM267.102 141.214C266.611 140.844 266.714 140.182 267.074 139.83C267.426 139.469 268.09 139.365 268.46 139.858C268.285 140.111 268.194 140.267 268.122 140.398C268.05 140.524 267.997 140.611 267.926 140.681C267.78 140.829 267.591 140.873 267.102 141.214ZM268.46 158.528C268.09 159.018 267.427 158.916 267.074 158.556C266.713 158.205 266.608 157.542 267.102 157.172C267.356 157.347 267.511 157.438 267.643 157.51C267.769 157.582 267.857 157.634 267.926 157.705C268.074 157.851 268.118 158.04 268.46 158.528Z" fill="#D6694B"/>
<path d="M292.28 180.888C292.771 181.258 292.668 181.92 292.308 182.272C291.956 182.633 291.292 182.737 290.922 182.244C291.097 181.991 291.188 181.835 291.26 181.704C291.332 181.578 291.385 181.491 291.456 181.421C291.602 181.274 291.791 181.23 292.28 180.888ZM290.921 163.574C291.291 163.084 291.954 163.187 292.307 163.546C292.668 163.898 292.773 164.561 292.279 164.93C292.025 164.755 291.87 164.665 291.738 164.593C291.612 164.52 291.524 164.468 291.455 164.397C291.307 164.251 291.264 164.062 290.921 163.574ZM267.102 164.93C266.611 164.561 266.714 163.899 267.074 163.546C267.426 163.186 268.09 163.081 268.46 163.574C268.285 163.828 268.194 163.983 268.122 164.115C268.05 164.241 267.997 164.328 267.926 164.397C267.78 164.545 267.591 164.588 267.102 164.93ZM268.46 182.244C268.09 182.735 267.427 182.632 267.074 182.273C266.713 181.921 266.608 181.258 267.102 180.889C267.356 181.064 267.511 181.154 267.643 181.226C267.769 181.299 267.857 181.35 267.926 181.422C268.074 181.568 268.118 181.756 268.46 182.244Z" fill="#D6694B"/>
<path d="M292.28 228.321C292.771 228.691 292.668 229.353 292.308 229.705C291.956 230.066 291.292 230.17 290.922 229.677C291.097 229.424 291.188 229.268 291.26 229.137C291.332 229.011 291.385 228.924 291.456 228.854C291.602 228.706 291.791 228.663 292.28 228.321ZM290.921 211.008C291.291 210.517 291.954 210.62 292.307 210.979C292.668 211.331 292.773 211.994 292.279 212.363C292.025 212.188 291.87 212.098 291.738 212.026C291.612 211.953 291.524 211.901 291.455 211.83C291.307 211.684 291.264 211.496 290.921 211.008ZM267.102 212.363C266.611 211.994 266.714 211.332 267.074 210.979C267.426 210.619 268.09 210.514 268.46 211.008C268.285 211.261 268.194 211.416 268.122 211.548C268.05 211.674 267.997 211.761 267.926 211.83C267.78 211.978 267.591 212.021 267.102 212.363ZM268.46 229.677C268.09 230.167 267.427 230.064 267.074 229.705C266.713 229.354 266.608 228.691 267.102 228.321C267.356 228.496 267.511 228.587 267.643 228.659C267.769 228.731 267.857 228.783 267.926 228.854C268.074 229 268.118 229.189 268.46 229.677Z" fill="#D6694B"/>
<path d="M292.28 204.605C292.771 204.974 292.668 205.636 292.308 205.989C291.956 206.349 291.292 206.454 290.922 205.96C291.097 205.707 291.188 205.552 291.26 205.42C291.332 205.294 291.385 205.207 291.456 205.138C291.602 204.99 291.791 204.947 292.28 204.605ZM290.921 187.291C291.291 186.801 291.954 186.904 292.307 187.263C292.668 187.614 292.773 188.277 292.279 188.647C292.025 188.472 291.87 188.381 291.738 188.309C291.612 188.237 291.524 188.185 291.455 188.114C291.307 187.968 291.264 187.779 290.921 187.291ZM267.102 188.647C266.611 188.277 266.714 187.615 267.074 187.263C267.426 186.902 268.09 186.798 268.46 187.291C268.285 187.544 268.194 187.7 268.122 187.831C268.05 187.957 267.997 188.044 267.926 188.114C267.78 188.262 267.591 188.305 267.102 188.647ZM268.46 205.96C268.09 206.451 267.427 206.348 267.074 205.989C266.713 205.637 266.608 204.974 267.102 204.605C267.356 204.78 267.511 204.87 267.643 204.942C267.769 205.015 267.857 205.067 267.926 205.138C268.074 205.284 268.118 205.472 268.46 205.96Z" fill="#D6694B"/>
<path d="M284.741 88.7184H275C269.368 88.7184 264.803 84.1604 264.803 78.5374V71.8223H294.938V78.5374C294.938 84.1604 290.373 88.7184 284.741 88.7184Z" fill="#D6694B"/>
<path d="M276.148 68.8107C275.568 67.8895 275.3 67.1632 275.104 66.4863C274.927 65.8184 274.865 65.2227 274.907 64.6836C274.939 64.1402 275.167 63.6974 275.561 63.3237C275.953 62.9506 276.413 62.5956 276.714 62.178L278.577 59.6719C279.202 58.8156 279.781 57.9576 280.183 56.922L280.197 56.8859C280.269 56.7012 280.477 56.6098 280.662 56.6814C280.739 56.7114 280.8 56.765 280.839 56.8312C281.51 57.9444 281.68 59.2447 281.794 60.4673C281.888 61.7045 281.832 62.9296 281.658 64.0945C281.574 64.6811 281.616 65.319 281.581 65.9333C281.548 66.5471 281.327 67.0826 280.901 67.5128C280.48 67.9448 279.946 68.3161 279.28 68.6073C278.594 68.8871 277.83 69.1164 276.726 69.1356C276.488 69.1399 276.278 69.0171 276.16 68.8306L276.148 68.8107Z" fill="#8B9D36"/>
<path d="M270.739 56.8675L272.821 61.846C272.985 62.2408 273.252 62.6024 273.483 62.952C273.59 63.1343 273.689 63.3022 273.747 63.4857C273.806 63.668 273.826 63.866 273.837 64.0507C273.84 64.2397 273.825 64.4527 273.802 64.6512C273.78 64.8474 273.745 65.0574 273.687 65.2927C273.646 65.496 273.569 65.7403 273.504 66.0081C273.426 66.2662 273.375 66.5322 273.281 66.9215L273.27 66.966C273.237 67.1062 273.119 67.2043 272.983 67.22C272.609 67.2639 272.261 67.1959 271.916 67.0996C271.621 66.9859 271.313 66.8487 271.044 66.6706C270.799 66.5021 270.578 66.3078 270.368 66.1002C270.164 65.892 270.015 65.679 269.859 65.4533C269.562 65.002 269.433 64.5086 269.44 63.9978C269.445 63.4863 269.519 62.9797 269.51 62.5007C269.512 62.0187 269.524 61.5428 269.549 61.071C269.592 60.5963 269.648 60.1257 269.707 59.6588C269.859 58.7219 270.029 57.8013 270.317 56.8849C270.355 56.767 270.48 56.7014 270.598 56.7381C270.664 56.7586 270.714 56.8091 270.739 56.8675Z" fill="#5E7C24"/>
<path d="M256.748 60.4836C258.016 60.8217 259.245 61.2255 260.477 61.619L262.306 62.24L264.105 62.9061C264.702 63.1317 265.337 63.2845 265.958 63.4584C266.576 63.6347 267.135 63.9248 267.628 64.3231C268.622 65.1384 269.464 66.1355 270.137 67.6193L270.168 67.6855C270.225 67.8136 270.169 67.9647 270.04 68.023C270.038 68.0242 270.034 68.026 270.031 68.0266C269.16 68.3817 268.408 68.3991 267.681 68.3901C266.967 68.3606 266.294 68.2433 265.667 68.0519C265.033 67.8648 264.476 67.5495 263.974 67.1277C263.479 66.6975 262.997 66.2462 262.482 65.8599L260.944 64.6883L259.446 63.4554C258.462 62.6094 257.479 61.7664 256.539 60.8482C256.453 60.764 256.452 60.6262 256.536 60.5401C256.593 60.4836 256.675 60.4643 256.748 60.4836Z" fill="#50661A"/>
<path d="M254.574 70.7091C255.69 70.3366 256.809 70.046 257.929 69.7487L259.608 69.342L261.29 68.9984C261.851 68.8949 262.409 68.6933 262.968 68.5393C263.527 68.3841 264.091 68.3534 264.659 68.4593C265.228 68.5628 265.798 68.7445 266.373 69.0171C266.948 69.3041 267.524 69.6483 268.11 70.2349C268.225 70.3505 268.229 70.5346 268.124 70.6561C267.582 71.2825 267.03 71.6658 266.477 71.9925C265.923 72.3048 265.366 72.5263 264.807 72.6689C264.248 72.8145 263.683 72.8229 263.114 72.7068C262.545 72.5918 261.975 72.43 261.408 72.3662L259.706 72.1412L258.001 71.8529C256.864 71.6345 255.728 71.4227 254.588 71.1297C254.47 71.0996 254.399 70.9799 254.43 70.8625C254.45 70.7885 254.507 70.7325 254.574 70.7091Z" fill="#5E7C24"/>
<path d="M262.739 73.9153C263.508 74.1373 264.054 74.4641 264.548 74.8161C265.028 75.1741 265.425 75.5712 265.748 76.0021C266.074 76.4311 266.272 76.9185 266.353 77.454C266.435 77.9901 266.473 78.5431 266.596 79.0612L266.93 80.628L267.177 82.2316C267.24 82.7713 267.303 83.3147 267.333 83.8671C267.356 84.423 267.391 84.9736 267.268 85.5783C267.245 85.6921 267.134 85.7661 267.019 85.7432C266.954 85.73 266.901 85.6879 266.873 85.6325L266.846 85.5789C266.405 84.7022 265.78 83.8292 265.199 82.9669L264.324 81.6672L263.479 80.3543C263.206 79.9132 262.837 79.5119 262.513 79.0937C262.185 78.6761 261.973 78.2103 261.882 77.6893C261.789 77.1694 261.766 76.6182 261.824 76.0285C261.895 75.4328 262.017 74.8137 262.355 74.0916C262.423 73.9442 262.588 73.8726 262.739 73.9153ZM245.565 78.0407C246.312 77.1555 247.217 76.4678 248.172 75.8276C248.654 75.5195 249.152 75.2307 249.665 74.9653C250.181 74.709 250.711 74.4918 251.247 74.2679C251.789 74.0826 252.318 73.7769 252.873 73.5753C253.149 73.473 253.431 73.3882 253.719 73.3509C254.006 73.3208 254.298 73.3274 254.59 73.3623C255.757 73.535 256.928 73.9953 257.955 75.1867C258.058 75.3059 258.053 75.4816 257.949 75.5953L257.938 75.6079C257.386 76.2102 256.875 76.5538 256.378 76.8697C255.883 77.1898 255.4 77.3818 254.927 77.5611C254.451 77.723 253.974 77.7609 253.475 77.7025C252.973 77.6243 252.464 77.5569 251.96 77.5623C251.461 77.584 250.954 77.5996 250.452 77.6544C249.942 77.6784 249.43 77.7266 248.92 77.7982C247.89 77.9143 246.845 78.1087 245.81 78.3854L245.789 78.3909C245.673 78.4222 245.554 78.353 245.522 78.2374C245.503 78.1664 245.522 78.093 245.565 78.0407Z" fill="#8B9D36"/>
<path d="M257.058 76.6461C257.864 76.622 258.498 76.8122 259.071 77.0607C259.639 77.3176 260.124 77.6606 260.537 78.0613C260.947 78.4651 261.237 78.9585 261.386 79.5205C261.543 80.0789 261.628 80.6625 261.778 81.2059L261.975 82.0296L262.125 82.8636C262.19 83.4274 262.237 83.9894 262.241 84.5502C262.252 85.6718 262.074 86.7898 261.753 87.8193C261.716 87.9349 261.593 87.9992 261.478 87.9631C261.409 87.9415 261.358 87.8897 261.336 87.8266L261.331 87.8103C260.984 86.8048 260.664 85.8776 260.184 85.0159C259.97 84.5827 259.723 84.1657 259.468 83.7632L259.098 83.1591L258.695 82.5772C258.431 82.1897 258.064 81.8582 257.724 81.5266C257.389 81.1921 257.144 80.8166 257.003 80.3629C256.724 79.4429 256.557 78.4458 256.753 76.9373L256.756 76.9163C256.777 76.764 256.908 76.6509 257.058 76.6461ZM244.738 86.791C245.569 86.0804 246.423 85.4323 247.264 84.7729L248.534 83.8119L249.811 82.8955C250.238 82.5977 250.618 82.209 251.009 81.86C251.4 81.5104 251.842 81.2703 252.339 81.1439C252.841 81.017 253.361 80.949 253.94 80.9496C254.22 80.9448 254.526 80.976 254.843 81.0043C255.167 81.0531 255.484 81.0849 255.887 81.1902L255.904 81.1945C256.055 81.2342 256.153 81.3744 256.144 81.5248C256.119 81.9298 256.016 82.2721 255.904 82.6109C255.778 82.9172 255.643 83.2301 255.478 83.5002C255.154 84.0303 254.769 84.4846 254.347 84.8493C253.924 85.2217 253.436 85.4606 252.894 85.5828C252.352 85.7055 251.792 85.7783 251.276 85.9324L249.715 86.3542L248.129 86.6953C247.061 86.8903 245.998 87.081 244.9 87.1809C244.779 87.1917 244.671 87.1027 244.66 86.9812C244.653 86.9065 244.686 86.8361 244.738 86.791Z" fill="#50661A"/>
<path d="M244.087 93.7975C244.918 93.0869 245.772 92.4388 246.614 91.7794L247.884 90.8184L249.161 89.902C249.588 89.6042 249.967 89.2154 250.359 88.8665C250.75 88.5169 251.192 88.2768 251.689 88.1504C252.19 88.0235 252.711 87.9555 253.29 87.9561C253.57 87.9512 253.876 87.9825 254.193 88.0108C254.516 88.0596 254.833 88.0914 255.237 88.1967L255.254 88.201C255.405 88.2407 255.503 88.3809 255.494 88.5313C255.469 88.9362 255.365 89.2786 255.254 89.6174C255.128 89.9237 254.993 90.2366 254.828 90.5067C254.504 91.0368 254.118 91.4911 253.697 91.8558C253.274 92.2282 252.786 92.4671 252.243 92.5893C251.702 92.712 251.142 92.7848 250.626 92.9389L249.064 93.3607L247.479 93.7018C246.411 93.8968 245.348 94.0875 244.25 94.1874C244.128 94.1982 244.021 94.1092 244.01 93.9876C244.003 93.913 244.036 93.842 244.087 93.7975Z" fill="#8B9D36"/>
<path d="M256.052 85.9819L256.307 85.9476L256.529 85.947C256.677 85.9494 256.824 85.956 256.971 85.9663C257.239 86.0084 257.488 86.071 257.706 86.1654C258.155 86.3411 258.507 86.6083 258.771 86.9188C259.043 87.2281 259.166 87.6102 259.146 88.0181C259.132 88.4261 259.038 88.834 259.032 89.2101C259.001 89.9665 258.856 90.706 258.607 91.3949C258.358 92.0845 258.03 92.7259 257.61 93.3024C257.534 93.4077 257.386 93.4305 257.281 93.3541C257.242 93.3252 257.214 93.2867 257.199 93.2446L257.195 93.2332C256.953 92.5713 256.765 91.966 256.497 91.4028C256.383 91.1212 256.255 90.8522 256.11 90.5965C255.994 90.3371 255.845 90.094 255.719 89.8564C255.582 89.6205 255.351 89.4177 255.149 89.2282C254.948 89.0374 254.864 88.8274 254.886 88.5627C254.914 88.2931 254.98 88.0025 255.126 87.6312C255.184 87.4567 255.278 87.2467 255.368 87.0313C255.506 86.7786 255.569 86.5686 255.734 86.2587L255.781 86.1703C255.837 86.0638 255.941 85.997 256.052 85.9819Z" fill="#5E7C24"/>
<path d="M254.219 92.2571C254.976 92.644 255.447 93.1843 255.837 93.7517C256.203 94.3233 256.461 94.9407 256.587 95.5671C256.729 96.1953 256.688 96.8343 256.497 97.4438C256.315 98.0564 256.036 98.6352 255.851 99.2189C255.43 100.375 254.924 101.479 254.249 102.471C253.937 102.978 253.551 103.438 253.196 103.901C252.821 104.354 252.4 104.77 251.998 105.181C251.914 105.266 251.777 105.267 251.691 105.184C251.637 105.13 251.616 105.056 251.63 104.986L251.634 104.966C251.753 104.4 251.896 103.861 252.009 103.32C252.095 102.768 252.239 102.252 252.283 101.708L252.396 100.918L252.453 100.129C252.524 99.6178 252.515 99.0967 252.535 98.5925C252.535 98.0841 252.436 97.5714 252.337 97.0786C252.304 96.8325 252.265 96.5924 252.273 96.3535C252.284 96.1146 252.315 95.8788 252.369 95.6393C252.493 95.1585 252.651 94.6717 252.883 94.1452C253.118 93.6175 253.392 93.0646 253.82 92.3936L253.843 92.3581C253.924 92.2324 254.088 92.1909 254.219 92.2571Z" fill="#8B9D36"/>
<path d="M275.351 67.8492C275.897 68.3865 276.198 68.8968 276.441 69.401C276.669 69.9034 276.805 70.3957 276.861 70.8776C276.92 71.3602 276.842 71.8247 276.637 72.27C276.434 72.7153 276.182 73.1521 276.024 73.604L275.508 74.9518L274.903 76.284C274.448 77.1577 274.032 78.0573 273.318 78.854C273.239 78.9418 273.104 78.9496 273.016 78.8708C272.967 78.8269 272.943 78.7655 272.945 78.7047L272.946 78.656C272.979 77.7492 272.898 76.8039 272.835 75.8688L272.745 74.4657L272.691 73.0685C272.682 72.6039 272.572 72.1244 272.506 71.652C272.44 71.1797 272.495 70.726 272.684 70.2898C272.87 69.8535 273.133 69.4263 273.485 69.0087C273.85 68.5929 274.272 68.1838 274.932 67.7999C275.07 67.7168 275.242 67.7433 275.351 67.8492Z" fill="#50661A"/>
<path d="M280.287 69.9016L280.532 69.9642L280.736 70.0394L281.138 70.1946C281.37 70.309 281.587 70.4293 281.763 70.5629C282.138 70.8222 282.397 71.1177 282.59 71.43C282.78 71.7441 282.836 72.0888 282.756 72.4565C282.683 72.8205 282.547 73.1954 282.511 73.5492C282.435 74.2634 282.254 74.9939 282.007 75.71C281.737 76.4055 281.392 77.186 280.733 77.6721C280.634 77.7456 280.493 77.7245 280.419 77.6252C280.391 77.5873 280.377 77.544 280.375 77.5007L280.373 77.4525C280.348 76.8003 280.14 76.2473 279.897 75.663C279.782 75.3742 279.668 75.095 279.526 74.8092L279.161 73.9608C279.037 73.6756 278.82 73.409 278.635 73.1376C278.454 72.8675 278.386 72.578 278.453 72.2585C278.517 71.9384 278.641 71.6021 278.872 71.2326C278.972 71.0515 279.116 70.8577 279.269 70.6592L279.554 70.3451L279.696 70.1862L279.879 70.0153L279.891 70.0039C280.001 69.901 280.152 69.8685 280.287 69.9016Z" fill="#8B9D36"/>
<path d="M281.226 69.7637C281.144 68.9682 281.238 68.3394 281.372 67.7503C281.516 67.1709 281.726 66.654 281.992 66.1901C282.256 65.7249 282.621 65.3531 283.075 65.0655C283.529 64.7772 284.015 64.5203 284.431 64.1966L285.698 63.2435L287.004 62.3265L289.673 60.537L289.679 60.5334C289.78 60.466 289.916 60.4924 289.984 60.5929C290.026 60.6543 290.031 60.7307 290.007 60.7951C289.601 61.8325 289.08 62.7826 288.57 63.7375L287.765 65.1359L286.907 66.4855C286.612 66.9266 286.388 67.435 286.128 67.9098C285.87 68.3863 285.519 68.7756 285.068 69.0723C284.619 69.3701 284.113 69.6132 283.54 69.7931C282.957 69.9628 282.332 70.0928 281.531 70.0543C281.37 70.0459 281.241 69.9195 281.226 69.7637Z" fill="#50661A"/>
<path d="M286.898 71.6619C286.953 70.8273 287.167 70.1769 287.418 69.5691C287.677 68.9728 287.997 68.4457 288.367 67.9782C288.736 67.5089 289.192 67.1448 289.728 66.8771C290.262 66.6087 290.826 66.377 291.328 66.0696L292.854 65.1742L294.417 64.3294C295.475 63.7872 296.528 63.2409 297.629 62.7595C297.739 62.7114 297.867 62.7613 297.916 62.872C297.948 62.943 297.938 63.0219 297.897 63.082L297.891 63.0899C297.205 64.0917 296.47 65.0286 295.741 65.9691L294.623 67.3488L293.466 68.678C293.074 69.1124 292.744 69.6221 292.385 70.095C292.027 70.5686 291.59 70.9464 291.064 71.2184C290.541 71.4928 289.966 71.707 289.332 71.852C288.689 71.9862 288.009 72.0771 287.17 71.9838C287.008 71.967 286.889 71.8225 286.898 71.6619ZM287.033 77.5509C287.187 78.2928 287.159 78.8746 287.088 79.418C287.007 79.9523 286.856 80.4259 286.647 80.8477C286.441 81.2713 286.131 81.604 285.728 81.8543C285.325 82.1052 284.887 82.3255 284.523 82.6101L283.406 83.4428L282.241 84.2335C281.445 84.7432 280.654 85.257 279.801 85.7173C279.692 85.7763 279.556 85.736 279.497 85.6265C279.464 85.5663 279.462 85.4971 279.485 85.4381C279.838 84.5374 280.252 83.6902 280.661 82.8387L281.304 81.5878L281.995 80.3783C282.233 79.9824 282.398 79.5221 282.599 79.0925C282.798 78.6622 283.091 78.3144 283.487 78.0575C283.881 77.7988 284.334 77.5924 284.854 77.4456C285.386 77.3084 285.96 77.2097 286.717 77.2711C286.876 77.2849 287.002 77.4022 287.033 77.5509Z" fill="#5E7C24"/>
<path d="M286.194 82.9525L286.457 82.9838L286.681 83.0367L287.125 83.1523C287.383 83.2491 287.636 83.3569 287.839 83.4874C288.279 83.7371 288.607 84.0482 288.862 84.3948C289.123 84.739 289.238 85.1451 289.223 85.5826C289.211 86.0194 289.133 86.4671 289.139 86.8889C289.148 87.7373 289.035 88.5996 288.809 89.4342C288.555 90.2663 288.199 91.0726 287.649 91.7098C287.567 91.8049 287.423 91.8157 287.328 91.7339C287.284 91.696 287.258 91.6461 287.251 91.5931L287.249 91.5775C287.142 90.7928 286.956 90.1123 286.699 89.4606C286.57 89.1327 286.442 88.8192 286.28 88.5087C286.149 88.2 285.985 87.8914 285.839 87.5911C285.686 87.2872 285.432 87.0141 285.21 86.7385C284.987 86.4635 284.881 86.1602 284.887 85.807C284.898 85.4526 284.954 85.0723 285.104 84.6379C285.168 84.4249 285.265 84.195 285.374 83.9519L285.581 83.5632L285.683 83.3659L285.821 83.1481L285.837 83.1234C285.914 82.9982 286.056 82.9363 286.194 82.9525Z" fill="#50661A"/>
<path d="M287.021 72.3762L287.27 72.307L287.49 72.2679L287.927 72.1873C288.191 72.1602 288.447 72.1373 288.67 72.1488C289.138 72.1464 289.526 72.2204 289.873 72.3389C290.222 72.4526 290.48 72.6735 290.671 72.9815C290.861 73.2962 291.034 73.6314 291.267 73.8955C291.499 74.1483 291.731 74.416 291.966 74.6627C292.195 74.9371 292.432 75.1754 292.679 75.4203C293.175 75.9155 293.663 76.3572 294.353 76.5864L294.395 76.6002C294.51 76.6388 294.574 76.7639 294.535 76.8794C294.518 76.9306 294.484 76.9721 294.441 76.998C293.658 77.4782 292.664 77.4433 291.827 77.3464C290.973 77.2212 290.148 77.0034 289.388 76.6941C289.015 76.5371 288.576 76.4601 288.179 76.3271C287.774 76.2001 287.454 75.96 287.224 75.6164C286.997 75.2705 286.819 74.8721 286.728 74.3883C286.674 74.1549 286.651 73.8919 286.641 73.6176L286.666 73.1657L286.682 72.9388L286.73 72.6813C286.757 72.5321 286.867 72.4195 287.005 72.381L287.021 72.3762Z" fill="#8B9D36"/>
<path d="M282.825 87.8158C283.001 86.8802 283.4 85.5931 284.416 84.4944C285.101 83.7537 285.484 83.7284 286.007 83.0503C286.448 82.478 286.815 81.6651 286.875 78.8623C286.931 76.1943 286.658 74.1762 286.586 73.6635C286.435 72.5967 287.17 72.7453 287.015 71.5647C286.964 71.1808 286.693 70.8523 286.323 70.7338C284.266 70.0755 282.579 69.9197 281.378 69.9082C279.713 69.8926 279.419 70.1579 278.341 69.9082C275.898 69.3426 275.817 67.6121 273.712 67.1644C272.018 66.804 270.124 67.5116 269.052 68.6218C268.06 69.6507 268.497 70.2753 267.493 71.4967C266.54 72.6538 265.34 73.0738 263.153 73.8073C259.663 74.9783 259.078 74.3651 257.946 75.3959C256.482 76.7299 256.193 78.9129 256.066 79.8726C255.934 80.8702 256.04 81.2945 256.066 82.6164C256.066 82.6164 256.117 85.1918 255.632 88.1041C255.021 91.7769 252.26 95.0557 250.425 96.9132" stroke="#7E883B" stroke-width="0.514286" stroke-miterlimit="10"/>
<path d="M251.428 96.1593L251.514 96.3945L251.569 96.6015L251.676 97.0125C251.719 97.2616 251.752 97.5023 251.751 97.7129C251.772 98.1533 251.705 98.5174 251.59 98.8387C251.475 99.16 251.257 99.3899 250.944 99.5367C250.633 99.6847 250.287 99.802 250.014 99.9838C249.738 100.162 249.457 100.338 249.171 100.507L248.28 100.989C247.666 101.293 247.058 101.601 246.387 101.856C246.264 101.903 246.126 101.841 246.08 101.718C246.062 101.671 246.06 101.622 246.072 101.577C246.242 100.882 246.473 100.241 246.699 99.5957L247.068 98.6534C247.201 98.3477 247.341 98.0492 247.485 97.7532C247.632 97.4608 247.706 97.1028 247.815 96.776C247.922 96.4487 248.124 96.2038 248.429 96.0504C248.734 95.8969 249.087 95.7862 249.527 95.7519C249.737 95.7254 249.98 95.7284 250.233 95.7405L250.655 95.7958L250.867 95.8247L251.111 95.8819C251.262 95.9156 251.377 96.0251 251.428 96.1593Z" fill="#50661A"/>
<path d="M283.469 86.3316C284.084 86.7408 284.449 87.1626 284.754 87.5874C285.045 88.0128 285.24 88.4424 285.353 88.8726C285.469 89.3035 285.443 89.7349 285.288 90.1585C285.133 90.5827 284.926 91.0027 284.812 91.4263C284.685 91.8505 284.553 92.2741 284.41 92.6971C284.245 93.1183 284.073 93.5377 283.882 93.9547C283.674 94.3693 283.461 94.7845 283.185 95.1846C282.905 95.5655 282.597 96.0204 282.021 96.2045C281.914 96.2388 281.8 96.1799 281.766 96.0733C281.749 96.0222 281.754 95.9693 281.776 95.9241L281.819 95.8345C281.955 95.5541 281.941 95.1606 281.927 94.7761C281.905 94.3874 281.866 93.9902 281.804 93.5895C281.756 93.1905 281.692 92.788 281.622 92.386C281.571 91.9853 281.51 91.5834 281.446 91.1814C281.39 90.7789 281.232 90.3715 281.115 89.9678C280.997 89.564 281 89.1669 281.136 88.7691C281.269 88.3714 281.477 87.9725 281.772 87.5693C282.082 87.1656 282.446 86.7588 283.047 86.3394L283.053 86.3352C283.18 86.2468 283.346 86.2504 283.469 86.3316Z" fill="#8B9D36"/>
<path d="M101.778 91.5913H20.6982V-0.294678H101.778V91.5913ZM23.579 88.7151H98.8964V2.58152H23.579V88.7151Z" fill="#D6694B"/>
<path d="M103.844 95.9224H18.6335C18.2038 95.9224 17.8555 95.5747 17.8555 95.1456V92.3934C17.8555 91.9644 18.2038 91.6166 18.6335 91.6166H103.844C104.274 91.6166 104.622 91.9644 104.622 92.3934V95.1456C104.622 95.5747 104.274 95.9224 103.844 95.9224Z" fill="#935B50"/>
<path d="M98.8974 30.3062H23.5801V33.7504H98.8974V30.3062Z" fill="#E19974"/>
<path d="M35.5645 70.2032L61.1771 45.6478" stroke="#E19974" stroke-width="0.514286" stroke-miterlimit="10"/>
<path d="M35.5645 55.4442L57.0397 35.5948" stroke="#E19974" stroke-width="0.514286" stroke-miterlimit="10"/>
<path d="M59.4513 2.11218C59.4513 2.11218 51.9256 36.0627 25.9918 50.6368C25.9918 50.6368 46.4557 79.1966 48.7139 96.1764H23.1104V2.11218H59.4513Z" fill="#FFBA55"/>
<path d="M25.9912 50.6742C25.5108 50.9113 25.0311 50.9648 24.5508 50.975C24.0704 50.966 23.5901 50.9131 23.1104 50.6742C23.5907 50.4359 24.071 50.3824 24.5508 50.3733C25.0311 50.3836 25.5114 50.4371 25.9912 50.6742ZM29.2752 42.0793C30.2605 40.8392 31.2405 39.5966 32.1855 38.3276C33.148 37.073 34.0942 35.8052 35.0115 34.5182C36.852 31.9488 38.6812 29.3699 40.3458 26.6862C42.0429 24.0255 43.6563 21.3087 45.0834 18.4945C45.4691 17.8049 45.7711 17.0763 46.1194 16.368L46.6257 15.2982L47.0735 14.2037C47.3615 13.4702 47.7141 12.7572 47.951 12.0044L48.7134 9.75761C48.013 12.8516 46.8402 15.8229 45.4993 18.6991C45.1521 19.4127 44.8008 20.1252 44.4404 20.8328C44.0697 21.535 43.6737 22.2227 43.2917 22.9189C42.915 23.6181 42.5064 24.2986 42.0953 24.9774C41.6807 25.6537 41.2926 26.3475 40.8544 27.0088C39.1386 29.6792 37.3089 32.2744 35.3827 34.7931C33.4457 37.3041 31.4394 39.7633 29.2752 42.0793ZM31.0109 28.3999C31.5647 26.9847 32.1777 25.5983 32.7996 24.2162C33.4156 22.8311 34.0737 21.467 34.7324 20.1023C35.4038 18.7442 36.0764 17.3867 36.7906 16.0497L37.8639 14.0448C38.2418 13.3866 38.6004 12.7186 38.9946 12.0682C38.7233 12.7788 38.4172 13.472 38.1291 14.1742L37.2064 16.2525C36.5905 17.6377 35.9323 19.0017 35.273 20.3658C34.601 21.7233 33.9284 23.0808 33.2137 24.4178C32.5055 25.7578 31.7877 27.093 31.0109 28.3999ZM25.2041 28.3999C25.421 26.5352 25.7031 24.6825 25.9948 22.8311C26.2798 20.979 26.6113 19.1353 26.9434 17.2911C27.2893 15.4498 27.6365 13.6092 28.0294 11.7764L28.6213 9.02773C28.84 8.11553 29.0389 7.19973 29.2752 6.29114C29.1727 7.2244 29.0317 8.15104 28.9117 9.08129L28.4856 11.86C28.2 13.7121 27.8685 15.5557 27.5358 17.3994C27.1893 19.2406 26.8421 21.0813 26.4486 22.9135C26.0623 24.7481 25.6657 26.5797 25.2041 28.3999Z" fill="#E6952A"/>
<path d="M27.2405 60.5756C28.884 63.1461 30.4112 65.7882 31.8842 68.4598C33.3577 71.1314 34.733 73.8572 36.0595 76.607C37.3372 79.3797 38.5679 82.1795 39.578 85.0671C40.071 86.5149 40.5236 87.9782 40.8677 89.4705C41.1817 90.9627 41.442 92.4995 41.2817 94.0231C41.3046 92.4959 40.9888 91 40.5808 89.5415C40.1824 88.0787 39.684 86.643 39.1422 85.2254C38.0496 82.3919 36.8303 79.6048 35.5147 76.8628C34.2382 74.1015 32.8593 71.3878 31.4761 68.6752C30.7879 67.3172 30.084 65.9663 29.3716 64.6203L27.2405 60.5756ZM25.9918 70.5279C26.1159 72.4835 26.1744 74.4397 26.2226 76.3952C26.2774 78.3508 26.2853 80.307 26.2931 82.2626C26.2865 84.2181 26.278 86.1743 26.2238 88.1299L26.1394 91.0638C26.0894 92.0416 26.0599 93.0194 25.9918 93.9978C25.9237 93.02 25.8941 92.0422 25.8441 91.0638L25.7597 88.1299C25.7049 86.1743 25.6971 84.2181 25.6904 82.2626C25.6983 80.307 25.7055 78.3508 25.7609 76.3952C25.8098 74.4397 25.8676 72.4841 25.9918 70.5279ZM29.2758 74.2748C29.8513 75.7616 30.3292 77.2804 30.777 78.8081C31.2309 80.3347 31.6075 81.8829 31.9523 83.4383C32.288 84.9955 32.5646 86.5696 32.7364 88.1581C32.8249 88.9518 32.8732 89.7509 32.9087 90.5488L32.8804 91.7492C32.8551 92.1487 32.7966 92.5458 32.7472 92.9388L32.7207 91.7486L32.614 90.5674C32.5194 89.7822 32.4205 88.9993 32.2771 88.2207C31.9999 86.6647 31.71 85.1099 31.3634 83.5641C31.0356 82.0152 30.6764 80.4718 30.3305 78.923L29.7941 76.6034L29.2758 74.2748Z" fill="#E6952A"/>
<path d="M62.8857 2.11218C62.8857 2.11218 70.4114 36.0627 96.3453 50.6368C96.3453 50.6368 75.8813 79.1966 73.6231 96.1764H99.2261V2.11218H62.8857Z" fill="#FFBA55"/>
<path d="M96.3446 50.6742C96.825 50.4371 97.3053 50.3836 97.785 50.3733C98.2654 50.3824 98.7451 50.4353 99.2254 50.6742C98.7451 50.9125 98.2648 50.966 97.785 50.975C97.3053 50.9648 96.825 50.9113 96.3446 50.6742ZM93.0606 42.0793C90.8964 39.7627 88.8901 37.3041 86.9537 34.7932C85.0269 32.2744 83.1978 29.6792 81.482 27.0088C81.0438 26.3475 80.6557 25.6537 80.2411 24.9774C79.83 24.2987 79.4214 23.6181 79.0447 22.9189C78.6626 22.2233 78.2661 21.535 77.896 20.8328C77.5356 20.1252 77.1843 19.4127 76.8371 18.6991C75.4962 15.8229 74.3234 12.8516 73.623 9.75763L74.3854 12.0044C74.6217 12.7572 74.9749 13.4702 75.2629 14.2037L75.7107 15.2982L76.217 16.3681C76.5653 17.0763 76.8679 17.805 77.253 18.4945C78.6795 21.3087 80.2935 24.0255 81.9906 26.6863C83.6552 29.3699 85.4844 31.9489 87.3249 34.5182C88.2422 35.8058 89.1884 37.073 90.1509 38.3276C91.0953 39.5972 92.0753 40.8392 93.0606 42.0793ZM91.3249 28.3999C90.5481 27.0936 89.8303 25.7578 89.1215 24.4178C88.4068 23.0808 87.7342 21.7233 87.0622 20.3659C86.4029 19.0018 85.7447 17.6377 85.1288 16.2525L84.2067 14.1742C83.9192 13.472 83.613 12.7782 83.3412 12.0682C83.7354 12.7187 84.0946 13.3866 84.4719 14.0448L85.5458 16.0498C86.26 17.3868 86.9326 18.7442 87.604 20.1023C88.2627 21.4664 88.9208 22.8311 89.5368 24.2162C90.1587 25.5978 90.7717 26.9841 91.3249 28.3999ZM97.1323 28.3999C96.6707 26.5798 96.2741 24.7481 95.8878 22.9147C95.4943 21.0825 95.1477 19.2412 94.8006 17.4006C94.4679 15.557 94.1364 13.7133 93.8507 11.8612L93.4247 9.08251C93.3041 8.15226 93.1637 7.22562 93.0612 6.29236C93.2981 7.20095 93.4964 8.11675 93.7151 9.02895L94.307 11.7776C94.6999 13.6098 95.0471 15.451 95.393 17.2923C95.7251 19.1359 96.0566 20.9796 96.3416 22.8323C96.6333 24.6819 96.9154 26.5346 97.1323 28.3999Z" fill="#E6952A"/>
<path d="M95.096 60.5756L92.965 64.6209C92.2526 65.9669 91.5487 67.3178 90.8604 68.6758C89.4773 71.3884 88.0983 74.1021 86.8219 76.8634C85.5062 79.606 84.287 82.3925 83.1943 85.226C82.6519 86.6436 82.1541 88.0793 81.7558 89.5421C81.3483 91 81.0319 92.4965 81.0548 94.0237C80.8939 92.5001 81.1549 90.9633 81.4689 89.4711C81.813 87.9788 82.2656 86.5149 82.7586 85.0677C83.7687 82.1801 84.9994 79.3797 86.2771 76.6076C87.6035 73.8578 88.9783 71.132 90.4524 68.4604C91.9254 65.7882 93.4525 63.1461 95.096 60.5756ZM96.3442 70.5279C96.4683 72.4835 96.5268 74.4397 96.575 76.3952C96.6299 78.3508 96.6377 80.307 96.6455 82.2626C96.6389 84.2181 96.6305 86.1743 96.5762 88.1299L96.4918 91.0638C96.4418 92.0416 96.4123 93.0194 96.3442 93.9978C96.2761 93.02 96.2466 92.0422 96.1965 91.0638L96.1122 88.1299C96.0573 86.1743 96.0495 84.2181 96.0429 82.2626C96.0507 80.307 96.0579 78.3508 96.1134 76.3952C96.1616 74.4397 96.22 72.4841 96.3442 70.5279ZM93.0602 74.2748L92.5419 76.6034L92.0055 78.923C91.6596 80.4718 91.3004 82.0152 90.9725 83.5641C90.626 85.1099 90.3361 86.6647 90.0589 88.2207C89.9154 88.9993 89.8172 89.7816 89.722 90.5674L89.6153 91.7486L89.5888 92.9388C89.5393 92.5458 89.4803 92.1481 89.4556 91.7492L89.4272 90.5488C89.4628 89.7509 89.511 88.9518 89.5996 88.1581C89.7708 86.5696 90.048 84.9961 90.3837 83.4383C90.7284 81.8823 91.1051 80.3341 91.5589 78.8081C92.0067 77.2804 92.4852 75.7616 93.0602 74.2748Z" fill="#E6952A"/>
<path d="M64.8975 88.6717H56.3774L53.5068 73.6078H67.768L64.8975 88.6717Z" fill="#E19974"/>
<path d="M67.4402 75.3282L67.768 73.6078H53.5068L53.8347 75.3282H67.4402Z" fill="#D6694B"/>
<path d="M58.8586 82.7997L57.0586 81.0026L55.2586 82.7997L57.0585 84.5968L58.8586 82.7997Z" fill="#D6694B"/>
<path d="M62.4572 82.7997L60.6572 81.0026L58.8572 82.7997L60.6572 84.5968L62.4572 82.7997Z" fill="#D6694B"/>
<path d="M66.0158 82.7994L64.2158 81.0022L62.4158 82.7993L64.2158 84.5965L66.0158 82.7994Z" fill="#D6694B"/>
<path d="M63.9545 60.9309C63.9545 60.9309 64.7025 71.4832 60.318 73.7197C60.318 73.7197 58.7998 69.7189 63.9545 60.9309Z" fill="#558031"/>
<path d="M49.8057 65.4635C49.8057 65.4635 56.9793 66.6994 60.3182 73.7196C60.3182 73.7196 52.4297 71.0444 49.8057 65.4635Z" fill="#849F4C"/>
<path d="M52.3506 79.2862C52.3506 79.2862 55.9986 73.8371 60.3198 73.7197C60.3198 73.7197 59.6695 78.1074 52.3506 79.2862Z" fill="#A6B862"/>
<path d="M56.8506 62.4346C56.8506 62.4346 61.9125 67.0491 60.3196 73.7191C60.3196 73.7191 57.5153 70.7521 56.8506 62.4346Z" fill="#849F4C"/>
<path d="M60.3184 73.7197C60.3184 73.7197 62.0969 67.22 71.087 65.5532C71.087 65.5532 69.0638 71.4711 60.3184 73.7197Z" fill="#A6B862"/>
<path d="M73.4688 72.0206C73.4688 72.0206 66.6091 69.1974 60.3184 73.7199C60.3184 73.7199 68.6817 74.7223 73.4688 72.0206Z" fill="#849F4C"/>
<path d="M73.4072 78.5937C73.4072 78.5937 70.0949 73.2968 60.3189 73.7198L73.4072 78.5937ZM46.1113 72.8623C46.1113 72.8623 55.1202 69.527 60.4364 73.5603C60.4364 73.5603 55.3884 76.3366 46.1113 72.8623Z" fill="#558031"/>
<path d="M53.5 63.2052C53.5 63.2052 61.5385 68.8812 60.3856 73.7238C60.3856 73.7238 54.8084 69.2596 53.5 63.2052Z" fill="#558031"/>
<path d="M67.5993 79.3692C67.5993 79.3692 60.9723 78.2398 60.3184 73.7197C60.3184 73.7197 65.1603 73.9592 67.5993 79.3692Z" fill="#849F4C"/>
<path d="M189.413 191.5H80.8203V137.292C80.8203 130.379 86.4337 124.775 93.3578 124.775H176.875C183.799 124.775 189.412 130.379 189.412 137.292L189.413 191.5Z" fill="#8795DE"/>
<path d="M223.943 152.096H189.411V186.573H223.943V152.096Z" fill="#A2AEE6"/>
<path d="M189.413 152.096C189.537 154.969 189.595 157.842 189.643 160.715C189.693 163.588 189.689 166.461 189.713 169.334C189.69 172.208 189.692 175.081 189.644 177.953L189.56 182.263C189.51 183.699 189.481 185.136 189.413 186.572C189.344 185.136 189.315 183.699 189.265 182.263L189.181 177.953C189.132 175.08 189.135 172.207 189.111 169.334C189.137 166.461 189.132 163.588 189.182 160.715C189.23 157.842 189.288 154.969 189.413 152.096Z" fill="#4F66D0"/>
<path d="M172.872 137.083C172.304 137.4 171.744 137.722 171.212 138.087C170.668 138.431 170.141 138.8 169.637 139.196C168.628 139.983 167.674 140.833 166.837 141.786C165.995 142.736 165.318 143.811 164.771 144.951L164.408 145.831C164.299 146.129 164.241 146.443 164.152 146.75L164.017 147.212L163.946 147.687C163.903 148.005 163.853 148.325 163.798 148.647C163.731 147.356 163.856 146.015 164.342 144.776C164.81 143.538 165.514 142.389 166.383 141.391C167.267 140.407 168.269 139.537 169.369 138.82C170.467 138.105 171.631 137.486 172.872 137.083ZM177.347 158.127C176.977 157.593 176.603 157.067 176.188 156.573C175.794 156.065 175.375 155.576 174.933 155.113C174.052 154.184 173.114 153.317 172.084 152.576C171.057 151.829 169.92 151.259 168.732 150.823L167.82 150.546C167.513 150.466 167.195 150.439 166.88 150.379L166.406 150.288L165.926 150.264C165.605 150.252 165.281 150.232 164.954 150.207C166.235 150.018 167.584 150.016 168.866 150.38C170.144 150.728 171.357 151.32 172.435 152.087C173.5 152.873 174.462 153.786 175.281 154.811C176.1 155.834 176.828 156.931 177.347 158.127ZM146.81 150.432C147.856 149.653 149.034 149.062 150.253 148.581C151.474 148.098 152.765 147.784 154.08 147.632C155.398 147.501 156.744 147.59 158.027 147.923C159.32 148.243 160.489 148.915 161.507 149.716C161.211 149.575 160.92 149.431 160.636 149.282L160.207 149.064L159.75 148.907C159.448 148.803 159.158 148.669 158.851 148.586L157.922 148.374C156.674 148.161 155.404 148.091 154.141 148.229C152.878 148.361 151.632 148.647 150.405 149.015C149.79 149.197 149.185 149.413 148.589 149.658C147.983 149.882 147.397 150.152 146.81 150.432ZM161.432 166.233C160.754 165.119 160.278 163.893 159.913 162.635C159.548 161.376 159.357 160.063 159.33 158.742C159.324 157.419 159.541 156.09 159.995 154.847C160.437 153.592 161.218 152.494 162.112 151.559C161.943 151.84 161.773 152.115 161.597 152.383L161.34 152.788L161.139 153.227C161.007 153.517 160.846 153.793 160.734 154.09L160.434 154.993C160.103 156.213 159.913 157.469 159.931 158.738C159.943 160.005 160.11 161.27 160.36 162.524C160.483 163.152 160.642 163.775 160.829 164.39C160.995 165.015 161.209 165.623 161.432 166.233Z" fill="#4F66D0"/>
<path d="M118.948 137.083C118.379 137.4 117.819 137.722 117.287 138.088C116.743 138.431 116.216 138.801 115.712 139.196C114.703 139.983 113.75 140.833 112.912 141.786C112.07 142.736 111.394 143.812 110.846 144.951L110.484 145.832C110.375 146.13 110.317 146.444 110.227 146.75L110.092 147.213L110.021 147.687C109.979 148.006 109.929 148.325 109.873 148.648C109.806 147.356 109.932 146.015 110.417 144.776C110.885 143.539 111.59 142.389 112.458 141.391C113.342 140.407 114.344 139.537 115.444 138.821C116.542 138.105 117.706 137.486 118.948 137.083ZM123.422 158.128C123.053 157.593 122.679 157.068 122.264 156.573C121.869 156.065 121.451 155.576 121.009 155.113C120.128 154.185 119.19 153.318 118.16 152.576C117.133 151.829 115.996 151.259 114.808 150.824L113.896 150.547C113.589 150.467 113.27 150.439 112.956 150.379L112.482 150.289L112.002 150.264C111.681 150.252 111.357 150.232 111.03 150.207C112.312 150.018 113.66 150.016 114.942 150.381C116.22 150.728 117.433 151.32 118.511 152.088C119.576 152.873 120.539 153.786 121.358 154.812C122.175 155.834 122.903 156.932 123.422 158.128ZM92.8848 150.432C93.931 149.653 95.1093 149.062 96.3285 148.581C97.5495 148.098 98.8398 147.784 100.155 147.632C101.473 147.501 102.819 147.59 104.102 147.923C105.395 148.243 106.564 148.915 107.582 149.716C107.286 149.575 106.995 149.431 106.711 149.282L106.282 149.065L105.826 148.908C105.524 148.804 105.234 148.669 104.927 148.586L103.998 148.374C102.749 148.162 101.48 148.092 100.216 148.23C98.9537 148.361 97.708 148.648 96.481 149.015C95.8662 149.197 95.2605 149.414 94.6651 149.659C94.0588 149.882 93.4724 150.152 92.8848 150.432ZM107.508 166.233C106.83 165.12 106.353 163.893 105.988 162.635C105.623 161.376 105.432 160.063 105.405 158.742C105.399 157.42 105.616 156.09 106.07 154.847C106.512 153.592 107.293 152.494 108.188 151.559C108.019 151.84 107.849 152.115 107.673 152.383L107.415 152.789L107.215 153.227C107.083 153.517 106.922 153.793 106.81 154.09L106.51 154.993C106.179 156.214 105.989 157.469 106.007 158.738C106.019 160.005 106.186 161.27 106.436 162.524C106.559 163.152 106.717 163.775 106.905 164.39C107.071 165.015 107.284 165.623 107.508 166.233Z" fill="#4F66D0"/>
<path d="M102.103 234.06H67.7881V164.142C67.7881 157.489 73.1899 152.096 79.8537 152.096H102.103L102.103 234.06Z" fill="#A2AEE6"/>
<path d="M126.429 234.06H102.104V152.096H114.364C121.027 152.096 126.429 157.489 126.429 164.142V179.73L223.974 179.064L223.945 152.095H233.815C240.479 152.095 245.881 157.489 245.881 164.142V234.06H126.429V234.06Z" fill="#C0D6F2"/>
<path d="M192.583 58.3252C201.914 58.3252 209.478 50.7729 209.478 41.4567C209.478 32.1405 201.914 24.5883 192.583 24.5883C183.252 24.5883 175.688 32.1405 175.688 41.4567C175.688 50.7729 183.252 58.3252 192.583 58.3252Z" fill="#FFBA55"/>
<path d="M192.583 58.3252C201.914 58.3252 209.478 50.7729 209.478 41.4567C209.478 32.1405 201.914 24.5883 192.583 24.5883C183.252 24.5883 175.688 32.1405 175.688 41.4567C175.688 50.7729 183.252 58.3252 192.583 58.3252Z" stroke="#D77F4A" stroke-width="0.514286" stroke-miterlimit="10"/>
<path d="M192.584 31.7831V42.6603" stroke="#D77F4A" stroke-width="0.514286" stroke-miterlimit="10" stroke-linecap="round" stroke-linejoin="round"/>
<path d="M190.651 39.251L201.956 44.9113" stroke="#D77F4A" stroke-width="0.514286" stroke-miterlimit="10" stroke-linecap="round" stroke-linejoin="round"/>
<path d="M184.958 118.108L185.036 128.993L192.367 128.13L190.894 117.727L186.247 116.591L184.958 118.108Z" fill="#F9977A"/>
<path d="M185.89 215.43C185.89 215.43 182.116 230.622 183.26 231.118C184.405 231.613 214.853 233.952 209.65 231.261L200.987 227.341C197.893 225.941 195.97 222.893 196.071 219.55L196.218 214.69L185.89 215.43ZM136.777 215.43C136.777 215.43 133.002 230.622 134.147 231.118C135.291 231.613 165.739 233.952 160.536 231.261L151.873 227.341C148.779 225.941 146.856 222.893 146.957 219.55L147.104 214.69L136.777 215.43Z" fill="#F9977A"/>
<path d="M158.381 154.179L187.441 155.718C193.788 156.054 198.763 161.29 198.763 167.637L198.181 215.004C198.156 217.061 196.478 218.716 194.417 218.716H185.76C183.802 218.716 182.17 217.216 182.009 215.267L177.459 176.034L137.948 182.142C136.345 182.187 126.952 179.216 125.697 178.442C123.453 177.058 121.217 175.247 120.212 171.005C119.447 167.778 119.762 164.389 120.932 161.285L123.55 154.34L158.381 154.179Z" fill="#FFBA55"/>
<path d="M161.715 158.983C161.715 158.983 169.695 161.225 173.216 159.18C173.216 159.18 176.129 157.29 176.525 157.559C176.897 157.812 176.309 158.973 174.227 161.122C173.406 161.971 173.308 163.32 174.068 164.224C174.614 164.873 175.587 165.578 177.26 166.261C177.26 166.261 186.4 169.001 177.788 171.928C177.788 171.928 172.935 172.831 168.781 169.428C164.626 166.025 159.254 165.602 159.254 165.602L161.715 158.983Z" fill="#F9977A"/>
<path d="M174.837 167.05C175.403 167.219 175.957 167.413 176.511 167.607L178.163 168.208L179.806 168.822C180.357 169.015 180.901 169.228 181.481 169.33C180.885 169.366 180.299 169.21 179.729 169.066C179.156 168.919 178.6 168.72 178.047 168.521C177.496 168.311 176.95 168.092 176.416 167.844C175.88 167.599 175.349 167.344 174.837 167.05ZM174.3 168.687C174.813 168.848 175.314 169.026 175.816 169.202L177.318 169.733L178.818 170.265L180.33 170.784C179.259 170.688 178.215 170.399 177.206 170.046C176.704 169.861 176.205 169.667 175.721 169.438C175.235 169.212 174.755 168.973 174.3 168.687ZM173.873 170.376C174.282 170.457 174.678 170.565 175.074 170.672C175.472 170.775 175.862 170.896 176.254 171.011L177.426 171.361C177.818 171.469 178.206 171.582 178.619 171.624C178.209 171.721 177.78 171.669 177.37 171.61C176.958 171.548 176.557 171.443 176.159 171.329C175.764 171.205 175.373 171.074 174.992 170.913C174.611 170.755 174.233 170.585 173.873 170.376Z" fill="#DD765E"/>
<path d="M129.57 170.581L130.02 179.606L133.55 215.906C133.737 217.832 135.358 219.301 137.297 219.301H145.876C147.965 219.301 149.656 217.601 149.64 215.516C149.496 197.546 150.065 185.995 149.498 178.571C148.458 164.94 147.293 165.219 147.293 165.219" fill="#FFBA55"/>
<path d="M173.578 110.482C173.578 110.482 179.948 113.819 182.902 134.465C182.902 134.465 183.714 134.427 183.949 126.805C183.979 125.831 184.78 125.052 185.756 125.052H191.228C192.16 125.052 192.939 125.753 193.028 126.679C193.658 133.267 195.18 157.54 183.213 156.198C183.213 156.198 175.283 158.06 172.173 134.62L160.512 145.331L157.558 154.179L154.448 154.335L164.527 157.994C165.538 158.361 166.006 159.523 165.532 160.486L162.788 166.067C162.449 166.758 161.709 167.158 160.945 167.064C155.165 166.349 131.653 163.304 129.882 160.855C127.86 158.06 128.482 154.801 128.482 154.801L124.098 154.335C124.098 154.335 125.839 139.899 127.238 133.689C128.638 127.48 132.797 108.301 147.333 106.213C156.001 104.968 152.726 106.213 160.707 106.213L173.578 110.482Z" fill="#F73C4F"/>
<path d="M161.209 102.099L159.964 98.8086C159.19 96.4703 157.661 95.7892 158.077 93.3612L158.543 90.6385L160.603 90.5308L161.209 102.099ZM177.538 99.4506L176.049 90.0253L182.064 89.0776L182.605 92.4978C183.129 95.8144 180.86 98.9271 177.538 99.4506Z" fill="#1E1D22"/>
<path d="M173.63 85.1967C169.52 84.113 164.992 87.1475 162.351 92.2933C162.056 92.0412 161.723 91.8926 161.367 91.8872C160.116 91.8667 159.073 93.572 159.038 95.696C159.013 97.219 159.514 98.5397 160.26 99.1751C159.498 105.577 161.988 111.196 166.441 112.37C171.541 113.715 177.285 108.722 179.27 101.219C181.256 93.7146 178.731 86.5415 173.63 85.1967Z" fill="#F9977A"/>
<path d="M165.999 110.743C163.295 109.872 161.593 107.997 161.031 105.672H161.03C161.03 105.672 160.431 128.416 172.358 110.9L172.355 110.898C170.16 111.386 167.952 111.371 165.999 110.743Z" fill="#F9977A"/>
<path d="M171.407 111.855C169.383 112.517 167.352 112.518 165.559 111.707C163.078 110.585 161.529 108.128 161.031 105.07L161.031 105.069C161.031 105.069 160.987 106.806 161.076 109.121C161.866 110.839 163.105 112.183 164.76 112.932C166.624 113.775 168.746 113.744 170.848 113.001C171.032 112.635 171.554 112.177 171.745 111.78L171.407 111.855ZM160.153 94.1031C160.273 93.8101 160.557 93.6043 160.88 93.5321C161.043 93.511 161.215 93.5146 161.366 93.5778C161.519 93.6332 161.648 93.7324 161.746 93.8522C161.444 93.7788 161.183 93.7108 160.924 93.7758C160.661 93.8101 160.422 93.9521 160.153 94.1031Z" fill="#DD765E"/>
<path d="M160.536 96.5323C160.648 96.0467 160.766 95.5822 160.815 95.1032C160.857 94.8667 160.87 94.6272 160.882 94.3866C160.901 94.1453 160.889 93.904 160.898 93.6525C161.092 94.117 161.118 94.6375 161.061 95.1357C160.981 95.6303 160.837 96.1255 160.536 96.5323Z" fill="#DD765E"/>
<path d="M183.9 87.672C183.77 87.3206 183.525 86.9367 181.194 85.4721C179.392 84.3397 178.491 83.7735 177.105 83.1279C173.851 81.6127 172.224 80.8552 170.626 81.1597C168.472 81.57 168.656 83.0695 166.019 84.1496C162.814 85.4619 161.137 83.8228 159.558 85.1671C157.342 87.0552 158.147 92.4171 159.765 92.9587C160.716 93.2776 161.753 91.8641 162.351 92.2932C162.949 92.7222 162.472 94.5352 162.086 95.9979C161.816 97.025 161.366 98.1322 161.275 98.6015L160.223 100.328C160.223 100.328 158.77 108.021 165.228 111.751C171.683 115.481 177.526 106.312 177.526 106.312C177.351 105.205 176.357 104.421 175.237 104.494C174.181 104.562 173.139 104.407 172.22 104.258C170.056 103.905 168.28 102.925 166.727 101.67C165.67 100.816 164.836 100.08 164.227 99.5149C163.562 98.8994 163.222 98.0209 163.295 97.1195C163.34 96.5545 163.356 95.8282 163.539 94.8637C163.793 93.5327 163.994 92.4731 164.802 91.9478C165.516 91.4839 165.999 91.896 167.41 91.8088C169.719 91.6656 170.061 90.4609 171.99 90.3629C172.681 90.328 172.796 90.4748 175.706 91.4983C180.021 93.0158 180.527 92.9587 180.909 92.8522C182.951 92.2835 184.555 89.4483 183.9 87.672ZM166.078 104.999C166.774 104.811 167.393 104.761 169.076 105.339C170.11 105.695 170.382 106.031 171.531 106.572C172.636 107.092 172.495 107.696 172.506 107.79C172.556 108.332 171.596 108.924 170.785 109.147C169.778 109.424 168.898 109.123 167.177 108.508C165.743 107.997 165.023 107.731 164.851 107.184C164.594 106.372 165.259 105.219 166.078 104.999Z" fill="#1E1D22"/>
<path d="M170.053 96.9715C170.1 96.3846 169.754 95.8786 169.28 95.8414C168.807 95.8041 168.386 96.2497 168.34 96.8367C168.293 97.4236 168.639 97.9296 169.113 97.9669C169.586 98.0041 170.007 97.5585 170.053 96.9715Z" fill="#1E1D22"/>
<path d="M167.32 94.2366C167.32 94.2366 170.125 93.2681 171.854 94.3252" stroke="#1E1D22" stroke-width="0.607371" stroke-miterlimit="10" stroke-linecap="round" stroke-linejoin="round"/>
<path d="M172.945 97.443C172.675 98.1807 172.595 98.9539 172.747 99.6934C172.903 100.456 173.014 101.213 173.325 101.898L173.561 102.434C173.65 102.617 173.702 102.929 173.602 103.154C173.517 103.387 173.352 103.567 173.178 103.698C173.003 103.833 172.814 103.922 172.604 103.989C171.757 104.233 170.934 103.913 170.295 103.481C170.661 103.621 171.034 103.736 171.412 103.775C171.785 103.825 172.166 103.809 172.489 103.668C172.8 103.529 173.129 103.295 173.206 103.017C173.251 102.871 173.235 102.771 173.162 102.601L172.917 102.07C172.592 101.32 172.487 100.513 172.411 99.7379C172.318 98.934 172.509 98.0971 172.945 97.443Z" fill="#DD765E"/>
<path d="M166.48 96.304C167.144 95.6773 168.126 95.4329 169.045 95.5148C169.505 95.5744 169.963 95.6809 170.371 95.8958C170.583 95.9813 170.766 96.1264 170.958 96.2444C171.135 96.3876 171.308 96.5327 171.466 96.6916C171.045 96.5273 170.644 96.3624 170.235 96.2402C169.829 96.1071 169.414 96.0337 169 95.9867C168.585 95.938 168.166 95.9578 167.745 96.006C167.327 96.0632 166.902 96.1499 166.48 96.304Z" fill="#1E1D22"/>
<path d="M176.336 99.0818C176.552 98.5342 176.369 97.9492 175.928 97.7753C175.486 97.6014 174.953 97.9043 174.737 98.452C174.52 98.9996 174.703 99.5846 175.144 99.7585C175.586 99.9325 176.119 99.6295 176.336 99.0818Z" fill="#1E1D22"/>
<path d="M178.381 97.1861C178.381 97.1861 176.286 95.0877 174.269 95.2779" stroke="#1E1D22" stroke-width="0.607371" stroke-miterlimit="10" stroke-linecap="round" stroke-linejoin="round"/>
<path d="M178.227 99.4123C177.916 99.0891 177.573 98.8254 177.222 98.5901C176.865 98.3625 176.497 98.1615 176.103 98.0224C175.711 97.8834 175.306 97.7672 174.883 97.7088C174.461 97.6396 174.029 97.6119 173.577 97.5746C173.789 97.5012 174.009 97.447 174.23 97.3958C174.454 97.3741 174.682 97.3236 174.911 97.3398C175.371 97.3254 175.83 97.4307 176.269 97.5782C177.132 97.9087 177.906 98.5588 178.227 99.4123Z" fill="#1E1D22"/>
<path d="M177.46 122.978C177.553 125.175 177.052 127.387 176.173 129.417C175.957 129.927 175.691 130.414 175.428 130.902C175.287 131.141 175.131 131.371 174.983 131.605C174.84 131.843 174.678 132.068 174.502 132.283C173.859 133.187 173.029 133.942 172.173 134.62C172.87 133.769 173.555 132.937 174.115 132.015C174.69 131.108 175.204 130.164 175.621 129.175C176.057 128.196 176.418 127.182 176.724 126.147C177.018 125.111 177.279 124.058 177.46 122.978ZM182.901 134.465L182.104 138.293C181.852 139.569 181.577 140.838 181.355 142.115C181.121 143.39 180.904 144.668 180.734 145.952C180.648 146.593 180.568 147.238 180.528 147.884C180.504 148.207 180.46 148.531 180.452 148.856C180.445 149.18 180.432 149.505 180.413 149.833C180.198 148.539 180.202 147.217 180.272 145.908C180.335 144.595 180.539 143.298 180.762 142.007C181.001 140.719 181.294 139.442 181.655 138.185C182.013 136.926 182.403 135.677 182.901 134.465ZM144.964 119.718C144.602 118.712 144.092 117.782 143.468 116.955C142.839 116.135 142.087 115.411 141.201 114.897C140.997 114.74 140.752 114.655 140.527 114.533L140.183 114.362C140.066 114.311 139.94 114.28 139.82 114.234C139.577 114.151 139.337 114.054 139.09 113.98C138.837 113.929 138.584 113.873 138.331 113.814C138.203 113.786 138.078 113.75 137.949 113.731L137.559 113.691L136.775 113.602C136.248 113.564 135.719 113.589 135.179 113.552C135.703 113.453 136.237 113.369 136.775 113.307L137.588 113.298C137.861 113.289 138.132 113.301 138.402 113.35C139.497 113.435 140.558 113.838 141.515 114.385C143.431 115.53 144.689 117.6 144.964 119.718ZM128.016 134.62C128.18 136.299 128.277 137.98 128.364 139.66C128.458 141.341 128.504 143.022 128.55 144.704C128.582 146.386 128.613 148.067 128.597 149.75L128.571 152.275C128.541 153.117 128.531 153.959 128.482 154.801C128.394 153.962 128.346 153.122 128.276 152.282L128.134 149.761C128.041 148.081 127.994 146.399 127.948 144.718C127.917 143.036 127.886 141.354 127.902 139.671C127.912 137.987 127.931 136.304 128.016 134.62ZM154.448 154.335C152.32 153.666 150.198 152.98 148.087 152.262C145.972 151.557 143.863 150.837 141.762 150.09L141.553 150.016L141.584 149.795C141.838 147.957 142.067 146.116 142.34 144.281L143.151 138.775C143.42 136.939 143.731 135.11 144.019 133.277C144.315 131.446 144.63 129.616 144.964 127.79C144.779 129.637 144.576 131.482 144.354 133.325C144.124 135.165 143.917 137.01 143.667 138.848L142.923 144.363C142.678 146.202 142.39 148.035 142.125 149.871L141.946 149.575C144.043 150.329 146.132 151.109 148.214 151.905C150.302 152.688 152.378 153.503 154.448 154.335ZM165.822 132.11C165.727 133.13 165.42 134.138 164.958 135.067C164.504 136.003 163.874 136.858 163.125 137.59C162.37 138.314 161.504 138.938 160.538 139.338C160.073 139.577 159.563 139.701 159.069 139.849C158.567 139.97 158.052 140.03 157.547 140.093C158.517 139.754 159.465 139.418 160.329 138.918C161.208 138.453 162.001 137.848 162.704 137.16C163.417 136.48 164.031 135.693 164.547 134.842C165.058 133.988 165.499 133.079 165.822 132.11ZM165.489 137.625C164.959 139.196 163.85 140.57 162.461 141.524C162.118 141.772 161.737 141.961 161.365 142.159C160.97 142.311 160.591 142.499 160.175 142.586C159.37 142.837 158.516 142.864 157.697 142.819C158.504 142.63 159.289 142.451 160.026 142.141C160.77 141.856 161.473 141.483 162.12 141.028C162.776 140.588 163.382 140.068 163.943 139.498C164.495 138.919 165.022 138.305 165.489 137.625ZM193.368 131.662C191.927 132.304 190.379 132.658 188.803 132.805C188.014 132.866 187.21 132.859 186.417 132.721C185.639 132.592 184.807 132.291 184.3 131.663C184.96 132.103 185.727 132.201 186.476 132.255C187.23 132.292 187.991 132.275 188.754 132.207C190.282 132.082 191.806 131.846 193.368 131.662ZM159.254 156.08C158.86 156.921 158.494 157.765 158.129 158.605C157.771 159.447 157.429 160.293 157.15 161.156C156.86 162.014 156.611 162.887 156.477 163.776C156.349 164.664 156.289 165.57 156.47 166.487C156.063 165.643 155.952 164.666 156.01 163.726C156.054 162.777 156.29 161.856 156.579 160.965C156.88 160.076 157.256 159.217 157.707 158.401C158.15 157.581 158.662 156.798 159.254 156.08Z" fill="#B02336"/>
<path d="M164.476 117.527C163.535 120.578 162.485 123.594 161.389 126.592C160.292 129.59 159.104 132.555 157.898 135.513C156.633 138.446 155.34 141.37 153.899 144.225C152.419 147.049 150.894 149.909 148.756 152.3L149.454 151.328C149.692 151.009 149.927 150.69 150.12 150.339C150.518 149.649 150.967 148.993 151.318 148.275C151.687 147.57 152.085 146.882 152.434 146.166L153.482 144.021C154.831 141.137 156.124 138.226 157.343 135.281C158.592 132.349 159.769 129.387 160.957 126.428L164.476 117.527Z" fill="#B02336"/>
<path d="M175.534 112.353C174.071 114.27 172.599 116.18 171.098 118.067L168.854 120.902C168.111 121.851 167.345 122.782 166.589 123.721L166.279 124.107L166.127 123.632L164.19 117.618L164.639 117.781L159.567 120.963L159.208 121.188L159.154 120.769C158.844 118.334 158.574 115.894 158.302 113.453C158.022 111.014 157.778 108.57 157.547 106.125C157.94 108.55 158.322 110.976 158.667 113.407C159.02 115.837 159.375 118.266 159.689 120.701L159.277 120.508L164.316 117.273L164.648 117.06L164.765 117.437L166.638 123.471L166.175 123.383C166.945 122.455 167.704 121.519 168.486 120.602L170.819 117.839C172.369 115.992 173.948 114.17 175.534 112.353Z" fill="#B02336"/>
<path d="M149.221 177.213C149.14 175.591 148.926 173.976 148.531 172.411C148.151 170.847 147.602 169.311 146.739 167.974C145.885 166.645 144.678 165.528 143.189 165.043C141.682 164.607 140.057 164.394 138.484 164.504C136.909 164.595 135.344 165.035 134.042 165.911C132.727 166.776 131.755 168.073 131.078 169.505L130.65 170.62C130.498 170.99 130.446 171.392 130.339 171.778C130.108 172.548 130.071 173.358 129.953 174.156C129.87 174.957 129.879 175.768 129.837 176.577L129.941 179.01C129.846 178.204 129.753 177.395 129.671 176.583C129.666 175.769 129.611 174.952 129.647 174.134C129.732 173.321 129.745 172.495 129.952 171.694C130.048 171.294 130.087 170.879 130.231 170.49L130.636 169.314C131.272 167.78 132.329 166.39 133.722 165.439C135.112 164.481 136.782 163.992 138.443 163.879C140.118 163.786 141.767 164.018 143.375 164.504C144.994 165.059 146.319 166.284 147.147 167.72C147.999 169.154 148.504 170.743 148.829 172.344C149.128 173.953 149.281 175.586 149.221 177.213ZM195.66 167.753C194.884 168.368 193.887 168.732 192.86 168.771C191.829 168.827 190.792 168.525 189.905 168.011C188.997 167.508 188.303 166.743 187.671 165.97C187.395 165.552 187.113 165.138 186.869 164.707C186.661 164.254 186.436 163.814 186.249 163.358C186.561 163.747 186.835 164.15 187.127 164.54C187.428 164.922 187.752 165.282 188.049 165.659C188.727 166.333 189.394 167.028 190.222 167.47C191.022 167.945 191.923 168.238 192.859 168.283C193.793 168.327 194.759 168.158 195.66 167.753Z" fill="#E6952A"/>
<path d="M145.272 175.31C144.685 176.213 143.904 176.997 143.002 177.623C142.102 178.249 141.046 178.692 139.932 178.837C139.376 178.929 138.808 178.88 138.254 178.822L137.436 178.629C137.164 178.568 136.919 178.425 136.663 178.321C136.137 178.135 135.71 177.77 135.253 177.478C134.833 177.133 134.45 176.745 134.074 176.366C134.544 176.639 134.959 176.973 135.423 177.222C135.903 177.442 136.342 177.736 136.846 177.868C137.809 178.245 138.85 178.351 139.852 178.216C140.86 178.095 141.836 177.721 142.741 177.21C143.64 176.685 144.5 176.056 145.272 175.31ZM195.659 186.955C195.339 188.351 194.857 189.703 194.314 191.029C193.774 192.358 193.128 193.646 192.38 194.876C191.617 196.095 190.794 197.293 189.766 198.319C188.757 199.35 187.581 200.251 186.248 200.789C187.469 200.032 188.482 199.044 189.405 197.989C190.328 196.93 191.107 195.749 191.844 194.551C192.591 193.354 193.239 192.096 193.877 190.831C194.199 190.199 194.499 189.555 194.788 188.906C195.096 188.266 195.374 187.611 195.659 186.955ZM195.659 195.604C195.369 196.872 194.84 198.079 194.198 199.22C193.556 200.363 192.74 201.412 191.803 202.342C190.87 203.277 189.754 204.032 188.559 204.588C187.376 205.191 186.046 205.409 184.764 205.525C185.076 205.428 185.386 205.336 185.696 205.253L186.16 205.124C186.312 205.075 186.458 205.004 186.607 204.945L187.495 204.593L188.339 204.152C189.439 203.532 190.479 202.798 191.365 201.894C192.273 201.014 193.069 200.02 193.789 198.968C194.147 198.44 194.482 197.894 194.785 197.329C195.115 196.775 195.389 196.193 195.659 195.604ZM123.551 161.574C123.371 162.591 123.311 163.609 123.31 164.619C123.317 165.629 123.396 166.635 123.593 167.619C123.774 168.605 124.037 169.579 124.411 170.515C124.759 171.465 125.235 172.363 125.719 173.28C125.037 172.507 124.4 171.663 123.962 170.711C123.481 169.778 123.176 168.761 122.976 167.732C122.783 166.698 122.728 165.641 122.823 164.598C122.907 163.558 123.137 162.525 123.551 161.574ZM125.719 166.991C125.772 168.192 125.917 169.33 126.296 170.392C126.471 170.928 126.728 171.429 127.032 171.906C127.325 172.398 127.721 172.814 128.115 173.28C127.571 173.028 127.04 172.681 126.643 172.202C126.225 171.741 125.908 171.187 125.705 170.599C125.505 170.01 125.394 169.393 125.398 168.78C125.4 168.168 125.487 167.554 125.719 166.991Z" fill="#E6952A"/>
<path d="M213.362 232.581V232.523C213.362 231.622 212.854 230.798 212.048 230.393L196.025 221.811C195.681 221.638 195.261 221.736 195.03 222.044L189.069 226.474C188.824 226.799 188.372 226.888 188.023 226.678L184.11 224.334C183.579 224.016 182.904 224.398 182.904 225.016V232.581C182.904 233.02 183.261 233.376 183.701 233.376H212.567C213.005 233.376 213.362 233.02 213.362 232.581ZM163.943 232.581V232.523C163.943 231.622 163.434 230.798 162.629 230.393L146.605 221.811C146.261 221.638 145.842 221.736 145.61 222.044L139.649 226.474C139.404 226.799 138.952 226.888 138.603 226.678L134.69 224.334C134.159 224.016 133.484 224.398 133.484 225.016V232.581C133.484 233.02 133.841 233.376 134.281 233.376H163.147C163.586 233.376 163.943 233.02 163.943 232.581Z" fill="#F73C4F"/>
<path d="M184.214 107.792L182.685 106.563C182.192 106.057 181.341 106.385 181.303 107.09C181.262 107.876 181.337 108.945 181.725 110.287L182.383 112.705L184.214 107.792Z" fill="#F9977A"/>
<path d="M177.47 112.83C177.868 112.108 178.794 111.859 179.554 112.182L180.746 112.69C181.355 112.95 182.071 112.667 182.338 112.061L186.118 103.465C186.252 103.159 186.077 102.666 185.789 102.211C185.471 101.708 184.709 101.787 184.491 102.341C184.343 102.717 183.915 102.902 183.539 102.752L183.292 102.653C182.926 102.507 182.742 102.099 182.874 101.73L183.748 99.2835L183.75 99.2847C183.837 98.9561 183.989 98.6312 184.566 98.4128C185.153 98.1901 185.81 98.2244 186.397 98.4495L189.006 99.4501C189.489 99.6349 189.871 100.015 190.058 100.495C190.235 100.948 190.225 101.453 190.029 101.898L184.073 115.443C183.868 115.909 183.486 116.274 183.012 116.459C182.548 116.639 182.031 116.633 181.572 116.441L178.239 115.046C177.382 114.688 177.011 113.662 177.47 112.83Z" fill="#4F66D0"/>
<path d="M190.893 117.728C190.893 117.728 192.192 110.7 190.496 105.769C190.296 105.188 189.866 104.717 189.3 104.479L187.687 103.801C186.662 103.37 185.478 103.8 184.969 104.787C184.78 105.152 184.702 105.562 184.743 105.971C184.907 107.596 185.312 111.864 185.069 112.17C185.069 112.17 184.148 113.7 184.083 115.42C184.048 116.344 184.425 117.48 184.956 118.109L190.893 117.728Z" fill="#F9977A"/>
<path d="M126.429 214.722H102.104V152.096H114.364C121.027 152.096 126.429 156.217 126.429 161.3V175.05V214.722Z" fill="#C0D6F2"/>
<path d="M31.429 216.348C31.429 216.348 16.8924 192.187 14.6143 186.122" stroke="#8B9D36" stroke-width="0.514286" stroke-miterlimit="10"/>
<path d="M19.4953 173.45C18.848 174.986 18.44 176.544 18.1031 178.109C17.7764 179.676 17.5438 181.25 17.3913 182.833C17.2388 184.415 17.1701 186.006 17.1955 187.606C17.2298 189.206 17.3377 190.813 17.6866 192.443C18.3369 190.908 18.7461 189.35 19.0818 187.785C19.4085 186.219 19.6411 184.644 19.79 183.061C19.9394 181.478 20.0082 179.887 19.9828 178.288C19.9485 176.687 19.8418 175.08 19.4953 173.45ZM24.8115 180.707C24.0286 182.137 23.4814 183.611 23.0047 185.099C22.5382 186.59 22.1639 188.098 21.8698 189.621C21.5751 191.144 21.363 192.683 21.243 194.239C21.1327 195.798 21.0948 197.37 21.2949 198.988C22.0808 197.559 22.6292 196.084 23.1047 194.596C23.5712 193.106 23.9455 191.598 24.2365 190.074C24.5282 188.551 24.7404 187.012 24.8597 185.455C24.9694 183.897 25.008 182.324 24.8115 180.707ZM27.7405 189.155C27.0456 190.49 26.5888 191.859 26.2025 193.238C25.8264 194.618 25.5444 196.013 25.3419 197.418C25.1394 198.823 25.02 200.24 24.9935 201.67C24.9766 203.101 25.0327 204.544 25.3292 206.02C26.0271 204.685 26.4851 203.316 26.8702 201.937C27.2463 200.557 27.5284 199.163 27.7273 197.757C27.9267 196.351 28.0461 194.934 28.072 193.504C28.0889 192.073 28.0328 190.63 27.7405 189.155ZM31.4289 197.587C30.7274 198.714 30.2627 199.882 29.8698 201.062C29.4859 202.244 29.1954 203.441 28.9844 204.653C28.7729 205.865 28.6445 207.09 28.609 208.332C28.5825 209.575 28.6289 210.831 28.9139 212.128C29.6185 211.002 30.0843 209.835 30.4767 208.654C30.8606 207.472 31.1511 206.275 31.359 205.062C31.5669 203.851 31.6959 202.625 31.7309 201.383C31.7568 200.139 31.711 198.884 31.4289 197.587ZM34.6834 202.858C33.9632 203.843 33.469 204.87 33.0375 205.908C32.615 206.949 32.2775 208.005 32.0027 209.073C31.7296 210.143 31.5247 211.225 31.3777 212.319C31.3102 212.87 31.2481 213.418 31.2065 213.976C31.1444 214.53 31.1686 215.094 31.0245 215.673C31.1547 215.609 31.2831 215.519 31.4247 215.421L31.7495 215.096C31.9798 214.87 32.1322 214.63 32.3179 214.387C32.6554 213.897 32.9422 213.386 33.1917 212.869C33.6908 211.83 34.0638 210.758 34.338 209.667C34.6159 208.576 34.7973 207.465 34.878 206.334C34.9486 205.201 34.9395 204.052 34.6834 202.858ZM16.3348 189.848C15.2169 188.584 13.9627 187.588 12.6681 186.673C11.3681 185.768 10.0145 184.969 8.61511 184.26C7.2163 183.55 5.76927 182.934 4.2698 182.424C2.76491 181.923 1.21844 181.504 -0.464844 181.356C0.651317 182.623 1.90489 183.62 3.20005 184.534C4.50063 185.439 5.85364 186.238 7.25487 186.944C8.65549 187.649 10.1019 188.266 11.602 188.776C13.1069 189.276 14.6527 189.696 16.3348 189.848ZM19.9364 196.564C18.5099 195.363 16.9779 194.444 15.4139 193.609C13.8458 192.785 12.236 192.071 10.5907 191.452C8.94598 190.833 7.26331 190.311 5.54025 189.9C3.81297 189.5 2.05255 189.186 0.18605 189.156C1.61078 190.36 3.14279 191.281 4.70674 192.115C6.27491 192.939 7.88467 193.653 9.53119 194.268C11.1777 194.884 12.8598 195.406 14.5834 195.817C16.3113 196.215 18.0711 196.53 19.9364 196.564ZM24.1757 204.03C22.9004 202.864 21.5161 201.978 20.0992 201.176C18.6774 200.385 17.2129 199.704 15.7117 199.118C14.2104 198.53 12.6711 198.041 11.0891 197.661C9.50286 197.291 7.88286 197.008 6.15257 197.007C7.42603 198.176 8.81038 199.064 10.2279 199.865C11.6496 200.655 13.1141 201.337 14.6172 201.92C16.1197 202.503 17.6589 202.993 19.2415 203.372C20.8278 203.741 22.4472 204.025 24.1757 204.03ZM27.5266 209.776C26.402 208.772 25.1876 208.054 23.946 207.422C22.7009 206.801 21.4208 206.294 20.11 205.882C18.7998 205.47 17.4576 205.158 16.0805 204.958C14.6998 204.769 13.2919 204.669 11.793 204.857C12.9164 205.866 14.1302 206.585 15.3723 207.216C16.6175 207.836 17.8976 208.344 19.2096 208.752C20.521 209.161 21.8632 209.472 23.2403 209.672C24.6211 209.859 26.0289 209.961 27.5266 209.776Z" fill="#8B9D36"/>
<path d="M30.1729 214.933C28.9525 213.726 27.6127 212.795 26.2374 211.947C24.8567 211.11 23.4295 210.381 21.962 209.745C20.4945 209.108 18.9854 208.568 17.4293 208.135C15.8689 207.713 14.2718 207.376 12.5542 207.317C13.7728 208.527 15.112 209.459 16.4879 210.306C17.8686 211.143 19.2957 211.872 20.7651 212.505C22.2338 213.138 23.7429 213.678 25.299 214.11C26.86 214.532 28.4565 214.869 30.1729 214.933ZM15.1656 186.989C15.4338 185.26 15.2928 183.692 15.0481 182.163C14.7835 180.643 14.3676 179.182 13.8168 177.773C13.2684 176.364 12.5807 175.009 11.7412 173.713C10.8824 172.424 9.91807 171.178 8.54035 170.092C8.26673 171.823 8.40656 173.392 8.65245 174.92C8.91702 176.44 9.33407 177.901 9.88914 179.307C10.4418 180.715 11.1313 182.07 11.9702 183.365C12.8296 184.654 13.7927 185.902 15.1656 186.989Z" fill="#8B9D36"/>
<path d="M33.6843 217.481C33.6843 217.481 33.0334 177.299 25.2227 164.952" stroke="#50661A" stroke-width="0.514286" stroke-miterlimit="10"/>
<path d="M27.7175 170.328C27.4433 168.473 27.4505 166.679 27.5367 164.902C27.6331 163.127 27.8387 161.374 28.1243 159.638C28.4058 157.902 28.7885 156.183 29.2387 154.479C29.6883 152.764 30.256 151.113 30.8629 149.355C31.028 149.787 31.1715 150.252 31.2516 150.704C31.3535 151.162 31.4168 151.621 31.4644 152.075C31.5692 152.99 31.5897 153.893 31.5867 154.796C31.5686 156.599 31.386 158.374 31.0961 160.13C30.8044 161.885 30.3928 163.616 29.8601 165.323C29.3146 167.026 28.6692 168.711 27.7175 170.328ZM18.1711 145.781C19.6139 147.119 20.6439 148.611 21.5708 150.142C22.4778 151.681 23.23 153.277 23.8495 154.922C24.4697 156.568 24.9518 158.265 25.2797 160.019C25.5889 161.781 25.7908 163.583 25.578 165.54C24.131 164.203 23.0986 162.711 22.1729 161.18C21.2665 159.642 20.5137 158.046 19.8996 156.398C19.2842 154.75 18.8021 153.053 18.4748 151.298C18.1669 149.537 17.9632 147.736 18.1711 145.781ZM11.7706 155.661C13.419 156.949 14.8546 158.353 16.248 159.779C17.6317 161.211 18.9522 162.675 20.2437 164.148L24.0822 168.546C24.7258 169.266 25.3767 169.975 26.0644 170.647C26.7605 171.318 27.4608 171.955 28.4064 172.414C27.8953 172.506 27.3264 172.495 26.8033 172.374C26.2639 172.278 25.7546 172.093 25.2586 171.889C24.269 171.469 23.3632 170.916 22.508 170.314C20.8084 169.094 19.3204 167.662 17.977 166.129C16.6337 164.594 15.4349 162.952 14.3766 161.219C13.3298 159.478 12.3944 157.661 11.7706 155.661ZM11.7706 165.54C13.78 166.508 15.5886 167.7 17.3364 168.958C19.0763 170.225 20.7373 171.58 22.3302 173.01C23.9237 174.439 25.4466 175.947 26.8907 177.542C28.3274 179.145 29.7021 180.818 30.8738 182.714C28.8614 181.749 27.0522 180.559 25.305 179.3C23.5651 178.032 21.9041 176.677 20.3142 175.245C18.7231 173.812 17.2002 172.305 15.7562 170.709C14.32 169.105 12.9447 167.434 11.7706 165.54ZM12.4215 173.291C14.4453 174.199 16.2745 175.334 18.0445 176.538C19.8068 177.751 21.4925 179.054 23.1125 180.434C24.7325 181.813 26.2844 183.272 27.7597 184.821C29.2278 186.378 30.6351 188.005 31.8465 189.863C29.8197 188.958 27.9899 187.824 26.2205 186.619C24.4582 185.406 22.7725 184.104 21.1556 182.721C19.538 181.339 17.9861 179.88 16.5107 178.331C15.0432 176.773 13.6347 175.146 12.4215 173.291ZM12.8555 181.577C14.8708 182.302 16.7066 183.267 18.4881 184.305C20.2624 185.353 21.9662 186.494 23.6091 187.717C25.2526 188.939 26.8328 190.246 28.3425 191.647C29.8462 193.056 31.2932 194.54 32.56 196.267C30.5423 195.545 28.7059 194.581 26.925 193.543C25.1507 192.495 23.4469 191.354 21.8065 190.127C20.1654 188.902 18.5851 187.595 17.0754 186.195C15.5724 184.784 14.1241 183.3 12.8555 181.577ZM12.4215 187.588C14.5255 188.4 16.4474 189.452 18.3145 190.576C20.1744 191.709 21.9632 192.936 23.6904 194.243C25.4183 195.55 27.0823 196.941 28.6752 198.425C30.2614 199.918 31.791 201.485 33.138 203.293C31.0317 202.484 29.1091 201.434 27.2426 200.31C25.3827 199.177 23.594 197.95 21.8685 196.639C20.1431 195.329 18.4785 193.939 16.8862 192.454C15.3011 190.96 13.7703 189.393 12.4215 187.588ZM10.9028 193.22C13.0923 194.203 15.0992 195.392 17.0628 196.634C19.0185 197.883 20.9109 199.205 22.7557 200.585C24.6059 201.956 26.4049 203.385 28.1719 204.862C29.9571 206.327 31.644 207.852 33.4912 209.362C32.3033 209.19 31.1419 208.805 30.0421 208.357C28.9355 207.909 27.8815 207.374 26.8394 206.818C24.7807 205.676 22.8244 204.387 20.9531 202.994C19.0872 201.595 17.3008 200.095 15.6055 198.489C13.9186 196.872 12.304 195.169 10.9028 193.22ZM9.05859 199.069C11.4157 199.951 13.6046 201.064 15.7477 202.242C17.8836 203.431 19.9568 204.706 21.9824 206.049C24.008 207.391 25.9824 208.806 27.9134 210.284C28.8771 211.026 29.8317 211.781 30.7767 212.551C31.7392 213.301 32.6161 214.163 33.6834 214.773C33.0386 214.823 32.4082 214.614 31.8043 214.45C31.1986 214.271 30.611 214.053 30.0294 213.827C28.8698 213.367 27.7489 212.841 26.6502 212.284C24.4558 211.163 22.3501 209.908 20.3142 208.552C18.2778 207.198 16.31 205.745 14.4164 204.189C12.5312 202.622 10.7027 200.973 9.05859 199.069ZM29.5876 177.209C29.6594 175.199 30.0131 173.293 30.4525 171.417C30.9027 169.546 31.4638 167.715 32.1201 165.918C32.7758 164.121 33.5304 162.361 34.3952 160.641C35.2709 158.925 36.2334 157.241 37.4809 155.66C37.4128 157.671 37.0602 159.578 36.6203 161.453C36.1695 163.325 35.609 165.156 34.9491 166.951C34.2897 168.745 33.5352 170.506 32.6697 172.226C31.7934 173.942 30.8316 175.627 29.5876 177.209ZM30.8738 183.972C31.2245 181.971 31.8417 180.109 32.539 178.289C33.2465 176.474 34.0583 174.715 34.9605 173.003C35.8615 171.291 36.8559 169.627 37.9546 168.019C39.063 166.415 40.2532 164.855 41.7123 163.436C41.3646 165.44 40.7486 167.302 40.0513 169.122C39.3432 170.936 38.5314 172.695 37.6262 174.405C36.7215 176.116 35.7271 177.78 34.6284 179.388C33.5183 180.99 32.3286 182.551 30.8738 183.972ZM31.8465 190.512C32.4678 188.482 33.3381 186.619 34.2837 184.806C35.239 183.001 36.2924 181.261 37.4291 179.578C38.5657 177.894 39.7898 176.27 41.1109 174.712C42.4416 173.16 43.8488 171.66 45.508 170.328C44.8896 172.361 44.0206 174.225 43.0738 176.036C42.1185 177.842 41.065 179.582 39.9248 181.262C38.7851 182.943 37.5611 184.568 36.2394 186.127C34.9093 187.678 33.5026 189.18 31.8465 190.512ZM32.56 197.728C33.5454 195.542 34.7622 193.544 36.0496 191.604C37.3465 189.672 38.7345 187.814 40.2008 186.02C41.6665 184.226 43.2142 182.498 44.8529 180.845C46.5 179.199 48.2194 177.612 50.1733 176.216C49.1922 178.405 47.9754 180.403 46.6874 182.342C45.3905 184.274 44.0025 186.133 42.5332 187.924C41.0638 189.716 39.5168 191.443 37.8775 193.096C36.2285 194.741 34.5103 196.329 32.56 197.728ZM33.1386 205.211C34.3542 203.129 35.7808 201.26 37.2706 199.454C38.7694 197.657 40.3515 195.944 42.0052 194.303C43.6578 192.662 45.385 191.094 47.1955 189.611C49.0138 188.136 50.8971 186.725 52.9939 185.53C51.7819 187.615 50.3559 189.485 48.8649 191.29C47.3661 193.087 45.784 194.8 44.1279 196.438C42.4717 198.077 40.745 199.643 38.9346 201.127C37.1151 202.601 35.2329 204.012 33.1386 205.211ZM33.4912 210.008C34.8484 208.202 36.3871 206.636 37.9805 205.141C39.5807 203.657 41.2525 202.266 42.9852 200.956C44.7173 199.645 46.5133 198.418 48.3804 197.286C50.2541 196.162 52.1839 195.112 54.2962 194.303C52.9408 196.112 51.4034 197.679 49.8093 199.173C48.2086 200.657 46.5374 202.049 44.8023 203.355C43.0677 204.663 41.2718 205.89 39.4047 207.022C37.5297 208.145 35.6012 209.196 33.4912 210.008ZM33.684 214.015C35.3179 212.364 37.1006 210.974 38.9286 209.662C40.7625 208.361 42.6549 207.161 44.5979 206.049C46.5404 204.937 48.5352 203.916 50.5886 202.997C52.6473 202.088 54.7525 201.26 57.0077 200.693C55.3757 202.348 53.5935 203.739 51.765 205.05C49.931 206.352 48.0386 207.552 46.0938 208.66C44.1489 209.769 42.1541 210.789 40.1014 211.708C38.042 212.616 35.9375 213.446 33.684 214.015ZM33.534 216.615C35.4993 215.223 37.5689 214.112 39.6698 213.086C41.775 212.072 43.9217 211.168 46.1028 210.358C48.2839 209.548 50.5018 208.837 52.7606 208.236C55.0237 207.646 57.3187 207.141 59.7192 206.922C57.755 208.317 55.686 209.429 53.5845 210.454C51.4787 211.469 49.3326 212.373 47.1497 213.179C44.9668 213.985 42.7489 214.697 40.4901 215.298C38.2276 215.886 35.9332 216.391 33.534 216.615Z" fill="#50661A"/>
<path d="M34.3613 216.348C34.3613 216.348 48.8979 192.187 51.1761 186.122" stroke="#5E7C24" stroke-width="0.514286" stroke-miterlimit="10"/>
<path d="M46.2944 173.45C46.9417 174.986 47.3497 176.544 47.6866 178.109C48.0132 179.676 48.2459 181.25 48.3983 182.833C48.5508 184.415 48.6195 186.006 48.5942 187.606C48.5599 189.206 48.452 190.813 48.103 192.443C47.4527 190.908 47.0435 189.35 46.7078 187.785C46.3812 186.219 46.1485 184.644 45.9997 183.061C45.8502 181.478 45.7815 179.887 45.8068 178.288C45.8412 176.688 45.9484 175.08 46.2944 173.45ZM40.9782 180.707C41.761 182.137 42.3083 183.611 42.785 185.099C43.2515 186.59 43.6257 188.098 43.9198 189.621C44.2145 191.144 44.4267 192.683 44.5466 194.24C44.6569 195.798 44.6949 197.37 44.4948 198.988C43.7089 197.559 43.1605 196.084 42.6849 194.596C42.2185 193.106 41.8442 191.598 41.5531 190.074C41.2614 188.551 41.0493 187.012 40.9299 185.455C40.8203 183.897 40.7817 182.324 40.9782 180.707ZM38.0497 189.155C38.7446 190.49 39.2015 191.859 39.5878 193.238C39.9639 194.619 40.2459 196.013 40.4484 197.418C40.6509 198.823 40.7702 200.24 40.7968 201.67C40.8136 203.102 40.7576 204.544 40.4611 206.02C39.7632 204.685 39.3051 203.316 38.92 201.937C38.5439 200.557 38.2619 199.163 38.063 197.757C37.8635 196.352 37.7442 194.935 37.7183 193.504C37.7014 192.073 37.7568 190.63 38.0497 189.155ZM34.3614 197.587C35.0629 198.714 35.5275 199.882 35.9205 201.062C36.3044 202.244 36.5949 203.442 36.8058 204.653C37.0174 205.865 37.1457 207.09 37.1813 208.332C37.2078 209.575 37.1614 210.831 36.8763 212.129C36.1718 211.002 35.7059 209.835 35.3136 208.654C34.9297 207.472 34.6392 206.275 34.4313 205.063C34.2233 203.851 34.0944 202.625 34.0594 201.383C34.0329 200.139 34.0787 198.884 34.3614 197.587ZM31.1069 202.858C31.8271 203.843 32.3213 204.87 32.7528 205.909C33.1753 206.949 33.5128 208.006 33.7876 209.074C34.0606 210.143 34.2655 211.225 34.4126 212.319C34.4801 212.87 34.5422 213.418 34.5837 213.976C34.6458 214.53 34.6217 215.094 34.7657 215.673C34.6356 215.609 34.5072 215.519 34.3656 215.421L34.0407 215.096C33.8105 214.87 33.658 214.63 33.4724 214.387C33.1349 213.897 32.848 213.386 32.5985 212.869C32.0995 211.83 31.7264 210.758 31.4522 209.667C31.1744 208.577 30.993 207.465 30.9122 206.334C30.8411 205.201 30.8501 204.052 31.1069 202.858ZM49.4548 189.848C50.5728 188.584 51.827 187.588 53.1215 186.673C54.4215 185.769 55.7751 184.97 57.1745 184.26C58.5734 183.55 60.0204 182.935 61.5199 182.424C63.0247 181.923 64.5712 181.504 66.2545 181.356C65.1383 182.623 63.8848 183.62 62.5896 184.534C61.289 185.439 59.936 186.238 58.5348 186.944C57.1342 187.65 55.6877 188.266 54.1877 188.777C52.6828 189.277 51.1369 189.696 49.4548 189.848ZM45.8532 196.565C47.2798 195.364 48.8118 194.444 50.3757 193.609C51.9439 192.785 53.5537 192.072 55.199 191.452C56.8437 190.833 58.5263 190.312 60.2494 189.901C61.9767 189.5 63.7371 189.186 65.6036 189.156C64.1789 190.36 62.6469 191.281 61.0829 192.115C59.5147 192.939 57.905 193.653 56.2585 194.268C54.612 194.884 52.9299 195.406 51.2062 195.817C49.4789 196.215 47.7191 196.53 45.8532 196.565ZM41.614 204.03C42.8893 202.865 44.2736 201.978 45.6905 201.176C47.1122 200.385 48.5767 199.704 50.078 199.118C51.5793 198.53 53.1185 198.041 54.7005 197.661C56.2868 197.291 57.9068 197.008 59.6371 197.007C58.3636 198.177 56.9793 199.064 55.5618 199.865C54.1401 200.656 52.6755 201.337 51.1725 201.92C49.67 202.503 48.1307 202.993 46.5481 203.372C44.9619 203.741 43.3425 204.025 41.614 204.03ZM38.2631 209.776C39.3877 208.772 40.6021 208.054 41.8436 207.422C43.0887 206.802 44.3688 206.294 45.6797 205.882C46.9899 205.47 48.332 205.158 49.7092 204.958C51.0899 204.77 52.4978 204.669 53.9966 204.857C52.8732 205.866 51.6594 206.585 50.4173 207.216C49.1722 207.836 47.8921 208.344 46.5801 208.752C45.2686 209.161 43.9265 209.473 42.5493 209.672C41.1686 209.859 39.7608 209.961 38.2631 209.776Z" fill="#5E7C24"/>
<path d="M35.6191 214.933C36.8396 213.726 38.1793 212.795 39.5546 211.947C40.9354 211.11 42.3625 210.381 43.83 209.745C45.2976 209.108 46.8067 208.568 48.3628 208.135C49.9231 207.713 51.5202 207.376 53.2379 207.317C52.0192 208.527 50.6801 209.459 49.3042 210.306C47.9234 211.143 46.4963 211.872 45.027 212.505C43.5582 213.138 42.0491 213.678 40.493 214.11C38.9327 214.532 37.3356 214.869 35.6191 214.933ZM50.6264 186.989C50.3582 185.26 50.4993 183.692 50.744 182.163C51.0085 180.643 51.4244 179.182 51.9752 177.773C52.5237 176.364 53.2113 175.009 54.0509 173.713C54.9097 172.424 55.874 171.178 57.2517 170.092C57.5253 171.823 57.3855 173.392 57.1396 174.92C56.875 176.44 56.458 177.901 55.9029 179.307C55.3502 180.715 54.6608 182.07 53.8218 183.365C52.9624 184.654 51.9993 185.902 50.6264 186.989Z" fill="#5E7C24"/>
<path d="M38.0058 233.459H27.1148L23.6109 214.899C23.5247 214.444 23.8712 214.021 24.3317 214.021H40.7884C41.2489 214.021 41.5954 214.444 41.5092 214.899L38.0058 233.459Z" fill="#935B50"/>
<path d="M41.2561 216.241L41.5092 214.9C41.5954 214.444 41.2489 214.021 40.7884 214.021H24.3317C23.8712 214.021 23.5247 214.444 23.6109 214.9L23.864 216.241H41.2561Z" fill="#D6694B"/>
<path d="M27.985 228.203L25.6846 225.884L27.985 223.565L30.286 225.884L27.985 228.203Z" fill="#D6694B"/>
<path d="M32.5856 228.203L30.2852 225.884L32.5856 223.565L34.8866 225.884L32.5856 228.203Z" fill="#D6694B"/>
<path d="M37.1334 228.203L34.833 225.884L37.1334 223.565L39.4345 225.884L37.1334 228.203Z" fill="#D6694B"/>
<path d="M201.737 152.002H226.673C228.367 152.002 229.397 150.136 228.491 148.706L222.606 139.413C222.212 138.79 221.525 138.413 220.787 138.413H207.622C206.884 138.413 206.198 138.79 205.804 139.413L199.919 148.706C199.013 150.136 200.042 152.002 201.737 152.002Z" fill="#4F66D0"/>
<path d="M214.204 148.883C216.238 148.883 217.886 147.238 217.886 145.207C217.886 143.177 216.238 141.532 214.204 141.532C212.171 141.532 210.522 143.177 210.522 145.207C210.522 147.238 212.171 148.883 214.204 148.883Z" fill="#8795DE"/>
<path d="M209.635 145.208C209.635 147.728 211.681 149.771 214.205 149.771C216.729 149.771 218.776 147.728 218.776 145.208C218.776 142.687 216.729 140.644 214.205 140.644C211.681 140.644 209.635 142.687 209.635 145.208Z" stroke="#8795DE" stroke-width="0.514286" stroke-linecap="round" stroke-linejoin="round" stroke-dasharray="1.22 1.22"/>
<path d="M214.205 138.413V135.596" stroke="#4F66D0" stroke-width="1.02857" stroke-miterlimit="10" stroke-linecap="round" stroke-linejoin="round"/>
<path d="M219.176 135.596H209.236" stroke="#4F66D0" stroke-width="1.02857" stroke-miterlimit="10" stroke-linecap="round" stroke-linejoin="round"/>
<path d="M180.794 114.364C178.938 115.964 174.32 120.401 172.839 127.65C172.379 129.896 170.676 138.234 176.166 144.546C178.912 147.704 184.519 151.574 189.183 150.033C194.363 148.323 194.425 141.248 200.032 139.78C202.647 139.095 205.158 139.974 206.83 140.791" stroke="#4F66D0" stroke-width="0.612" stroke-miterlimit="10" stroke-linecap="round" stroke-linejoin="round" stroke-dasharray="1.22 1.22"/>
<path d="M-1.84277 233.833H299.497" stroke="#935B50" stroke-width="1.02857" stroke-miterlimit="10"/>
</g>
<defs>
<clipPath id="clip0_0_2839">
<rect width="300" height="234" fill="white"/>
</clipPath>
</defs>
</svg>
