<svg width="20" height="20" viewBox="0 0 20 20" fill="none" xmlns="http://www.w3.org/2000/svg">
<path d="M12.0333 15.8751L13.3 17.1417L15.8333 14.6084" stroke="#30B52D" stroke-width="1.5" stroke-linecap="round" stroke-linejoin="round"/>
<path d="M10.1333 9.05817C10.05 9.04984 9.94996 9.04984 9.85829 9.05817C7.87496 8.9915 6.29996 7.3665 6.29996 5.3665C6.29162 3.32484 7.94996 1.6665 9.99162 1.6665C12.0333 1.6665 13.6916 3.32484 13.6916 5.3665C13.6916 7.3665 12.1083 8.9915 10.1333 9.05817Z" fill="#30B52D" stroke="#30B52D" stroke-width="1.5" stroke-linecap="round" stroke-linejoin="round"/>
<g opacity="0.4">
<path d="M9.9917 18.1751C8.47503 18.1751 6.9667 17.7917 5.8167 17.0251C3.80003 15.6751 3.80003 13.4751 5.8167 12.1334C8.10837 10.6001 11.8667 10.6001 14.1584 12.1334" fill="#D9D9D9"/>
<path d="M9.9917 18.1751C8.47503 18.1751 6.9667 17.7917 5.8167 17.0251C3.80003 15.6751 3.80003 13.4751 5.8167 12.1334C8.10837 10.6001 11.8667 10.6001 14.1584 12.1334" stroke="#30B52D" stroke-width="1.5" stroke-linecap="round" stroke-linejoin="round"/>
</g>
</svg>
