  <svg
            width="187"
            height="85"
            viewBox="0 0 187 85"
            fill="none"
            xmlns="http://www.w3.org/2000/svg"
          >
            <g opacity="0.4" clip-path="url(#clip0_0_5007)">
              <path
                d="M33.6092 61.5006C33.4274 61.5006 33.2456 61.4746 33.0637 61.4487C28.3108 60.6175 21.7658 57.8125 15.1169 53.7609C5.4293 47.8912 0.39069 40.9046 0.104996 33.0351C-0.154726 25.2694 4.10472 17.4777 10.7536 13.6078C15.4026 10.9067 20.8308 9.94574 26.0512 10.9067C31.5314 11.9196 36.4401 14.9584 40.2581 19.6594C41.3489 21.0099 41.1411 22.9578 39.7906 24.0487C38.44 25.1395 36.4921 24.9317 35.4013 23.5812C29.7653 16.6206 21.1425 14.7766 13.8962 18.9841C9.19528 21.7371 6.15653 27.2692 6.3643 32.8013C6.57208 38.4373 10.5978 43.7096 18.3635 48.4366C27.1421 53.7609 32.6742 55.0335 34.1806 55.2932C35.8688 55.5789 37.0115 57.2152 36.6999 58.9034C36.4142 60.4617 35.0896 61.5006 33.6092 61.5006Z"
                fill="white"
              />
              <path
                d="M68.4129 26.6979C68.1791 26.6979 67.9194 26.672 67.6857 26.62C66.0234 26.2045 64.9845 24.5163 65.4001 22.854C65.8416 21.01 66.3351 17.3999 64.595 13.7897C62.1276 8.69918 56.18 5.53057 50.7518 6.41363C45.9209 7.1928 42.9082 11.1406 41.3239 13.2703C39.7915 15.2961 38.7266 17.322 38.0514 19.4777C37.5319 21.1139 35.7918 22.0489 34.1555 21.5295C32.5193 21.01 31.5843 19.2699 32.1037 17.6336C32.9868 14.7767 34.3893 12.1015 36.3372 9.50432C38.3111 6.88113 42.4407 1.42696 49.7648 0.25821C57.9461 -1.06637 66.5429 3.47877 70.205 11.0627C72.8022 16.4389 72.1009 21.6853 71.4776 24.3345C71.088 25.7629 69.8154 26.6979 68.4129 26.6979Z"
                fill="white"
              />
              <path
                d="M54.545 40.0996C54.3892 41.3203 54.2334 42.7488 54.0516 44.3591C53.8698 45.9694 53.662 47.6576 53.4542 49.3977C53.2464 51.1378 53.0387 52.9039 52.8049 54.67C52.5712 56.4362 52.3634 58.0984 52.1816 59.6567C51.9738 61.215 51.792 62.6176 51.6362 63.8642C51.4803 65.1109 51.3245 66.0719 51.2206 66.7212C51.0648 67.2926 50.883 67.838 50.6492 68.3834C50.4155 68.9288 50.1298 69.4223 49.7921 69.8378C49.4545 70.2794 49.013 70.617 48.5195 70.9027C48.026 71.1884 47.4287 71.3442 46.7274 71.3702C46.4417 71.3182 46.182 71.2144 45.9742 71.0845C45.7664 70.9546 45.7405 70.7209 45.8703 70.3832C45.8703 70.2014 45.9223 70.0196 46.0262 69.8378C46.13 69.682 46.2339 69.4482 46.3118 69.1885C46.4157 68.9028 46.5196 68.6171 46.6235 68.2535L46.5975 68.2795C46.8573 67.1887 47.065 65.9939 47.2728 64.7213C47.4806 63.4227 47.6364 62.0981 47.8182 60.6956C47.9741 59.2931 48.1299 57.8906 48.2598 56.4621C48.3896 55.0337 48.5195 53.6571 48.6234 52.3066C48.7273 51.1898 48.8312 50.1249 48.9091 49.112C49.013 48.0991 49.0909 47.1381 49.1948 46.255C49.2987 45.372 49.4025 44.5669 49.5064 43.8396C49.6103 43.1124 49.7402 42.4891 49.87 41.9956C49.1169 42.6709 48.2857 43.2942 47.4027 43.9175C46.5196 44.5149 45.6366 44.9824 44.7795 45.2941C44.286 45.4499 43.8445 45.5278 43.4289 45.5019C43.0134 45.5019 42.6498 45.398 42.3381 45.2421C42.0264 45.0863 41.7927 44.8525 41.6368 44.5409C41.481 44.2292 41.4031 43.8396 41.4291 43.3981C41.455 43.0864 41.507 42.7488 41.6368 42.3852C41.7407 42.0216 41.9225 41.606 42.1823 41.1645C42.5459 40.4632 43.0134 39.788 43.5848 39.1127C44.1562 38.4374 44.7535 37.7881 45.3509 37.1907C45.9742 36.5934 46.5716 36.048 47.1689 35.5805C47.7663 35.087 48.2598 34.6974 48.6753 34.4117C49.4025 33.8923 50.1817 33.3728 51.0388 32.8794C51.8959 32.3859 52.753 31.9444 53.636 31.5288C54.5191 31.1132 55.4021 30.7496 56.3112 30.4639C57.2202 30.1523 58.0773 29.9445 58.9084 29.7887C60.1291 29.5549 61.2978 29.5289 62.4146 29.6588C63.5314 29.7887 64.4924 30.1782 65.3495 30.8016C66.1806 31.4249 66.8559 32.308 67.3493 33.4507C67.8428 34.5935 68.1025 36.048 68.1285 37.7881C68.1285 37.918 68.1285 38.0478 68.1285 38.2296C68.1285 38.3855 68.1285 38.5413 68.1025 38.6971C68.0506 40.0737 67.8168 41.4502 67.4273 42.8267C67.0377 44.2292 66.4923 45.5538 65.765 46.8005C65.0638 48.0471 64.1807 49.1899 63.1419 50.2288C62.103 51.2677 60.9082 52.1248 59.5837 52.7741C61.3238 53.1896 62.6484 53.9169 63.5574 54.9817C64.4664 56.0466 65.0118 57.2932 65.1937 58.7217C65.2196 59.0593 65.2716 59.423 65.2716 59.7866C65.2975 60.1502 65.2716 60.5138 65.2716 60.8774C65.1937 62.4877 64.83 64.046 64.2327 65.5524C63.6353 67.0848 62.8302 68.5132 61.8692 69.8898C60.8823 71.2663 59.7914 72.5389 58.5448 73.7337C57.2981 74.9284 55.9995 75.9673 54.6489 76.8763C53.2984 77.7853 51.9219 78.5645 50.5453 79.1878C49.1688 79.8112 47.8442 80.2527 46.5975 80.5124C45.7145 80.6942 44.8574 80.7721 44.0263 80.7721C42.5978 80.7462 41.2732 80.4605 40.0785 79.967C38.8838 79.4735 37.8449 78.7463 37.0138 77.8113C36.1567 76.8763 35.5074 75.7595 35.0659 74.4089C34.6244 73.0584 34.4425 71.552 34.5205 69.8378C34.5464 69.2924 34.5984 68.773 34.6763 68.2275C34.7542 67.6821 34.8581 67.1367 34.988 66.5653C35.2996 65.3187 35.7671 64.1499 36.4164 63.0071C37.0657 61.8903 37.767 60.8774 38.5721 59.9944C39.3773 59.1113 40.2084 58.3841 41.0914 57.7867C41.9745 57.1894 42.8056 56.8257 43.5848 56.6699C44.1302 56.566 44.6237 56.54 45.0912 56.6439C45.5587 56.7478 45.9482 56.9816 46.2859 57.3192C46.6235 57.6828 46.8573 58.1763 47.0131 58.7996C47.1689 59.423 47.2469 60.2281 47.1949 61.1891C47.1949 61.3709 47.1689 61.5527 47.143 61.7864C47.117 62.0202 47.091 62.202 47.065 62.4098C46.8573 62.7993 46.6755 63.0071 46.4937 63.0591C46.3119 63.085 46.182 63.0331 46.0781 62.9032C46.1041 62.0462 46.0781 61.3449 45.9742 60.7735C45.8703 60.2021 45.7405 59.7346 45.5327 59.397C45.3509 59.0594 45.1171 58.8256 44.8574 58.7217C44.5977 58.5918 44.286 58.5659 43.9743 58.6438C43.4809 58.7477 42.9614 59.0334 42.416 59.5009C41.8706 59.9684 41.3252 60.5398 40.8057 61.241C40.2863 61.9423 39.8188 62.7214 39.3773 63.6045C38.9357 64.4876 38.5981 65.3706 38.3644 66.2796C38.2085 66.903 38.0787 67.5263 37.9748 68.1756C37.8709 68.7989 37.8189 69.3963 37.793 69.9417C37.741 71.3182 37.8449 72.5909 38.1306 73.7337C38.4163 74.8764 38.8578 75.8374 39.4292 76.6166C40.0266 77.3957 40.7538 77.9931 41.6368 78.3827C42.5199 78.7723 43.5328 78.9281 44.6756 78.8502C44.8574 78.8502 45.0392 78.8242 45.195 78.7982C45.3769 78.7723 45.5327 78.7463 45.7145 78.6943C46.8313 78.4606 47.9481 78.0191 49.1169 77.3438C50.2856 76.6685 51.4284 75.8374 52.5192 74.8505C53.61 73.8635 54.6489 72.7467 55.6099 71.526C56.5709 70.3053 57.428 69.0067 58.1552 67.6562C58.8824 66.3056 59.4538 64.955 59.8693 63.5785C60.2849 62.202 60.4927 60.8514 60.4667 59.5528C60.4667 58.7217 60.3368 57.9685 60.1031 57.3192C59.8693 56.6439 59.5057 56.0985 59.0123 55.631C58.5188 55.1895 57.8695 54.8519 57.0903 54.6441C56.3112 54.4363 55.3502 54.3584 54.2593 54.4623C54.2074 54.4103 54.1555 54.3064 54.1555 54.1766C54.1555 54.0467 54.1555 53.9169 54.1814 53.761C54.2074 53.6052 54.2334 53.4494 54.3113 53.3195C54.3632 53.1637 54.4412 53.0598 54.545 52.9819C55.8956 52.2546 57.0384 51.3716 58.0253 50.3846C59.0123 49.3977 59.8174 48.3068 60.4667 47.1641C61.116 46.0213 61.6095 44.8266 61.9471 43.6059C62.2848 42.3852 62.4925 41.1905 62.5445 39.9957C62.5445 39.8399 62.5705 39.6841 62.5705 39.5282C62.5705 39.3724 62.5705 39.2425 62.5705 39.0867C62.5705 38.0998 62.4406 37.2687 62.2328 36.5414C62.025 35.8402 61.7134 35.2428 61.3498 34.7753C60.9862 34.3078 60.5446 33.9442 60.0252 33.7105C59.5057 33.4767 58.9603 33.3209 58.337 33.243C57.5578 33.1391 56.6748 33.191 55.7138 33.3988C54.7009 33.6066 53.636 33.9702 52.5192 34.4896C51.4024 35.0091 50.3635 35.5805 49.3506 36.2038C48.052 37.0869 46.9352 37.9699 46.0002 38.853C45.0652 39.736 44.3899 40.4892 43.9743 41.1385C43.7406 41.5021 43.5588 41.8398 43.4289 42.1514C43.2991 42.4631 43.2212 42.7228 43.2212 42.9566C43.1952 43.2682 43.2991 43.4501 43.5588 43.5539C43.7925 43.6319 44.1562 43.5799 44.6496 43.3202C44.9353 43.1644 45.247 42.9566 45.5846 42.6969C45.9223 42.4371 46.2859 42.1774 46.6495 41.8917C47.0131 41.606 47.4027 41.2944 47.7663 40.9827C48.1299 40.671 48.4935 40.3594 48.8571 40.0477C49.3506 39.6062 49.8181 39.1906 50.2596 38.827C50.7271 38.4374 51.0648 38.1517 51.3245 37.9959C51.6362 37.7881 51.9218 37.6323 52.2075 37.4764C52.4932 37.3466 52.753 37.2427 52.9607 37.1907C53.2984 37.1128 53.5841 37.1388 53.7919 37.2427C53.9996 37.3466 54.1814 37.5543 54.2853 37.8141C54.4152 38.0738 54.4931 38.4114 54.5191 38.801C54.545 39.1906 54.545 39.6062 54.545 40.0996Z"
                fill="white"
              />
              <path
                d="M186.897 49.4751C176.3 51.2672 165.756 53.293 155.289 55.5786C144.796 57.8641 134.381 60.3834 124.018 63.1365C118.85 64.513 113.681 65.9675 108.539 67.4738C103.396 68.9802 98.2799 70.5386 93.1634 72.1488C88.0729 73.7851 82.9823 75.4473 77.9177 77.1875C72.8531 78.9276 67.8145 80.7197 62.8019 82.5637C61.1916 83.1611 59.3995 82.33 58.8022 80.7197C58.2048 79.1094 59.0359 77.3173 60.6462 76.72C60.6981 76.694 60.7501 76.694 60.776 76.668C65.9185 75.0577 71.087 73.4994 76.2555 71.993C81.424 70.4866 86.6184 69.0582 91.8388 67.6557C97.0592 66.2791 102.28 64.9545 107.5 63.7079C112.746 62.4612 117.993 61.2665 123.239 60.1237C133.758 57.8641 144.329 55.8383 154.951 54.0462C165.6 52.2801 176.249 50.7737 186.897 49.4751Z"
                fill="white"
              />
              <path
                d="M78.668 54.0719C78.2784 55.0069 77.8369 55.9679 77.3434 57.0067C76.8499 58.0197 76.3045 58.9806 75.6552 59.8897C75.0059 60.7727 74.2787 61.5519 73.4476 62.2272C72.6165 62.9024 71.6555 63.344 70.5906 63.5517C69.7855 63.7076 69.1102 63.6816 68.5388 63.3959C67.9674 63.1362 67.4999 62.7206 67.1363 62.1492C66.7727 61.5778 66.513 60.9026 66.3312 60.0974C66.1494 59.2923 66.0715 58.4352 66.0455 57.5262C66.0455 57.2924 66.0455 57.0847 66.0195 56.8509C66.0195 56.6431 66.0195 56.4094 66.0455 56.1497V56.1756C66.0974 55.1887 66.2273 54.1498 66.4351 53.1109C66.6429 52.046 66.9286 51.0072 67.2662 49.9942C67.6038 48.9554 67.9934 47.9944 68.4609 47.0594C68.9284 46.1244 69.4219 45.2933 69.9933 44.5401C70.5647 43.7869 71.162 43.1635 71.8113 42.6701C72.4606 42.1766 73.1359 41.8649 73.8372 41.7091C74.5124 41.5792 75.1098 41.6052 75.6552 41.839C76.2006 42.0727 76.6422 42.4104 77.0318 42.8519C77.3954 43.3194 77.6811 43.8648 77.8888 44.4881C78.0706 45.1374 78.1745 45.7867 78.1486 46.514C78.0706 47.5009 77.7849 48.4879 77.2915 49.3969C76.798 50.3319 76.1747 51.189 75.4474 51.9681C74.7202 52.7473 73.9411 53.4485 73.084 54.0459C72.2269 54.6433 71.4218 55.1108 70.6426 55.4744C70.5906 55.786 70.5387 56.0977 70.5127 56.4353C70.4868 56.747 70.4608 57.1106 70.4348 57.4483C70.4348 57.6041 70.4088 57.734 70.4088 57.8898C70.4088 58.0456 70.4088 58.1755 70.4088 58.3313C70.4088 58.7209 70.4608 59.0845 70.5127 59.4222C70.5647 59.7598 70.6686 60.0715 70.8244 60.3312C70.9802 60.5909 71.162 60.7987 71.4218 60.9285C71.6815 61.0584 71.9931 61.1103 72.3568 61.0584C72.9281 60.9285 73.4995 60.5909 73.993 60.0715C74.5124 59.552 74.9799 58.9547 75.4215 58.2794C75.863 57.6041 76.2526 56.8769 76.6162 56.1237C76.9798 55.3705 77.2915 54.6952 77.5772 54.0719V54.0978C77.9408 53.2927 78.2524 52.4876 78.5641 51.7084C78.8758 50.9292 79.1355 50.228 79.3952 49.6047C79.5251 49.319 79.6549 48.9813 79.7848 48.6177C79.9406 48.2541 80.0705 47.9424 80.1744 47.6567C80.3562 47.5269 80.4601 47.4749 80.512 47.449C80.6419 47.423 80.7717 47.449 80.8497 47.5269C80.9276 47.6048 81.0055 47.7087 81.0834 47.8386L80.8756 48.4619C80.6159 49.1631 80.2783 50.0202 79.8887 51.0072C79.577 51.9941 79.1355 53.007 78.668 54.0719ZM76.6941 45.0076C76.4604 44.5401 76.1747 44.3583 75.837 44.4102C75.5513 44.4622 75.2397 44.6959 74.902 45.0855C74.5644 45.4751 74.2268 45.9686 73.8891 46.5399C73.5515 47.1113 73.2138 47.7606 72.9022 48.4619C72.5905 49.1631 72.2788 49.8644 72.0451 50.5397C71.7854 51.2149 71.5776 51.8642 71.3698 52.4876C71.162 53.1109 71.0322 53.6044 70.9802 53.968C71.4997 53.7862 72.097 53.4745 72.7983 53.007C73.4736 52.5395 74.1488 51.9941 74.7722 51.3448C75.3955 50.6955 75.9409 49.9942 76.3824 49.241C76.824 48.4878 77.0837 47.7087 77.1097 46.9035C77.1356 46.2542 77.0058 45.6309 76.6941 45.0076Z"
                fill="white"
              />
              <path
                d="M90.2272 48.0981L91.7336 44.1763C91.2141 44.2283 90.7466 44.1763 90.383 43.9686C89.9934 43.7867 89.6818 43.501 89.448 43.1374C89.1883 42.7738 89.0324 42.3583 88.9026 41.8648C88.7987 41.3713 88.7468 40.8779 88.7987 40.3324C88.8506 39.7611 88.9805 39.1637 89.1883 38.5144C89.3961 37.8651 89.6817 37.2677 89.9934 36.6963C90.3311 36.1249 90.7206 35.6574 91.1881 35.2419C91.6297 34.8263 92.1491 34.5666 92.6945 34.4627C93.3958 34.3069 93.8892 34.4367 94.1749 34.8263C94.4606 35.2159 94.6165 35.8912 94.5905 36.8002C94.5645 37.2937 94.4866 37.8391 94.3827 38.4105C94.2788 38.9819 94.149 39.5273 94.0191 40.0208C93.8892 40.5402 93.7594 40.9818 93.6555 41.3973C93.5256 41.8129 93.4477 42.1245 93.3958 42.3323C93.7594 42.3583 94.123 42.3583 94.4606 42.2804C94.7983 42.2284 95.1359 42.1765 95.4476 42.0985C95.7592 42.0206 96.0709 41.9687 96.3047 41.9427C96.5644 41.9168 96.7722 41.9168 96.954 41.9947C97.1358 42.0726 97.2656 42.2284 97.3436 42.4362C97.4215 42.644 97.4474 42.9556 97.4215 43.3972C97.3955 43.7088 97.3695 44.0205 97.2916 44.3062L97.0838 45.423C96.954 46.0723 96.8241 46.7736 96.6942 47.5008C96.5644 48.228 96.4345 48.9552 96.3306 49.6824C96.2268 50.4097 96.1229 51.0849 96.019 51.7343C95.9151 52.3836 95.8631 52.9549 95.8372 53.4484C95.8112 54.0198 95.8631 54.4873 95.967 54.8249C96.0709 55.1885 96.2267 55.3704 96.3826 55.3444C96.6683 55.1626 96.9799 54.8249 97.3176 54.3055C97.6812 53.812 98.0188 53.2147 98.3824 52.5134C98.7461 51.8122 99.1097 51.059 99.4992 50.2538C99.8888 49.4487 100.252 48.6436 100.59 47.8384C100.928 47.0333 101.265 46.2541 101.551 45.5269C101.837 44.7997 102.096 44.1504 102.33 43.605L102.408 43.3972H102.382C102.46 43.2154 102.538 43.0595 102.59 42.9297C102.668 42.7998 102.772 42.7219 102.954 42.6959C103.161 42.644 103.343 42.7998 103.551 43.1115L103.317 43.7088C103.109 44.2542 102.876 44.8776 102.616 45.5788C102.356 46.2801 102.045 47.0333 101.733 47.8124C101.421 48.5916 101.084 49.3967 100.72 50.2019C100.356 51.007 99.9927 51.7862 99.6291 52.5394C99.2655 53.2926 98.9019 53.9679 98.5123 54.6172C98.1227 55.2405 97.7591 55.7599 97.4215 56.1755C97.1098 56.5391 96.7722 56.8508 96.3306 57.1365C95.9151 57.4222 95.4995 57.604 95.058 57.6819C94.6684 57.7598 94.3048 57.7079 94.0451 57.5261C93.7594 57.3183 93.5256 57.0326 93.3438 56.643C93.162 56.2534 93.0322 55.7859 92.9283 55.2405C92.8504 54.6951 92.7984 54.1237 92.7724 53.5004C92.7724 53.3186 92.7724 53.1108 92.7724 52.903C92.7724 52.6952 92.7724 52.5134 92.7984 52.3056C92.8244 51.8641 92.8763 51.2668 92.9802 50.4876C93.0841 49.7344 93.214 48.9293 93.3698 48.0981C93.5256 47.267 93.6815 46.4619 93.8373 45.6827C93.9931 44.9036 94.1749 44.2802 94.3308 43.7608L92.7724 44.0205C92.5127 44.6958 92.279 45.3711 92.0192 46.0463C91.7595 46.7216 91.4998 47.3969 91.2401 48.0462L90.2272 48.0981ZM91.4998 41.2155C91.4738 41.5531 91.5258 41.8388 91.6297 42.0206C91.7336 42.2284 91.9413 42.3323 92.253 42.3323C92.3049 42.1505 92.4088 41.8908 92.5127 41.5272C92.6426 41.1636 92.7465 40.748 92.8763 40.2805C93.0062 39.813 93.1101 39.3715 93.214 38.904C93.3179 38.4365 93.3698 38.0469 93.3958 37.6833C93.3958 37.3197 93.3698 37.1379 93.3179 37.1379C93.188 37.1638 93.0322 37.3197 92.8504 37.6054C92.6426 37.8911 92.4608 38.2287 92.279 38.6442C92.0972 39.0598 91.9154 39.5013 91.7855 39.9429C91.6037 40.4104 91.5258 40.8259 91.4998 41.2155Z"
                fill="white"
              />
              <path
                d="M103.262 38.7221C103.314 38.4365 103.314 38.1767 103.314 37.969C103.314 37.7872 103.314 37.6054 103.34 37.4495C103.392 37.2158 103.521 37.0599 103.703 36.956C103.885 36.8781 104.093 36.8522 104.301 36.8781C104.95 37.008 105.417 37.1898 105.729 37.4495C106.041 37.7092 106.197 38.0728 106.197 38.5923C106.197 38.826 106.171 39.1117 106.145 39.4234C106.093 39.7351 106.041 40.0727 105.937 40.4363C105.807 41.0337 105.625 41.7349 105.469 42.566C105.288 43.3972 105.132 44.2802 104.95 45.2152C104.794 46.1502 104.638 47.0592 104.508 47.9683C104.379 48.8773 104.301 49.7084 104.223 50.4616C104.223 50.6434 104.197 50.8252 104.197 51.033C104.197 51.2408 104.197 51.3966 104.197 51.5524C104.223 52.1758 104.275 52.6433 104.405 53.0069C104.508 53.3705 104.716 53.5263 104.976 53.4744C105.184 53.4224 105.443 53.2406 105.703 52.877C105.989 52.5134 106.275 52.0719 106.586 51.5005C106.898 50.9551 107.21 50.3058 107.547 49.6305C107.859 48.9292 108.196 48.228 108.508 47.4748C108.82 46.7216 109.131 45.9944 109.443 45.2671C109.729 44.5399 109.989 43.8906 110.222 43.2933C110.404 42.8258 110.586 42.4362 110.716 42.0726C110.846 41.709 110.975 41.4233 111.105 41.1895C111.261 41.0596 111.365 41.0077 111.443 40.9817C111.651 40.9298 111.833 41.0856 112.04 41.3973L111.807 41.9947C111.521 42.7479 111.183 43.6309 110.82 44.5919C110.456 45.5529 110.066 46.5398 109.625 47.5267C109.183 48.5137 108.742 49.5006 108.274 50.4616C107.807 51.4226 107.313 52.2797 106.846 53.0588C106.378 53.838 105.885 54.4613 105.417 54.9808C104.924 55.4742 104.482 55.7859 104.015 55.8898C103.47 55.9937 103.028 55.9677 102.664 55.8119C102.301 55.6301 101.989 55.3704 101.755 54.9808C101.522 54.5912 101.366 54.1237 101.262 53.5783C101.158 53.0328 101.106 52.4095 101.08 51.7602C101.08 51.5524 101.08 51.3447 101.08 51.1109C101.08 50.9031 101.08 50.6694 101.106 50.4616C101.184 48.7215 101.418 46.9813 101.781 45.2412C102.145 43.501 102.535 41.7609 102.976 39.9948L103.262 38.7221ZM107.287 31.1123C107.469 31.424 107.599 31.7097 107.677 31.9954C107.755 32.281 107.781 32.5408 107.781 32.7745C107.755 33.3719 107.547 33.8913 107.132 34.2809C106.742 34.6965 106.326 34.9302 105.885 35.0341C105.521 35.112 105.184 35.0081 104.898 34.7224C104.612 34.4367 104.482 33.9173 104.482 33.1901C104.482 32.9044 104.534 32.6187 104.612 32.307C104.69 31.9953 104.82 31.7097 104.95 31.4499C105.08 31.1902 105.236 30.9824 105.443 30.8006C105.625 30.6188 105.833 30.5149 106.041 30.463C106.249 30.411 106.456 30.437 106.664 30.5409C106.898 30.6448 107.106 30.8266 107.287 31.1123Z"
                fill="white"
              />
              <path
                d="M122.354 44.9293C121.964 45.8643 121.522 46.8253 121.029 47.8642C120.535 48.8771 119.99 49.8381 119.341 50.7471C118.691 51.6301 117.964 52.4093 117.133 53.0846C116.302 53.7599 115.341 54.2014 114.276 54.4092C113.471 54.565 112.796 54.539 112.224 54.2533C111.653 53.9936 111.185 53.578 110.822 53.0067C110.458 52.4353 110.199 51.76 110.017 50.9549C109.835 50.1497 109.757 49.2926 109.731 48.3836C109.731 48.1499 109.731 47.9421 109.705 47.7083C109.705 47.5006 109.705 47.2668 109.731 47.0071V47.033C109.783 46.0461 109.913 45.0072 110.121 43.9683C110.328 42.9035 110.614 41.8646 110.952 40.8517C111.289 39.8128 111.679 38.8518 112.146 37.9168C112.614 36.9818 113.107 36.1507 113.679 35.3975C114.25 34.6443 114.848 34.021 115.497 33.5275C116.146 33.034 116.821 32.7224 117.523 32.5665C118.198 32.4367 118.795 32.4626 119.341 32.6964C119.886 32.9301 120.328 33.2678 120.717 33.7093C121.107 34.1508 121.367 34.7222 121.574 35.3455C121.756 35.9948 121.86 36.6442 121.834 37.3714C121.756 38.3583 121.47 39.3453 120.977 40.2543C120.484 41.1893 119.86 42.0464 119.133 42.8256C118.406 43.6047 117.627 44.306 116.77 44.9033C115.912 45.5007 115.107 45.9682 114.328 46.3318C114.276 46.6435 114.224 46.9551 114.198 47.2928C114.172 47.6044 114.146 47.968 114.12 48.3057C114.12 48.4615 114.094 48.5914 114.094 48.7472C114.094 48.9031 114.094 49.0329 114.094 49.1887C114.094 49.5783 114.146 49.9419 114.198 50.2796C114.25 50.6172 114.354 50.9289 114.51 51.1886C114.666 51.4483 114.848 51.6561 115.107 51.786C115.367 51.9158 115.679 51.9678 116.042 51.9158C116.614 51.786 117.185 51.4483 117.679 50.9289C118.198 50.4094 118.665 49.8121 119.107 49.1368C119.549 48.4615 119.938 47.7343 120.302 46.9811C120.665 46.2279 120.977 45.5526 121.263 44.9293V44.9553C121.626 44.1501 121.938 43.345 122.25 42.5658C122.561 41.7867 122.821 41.0854 123.081 40.4621C123.211 40.1764 123.34 39.8387 123.47 39.4751C123.626 39.1115 123.756 38.7999 123.86 38.5142C124.042 38.3843 124.146 38.3324 124.198 38.3064C124.327 38.2804 124.457 38.3064 124.535 38.3843C124.613 38.4622 124.691 38.5661 124.769 38.696L124.561 39.3193C124.301 40.0206 123.964 40.8776 123.574 41.8646C123.237 42.8256 122.821 43.8644 122.354 44.9293ZM120.354 35.865C120.12 35.3975 119.834 35.2157 119.497 35.2676C119.211 35.3196 118.899 35.5533 118.562 35.9429C118.224 36.3325 117.886 36.826 117.549 37.3974C117.211 37.9687 116.873 38.6181 116.562 39.3193C116.25 40.0206 115.938 40.7218 115.705 41.3971C115.445 42.0724 115.237 42.7217 115.029 43.345C114.822 43.9683 114.692 44.4618 114.64 44.8254C115.159 44.6436 115.757 44.3319 116.458 43.8644C117.133 43.3969 117.808 42.8515 118.432 42.2022C119.055 41.5529 119.6 40.8517 120.042 40.0985C120.484 39.3453 120.743 38.5661 120.769 37.761C120.795 37.1117 120.665 36.4623 120.354 35.865Z"
                fill="white"
              />
              <path
                d="M127.263 37.6052C127.211 37.8129 127.185 37.9948 127.159 38.1766C127.133 38.3584 127.081 38.5402 127.055 38.696C127.237 38.3584 127.419 37.9948 127.575 37.6311C127.757 37.2675 127.939 36.8779 128.146 36.4884C128.536 35.6573 128.951 34.8261 129.393 33.995C129.835 33.1639 130.276 32.3848 130.744 31.6835C131.211 30.9823 131.73 30.3849 132.276 29.8914C132.821 29.3979 133.393 29.0863 134.016 28.9564C134.458 28.8785 134.795 28.8785 135.081 28.9824C135.367 29.0863 135.574 29.2681 135.756 29.5278C135.912 29.7875 136.042 30.0992 136.094 30.4888C136.146 30.8784 136.172 31.3199 136.146 31.7874C136.094 32.7743 135.912 33.9171 135.626 35.2157C135.341 36.4884 135.003 37.787 134.613 39.1116C134.302 40.3063 134.016 41.475 133.73 42.6178C133.471 43.7606 133.289 44.7216 133.237 45.5007C133.237 45.6825 133.237 45.8903 133.263 46.1241C133.263 46.3578 133.289 46.5656 133.341 46.7734C133.367 46.9811 133.445 47.137 133.523 47.2668C133.6 47.3967 133.704 47.4486 133.834 47.4227C134.042 47.3707 134.328 47.111 134.665 46.5916C135.003 46.0981 135.367 45.4748 135.782 44.7216C136.172 43.9684 136.561 43.1632 136.977 42.2542C137.366 41.3711 137.756 40.5141 138.094 39.6829C138.457 38.8518 138.743 38.1246 139.029 37.4493C139.288 36.8 139.47 36.3325 139.6 36.0468C139.6 35.9949 139.626 35.9429 139.678 35.865L139.756 35.6313C139.834 35.4495 139.886 35.3196 139.964 35.1898C140.016 35.0599 140.145 35.0079 140.301 34.956C140.457 34.93 140.587 34.956 140.665 35.0339C140.743 35.1118 140.821 35.2157 140.899 35.3456C140.795 35.5793 140.691 35.865 140.561 36.1767C140.431 36.5143 140.327 36.826 140.197 37.1377C139.912 37.8909 139.574 38.696 139.236 39.5791C138.899 40.4621 138.535 41.3711 138.146 42.2542C137.756 43.1632 137.34 44.0203 136.925 44.8774C136.483 45.7345 136.042 46.5136 135.6 47.1889C135.133 47.8902 134.691 48.4616 134.224 48.9031C133.756 49.3446 133.289 49.6303 132.795 49.7342C132.25 49.8381 131.808 49.8381 131.445 49.7342C131.081 49.6303 130.795 49.4485 130.562 49.1628C130.328 48.9031 130.172 48.5395 130.068 48.1239C129.964 47.7084 129.886 47.2409 129.886 46.7214C129.886 46.6175 129.886 46.4877 129.886 46.3578C129.886 46.2279 129.886 46.0981 129.912 45.9682C129.964 45.267 130.068 44.5138 130.224 43.7086C130.38 42.9035 130.562 42.0724 130.77 41.2153C130.977 40.3582 131.185 39.5271 131.419 38.696C131.653 37.8649 131.886 37.0857 132.094 36.3585C132.38 35.3456 132.64 34.4625 132.847 33.6574C133.081 32.8782 133.185 32.3068 133.211 31.9432C133.211 31.6316 133.159 31.4757 133.003 31.5017C132.717 31.5536 132.406 31.7874 132.068 32.2029C131.705 32.6185 131.341 33.1379 130.951 33.7873C130.562 34.4366 130.146 35.1378 129.757 35.891C129.367 36.6702 128.977 37.4234 128.614 38.2025C128.25 38.9817 127.913 39.7089 127.601 40.3842C127.289 41.0595 127.055 41.6309 126.848 42.0724V42.0464L126.484 42.8516H126.51C126.276 43.6307 126.069 44.4878 125.887 45.4488C125.731 46.4098 125.627 47.2928 125.575 48.1499C125.575 48.3057 125.549 48.4356 125.549 48.5654C125.549 48.6953 125.549 48.8252 125.549 48.981C125.549 49.3966 125.601 49.7602 125.653 50.0459C125.705 50.3316 125.757 50.5653 125.809 50.7471C125.861 50.903 125.887 51.0068 125.887 51.1107C125.887 51.3445 125.731 51.5003 125.393 51.5782C124.848 51.6821 124.38 51.6561 123.991 51.5003C123.627 51.3185 123.315 51.0588 123.108 50.6952C122.9 50.3316 122.744 49.89 122.64 49.3706C122.536 48.8511 122.484 48.3317 122.484 47.7863C122.484 47.6045 122.484 47.4486 122.484 47.2668C122.484 47.085 122.484 46.9032 122.51 46.7214C122.536 46.1241 122.588 45.5267 122.666 44.8774C122.744 44.2281 122.822 43.5788 122.926 42.9035C123.03 42.2282 123.134 41.5789 123.264 40.9556C123.393 40.3063 123.497 39.7089 123.627 39.1116C123.809 38.1246 123.991 37.1896 124.121 36.3325C124.276 35.4755 124.354 34.7482 124.38 34.1509C124.38 33.8652 124.38 33.6314 124.354 33.4236C124.328 33.2159 124.302 33.0341 124.25 32.8523C124.225 32.7743 124.225 32.6964 124.199 32.6185C124.199 32.5406 124.173 32.4886 124.173 32.4107C124.173 32.151 124.276 31.9692 124.458 31.8393C124.64 31.7095 124.822 31.6316 125.056 31.5796C125.627 31.4498 126.12 31.4757 126.458 31.6056C126.822 31.7614 127.107 31.9692 127.289 32.2809C127.497 32.5925 127.627 32.9561 127.679 33.3717C127.731 33.7873 127.757 34.2288 127.731 34.6703C127.705 35.1378 127.653 35.6313 127.601 36.1247C127.445 36.6961 127.367 37.1636 127.263 37.6052Z"
                fill="white"
              />
              <path
                d="M150.924 46.3584C149.574 46.6441 148.613 46.4623 148.015 45.787C147.444 45.1377 147.132 44.0988 147.106 42.6703C147.106 42.5145 147.106 42.3327 147.106 42.1509C147.106 41.9691 147.106 41.7873 147.132 41.5795C147.132 41.4496 147.132 41.3717 147.132 41.2938C147.132 41.2159 147.132 41.164 147.132 41.086C147.132 41.0081 147.132 40.9302 147.158 40.8263C147.158 40.7224 147.184 40.5926 147.21 40.4108C146.794 41.2938 146.353 42.2028 145.859 43.0859C145.366 43.969 144.847 44.8001 144.275 45.5533C143.704 46.3065 143.132 46.9298 142.509 47.4492C141.886 47.9687 141.236 48.3063 140.587 48.4362C139.99 48.566 139.47 48.5401 139.055 48.4102C138.639 48.2544 138.302 48.0206 138.042 47.657C137.782 47.3194 137.6 46.8778 137.47 46.3584C137.341 45.839 137.289 45.2935 137.263 44.7222C137.263 44.5923 137.263 44.4364 137.263 44.3066C137.263 44.1767 137.263 44.0209 137.289 43.891C137.367 43.008 137.548 41.9951 137.808 40.8523C138.094 39.7355 138.457 38.5667 138.899 37.372C139.34 36.1773 139.86 35.0085 140.457 33.8398C141.055 32.671 141.704 31.6322 142.405 30.6712C143.106 29.7102 143.886 28.931 144.691 28.2817C145.496 27.6324 146.327 27.2169 147.21 27.0351C147.626 26.9572 148.015 26.9312 148.379 27.0091C148.742 27.087 149.08 27.2169 149.392 27.3987L149.599 26.3598C149.755 25.5027 149.885 24.6716 150.041 23.8924C150.171 23.1133 150.301 22.386 150.405 21.7367C150.509 21.0874 150.612 20.516 150.664 20.0226C150.742 19.5291 150.768 19.1655 150.768 18.8798C150.768 18.5681 150.768 18.3344 150.742 18.1266C150.716 17.9188 150.69 17.737 150.638 17.5812C150.612 17.5033 150.612 17.4253 150.586 17.3474C150.586 17.2695 150.56 17.1916 150.56 17.1397C150.56 16.8799 150.664 16.6981 150.846 16.5942C151.028 16.4903 151.21 16.3865 151.444 16.3605C152.041 16.2306 152.534 16.2306 152.898 16.3865C153.262 16.5163 153.547 16.7501 153.729 17.0358C153.911 17.3474 154.041 17.711 154.093 18.1266C154.145 18.5421 154.171 19.0096 154.145 19.4512C154.119 19.8667 154.067 20.4121 153.963 21.1134C153.859 21.8146 153.755 22.6198 153.599 23.5288C153.443 24.4378 153.288 25.3988 153.106 26.4637C152.924 27.5026 152.742 28.5934 152.534 29.7102C152.482 30.0738 152.405 30.5153 152.301 31.0348C152.197 31.5542 152.093 32.0996 151.989 32.697C151.833 33.4762 151.677 34.2813 151.521 35.1644C151.366 36.0474 151.21 36.9045 151.08 37.7876C150.95 38.6446 150.846 39.4758 150.768 40.2549C150.69 41.0341 150.664 41.7094 150.664 42.2808C150.664 42.4366 150.664 42.5924 150.664 42.7223C150.664 42.8521 150.69 42.982 150.716 43.1119C150.82 43.8131 151.106 44.0988 151.573 44.0209C151.755 43.9949 151.963 43.891 152.171 43.7352C152.379 43.5794 152.612 43.3976 152.82 43.1898C153.028 42.982 153.236 42.7483 153.443 42.5145C153.651 42.2808 153.807 42.047 153.963 41.8133C154.352 41.2159 154.716 40.5666 155.08 39.8653C155.443 39.1381 155.781 38.4369 156.093 37.6837C156.404 36.9564 156.69 36.2292 156.976 35.502C157.235 34.7748 157.495 34.1515 157.703 33.5801C157.911 33.0346 158.066 32.5931 158.222 32.2035C158.352 31.814 158.482 31.5542 158.56 31.3984C158.612 31.3205 158.69 31.2945 158.742 31.2426C158.82 31.2166 158.872 31.1906 158.924 31.1906C159.053 31.1647 159.157 31.1906 159.235 31.2685C159.313 31.3465 159.391 31.4503 159.469 31.5802C159.313 31.9178 159.183 32.3074 159.053 32.723C158.924 33.1385 158.768 33.5541 158.612 33.9437C158.352 34.619 158.066 35.3462 157.807 36.0734C157.521 36.8006 157.235 37.5278 156.95 38.281C156.638 39.0083 156.352 39.7355 156.015 40.4367C155.703 41.138 155.365 41.7873 155.028 42.3847C154.768 42.8002 154.508 43.2417 154.223 43.6573C153.937 44.0728 153.625 44.4884 153.288 44.852C152.95 45.2156 152.612 45.5273 152.223 45.813C151.807 46.0208 151.392 46.2285 150.924 46.3584ZM147.781 36.3851C147.937 35.476 148.093 34.541 148.249 33.5541C148.405 32.5672 148.587 31.5802 148.768 30.5933C148.794 30.3855 148.82 30.2037 148.872 30.0219C148.924 29.8401 148.95 29.6583 148.976 29.4505C148.664 29.2427 148.301 29.1908 147.859 29.2946C147.314 29.3985 146.769 29.7621 146.249 30.3595C145.704 30.9569 145.184 31.6841 144.691 32.5671C144.197 33.4242 143.73 34.3852 143.314 35.4241C142.899 36.463 142.509 37.4759 142.197 38.4888C141.86 39.5017 141.6 40.4367 141.418 41.2938C141.21 42.1509 141.107 42.8521 141.081 43.3716C141.055 43.6313 141.055 43.891 141.081 44.1508C141.107 44.4365 141.159 44.6702 141.236 44.904C141.314 45.1377 141.418 45.2935 141.574 45.4234C141.73 45.5273 141.938 45.5792 142.223 45.5013C142.561 45.4234 142.925 45.2156 143.262 44.852C143.626 44.4884 143.989 44.0469 144.353 43.5274C144.717 43.008 145.054 42.4106 145.392 41.7613C145.73 41.112 146.041 40.4627 146.353 39.8134C146.665 39.1641 146.924 38.5408 147.158 37.9174C147.392 37.3201 147.6 36.8006 147.781 36.3591V36.3851Z"
                fill="white"
              />
              <path
                d="M177.493 27.3469C177.753 27.1131 177.961 27.0352 178.09 27.0872C178.22 27.1391 178.35 27.269 178.454 27.4248L172.74 40.9563C172.74 41.0343 172.74 41.1641 172.74 41.294C172.74 41.4238 172.714 41.5537 172.714 41.6316C172.636 41.9173 172.532 42.0991 172.351 42.1251C171.883 41.7355 171.312 41.5277 170.585 41.5018C169.857 41.4758 169.052 41.5797 168.169 41.7615C167.572 41.8913 167 42.0212 166.377 42.203C165.78 42.3848 165.156 42.5406 164.559 42.7225C164.014 42.8783 163.468 43.0601 162.949 43.2159C162.429 43.3718 161.936 43.5016 161.494 43.5795C161.105 43.6574 160.767 43.7094 160.429 43.7354C160.118 43.7613 159.832 43.7613 159.572 43.7094C158.819 43.6315 158.455 43.19 158.43 42.3848C158.43 42.0472 158.481 41.6576 158.637 41.242C158.767 40.8005 159.001 40.307 159.339 39.7616C159.806 38.9565 160.377 38.1254 161.001 37.2163C161.65 36.3333 162.325 35.4243 163.027 34.5412C163.754 33.6322 164.481 32.7491 165.26 31.8661C166.013 30.983 166.767 30.1259 167.468 29.3468C168.195 28.5676 168.844 27.8144 169.494 27.1391C170.117 26.4638 170.662 25.8665 171.13 25.373L172.091 24.3341C171.909 24.3081 171.623 24.3601 171.286 24.412C171.026 24.464 170.714 24.5419 170.351 24.6458C169.987 24.7497 169.624 24.8536 169.234 24.9575C168.74 25.1133 168.221 25.2691 167.65 25.425C167.078 25.5808 166.533 25.7366 165.987 25.8405C165.156 26.0223 164.377 26.1002 163.65 26.1002C162.923 26.1002 162.299 25.9184 161.806 25.5548L158.43 34.0737C158.248 34.1776 158.066 34.2555 157.884 34.2555C157.702 34.2815 157.546 34.1776 157.391 33.9958L161.26 24.3861C161.26 24.2562 161.26 24.0744 161.312 23.7887C161.338 23.503 161.39 23.2173 161.468 22.9316C161.52 22.6459 161.598 22.3862 161.702 22.1784C161.806 21.9706 161.91 21.8408 162.066 21.8408C162.17 21.8408 162.247 21.8927 162.273 21.9706C162.299 22.0486 162.351 22.1524 162.377 22.2823L162.481 22.5161C162.585 22.6719 162.741 22.7758 162.975 22.8537C163.208 22.9316 163.468 22.9576 163.806 22.9836C164.117 22.9836 164.481 22.9576 164.897 22.9057C165.286 22.8537 165.702 22.7758 166.143 22.6979C166.767 22.568 167.39 22.4122 167.987 22.2304C168.611 22.0486 169.208 21.8927 169.753 21.7369C170.533 21.5291 171.156 21.3733 171.571 21.2694C171.987 21.1915 172.403 21.1655 172.818 21.2175C173.234 21.2694 173.597 21.3733 173.935 21.5811C174.247 21.7888 174.506 22.0486 174.662 22.4381C174.844 22.8018 174.87 23.2693 174.792 23.8666C174.766 23.9705 174.74 24.0744 174.714 24.1783C174.662 24.2822 174.584 24.3341 174.48 24.3601C174.376 24.3861 174.273 24.3601 174.169 24.2822L174.117 24.2562C173.026 25.1652 171.909 26.2301 170.766 27.5287C169.624 28.8013 168.507 30.1519 167.416 31.6063C166.325 33.0348 165.286 34.4893 164.273 35.9697C163.286 37.4501 162.377 38.8266 161.572 40.1512C161.728 40.2031 162.092 40.1772 162.637 40.0473C162.949 39.9694 163.338 39.8915 163.754 39.7616C164.169 39.6318 164.611 39.5019 165.078 39.372C165.624 39.2162 166.195 39.0604 166.767 38.9045C167.338 38.7487 167.909 38.5929 168.429 38.489C169.026 38.3591 169.546 38.2812 170.039 38.2552C170.533 38.2293 170.922 38.2812 171.208 38.437C171.416 38.5409 171.623 38.6708 171.831 38.8007C172.013 38.9305 172.195 39.1123 172.325 39.3461C172.403 39.1643 172.48 38.9824 172.558 38.7747C172.636 38.5669 172.74 38.3072 172.896 37.9695C173.026 37.6319 173.208 37.1904 173.441 36.6709C173.675 36.1515 173.961 35.4762 174.325 34.6191C174.688 33.788 175.13 32.7751 175.649 31.5804C176.169 30.3856 176.792 28.9572 177.519 27.295L177.493 27.3469Z"
                fill="white"
              />
              <path
                d="M83.8615 47.1895C83.5239 48.8517 83.1862 50.4879 82.8486 52.1242C82.511 53.7604 82.2253 55.2409 81.9915 56.5654C82.1473 56.8252 82.3032 57.0589 82.485 57.3446C82.6408 57.6043 82.8226 57.916 82.9785 58.2796C83.1343 58.6432 83.2901 59.0848 83.4459 59.6042C83.6018 60.1236 83.7576 60.773 83.8875 61.5261C84.4589 60.9807 85.0043 60.2275 85.5497 59.2406C86.0951 58.2536 86.6405 57.1888 87.134 56.046C87.6535 54.8772 88.121 53.6825 88.5625 52.4618C89.004 51.2411 89.4196 50.0984 89.8091 49.0595C90.0948 48.2803 90.3546 47.5791 90.5623 46.9817C90.7701 46.3843 90.9779 45.8649 91.1857 45.4493C91.4194 45.2675 91.5752 45.2156 91.7051 45.2156C91.809 45.2416 91.9648 45.3455 92.1466 45.5532C91.9648 45.9948 91.783 46.5142 91.5752 47.0856C91.3675 47.657 91.1337 48.2803 90.9 48.9556C90.4844 50.1503 90.0169 51.4489 89.4975 52.8514C88.978 54.2539 88.4326 55.6045 87.8353 56.9291C87.2379 58.2277 86.6146 59.4224 85.9653 60.5132C85.316 61.5781 84.6407 62.4092 83.9654 62.9806C83.9914 63.2663 84.0173 63.5779 84.0173 63.9156C84.0433 64.2532 84.0433 64.5909 84.0433 64.9545C84.0693 65.8375 84.0693 66.7985 84.0693 67.7854C84.0693 68.7724 84.0433 69.7593 84.0173 70.7203C83.9914 71.4735 83.9394 72.2007 83.9135 72.876C83.8615 73.5513 83.8096 74.1227 83.7576 74.5902C83.6797 75.1096 83.6278 75.681 83.5498 76.3303C83.4719 76.9536 83.368 77.6029 83.2382 78.2782C83.1083 78.9275 82.9265 79.6028 82.7187 80.2261C82.511 80.8754 82.2512 81.4468 81.9136 81.9663C81.5759 82.4857 81.1864 82.9532 80.7189 83.3168C80.2514 83.7064 79.706 83.9402 79.0826 84.07C78.4073 84.1999 77.836 84.1479 77.3685 83.8882C76.901 83.6285 76.5114 83.187 76.2257 82.5896C75.914 81.9922 75.7062 81.239 75.5504 80.33C75.3946 79.421 75.3166 78.4081 75.2907 77.2653C75.2647 75.9407 75.3166 74.4603 75.4465 72.7981C75.5764 71.1618 75.7582 69.4217 76.0179 67.6036C76.2516 65.7856 76.5373 63.8896 76.875 61.9677C77.2126 60.0457 77.5503 58.1238 77.9139 56.2018C78.2775 54.2799 78.6411 52.4359 79.0307 50.6438C79.3943 48.8517 79.7579 47.1635 80.0955 45.6052C80.2773 44.6961 80.4591 43.8131 80.641 42.9041C80.8228 41.995 81.0046 41.1639 81.1604 40.3588C81.3162 39.5796 81.4461 38.8784 81.55 38.255C81.6539 37.6317 81.7318 37.1642 81.7578 36.8006C81.7837 36.6188 81.7837 36.4629 81.7837 36.3071C81.7837 36.1772 81.7837 36.0214 81.7837 35.8916C81.7837 35.7098 81.7837 35.5539 81.7837 35.3981C81.7837 35.2422 81.7578 35.1124 81.7578 34.9825C81.7318 34.8527 81.7318 34.7228 81.7058 34.6189C81.7058 34.515 81.7058 34.4111 81.7058 34.3332C81.7578 34.0475 81.8616 33.8398 82.0694 33.6839C82.2772 33.5541 82.485 33.4502 82.7187 33.4242C83.2901 33.3463 83.7576 33.3723 84.1212 33.5021C84.4848 33.632 84.7965 33.8398 85.0043 34.1514C85.238 34.4371 85.3939 34.8007 85.4978 35.2423C85.6016 35.6578 85.6536 36.1253 85.6796 36.6188C85.6796 36.8525 85.6796 37.0863 85.6796 37.346C85.6796 37.6057 85.6536 37.8395 85.6276 38.0732C85.6016 38.4109 85.5237 38.9043 85.3939 39.5017C85.29 40.125 85.1601 40.8263 84.9783 41.6314C84.8225 42.4366 84.6407 43.3196 84.4589 44.2806C84.2511 45.1896 84.0693 46.1766 83.8615 47.1895ZM82.8746 65.0843C82.8746 64.7467 82.8486 64.461 82.8486 64.1753C82.8226 63.9156 82.8226 63.6818 82.7966 63.4741H82.7707C82.511 63.5 82.2253 63.5 81.8876 63.5C81.55 63.5 81.2123 63.3961 80.8487 63.1624C80.8228 63.3442 80.7968 63.526 80.7708 63.6818C80.7448 63.8377 80.7189 64.0195 80.6929 64.1753C80.4591 65.7596 80.2514 67.3959 80.0696 69.0321C79.8878 70.6684 79.706 72.4085 79.5761 74.2525C79.4982 75.4213 79.4982 76.5121 79.4982 77.551C79.5241 78.5639 79.628 79.421 79.8098 80.0963C79.9916 80.7716 80.2773 81.1352 80.6929 81.1871C80.9007 81.1352 81.1085 80.9274 81.3162 80.5638C81.498 80.2002 81.6798 79.7327 81.8357 79.1353C81.9915 78.5379 82.1214 77.8627 82.2512 77.1095C82.3811 76.3303 82.459 75.5252 82.5369 74.694C82.5889 74.0707 82.6668 73.4214 82.6928 72.7461C82.7187 72.0709 82.7707 71.3956 82.7966 70.7463C82.8486 69.6814 82.8746 68.6685 82.8746 67.6815C82.9005 66.6946 82.9005 65.8375 82.8746 65.0843ZM81.2383 60.721C81.4461 61.0067 81.7058 61.2664 82.0175 61.5261C82.3291 61.7859 82.5629 61.9157 82.7447 61.9417C82.6148 61.0327 82.459 60.2795 82.2512 59.6821C82.0435 59.0847 81.8357 58.6692 81.576 58.4354L81.2383 60.721Z"
                fill="white"
              />
            </g>
            <defs>
              <clipPath id="clip0_0_5007">
                <rect width="187" height="84.15" fill="white" />
              </clipPath>
            </defs>
          </svg>