<svg width="21" height="20" viewBox="0 0 21 20" fill="none" xmlns="http://www.w3.org/2000/svg">
<path d="M9.2804 2.34954L3.5054 6.97453C2.8554 7.4912 2.43873 8.5829 2.5804 9.39956L3.68873 16.0329C3.88873 17.2162 5.02206 18.1745 6.22206 18.1745H15.5554C16.7471 18.1745 17.8887 17.2079 18.0887 16.0329L19.1971 9.39956C19.3304 8.5829 18.9137 7.4912 18.2721 6.97453L12.4971 2.35789C11.6054 1.64122 10.1637 1.64121 9.2804 2.34954Z" stroke="white" stroke-width="1.5" stroke-linecap="round" stroke-linejoin="round"/>
<path opacity="0.4" d="M10.888 12.9167C12.0386 12.9167 12.9714 11.9839 12.9714 10.8333C12.9714 9.68274 12.0386 8.75 10.888 8.75C9.73743 8.75 8.80469 9.68274 8.80469 10.8333C8.80469 11.9839 9.73743 12.9167 10.888 12.9167Z" stroke="white" stroke-width="1.5" stroke-linecap="round" stroke-linejoin="round"/>
</svg>
