<svg width="20" height="20" viewBox="0 0 20 20" fill="none" xmlns="http://www.w3.org/2000/svg">
<path d="M12.8255 4.34169L14.0004 6.69168C14.1588 7.01668 14.5838 7.32501 14.9421 7.39168L17.0671 7.74168C18.4255 7.96668 18.7421 8.95001 17.7671 9.93335L16.1088 11.5917C15.8338 11.8667 15.6755 12.4083 15.7671 12.8L16.2421 14.85C16.6171 16.4667 15.7504 17.1 14.3254 16.25L12.3338 15.0667C11.9754 14.85 11.3754 14.85 11.0171 15.0667L9.02544 16.25C7.60044 17.0917 6.73378 16.4667 7.10878 14.85L7.58379 12.8C7.67545 12.4167 7.51712 11.875 7.24212 11.5917L5.58379 9.93335C4.60879 8.95835 4.92545 7.97501 6.28379 7.74168L8.40878 7.39168C8.76711 7.33334 9.19211 7.01668 9.35045 6.69168L10.5255 4.34169C11.1505 3.06669 12.1838 3.06669 12.8255 4.34169Z" stroke="#FF9900" stroke-width="1.5" stroke-linecap="round" stroke-linejoin="round"/>
<path opacity="0.4" d="M6.66699 4.16669H1.66699" stroke="#FF9900" stroke-width="1.5" stroke-linecap="round" stroke-linejoin="round"/>
<path opacity="0.4" d="M4.16699 15.8333H1.66699" stroke="#FF9900" stroke-width="1.5" stroke-linecap="round" stroke-linejoin="round"/>
<path opacity="0.4" d="M2.50033 10H1.66699" stroke="#FF9900" stroke-width="1.5" stroke-linecap="round" stroke-linejoin="round"/>
</svg>
