<svg width="20" height="20" viewBox="0 0 20 20" fill="none" xmlns="http://www.w3.org/2000/svg">
<path d="M15.033 11.2918C14.683 11.6335 14.483 12.1252 14.533 12.6502C14.608 13.5502 15.433 14.2085 16.333 14.2085H17.9163V15.2002C17.9163 16.9252 16.508 18.3335 14.783 18.3335H5.21634C3.49134 18.3335 2.08301 16.9252 2.08301 15.2002V9.59184C2.08301 7.86684 3.49134 6.4585 5.21634 6.4585H14.783C16.508 6.4585 17.9163 7.86684 17.9163 9.59184V10.7918H16.233C15.7663 10.7918 15.3413 10.9752 15.033 11.2918Z" stroke="#FD6769" stroke-width="1.5" stroke-linecap="round" stroke-linejoin="round"/>
<path opacity="0.4" d="M2.08301 10.3416V6.5333C2.08301 5.54163 2.69134 4.65826 3.61634 4.30826L10.233 1.80826C11.2663 1.41659 12.3747 2.18329 12.3747 3.29162V6.45828" stroke="#FD6769" stroke-width="1.5" stroke-linecap="round" stroke-linejoin="round"/>
<path d="M18.7997 11.6415V13.3582C18.7997 13.8165 18.433 14.1915 17.9663 14.2082H16.333C15.433 14.2082 14.608 13.5498 14.533 12.6498C14.483 12.1248 14.683 11.6332 15.033 11.2915C15.3413 10.9748 15.7663 10.7915 16.233 10.7915H17.9663C18.433 10.8082 18.7997 11.1831 18.7997 11.6415Z" stroke="#FD6769" stroke-width="1.5" stroke-linecap="round" stroke-linejoin="round"/>
<path opacity="0.4" d="M5.83301 10H11.6663" stroke="#FD6769" stroke-width="1.5" stroke-linecap="round" stroke-linejoin="round"/>
</svg>
