<svg width="20" height="20" viewBox="0 0 20 20" fill="none" xmlns="http://www.w3.org/2000/svg">
<path d="M7.50033 18.3337H12.5003C16.667 18.3337 18.3337 16.667 18.3337 12.5003V7.50033C18.3337 3.33366 16.667 1.66699 12.5003 1.66699H7.50033C3.33366 1.66699 1.66699 3.33366 1.66699 7.50033V12.5003C1.66699 16.667 3.33366 18.3337 7.50033 18.3337Z" stroke="#949494" stroke-width="1.5" stroke-linecap="round" stroke-linejoin="round"/>
<path opacity="0.4" d="M7.58301 10.0002V8.7669C7.58301 7.17524 8.70801 6.53357 10.083 7.32524L11.1497 7.9419L12.2163 8.55857C13.5913 9.35024 13.5913 10.6502 12.2163 11.4419L11.1497 12.0586L10.083 12.6752C8.70801 13.4669 7.58301 12.8169 7.58301 11.2336V10.0002Z" stroke="#949494" stroke-width="1.5" stroke-miterlimit="10" stroke-linecap="round" stroke-linejoin="round"/>
</svg>
