<svg width="200" height="90" viewBox="0 0 200 90" fill="none" xmlns="http://www.w3.org/2000/svg">
<g clip-path="url(#clip0_0_761)">
<path d="M35.9459 65.7779C35.7515 65.7779 35.5571 65.7501 35.3626 65.7224C30.2793 64.8335 23.2793 61.8335 16.1682 57.5002C5.80706 51.2224 0.418169 43.7502 0.112614 35.3335C-0.165164 27.0279 4.39039 18.6946 11.5015 14.5557C16.4737 11.6668 22.2793 10.6391 27.8626 11.6668C33.7237 12.7502 38.9737 16.0002 43.0571 21.0279C44.2237 22.4724 44.0015 24.5557 42.5571 25.7224C41.1126 26.8891 39.0293 26.6668 37.8626 25.2224C31.8348 17.7779 22.6126 15.8057 14.8626 20.3057C9.83484 23.2502 6.58484 29.1668 6.80706 35.0835C7.02928 41.1113 11.3348 46.7502 19.6404 51.8057C29.0293 57.5002 34.946 58.8613 36.5571 59.139C38.3626 59.4446 39.5848 61.1946 39.2515 63.0002C38.9459 64.6668 37.5293 65.7779 35.9459 65.7779Z" fill="#FD6769"/>
<path d="M73.1668 28.5558C72.9168 28.5558 72.639 28.528 72.389 28.4724C70.6112 28.028 69.5001 26.2224 69.9445 24.4447C70.4168 22.4724 70.9445 18.6113 69.0834 14.7502C66.4445 9.30577 60.0834 5.91689 54.2779 6.86133C49.1112 7.69467 45.889 11.9169 44.1945 14.1947C42.5557 16.3613 41.4168 18.528 40.6945 20.8335C40.139 22.5835 38.2779 23.5835 36.5279 23.028C34.7779 22.4724 33.7779 20.6113 34.3334 18.8613C35.2779 15.8058 36.7779 12.9447 38.8612 10.1669C40.9723 7.36133 45.389 1.528 53.2223 0.277996C61.9723 -1.13867 71.1668 3.72244 75.0834 11.8336C77.8612 17.5836 77.1112 23.1947 76.4445 26.028C76.0279 27.5558 74.6668 28.5558 73.1668 28.5558Z" fill="#FD6769"/>
<path d="M58.3358 42.889C58.1691 44.1945 58.0025 45.7223 57.808 47.4445C57.6136 49.1667 57.3914 50.9723 57.1691 52.8334C56.9469 54.6945 56.7247 56.5834 56.4747 58.4723C56.2247 60.3612 56.0025 62.139 55.808 63.8056C55.5858 65.4723 55.3914 66.9723 55.2247 68.3056C55.058 69.639 54.8914 70.6668 54.7803 71.3612C54.6136 71.9723 54.4191 72.5556 54.1691 73.139C53.9191 73.7223 53.6136 74.2501 53.2525 74.6945C52.8914 75.1668 52.4191 75.5279 51.8914 75.8334C51.3636 76.139 50.7247 76.3056 49.9747 76.3334C49.6691 76.2779 49.3914 76.1668 49.1691 76.0279C48.9469 75.889 48.9191 75.639 49.058 75.2779C49.058 75.0834 49.1136 74.889 49.2247 74.6945C49.3358 74.5279 49.4469 74.2779 49.5302 74.0001C49.6414 73.6945 49.7525 73.389 49.8636 73.0001L49.8358 73.0279C50.1136 71.8612 50.3358 70.5834 50.558 69.2223C50.7803 67.8334 50.9469 66.4168 51.1414 64.9168C51.308 63.4168 51.4747 61.9168 51.6136 60.389C51.7525 58.8612 51.8914 57.389 52.0025 55.9445C52.1136 54.7501 52.2247 53.6112 52.308 52.5279C52.4191 51.4445 52.5025 50.4167 52.6136 49.4723C52.7247 48.5279 52.8358 47.6667 52.9469 46.889C53.058 46.1112 53.1969 45.4445 53.3358 44.9168C52.5303 45.639 51.6414 46.3056 50.6969 46.9723C49.7525 47.6112 48.808 48.1112 47.8914 48.4445C47.3636 48.6112 46.8914 48.6945 46.4469 48.6668C46.0025 48.6668 45.6136 48.5556 45.2803 48.389C44.9469 48.2223 44.6969 47.9723 44.5302 47.639C44.3636 47.3056 44.2803 46.889 44.308 46.4167C44.3358 46.0834 44.3914 45.7223 44.5302 45.3334C44.6414 44.9445 44.8358 44.5001 45.1136 44.0279C45.5025 43.2779 46.0025 42.5556 46.6136 41.8334C47.2247 41.1112 47.8636 40.4168 48.5025 39.7779C49.1691 39.139 49.808 38.5556 50.4469 38.0556C51.0858 37.5279 51.6136 37.1112 52.058 36.8056C52.8358 36.2501 53.6691 35.6945 54.5858 35.1668C55.5025 34.639 56.4191 34.1668 57.3636 33.7223C58.308 33.2779 59.2525 32.889 60.2247 32.5834C61.1969 32.2501 62.1136 32.0279 63.0025 31.8612C64.308 31.6112 65.558 31.5834 66.7525 31.7223C67.9469 31.8612 68.9747 32.2779 69.8914 32.9445C70.7803 33.6112 71.5025 34.5556 72.0302 35.7779C72.558 37.0001 72.8358 38.5556 72.8636 40.4168C72.8636 40.5556 72.8636 40.6945 72.8636 40.889C72.8636 41.0556 72.8636 41.2223 72.8358 41.389C72.7803 42.8612 72.5303 44.3334 72.1136 45.8056C71.6969 47.3056 71.1136 48.7223 70.3358 50.0556C69.5858 51.389 68.6414 52.6112 67.5303 53.7223C66.4191 54.8334 65.1414 55.7501 63.7247 56.4445C65.5858 56.889 67.0025 57.6668 67.9747 58.8056C68.9469 59.9445 69.5303 61.2779 69.7247 62.8056C69.7525 63.1667 69.808 63.5556 69.808 63.9445C69.8358 64.3334 69.808 64.7223 69.808 65.1112C69.7247 66.8334 69.3358 68.5001 68.6969 70.1112C68.058 71.7501 67.1969 73.2779 66.1691 74.7501C65.1136 76.2223 63.9469 77.5834 62.6136 78.8612C61.2802 80.139 59.8914 81.2501 58.4469 82.2223C57.0025 83.1945 55.5303 84.0279 54.058 84.6945C52.5858 85.3612 51.1691 85.8334 49.8358 86.1112C48.8914 86.3056 47.9747 86.389 47.0858 86.389C45.558 86.3612 44.1414 86.0556 42.8636 85.5279C41.5858 85.0001 40.4747 84.2223 39.5858 83.2223C38.6691 82.2223 37.9747 81.0279 37.5025 79.5834C37.0303 78.139 36.8358 76.5279 36.9191 74.6945C36.9469 74.1112 37.0025 73.5556 37.0858 72.9723C37.1691 72.389 37.2803 71.8056 37.4191 71.1945C37.7525 69.8612 38.2525 68.6112 38.9469 67.389C39.6414 66.1945 40.3914 65.1112 41.2525 64.1668C42.1136 63.2223 43.0025 62.4445 43.9469 61.8056C44.8914 61.1668 45.7802 60.7779 46.6136 60.6112C47.1969 60.5001 47.7247 60.4723 48.2247 60.5834C48.7247 60.6945 49.1414 60.9445 49.5025 61.3056C49.8636 61.6945 50.1136 62.2223 50.2803 62.889C50.4469 63.5556 50.5303 64.4167 50.4747 65.4445C50.4747 65.639 50.4469 65.8334 50.4191 66.0834C50.3914 66.3334 50.3636 66.5279 50.3358 66.7501C50.1136 67.1667 49.9191 67.389 49.7247 67.4445C49.5303 67.4723 49.3914 67.4168 49.2803 67.2779C49.308 66.3612 49.2803 65.6112 49.1691 65.0001C49.058 64.389 48.9191 63.889 48.6969 63.5279C48.5025 63.1668 48.2525 62.9167 47.9747 62.8056C47.6969 62.6667 47.3636 62.639 47.0302 62.7223C46.5025 62.8334 45.9469 63.139 45.3636 63.639C44.7802 64.139 44.1969 64.7501 43.6414 65.5001C43.0858 66.2501 42.5858 67.0834 42.1136 68.0279C41.6414 68.9723 41.2803 69.9168 41.0303 70.889C40.8636 71.5556 40.7247 72.2223 40.6136 72.9168C40.5025 73.5834 40.4469 74.2223 40.4191 74.8056C40.3636 76.2779 40.4747 77.639 40.7802 78.8612C41.0858 80.0834 41.558 81.1112 42.1691 81.9445C42.808 82.7779 43.5858 83.4167 44.5302 83.8334C45.4747 84.2501 46.558 84.4167 47.7803 84.3334C47.9747 84.3334 48.1691 84.3056 48.3358 84.2779C48.5303 84.2501 48.6969 84.2223 48.8914 84.1667C50.0858 83.9167 51.2803 83.4445 52.5303 82.7223C53.7803 82.0001 55.0025 81.1112 56.1691 80.0556C57.3358 79.0001 58.4469 77.8056 59.4747 76.5001C60.5025 75.1945 61.4191 73.8056 62.1969 72.3612C62.9747 70.9168 63.5858 69.4723 64.0303 68.0001C64.4747 66.5279 64.6969 65.0834 64.6691 63.6945C64.6691 62.8056 64.5302 62.0001 64.2802 61.3056C64.0302 60.5834 63.6414 60.0001 63.1136 59.5001C62.5858 59.0279 61.8914 58.6668 61.058 58.4445C60.2247 58.2223 59.1969 58.139 58.0303 58.2501C57.9747 58.1945 57.9191 58.0834 57.9191 57.9445C57.9191 57.8056 57.9191 57.6668 57.9469 57.5001C57.9747 57.3334 58.0025 57.1667 58.0858 57.0279C58.1414 56.8612 58.2247 56.7501 58.3358 56.6668C59.7803 55.889 61.0025 54.9445 62.058 53.889C63.1136 52.8334 63.9747 51.6667 64.6691 50.4445C65.3636 49.2223 65.8914 47.9445 66.2525 46.639C66.6136 45.3334 66.8358 44.0556 66.8914 42.7779C66.8914 42.6112 66.9191 42.4445 66.9191 42.2779C66.9191 42.1112 66.9191 41.9723 66.9191 41.8056C66.9191 40.7501 66.7803 39.8612 66.558 39.0834C66.3358 38.3334 66.0025 37.6945 65.6136 37.1945C65.2247 36.6945 64.7525 36.3056 64.1969 36.0556C63.6414 35.8056 63.058 35.639 62.3914 35.5556C61.558 35.4445 60.6136 35.5001 59.5858 35.7223C58.5025 35.9445 57.3636 36.3334 56.1691 36.889C54.9747 37.4445 53.8636 38.0557 52.7803 38.7223C51.3914 39.6668 50.1969 40.6112 49.1969 41.5556C48.1969 42.5001 47.4747 43.3056 47.0302 44.0001C46.7802 44.389 46.5858 44.7501 46.4469 45.0834C46.308 45.4168 46.2247 45.6945 46.2247 45.9445C46.1969 46.2779 46.308 46.4723 46.5858 46.5834C46.8358 46.6668 47.2247 46.6112 47.7525 46.3334C48.058 46.1668 48.3914 45.9445 48.7525 45.6668C49.1136 45.389 49.5025 45.1112 49.8914 44.8056C50.2803 44.5001 50.6969 44.1668 51.0858 43.8334C51.4747 43.5001 51.8636 43.1668 52.2525 42.8334C52.7803 42.3612 53.2803 41.9168 53.7525 41.5279C54.2525 41.1112 54.6136 40.8056 54.8914 40.639C55.2247 40.4168 55.5303 40.2501 55.8358 40.0834C56.1414 39.9445 56.4191 39.8334 56.6414 39.7779C57.0025 39.6945 57.308 39.7223 57.5303 39.8334C57.7525 39.9445 57.9469 40.1667 58.058 40.4445C58.1969 40.7223 58.2803 41.0834 58.308 41.5001C58.3358 41.9168 58.3358 42.3612 58.3358 42.889Z" fill="#FD6769"/>
<path d="M199.892 52.917C188.558 54.8337 177.281 57.0003 166.086 59.4448C154.864 61.8892 143.725 64.5837 132.642 67.5281C127.114 69.0003 121.586 70.5559 116.086 72.167C110.586 73.7781 105.114 75.4448 99.6418 77.167C94.1974 78.917 88.7529 80.6948 83.3362 82.5559C77.9196 84.417 72.5307 86.3337 67.1696 88.3059C65.4474 88.9448 63.5307 88.0559 62.8918 86.3337C62.2529 84.6114 63.1418 82.6948 64.864 82.0559C64.9196 82.0281 64.9751 82.0281 65.0029 82.0003C70.5029 80.2781 76.0307 78.6114 81.5585 77.0003C87.0862 75.3892 92.6418 73.8614 98.2251 72.3614C103.808 70.8892 109.392 69.4725 114.975 68.1392C120.586 66.8059 126.197 65.5281 131.808 64.3059C143.058 61.8892 154.364 59.7225 165.725 57.8059C177.114 55.917 188.503 54.3059 199.892 52.917Z" fill="#515165"/>
<path d="M84.1391 57.8332C83.7224 58.8332 83.2502 59.861 82.7224 60.9721C82.1947 62.0554 81.6113 63.0832 80.9169 64.0554C80.2224 64.9999 79.4447 65.8332 78.5558 66.5554C77.6669 67.2776 76.6391 67.7499 75.5002 67.9721C74.6391 68.1388 73.9169 68.111 73.3058 67.8054C72.6947 67.5276 72.1947 67.0832 71.8058 66.4721C71.4169 65.861 71.1391 65.1388 70.9447 64.2777C70.7502 63.4166 70.6669 62.4999 70.6391 61.5277C70.6391 61.2777 70.6391 61.0554 70.6113 60.8054C70.6113 60.5832 70.6113 60.3332 70.6391 60.0554V60.0832C70.6947 59.0277 70.8335 57.9165 71.0558 56.8054C71.278 55.6665 71.5835 54.5554 71.9447 53.4721C72.3058 52.361 72.7224 51.3332 73.2224 50.3332C73.7224 49.3332 74.2502 48.4443 74.8613 47.6388C75.4724 46.8332 76.1113 46.1665 76.8058 45.6388C77.5002 45.111 78.2224 44.7777 78.9724 44.611C79.6947 44.4721 80.3335 44.4999 80.9169 44.7499C81.5002 44.9999 81.9724 45.361 82.3891 45.8332C82.778 46.3332 83.0835 46.9165 83.3058 47.5832C83.5002 48.2777 83.6113 48.9721 83.5835 49.7499C83.5002 50.8054 83.1947 51.861 82.6669 52.8332C82.1391 53.8332 81.4724 54.7499 80.6947 55.5832C79.9169 56.4165 79.0835 57.1665 78.1669 57.8054C77.2502 58.4443 76.3891 58.9443 75.5558 59.3332C75.5002 59.6665 75.4447 59.9999 75.4169 60.361C75.3891 60.6943 75.3613 61.0832 75.3336 61.4443C75.3336 61.611 75.3058 61.7499 75.3058 61.9166C75.3058 62.0832 75.3058 62.2221 75.3058 62.3888C75.3058 62.8054 75.3613 63.1943 75.4169 63.5554C75.4724 63.9165 75.5836 64.2499 75.7502 64.5277C75.9169 64.8054 76.1113 65.0276 76.3891 65.1665C76.6669 65.3054 77.0002 65.361 77.3891 65.3054C78.0002 65.1665 78.6113 64.8054 79.1391 64.2499C79.6947 63.6943 80.1947 63.0554 80.6669 62.3332C81.1391 61.611 81.5558 60.8332 81.9447 60.0276C82.3335 59.2221 82.6669 58.4999 82.9724 57.8332V57.861C83.3613 56.9999 83.6947 56.1388 84.028 55.3054C84.3613 54.4721 84.6391 53.7221 84.9169 53.0554C85.0558 52.7499 85.1947 52.3888 85.3336 51.9999C85.5002 51.611 85.6391 51.2777 85.7502 50.9721C85.9447 50.8332 86.0558 50.7777 86.1113 50.7499C86.2502 50.7221 86.3891 50.7499 86.4724 50.8332C86.5558 50.9165 86.6391 51.0277 86.7224 51.1666L86.5002 51.8332C86.2224 52.5832 85.8613 53.4999 85.4447 54.5554C85.1113 55.611 84.6391 56.6943 84.1391 57.8332ZM82.028 48.1388C81.778 47.6388 81.4724 47.4443 81.1113 47.4999C80.8058 47.5554 80.4724 47.8054 80.1113 48.2221C79.7502 48.6388 79.3891 49.1666 79.028 49.7777C78.6669 50.3888 78.3058 51.0832 77.9724 51.8332C77.6391 52.5832 77.3058 53.3332 77.0558 54.0554C76.778 54.7777 76.5558 55.4721 76.3335 56.1388C76.1113 56.8054 75.9724 57.3332 75.9169 57.7221C76.4724 57.5277 77.1113 57.1943 77.8613 56.6943C78.5835 56.1943 79.3058 55.611 79.9724 54.9165C80.6391 54.2221 81.2224 53.4721 81.6947 52.6665C82.1669 51.861 82.4447 51.0277 82.4724 50.1665C82.5002 49.4721 82.3613 48.8054 82.028 48.1388Z" fill="#515165"/>
<path d="M96.5027 51.4446L98.1138 47.2501C97.5583 47.3057 97.0582 47.2501 96.6694 47.0279C96.2527 46.8335 95.9194 46.5279 95.6694 46.139C95.3916 45.7501 95.2249 45.3057 95.086 44.7779C94.9749 44.2501 94.9194 43.7223 94.9749 43.139C95.0305 42.5279 95.1694 41.889 95.3916 41.1946C95.6138 40.5001 95.9194 39.8612 96.2527 39.2501C96.6138 38.639 97.0305 38.139 97.5305 37.6946C98.0027 37.2501 98.5583 36.9723 99.1416 36.8612C99.8916 36.6946 100.419 36.8335 100.725 37.2501C101.03 37.6668 101.197 38.389 101.169 39.3612C101.142 39.889 101.058 40.4724 100.947 41.0835C100.836 41.6946 100.697 42.2779 100.558 42.8057C100.419 43.3612 100.28 43.8335 100.169 44.2779C100.03 44.7224 99.9471 45.0557 99.8916 45.2779C100.28 45.3057 100.669 45.3057 101.03 45.2223C101.392 45.1668 101.753 45.1112 102.086 45.0279C102.419 44.9446 102.753 44.889 103.003 44.8612C103.28 44.8335 103.503 44.8335 103.697 44.9168C103.892 45.0001 104.03 45.1668 104.114 45.389C104.197 45.6112 104.225 45.9446 104.197 46.4168C104.169 46.7501 104.142 47.0834 104.058 47.389L103.836 48.5835C103.697 49.2779 103.558 50.0279 103.419 50.8057C103.28 51.5835 103.142 52.3612 103.03 53.139C102.919 53.9168 102.808 54.639 102.697 55.3335C102.586 56.0279 102.53 56.639 102.503 57.1668C102.475 57.7779 102.53 58.2779 102.642 58.639C102.753 59.0279 102.919 59.2223 103.086 59.1946C103.392 59.0001 103.725 58.639 104.086 58.0834C104.475 57.5557 104.836 56.9168 105.225 56.1668C105.614 55.4168 106.003 54.6112 106.419 53.7501C106.836 52.889 107.225 52.0279 107.586 51.1668C107.947 50.3057 108.308 49.4723 108.614 48.6946C108.919 47.9168 109.197 47.2224 109.447 46.639L109.53 46.4168H109.503C109.586 46.2223 109.669 46.0557 109.725 45.9168C109.808 45.7779 109.919 45.6946 110.114 45.6668C110.336 45.6112 110.53 45.7779 110.753 46.1112L110.503 46.7501C110.28 47.3335 110.03 48.0001 109.753 48.7501C109.475 49.5001 109.142 50.3057 108.808 51.139C108.475 51.9723 108.114 52.8335 107.725 53.6946C107.336 54.5557 106.947 55.389 106.558 56.1946C106.169 57.0001 105.78 57.7223 105.364 58.4168C104.947 59.0835 104.558 59.639 104.197 60.0835C103.864 60.4723 103.503 60.8057 103.03 61.1112C102.586 61.4168 102.142 61.6112 101.669 61.6946C101.253 61.7779 100.864 61.7223 100.586 61.5279C100.28 61.3057 100.03 61.0001 99.836 60.5834C99.6416 60.1668 99.5027 59.6668 99.3916 59.0835C99.3082 58.5001 99.2527 57.889 99.2249 57.2223C99.2249 57.0279 99.2249 56.8057 99.2249 56.5835C99.2249 56.3612 99.2249 56.1668 99.2527 55.9446C99.2805 55.4724 99.336 54.8335 99.4471 54.0001C99.5582 53.1946 99.6971 52.3335 99.8638 51.4446C100.03 50.5557 100.197 49.6946 100.364 48.8612C100.53 48.0279 100.725 47.3612 100.892 46.8057L99.2249 47.0835C98.9471 47.8057 98.6971 48.5279 98.4194 49.2501C98.1416 49.9723 97.8638 50.6946 97.586 51.389L96.5027 51.4446ZM97.8638 44.0835C97.836 44.4446 97.8916 44.7501 98.0027 44.9446C98.1138 45.1668 98.336 45.2779 98.6694 45.2779C98.7249 45.0835 98.836 44.8057 98.9471 44.4168C99.086 44.0279 99.1971 43.5834 99.336 43.0834C99.4749 42.5834 99.586 42.1112 99.6971 41.6112C99.8083 41.1112 99.8638 40.6946 99.8916 40.3057C99.8916 39.9168 99.8638 39.7223 99.8082 39.7223C99.6694 39.7501 99.5027 39.9168 99.3082 40.2223C99.086 40.5279 98.8916 40.889 98.6971 41.3335C98.5027 41.7779 98.3083 42.2501 98.1694 42.7223C97.9749 43.2223 97.8916 43.6668 97.8638 44.0835Z" fill="#515165"/>
<path d="M110.442 41.4168C110.497 41.1112 110.497 40.8334 110.497 40.6112C110.497 40.4168 110.497 40.2223 110.525 40.0557C110.581 39.8057 110.72 39.639 110.914 39.5279C111.108 39.4446 111.331 39.4168 111.553 39.4446C112.247 39.5834 112.747 39.7779 113.081 40.0557C113.414 40.3334 113.581 40.7223 113.581 41.2779C113.581 41.5279 113.553 41.8334 113.525 42.1668C113.47 42.5001 113.414 42.8612 113.303 43.2501C113.164 43.889 112.97 44.639 112.803 45.5279C112.608 46.4168 112.442 47.3612 112.247 48.3612C112.081 49.3612 111.914 50.3334 111.775 51.3057C111.636 52.2779 111.553 53.1668 111.47 53.9723C111.47 54.1668 111.442 54.3612 111.442 54.5834C111.442 54.8057 111.442 54.9723 111.442 55.139C111.47 55.8057 111.525 56.3057 111.664 56.6945C111.775 57.0834 111.997 57.2501 112.275 57.1946C112.497 57.139 112.775 56.9445 113.053 56.5557C113.358 56.1668 113.664 55.6946 113.997 55.0834C114.331 54.5001 114.664 53.8057 115.025 53.0834C115.358 52.3334 115.72 51.5834 116.053 50.7779C116.386 49.9723 116.72 49.1946 117.053 48.4168C117.358 47.639 117.636 46.9446 117.886 46.3057C118.081 45.8057 118.275 45.389 118.414 45.0001C118.553 44.6112 118.692 44.3057 118.831 44.0557C118.997 43.9168 119.108 43.8612 119.192 43.8334C119.414 43.7779 119.608 43.9446 119.831 44.2779L119.581 44.9168C119.275 45.7223 118.914 46.6668 118.525 47.6946C118.136 48.7223 117.72 49.7779 117.247 50.8334C116.775 51.889 116.303 52.9446 115.803 53.9723C115.303 55.0001 114.775 55.9168 114.275 56.7501C113.775 57.5834 113.247 58.2501 112.747 58.8057C112.22 59.3335 111.747 59.6668 111.247 59.7779C110.664 59.889 110.192 59.8612 109.803 59.6946C109.414 59.5001 109.081 59.2223 108.831 58.8057C108.581 58.389 108.414 57.889 108.303 57.3057C108.192 56.7223 108.136 56.0557 108.108 55.3612C108.108 55.139 108.108 54.9168 108.108 54.6668C108.108 54.4446 108.108 54.1946 108.136 53.9723C108.22 52.1112 108.47 50.2501 108.858 48.389C109.247 46.5279 109.664 44.6668 110.136 42.7779L110.442 41.4168ZM114.747 33.2779C114.942 33.6112 115.081 33.9168 115.164 34.2223C115.247 34.5279 115.275 34.8057 115.275 35.0557C115.247 35.6946 115.025 36.2501 114.581 36.6668C114.164 37.1112 113.72 37.3612 113.247 37.4723C112.858 37.5557 112.497 37.4446 112.192 37.139C111.886 36.8334 111.747 36.2779 111.747 35.5001C111.747 35.1946 111.803 34.889 111.886 34.5557C111.97 34.2223 112.108 33.9168 112.247 33.639C112.386 33.3612 112.553 33.139 112.775 32.9446C112.97 32.7501 113.192 32.639 113.414 32.5834C113.636 32.5279 113.858 32.5557 114.081 32.6668C114.331 32.7779 114.553 32.9723 114.747 33.2779Z" fill="#515165"/>
<path d="M130.861 48.0554C130.444 49.0554 129.972 50.0832 129.444 51.1943C128.916 52.2776 128.333 53.3054 127.639 54.2776C126.944 55.222 126.166 56.0554 125.277 56.7776C124.389 57.4998 123.361 57.972 122.222 58.1943C121.361 58.3609 120.639 58.3332 120.027 58.0276C119.416 57.7498 118.916 57.3054 118.527 56.6943C118.139 56.0831 117.861 55.3609 117.666 54.4998C117.472 53.6387 117.389 52.722 117.361 51.7498C117.361 51.4998 117.361 51.2776 117.333 51.0276C117.333 50.8054 117.333 50.5554 117.361 50.2776V50.3054C117.416 49.2498 117.555 48.1387 117.777 47.0276C118 45.8887 118.305 44.7776 118.666 43.6943C119.027 42.5832 119.444 41.5554 119.944 40.5554C120.444 39.5554 120.972 38.6665 121.583 37.8609C122.194 37.0554 122.833 36.3887 123.527 35.8609C124.222 35.3332 124.944 34.9998 125.694 34.8332C126.416 34.6943 127.055 34.722 127.639 34.972C128.222 35.222 128.694 35.5832 129.111 36.0554C129.527 36.5276 129.805 37.1387 130.027 37.8054C130.222 38.4998 130.333 39.1943 130.305 39.9721C130.222 41.0276 129.916 42.0832 129.389 43.0554C128.861 44.0554 128.194 44.9721 127.416 45.8054C126.639 46.6387 125.805 47.3887 124.889 48.0276C123.972 48.6665 123.111 49.1665 122.277 49.5554C122.222 49.8887 122.166 50.222 122.139 50.5831C122.111 50.9165 122.083 51.3054 122.055 51.6665C122.055 51.8332 122.027 51.972 122.027 52.1387C122.027 52.3054 122.027 52.4443 122.027 52.6109C122.027 53.0276 122.083 53.4165 122.139 53.7776C122.194 54.1387 122.305 54.472 122.472 54.7498C122.639 55.0276 122.833 55.2498 123.111 55.3887C123.389 55.5276 123.722 55.5832 124.111 55.5276C124.722 55.3887 125.333 55.0276 125.861 54.472C126.416 53.9165 126.916 53.2776 127.389 52.5554C127.861 51.8332 128.277 51.0554 128.666 50.2498C129.055 49.4443 129.389 48.722 129.694 48.0554V48.0831C130.083 47.222 130.416 46.3609 130.75 45.5276C131.083 44.6943 131.361 43.9443 131.639 43.2776C131.777 42.972 131.916 42.6109 132.055 42.222C132.222 41.8332 132.361 41.4998 132.472 41.1943C132.666 41.0554 132.777 40.9998 132.833 40.972C132.972 40.9443 133.111 40.972 133.194 41.0554C133.277 41.1387 133.361 41.2498 133.444 41.3887L133.222 42.0554C132.944 42.8054 132.583 43.722 132.166 44.7776C131.805 45.8054 131.361 46.9165 130.861 48.0554ZM128.722 38.3609C128.472 37.8609 128.166 37.6665 127.805 37.722C127.5 37.7776 127.166 38.0276 126.805 38.4443C126.444 38.8609 126.083 39.3887 125.722 39.9998C125.361 40.6109 125 41.3054 124.666 42.0554C124.333 42.8054 124 43.5554 123.75 44.2776C123.472 44.9998 123.25 45.6943 123.027 46.3609C122.805 47.0276 122.666 47.5554 122.611 47.9443C123.166 47.7498 123.805 47.4165 124.555 46.9165C125.277 46.4165 126 45.8332 126.666 45.1387C127.333 44.4443 127.916 43.6943 128.389 42.8887C128.861 42.0832 129.139 41.2498 129.166 40.3887C129.194 39.6943 129.055 38.9998 128.722 38.3609Z" fill="#515165"/>
<path d="M136.113 40.222C136.058 40.4442 136.03 40.6387 136.002 40.8331C135.974 41.0276 135.919 41.222 135.891 41.3887C136.085 41.0276 136.28 40.6387 136.446 40.2498C136.641 39.8609 136.835 39.4442 137.058 39.0276C137.474 38.1387 137.919 37.2498 138.391 36.3609C138.863 35.472 139.335 34.6387 139.835 33.8887C140.335 33.1387 140.891 32.4998 141.474 31.972C142.058 31.4442 142.669 31.1109 143.335 30.972C143.808 30.8887 144.169 30.8887 144.474 30.9998C144.78 31.1109 145.002 31.3053 145.196 31.5831C145.363 31.8609 145.502 32.1942 145.558 32.6109C145.613 33.0276 145.641 33.4998 145.613 33.9998C145.558 35.0553 145.363 36.2775 145.058 37.6664C144.752 39.0275 144.391 40.4164 143.974 41.8331C143.641 43.1109 143.335 44.3609 143.03 45.5831C142.752 46.8053 142.558 47.8331 142.502 48.6664C142.502 48.8609 142.502 49.0831 142.53 49.3331C142.53 49.5831 142.558 49.8053 142.613 50.0275C142.641 50.2498 142.724 50.4164 142.808 50.5553C142.891 50.6942 143.002 50.7498 143.141 50.722C143.363 50.6664 143.669 50.3887 144.03 49.8331C144.391 49.3053 144.78 48.6387 145.224 47.8331C145.641 47.0276 146.058 46.1664 146.502 45.1942C146.919 44.2498 147.335 43.3331 147.696 42.4442C148.085 41.5553 148.391 40.7776 148.696 40.0553C148.974 39.3609 149.169 38.8609 149.308 38.5553C149.308 38.4998 149.335 38.4442 149.391 38.3609L149.474 38.1109C149.558 37.9164 149.613 37.7776 149.696 37.6387C149.752 37.4998 149.891 37.4442 150.058 37.3887C150.224 37.3609 150.363 37.3887 150.446 37.472C150.53 37.5553 150.613 37.6664 150.696 37.8053C150.585 38.0553 150.474 38.3609 150.335 38.6942C150.196 39.0553 150.085 39.3887 149.946 39.722C149.641 40.5276 149.28 41.3887 148.919 42.3331C148.558 43.2776 148.169 44.2498 147.752 45.1942C147.335 46.1664 146.891 47.0831 146.446 47.9998C145.974 48.9164 145.502 49.7498 145.03 50.472C144.53 51.222 144.058 51.8331 143.558 52.3053C143.058 52.7775 142.558 53.0831 142.03 53.1942C141.446 53.3053 140.974 53.3053 140.585 53.1942C140.196 53.0831 139.891 52.8887 139.641 52.5831C139.391 52.3053 139.224 51.9164 139.113 51.472C139.002 51.0275 138.919 50.5276 138.919 49.972C138.919 49.8609 138.919 49.722 138.919 49.5831C138.919 49.4442 138.919 49.3053 138.946 49.1664C139.002 48.4164 139.113 47.6109 139.28 46.7498C139.446 45.8887 139.641 44.9998 139.863 44.0831C140.085 43.1664 140.308 42.2776 140.558 41.3887C140.808 40.4998 141.058 39.6664 141.28 38.8887C141.585 37.8053 141.863 36.8609 142.085 35.9998C142.335 35.1664 142.446 34.5553 142.474 34.1664C142.474 33.8331 142.419 33.6664 142.252 33.6942C141.946 33.7498 141.613 33.9998 141.252 34.4442C140.863 34.8887 140.474 35.4442 140.058 36.1387C139.641 36.8331 139.196 37.5831 138.78 38.3887C138.363 39.222 137.946 40.0275 137.558 40.8609C137.169 41.6942 136.808 42.472 136.474 43.1942C136.141 43.9164 135.891 44.5276 135.669 44.9998V44.972L135.28 45.8331H135.308C135.058 46.6664 134.835 47.5831 134.641 48.6109C134.474 49.6387 134.363 50.5831 134.308 51.4998C134.308 51.6664 134.28 51.8053 134.28 51.9442C134.28 52.0831 134.28 52.222 134.28 52.3887C134.28 52.8331 134.335 53.222 134.391 53.5276C134.446 53.8331 134.502 54.0831 134.558 54.2776C134.613 54.4442 134.641 54.5553 134.641 54.6664C134.641 54.9164 134.474 55.0831 134.113 55.1664C133.53 55.2775 133.03 55.2498 132.613 55.0831C132.224 54.8887 131.891 54.6109 131.669 54.222C131.446 53.8331 131.28 53.3609 131.169 52.8053C131.058 52.2498 131.002 51.6942 131.002 51.1109C131.002 50.9164 131.002 50.7498 131.002 50.5553C131.002 50.3609 131.002 50.1664 131.03 49.972C131.058 49.3331 131.113 48.6942 131.196 47.9998C131.28 47.3053 131.363 46.6109 131.474 45.8887C131.585 45.1664 131.696 44.472 131.835 43.8053C131.974 43.1109 132.085 42.472 132.224 41.8331C132.419 40.7775 132.613 39.7776 132.752 38.8609C132.919 37.9442 133.002 37.1664 133.03 36.5276C133.03 36.222 133.03 35.972 133.002 35.7498C132.974 35.5276 132.946 35.3331 132.891 35.1387C132.863 35.0553 132.863 34.972 132.835 34.8887C132.835 34.8053 132.808 34.7498 132.808 34.6664C132.808 34.3887 132.919 34.1942 133.113 34.0553C133.308 33.9164 133.502 33.8331 133.752 33.7776C134.363 33.6387 134.891 33.6664 135.252 33.8053C135.641 33.972 135.946 34.1942 136.141 34.5275C136.363 34.8609 136.502 35.2498 136.558 35.6942C136.613 36.1387 136.641 36.6109 136.613 37.0831C136.585 37.5831 136.53 38.1109 136.474 38.6387C136.308 39.2498 136.224 39.7498 136.113 40.222Z" fill="#515165"/>
<path d="M161.419 49.5832C159.974 49.8887 158.947 49.6943 158.308 48.9721C157.697 48.2776 157.363 47.1665 157.335 45.6387C157.335 45.4721 157.335 45.2776 157.335 45.0832C157.335 44.8887 157.335 44.6943 157.363 44.4721C157.363 44.3332 157.363 44.2499 157.363 44.1665C157.363 44.0832 157.363 44.0276 157.363 43.9443C157.363 43.861 157.363 43.7776 157.391 43.6665C157.391 43.5554 157.419 43.4165 157.447 43.2221C157.002 44.1665 156.53 45.1388 156.002 46.0832C155.474 47.0276 154.919 47.9165 154.308 48.7221C153.697 49.5276 153.085 50.1943 152.419 50.7499C151.752 51.3054 151.058 51.6665 150.363 51.8054C149.724 51.9443 149.169 51.9165 148.724 51.7776C148.28 51.611 147.919 51.361 147.641 50.9721C147.363 50.611 147.169 50.1387 147.03 49.5832C146.891 49.0276 146.835 48.4443 146.808 47.8332C146.808 47.6943 146.808 47.5276 146.808 47.3887C146.808 47.2499 146.808 47.0832 146.835 46.9443C146.919 45.9999 147.113 44.9165 147.391 43.6943C147.696 42.4999 148.085 41.2499 148.558 39.9721C149.03 38.6943 149.585 37.4443 150.224 36.1943C150.863 34.9443 151.558 33.8332 152.308 32.8054C153.058 31.7776 153.891 30.9443 154.752 30.2499C155.613 29.5554 156.502 29.111 157.447 28.9165C157.891 28.8332 158.308 28.8054 158.697 28.8887C159.085 28.9721 159.447 29.111 159.78 29.3054L160.002 28.1943C160.169 27.2776 160.308 26.3887 160.474 25.5554C160.613 24.7221 160.752 23.9443 160.863 23.2499C160.974 22.5554 161.085 21.9443 161.141 21.4165C161.224 20.8887 161.252 20.4999 161.252 20.1943C161.252 19.861 161.252 19.611 161.224 19.3887C161.197 19.1665 161.169 18.9721 161.113 18.8054C161.085 18.7221 161.085 18.6387 161.058 18.5554C161.058 18.4721 161.03 18.3887 161.03 18.3332C161.03 18.0554 161.141 17.861 161.335 17.7499C161.53 17.6387 161.724 17.5276 161.974 17.4999C162.613 17.361 163.141 17.361 163.53 17.5276C163.919 17.6665 164.224 17.9165 164.419 18.2221C164.613 18.5554 164.752 18.9443 164.808 19.3887C164.863 19.8332 164.891 20.3332 164.863 20.8054C164.835 21.2499 164.78 21.8332 164.669 22.5832C164.558 23.3332 164.447 24.1943 164.28 25.1665C164.113 26.1387 163.947 27.1665 163.752 28.3054C163.558 29.4165 163.363 30.5832 163.141 31.7776C163.085 32.1665 163.002 32.6387 162.891 33.1943C162.78 33.7499 162.669 34.3332 162.558 34.9721C162.391 35.8054 162.224 36.6665 162.058 37.611C161.891 38.5554 161.724 39.4721 161.585 40.4165C161.447 41.3332 161.335 42.2221 161.252 43.0554C161.169 43.8887 161.141 44.611 161.141 45.2221C161.141 45.3887 161.141 45.5554 161.141 45.6943C161.141 45.8332 161.169 45.9721 161.197 46.111C161.308 46.861 161.613 47.1665 162.113 47.0832C162.308 47.0554 162.53 46.9443 162.752 46.7776C162.974 46.611 163.224 46.4165 163.447 46.1943C163.669 45.9721 163.891 45.7221 164.113 45.4721C164.335 45.2221 164.502 44.9721 164.669 44.7221C165.085 44.0832 165.474 43.3887 165.863 42.6387C166.252 41.861 166.613 41.111 166.947 40.3054C167.28 39.5276 167.585 38.7499 167.891 37.9721C168.169 37.1943 168.447 36.5276 168.669 35.9165C168.891 35.3332 169.058 34.861 169.224 34.4443C169.363 34.0276 169.502 33.7499 169.585 33.5832C169.641 33.4999 169.724 33.4721 169.78 33.4165C169.863 33.3887 169.919 33.361 169.974 33.361C170.113 33.3332 170.224 33.361 170.308 33.4443C170.391 33.5276 170.474 33.6387 170.558 33.7776C170.391 34.1387 170.252 34.5554 170.113 34.9999C169.974 35.4443 169.808 35.8888 169.641 36.3054C169.363 37.0276 169.058 37.8054 168.78 38.5832C168.474 39.361 168.169 40.1388 167.863 40.9443C167.53 41.7221 167.224 42.4999 166.863 43.2499C166.53 43.9999 166.169 44.6943 165.808 45.3332C165.53 45.7776 165.252 46.2499 164.947 46.6943C164.641 47.1387 164.308 47.5832 163.947 47.9721C163.585 48.361 163.224 48.6943 162.808 48.9999C162.363 49.2221 161.919 49.4443 161.419 49.5832ZM158.058 38.9165C158.224 37.9443 158.391 36.9443 158.558 35.8888C158.724 34.8332 158.919 33.7776 159.113 32.7221C159.141 32.4999 159.169 32.3054 159.224 32.111C159.28 31.9165 159.308 31.7221 159.335 31.4999C159.002 31.2776 158.613 31.2221 158.141 31.3332C157.558 31.4443 156.974 31.8332 156.419 32.4721C155.835 33.111 155.28 33.8887 154.752 34.8332C154.224 35.7499 153.724 36.7776 153.28 37.8888C152.835 38.9999 152.419 40.0832 152.085 41.1665C151.724 42.2499 151.447 43.2499 151.252 44.1665C151.03 45.0832 150.919 45.8332 150.891 46.3887C150.863 46.6665 150.863 46.9443 150.891 47.2221C150.919 47.5276 150.974 47.7776 151.058 48.0276C151.141 48.2776 151.252 48.4443 151.419 48.5832C151.585 48.6943 151.808 48.7499 152.113 48.6665C152.474 48.5832 152.863 48.361 153.224 47.9721C153.613 47.5832 154.002 47.111 154.391 46.5554C154.78 45.9999 155.141 45.361 155.502 44.6665C155.863 43.9721 156.197 43.2776 156.53 42.5832C156.863 41.8887 157.141 41.2221 157.391 40.5554C157.641 39.9165 157.863 39.361 158.058 38.8887V38.9165Z" fill="#515165"/>
<path d="M189.832 29.25C190.11 29 190.332 28.9166 190.471 28.9722C190.61 29.0278 190.749 29.1667 190.86 29.3333L184.749 43.8055C184.749 43.8889 184.749 44.0278 184.749 44.1666C184.749 44.3055 184.721 44.4444 184.721 44.5278C184.638 44.8333 184.526 45.0278 184.332 45.0555C183.832 44.6389 183.221 44.4166 182.443 44.3889C181.665 44.3611 180.804 44.4722 179.86 44.6666C179.221 44.8055 178.61 44.9444 177.943 45.1389C177.304 45.3333 176.638 45.5 175.999 45.6944C175.415 45.8611 174.832 46.0555 174.276 46.2222C173.721 46.3889 173.193 46.5278 172.721 46.6111C172.304 46.6944 171.943 46.75 171.582 46.7778C171.249 46.8055 170.943 46.8055 170.665 46.75C169.86 46.6666 169.471 46.1944 169.443 45.3333C169.443 44.9722 169.499 44.5555 169.665 44.1111C169.804 43.6389 170.054 43.1111 170.415 42.5278C170.915 41.6666 171.526 40.7778 172.193 39.8055C172.888 38.8611 173.61 37.8889 174.36 36.9444C175.138 35.9722 175.915 35.0278 176.749 34.0833C177.554 33.1389 178.36 32.2222 179.11 31.3889C179.888 30.5555 180.582 29.75 181.276 29.0278C181.943 28.3055 182.526 27.6667 183.026 27.1389L184.054 26.0278C183.86 26 183.554 26.0555 183.193 26.1111C182.915 26.1667 182.582 26.25 182.193 26.3611C181.804 26.4722 181.415 26.5833 180.999 26.6944C180.471 26.8611 179.915 27.0278 179.304 27.1944C178.693 27.3611 178.11 27.5278 177.526 27.6389C176.638 27.8333 175.804 27.9167 175.026 27.9167C174.249 27.9167 173.582 27.7222 173.054 27.3333L169.443 36.4444C169.249 36.5555 169.054 36.6389 168.86 36.6389C168.665 36.6666 168.499 36.5555 168.332 36.3611L172.471 26.0833C172.471 25.9444 172.471 25.75 172.526 25.4444C172.554 25.1389 172.61 24.8333 172.693 24.5278C172.749 24.2222 172.832 23.9444 172.943 23.7222C173.054 23.5 173.165 23.3611 173.332 23.3611C173.443 23.3611 173.526 23.4167 173.554 23.5C173.582 23.5833 173.638 23.6944 173.665 23.8333L173.776 24.0833C173.888 24.25 174.054 24.3611 174.304 24.4444C174.554 24.5278 174.832 24.5555 175.193 24.5833C175.526 24.5833 175.915 24.5555 176.36 24.5C176.776 24.4444 177.221 24.3611 177.693 24.2778C178.36 24.1389 179.026 23.9722 179.665 23.7778C180.332 23.5833 180.971 23.4167 181.554 23.25C182.388 23.0278 183.054 22.8611 183.499 22.75C183.943 22.6666 184.388 22.6389 184.832 22.6944C185.276 22.75 185.665 22.8611 186.026 23.0833C186.36 23.3055 186.638 23.5833 186.804 24C186.999 24.3889 187.026 24.8889 186.943 25.5278C186.915 25.6389 186.888 25.75 186.86 25.8611C186.804 25.9722 186.721 26.0278 186.61 26.0555C186.499 26.0833 186.388 26.0555 186.276 25.9722L186.221 25.9444C185.054 26.9166 183.86 28.0555 182.638 29.4444C181.415 30.8055 180.221 32.25 179.054 33.8055C177.888 35.3333 176.776 36.8889 175.693 38.4722C174.638 40.0555 173.665 41.5278 172.804 42.9444C172.971 43 173.36 42.9722 173.943 42.8333C174.276 42.75 174.693 42.6666 175.138 42.5278C175.582 42.3889 176.054 42.25 176.554 42.1111C177.138 41.9444 177.749 41.7778 178.36 41.6111C178.971 41.4444 179.582 41.2778 180.138 41.1667C180.776 41.0278 181.332 40.9444 181.86 40.9166C182.388 40.8889 182.804 40.9444 183.11 41.1111C183.332 41.2222 183.554 41.3611 183.776 41.5C183.971 41.6389 184.165 41.8333 184.304 42.0833C184.388 41.8889 184.471 41.6944 184.554 41.4722C184.638 41.25 184.749 40.9722 184.915 40.6111C185.054 40.25 185.249 39.7778 185.499 39.2222C185.749 38.6667 186.054 37.9444 186.443 37.0278C186.832 36.1389 187.304 35.0555 187.86 33.7778C188.415 32.5 189.082 30.9722 189.86 29.1944L189.832 29.25Z" fill="#515165"/>
<path d="M89.6961 50.4717C89.335 52.2495 88.9739 53.9995 88.6127 55.7495C88.2516 57.4995 87.9461 59.0828 87.6961 60.4995C87.8627 60.7773 88.0294 61.0273 88.2239 61.3328C88.3905 61.6106 88.585 61.944 88.7516 62.3329C88.9183 62.7217 89.085 63.194 89.2516 63.7495C89.4183 64.3051 89.585 64.9995 89.7239 65.8051C90.335 65.2217 90.9183 64.4162 91.5016 63.3606C92.085 62.3051 92.6683 61.1662 93.1961 59.944C93.7516 58.694 94.2516 57.4162 94.7239 56.1106C95.1961 54.8051 95.6405 53.5829 96.0572 52.4717C96.3627 51.6384 96.6405 50.8884 96.8627 50.2495C97.085 49.6106 97.3072 49.0551 97.5294 48.6106C97.7794 48.4162 97.9461 48.3606 98.085 48.3606C98.1961 48.3884 98.3627 48.4995 98.5572 48.7217C98.3627 49.194 98.1683 49.7495 97.9461 50.3606C97.7238 50.9717 97.4739 51.6384 97.2239 52.3606C96.7794 53.6384 96.2794 55.0273 95.7238 56.5273C95.1683 58.0273 94.585 59.4717 93.9461 60.8884C93.3072 62.2773 92.6405 63.5551 91.9461 64.7217C91.2516 65.8606 90.5294 66.7495 89.8072 67.3606C89.835 67.6662 89.8627 67.9995 89.8627 68.3606C89.8905 68.7217 89.8905 69.0828 89.8905 69.4717C89.9183 70.4162 89.9183 71.444 89.9183 72.4995C89.9183 73.5551 89.8905 74.6106 89.8627 75.6384C89.835 76.444 89.7794 77.2217 89.7516 77.9439C89.6961 78.6662 89.6405 79.2773 89.585 79.7773C89.5016 80.3328 89.4461 80.944 89.3627 81.6384C89.2794 82.3051 89.1683 82.9995 89.0294 83.7217C88.8905 84.4162 88.6961 85.1384 88.4739 85.8051C88.2516 86.4995 87.9738 87.1106 87.6127 87.6662C87.2516 88.2217 86.835 88.7217 86.335 89.1106C85.835 89.5273 85.2516 89.7773 84.585 89.9162C83.8627 90.0551 83.2516 89.9995 82.7516 89.7217C82.2516 89.444 81.835 88.9717 81.5294 88.3328C81.1961 87.694 80.9738 86.8884 80.8072 85.9162C80.6405 84.944 80.5572 83.8606 80.5294 82.6384C80.5016 81.2217 80.5572 79.6384 80.6961 77.8606C80.835 76.1106 81.0294 74.2495 81.3072 72.3051C81.5572 70.3606 81.8627 68.3328 82.2239 66.2773C82.585 64.2217 82.9461 62.1662 83.335 60.1106C83.7239 58.0551 84.1127 56.0828 84.5294 54.1662C84.9183 52.2495 85.3072 50.4439 85.6683 48.7773C85.8627 47.8051 86.0572 46.8606 86.2516 45.8884C86.4461 44.9162 86.6405 44.0273 86.8072 43.1662C86.9739 42.3328 87.1127 41.5828 87.2239 40.9162C87.335 40.2495 87.4183 39.7495 87.4461 39.3606C87.4738 39.1662 87.4738 38.9995 87.4738 38.8328C87.4738 38.694 87.4738 38.5273 87.4738 38.3884C87.4738 38.194 87.4738 38.0273 87.4738 37.8606C87.4738 37.694 87.4461 37.5551 87.4461 37.4162C87.4183 37.2773 87.4183 37.1384 87.3905 37.0273C87.3905 36.9162 87.3905 36.8051 87.3905 36.7217C87.4461 36.4162 87.5572 36.194 87.7794 36.0273C88.0016 35.8884 88.2239 35.7773 88.4739 35.7495C89.085 35.6662 89.585 35.694 89.9738 35.8328C90.3627 35.9717 90.6961 36.194 90.9183 36.5273C91.1683 36.8328 91.335 37.2217 91.4461 37.694C91.5572 38.1384 91.6127 38.6384 91.6405 39.1662C91.6405 39.4162 91.6405 39.6662 91.6405 39.944C91.6405 40.2217 91.6127 40.4717 91.585 40.7217C91.5572 41.0828 91.4738 41.6106 91.335 42.2495C91.2238 42.9162 91.085 43.6662 90.8905 44.5273C90.7239 45.3884 90.5294 46.3328 90.335 47.3606C90.1127 48.3328 89.9183 49.3884 89.6961 50.4717ZM88.6405 69.6106C88.6405 69.2495 88.6127 68.944 88.6127 68.6384C88.585 68.3606 88.585 68.1106 88.5572 67.8884H88.5294C88.2516 67.9162 87.9461 67.9162 87.585 67.9162C87.2238 67.9162 86.8627 67.8051 86.4738 67.5551C86.4461 67.7495 86.4183 67.944 86.3905 68.1106C86.3627 68.2773 86.335 68.4717 86.3072 68.6384C86.0572 70.3328 85.835 72.0828 85.6405 73.8328C85.4461 75.5828 85.2516 77.444 85.1127 79.4162C85.0294 80.6662 85.0294 81.8328 85.0294 82.9439C85.0572 84.0273 85.1683 84.944 85.3627 85.6662C85.5572 86.3884 85.8627 86.7773 86.3072 86.8328C86.5294 86.7773 86.7516 86.5551 86.9739 86.1662C87.1683 85.7773 87.3627 85.2773 87.5294 84.6384C87.6961 83.9995 87.835 83.2773 87.9739 82.4717C88.1127 81.6384 88.1961 80.7773 88.2794 79.8884C88.335 79.2217 88.4183 78.5273 88.4461 77.8051C88.4738 77.0828 88.5294 76.3606 88.5572 75.6662C88.6127 74.5273 88.6405 73.4439 88.6405 72.3884C88.6683 71.3328 88.6683 70.4162 88.6405 69.6106ZM86.8905 64.944C87.1127 65.2495 87.3905 65.5273 87.7238 65.8051C88.0572 66.0829 88.3072 66.2217 88.5016 66.2495C88.3627 65.2773 88.1961 64.4717 87.9739 63.8328C87.7516 63.194 87.5294 62.7495 87.2516 62.4995L86.8905 64.944Z" fill="#515165"/>
</g>
<defs>
<clipPath id="clip0_0_761">
<rect width="200" height="90" fill="white"/>
</clipPath>
</defs>
</svg>
