<svg width="400" height="180" viewBox="0 0 400 180" fill="none" xmlns="http://www.w3.org/2000/svg">
<g clip-path="url(#clip0_0_590)">
<path d="M71.889 131.555C71.5001 131.555 71.1112 131.5 70.7223 131.444C60.5556 129.666 46.5556 123.667 32.3334 115C11.6112 102.444 0.833409 87.4998 0.222298 70.6665C-0.333258 54.0554 8.77785 37.3887 23.0001 29.1109C32.9445 23.3332 44.5556 21.2776 55.7223 23.3332C67.4445 25.4998 77.9445 31.9998 86.1112 42.0554C88.4445 44.9443 88.0001 49.111 85.1112 51.4443C82.2223 53.7776 78.0556 53.3332 75.7223 50.4443C63.6667 35.5554 45.2223 31.611 29.7223 40.611C19.6667 46.4998 13.1667 58.3332 13.6112 70.1665C14.0556 82.2221 22.6667 93.4998 39.2779 103.611C58.0556 115 69.889 117.722 73.1112 118.278C76.7223 118.889 79.1667 122.389 78.5001 126C77.889 129.333 75.0556 131.555 71.889 131.555Z" fill="#FD6769"/>
<path d="M146.334 57.1111C145.834 57.1111 145.278 57.0555 144.778 56.9444C141.222 56.0555 139 52.4444 139.889 48.8888C140.834 44.9444 141.889 37.2222 138.167 29.5C132.889 18.6111 120.167 11.8333 108.556 13.7222C98.2224 15.3888 91.778 23.8333 88.3891 28.3888C85.1113 32.7222 82.8335 37.0555 81.3891 41.6666C80.278 45.1666 76.5558 47.1666 73.0558 46.0555C69.5558 44.9444 67.5558 41.2222 68.6669 37.7222C70.5558 31.6111 73.5558 25.8888 77.7224 20.3333C81.9446 14.7222 90.778 3.0555 106.445 0.555504C123.945 -2.27783 142.334 7.4444 150.167 23.6666C155.722 35.1666 154.222 46.3888 152.889 52.0555C152.056 55.1111 149.334 57.1111 146.334 57.1111Z" fill="#FD6769"/>
<path d="M116.667 85.778C116.333 88.3891 116 91.4446 115.611 94.8891C115.222 98.3335 114.778 101.945 114.333 105.667C113.889 109.389 113.445 113.167 112.945 116.945C112.445 120.722 112 124.278 111.611 127.611C111.167 130.945 110.778 133.945 110.445 136.611C110.111 139.278 109.778 141.334 109.556 142.722C109.222 143.945 108.833 145.111 108.333 146.278C107.833 147.445 107.222 148.5 106.5 149.389C105.778 150.334 104.833 151.056 103.778 151.667C102.722 152.278 101.445 152.611 99.9445 152.667C99.3334 152.556 98.7778 152.334 98.3334 152.056C97.889 151.778 97.8334 151.278 98.1112 150.556C98.1112 150.167 98.2223 149.778 98.4445 149.389C98.6667 149.056 98.889 148.556 99.0556 148C99.2778 147.389 99.5001 146.778 99.7223 146L99.6667 146.056C100.222 143.722 100.667 141.167 101.111 138.445C101.556 135.667 101.889 132.834 102.278 129.834C102.611 126.834 102.945 123.834 103.222 120.778C103.5 117.722 103.778 114.778 104 111.889C104.222 109.5 104.445 107.222 104.611 105.056C104.833 102.889 105 100.833 105.222 98.9446C105.445 97.0557 105.667 95.3335 105.889 93.7779C106.111 92.2224 106.389 90.8891 106.667 89.8335C105.056 91.278 103.278 92.6113 101.389 93.9446C99.5001 95.2224 97.6112 96.2224 95.7778 96.8891C94.7223 97.2224 93.7779 97.3891 92.889 97.3335C92.0001 97.3335 91.2223 97.1113 90.5556 96.778C89.889 96.4446 89.3889 95.9446 89.0556 95.278C88.7223 94.6113 88.5556 93.7779 88.6112 92.8335C88.6667 92.1668 88.7778 91.4446 89.0556 90.6669C89.2778 89.8891 89.6667 89.0002 90.2223 88.0557C91.0001 86.5557 92.0001 85.1113 93.2223 83.6668C94.4445 82.2224 95.7223 80.8335 97.0001 79.5557C98.3334 78.278 99.6112 77.1113 100.889 76.1113C102.167 75.0557 103.222 74.2224 104.111 73.6113C105.667 72.5002 107.333 71.3891 109.167 70.3335C111 69.278 112.833 68.3335 114.722 67.4446C116.611 66.5557 118.5 65.778 120.444 65.1668C122.389 64.5002 124.222 64.0557 126 63.7224C128.611 63.2224 131.111 63.1669 133.5 63.4446C135.889 63.7224 137.945 64.5557 139.778 65.8891C141.556 67.2224 143 69.1113 144.056 71.5557C145.111 74.0002 145.667 77.1113 145.722 80.8335C145.722 81.1113 145.722 81.3891 145.722 81.778C145.722 82.1113 145.722 82.4446 145.667 82.778C145.556 85.7224 145.056 88.6669 144.222 91.6113C143.389 94.6113 142.222 97.4446 140.667 100.111C139.167 102.778 137.278 105.222 135.056 107.445C132.833 109.667 130.278 111.5 127.445 112.889C131.167 113.778 134 115.334 135.945 117.611C137.889 119.889 139.056 122.556 139.445 125.611C139.5 126.333 139.611 127.111 139.611 127.889C139.667 128.667 139.611 129.445 139.611 130.222C139.445 133.667 138.667 137 137.389 140.222C136.111 143.5 134.389 146.556 132.333 149.5C130.222 152.445 127.889 155.167 125.222 157.722C122.556 160.278 119.778 162.5 116.889 164.445C114 166.389 111.056 168.056 108.111 169.389C105.167 170.722 102.333 171.667 99.6667 172.222C97.7778 172.611 95.9445 172.778 94.1667 172.778C91.1112 172.722 88.2778 172.111 85.7223 171.056C83.1667 170 80.9445 168.445 79.1667 166.445C77.3334 164.445 75.9445 162.056 75.0001 159.167C74.0556 156.278 73.6667 153.056 73.8334 149.389C73.889 148.222 74.0001 147.111 74.1667 145.945C74.3334 144.778 74.5556 143.611 74.8334 142.389C75.5001 139.722 76.5001 137.222 77.889 134.778C79.2779 132.389 80.7778 130.222 82.5001 128.334C84.2223 126.445 86.0001 124.889 87.889 123.611C89.7779 122.334 91.5556 121.556 93.2223 121.222C94.389 121 95.4445 120.945 96.4445 121.167C97.4445 121.389 98.2779 121.889 99.0001 122.611C99.7223 123.389 100.222 124.445 100.556 125.778C100.889 127.111 101.056 128.833 100.945 130.889C100.945 131.278 100.889 131.667 100.833 132.167C100.778 132.667 100.722 133.056 100.667 133.5C100.222 134.334 99.8334 134.778 99.4445 134.889C99.0556 134.945 98.7778 134.834 98.5556 134.556C98.6112 132.722 98.5556 131.222 98.3334 130C98.1112 128.778 97.8334 127.778 97.389 127.056C97.0001 126.334 96.5001 125.833 95.9445 125.611C95.389 125.333 94.7223 125.278 94.0556 125.445C93.0001 125.667 91.8889 126.278 90.7223 127.278C89.5556 128.278 88.389 129.5 87.2778 131C86.1667 132.5 85.1667 134.167 84.2223 136.056C83.2778 137.945 82.5556 139.834 82.0556 141.778C81.7223 143.111 81.4445 144.445 81.2223 145.834C81.0001 147.167 80.889 148.445 80.8334 149.611C80.7223 152.556 80.9445 155.278 81.5556 157.722C82.1667 160.167 83.1112 162.222 84.3334 163.889C85.6112 165.556 87.1667 166.834 89.0556 167.667C90.9445 168.5 93.1112 168.833 95.5556 168.667C95.9445 168.667 96.3334 168.611 96.6667 168.556C97.0556 168.5 97.389 168.445 97.7778 168.334C100.167 167.834 102.556 166.889 105.056 165.445C107.556 164 110 162.222 112.333 160.111C114.667 158 116.889 155.611 118.945 153C121 150.389 122.833 147.611 124.389 144.722C125.945 141.834 127.167 138.945 128.056 136C128.945 133.056 129.389 130.167 129.333 127.389C129.333 125.611 129.056 124 128.556 122.611C128.056 121.167 127.278 120 126.222 119C125.167 118.056 123.778 117.334 122.111 116.889C120.444 116.445 118.389 116.278 116.056 116.5C115.945 116.389 115.833 116.167 115.833 115.889C115.833 115.611 115.833 115.334 115.889 115C115.945 114.667 116 114.334 116.167 114.056C116.278 113.722 116.445 113.5 116.667 113.334C119.556 111.778 122 109.889 124.111 107.778C126.222 105.667 127.944 103.333 129.333 100.889C130.722 98.4446 131.778 95.8891 132.5 93.278C133.222 90.6669 133.667 88.1113 133.778 85.5557C133.778 85.2224 133.833 84.8891 133.833 84.5557C133.833 84.2224 133.833 83.9446 133.833 83.6113C133.833 81.5002 133.556 79.7224 133.111 78.1669C132.667 76.6669 132 75.3891 131.222 74.3891C130.445 73.3891 129.5 72.6113 128.389 72.1113C127.278 71.6113 126.111 71.278 124.778 71.1113C123.111 70.8891 121.222 71.0002 119.167 71.4446C117 71.8891 114.722 72.6668 112.333 73.7779C109.945 74.8891 107.722 76.1113 105.556 77.4446C102.778 79.3335 100.389 81.2224 98.389 83.1113C96.389 85.0002 94.9445 86.6113 94.0556 88.0002C93.5556 88.778 93.1667 89.5002 92.889 90.1668C92.6112 90.8335 92.4445 91.3891 92.4445 91.8891C92.389 92.5557 92.6112 92.9446 93.1667 93.1669C93.6667 93.3335 94.4445 93.2224 95.5001 92.6668C96.1112 92.3335 96.7778 91.8891 97.5001 91.3335C98.2223 90.778 99.0001 90.2224 99.7778 89.6113C100.556 89.0002 101.389 88.3335 102.167 87.6668C102.945 87.0002 103.722 86.3335 104.5 85.6669C105.556 84.7224 106.556 83.8335 107.5 83.0557C108.5 82.2224 109.222 81.6113 109.778 81.2779C110.445 80.8335 111.056 80.5002 111.667 80.1668C112.278 79.8891 112.833 79.6669 113.278 79.5557C114 79.3891 114.611 79.4446 115.056 79.6669C115.5 79.8891 115.889 80.3335 116.111 80.8891C116.389 81.4446 116.556 82.1669 116.611 83.0002C116.667 83.8335 116.667 84.7224 116.667 85.778Z" fill="#FD6769"/>
<path d="M399.778 105.833C377.111 109.667 354.556 114 332.167 118.889C309.722 123.778 287.444 129.167 265.278 135.056C254.222 138 243.167 141.111 232.167 144.333C221.167 147.556 210.222 150.889 199.278 154.333C188.389 157.833 177.5 161.389 166.667 165.111C155.833 168.834 145.056 172.667 134.333 176.611C130.889 177.889 127.056 176.111 125.778 172.667C124.5 169.222 126.278 165.389 129.722 164.111C129.833 164.056 129.944 164.056 130 164C141 160.556 152.056 157.222 163.111 154C174.167 150.778 185.278 147.722 196.444 144.722C207.611 141.778 218.778 138.945 229.944 136.278C241.167 133.611 252.389 131.056 263.611 128.611C286.111 123.778 308.722 119.445 331.444 115.611C354.222 111.833 377 108.611 399.778 105.833Z" fill="#FD6769"/>
<path d="M168.278 115.666C167.445 117.666 166.5 119.722 165.445 121.944C164.389 124.111 163.223 126.166 161.834 128.111C160.445 130 158.889 131.666 157.112 133.111C155.334 134.555 153.278 135.5 151 135.944C149.278 136.278 147.834 136.222 146.612 135.611C145.389 135.055 144.389 134.166 143.612 132.944C142.834 131.722 142.278 130.278 141.889 128.555C141.5 126.833 141.334 125 141.278 123.055C141.278 122.555 141.278 122.111 141.223 121.611C141.223 121.166 141.223 120.666 141.278 120.111V120.166C141.389 118.055 141.667 115.833 142.112 113.611C142.556 111.333 143.167 109.111 143.889 106.944C144.612 104.722 145.445 102.666 146.445 100.666C147.445 98.6664 148.5 96.8887 149.723 95.2775C150.945 93.6664 152.223 92.3331 153.612 91.2775C155 90.222 156.445 89.5553 157.945 89.222C159.389 88.9442 160.667 88.9998 161.834 89.4998C163 89.9998 163.945 90.722 164.778 91.6664C165.556 92.6664 166.167 93.8331 166.612 95.1664C167 96.5553 167.223 97.9442 167.167 99.4998C167 101.611 166.389 103.722 165.334 105.666C164.278 107.666 162.945 109.5 161.389 111.166C159.834 112.833 158.167 114.333 156.334 115.611C154.5 116.889 152.778 117.889 151.112 118.666C151 119.333 150.889 120 150.834 120.722C150.778 121.389 150.723 122.166 150.667 122.889C150.667 123.222 150.612 123.5 150.612 123.833C150.612 124.166 150.612 124.444 150.612 124.778C150.612 125.611 150.723 126.389 150.834 127.111C150.945 127.833 151.167 128.5 151.5 129.055C151.834 129.611 152.223 130.055 152.778 130.333C153.334 130.611 154 130.722 154.778 130.611C156 130.333 157.223 129.611 158.278 128.5C159.389 127.389 160.389 126.111 161.334 124.666C162.278 123.222 163.112 121.666 163.889 120.055C164.667 118.444 165.334 117 165.945 115.666V115.722C166.723 114 167.389 112.278 168.056 110.611C168.723 108.944 169.278 107.444 169.834 106.111C170.112 105.5 170.389 104.778 170.667 104C171 103.222 171.278 102.555 171.5 101.944C171.889 101.666 172.112 101.555 172.223 101.5C172.5 101.444 172.778 101.5 172.945 101.666C173.112 101.833 173.278 102.055 173.445 102.333L173 103.666C172.445 105.166 171.723 107 170.889 109.111C170.223 111.222 169.278 113.389 168.278 115.666ZM164.056 96.2775C163.556 95.2775 162.945 94.8887 162.223 94.9998C161.612 95.1109 160.945 95.6109 160.223 96.4442C159.5 97.2775 158.778 98.3331 158.056 99.5553C157.334 100.778 156.612 102.166 155.945 103.666C155.278 105.166 154.612 106.666 154.112 108.111C153.556 109.555 153.112 110.944 152.667 112.278C152.223 113.611 151.945 114.666 151.834 115.444C152.945 115.055 154.223 114.389 155.723 113.389C157.167 112.389 158.612 111.222 159.945 109.833C161.278 108.444 162.445 106.944 163.389 105.333C164.334 103.722 164.889 102.055 164.945 100.333C165 98.9442 164.723 97.6109 164.056 96.2775Z" fill="#FD6769"/>
<path d="M193.001 102.889L196.223 94.4997C195.112 94.6109 194.112 94.4998 193.334 94.0553C192.501 93.6664 191.834 93.0553 191.334 92.2775C190.778 91.4997 190.445 90.6109 190.167 89.5553C189.945 88.4998 189.834 87.4442 189.945 86.2775C190.056 85.0553 190.334 83.7775 190.778 82.3886C191.223 80.9998 191.834 79.722 192.501 78.4998C193.223 77.2775 194.056 76.2775 195.056 75.3887C196 74.4998 197.112 73.9442 198.278 73.722C199.778 73.3887 200.834 73.6664 201.445 74.4997C202.056 75.3331 202.389 76.7775 202.334 78.722C202.278 79.7775 202.112 80.9442 201.889 82.1664C201.667 83.3887 201.389 84.5553 201.112 85.6109C200.834 86.722 200.556 87.6664 200.334 88.5553C200.056 89.4442 199.889 90.1109 199.778 90.5553C200.556 90.6109 201.334 90.6109 202.056 90.4442C202.778 90.3331 203.501 90.222 204.167 90.0553C204.834 89.8886 205.5 89.7775 206 89.722C206.556 89.6664 207 89.6664 207.389 89.8331C207.778 89.9998 208.056 90.3331 208.223 90.7776C208.389 91.222 208.445 91.8886 208.389 92.8331C208.334 93.4997 208.278 94.1664 208.112 94.7775L207.667 97.1664C207.389 98.5553 207.112 100.055 206.834 101.611C206.556 103.166 206.278 104.722 206.056 106.278C205.834 107.833 205.612 109.278 205.389 110.666C205.167 112.055 205.056 113.278 205.001 114.333C204.945 115.555 205.056 116.555 205.278 117.278C205.501 118.055 205.834 118.444 206.167 118.389C206.778 118 207.445 117.278 208.167 116.166C208.945 115.111 209.667 113.833 210.445 112.333C211.223 110.833 212 109.222 212.834 107.5C213.667 105.778 214.445 104.055 215.167 102.333C215.889 100.611 216.612 98.9442 217.223 97.3886C217.834 95.8331 218.389 94.4442 218.889 93.2776L219.056 92.8331H219.001C219.167 92.4442 219.334 92.1109 219.445 91.8331C219.612 91.5553 219.834 91.3887 220.223 91.3331C220.667 91.222 221.056 91.5553 221.501 92.222L221 93.4998C220.556 94.6664 220.056 95.9998 219.5 97.4998C218.945 98.9998 218.278 100.611 217.612 102.278C216.945 103.944 216.223 105.666 215.445 107.389C214.667 109.111 213.889 110.778 213.112 112.389C212.334 114 211.556 115.444 210.723 116.833C209.889 118.166 209.112 119.278 208.389 120.166C207.723 120.944 207.001 121.611 206.056 122.222C205.167 122.833 204.278 123.222 203.334 123.389C202.501 123.555 201.723 123.444 201.167 123.055C200.556 122.611 200.056 122 199.667 121.166C199.278 120.333 199 119.333 198.778 118.166C198.612 117 198.501 115.778 198.445 114.444C198.445 114.055 198.445 113.611 198.445 113.166C198.445 112.722 198.445 112.333 198.5 111.889C198.556 110.944 198.667 109.666 198.889 108C199.112 106.389 199.389 104.666 199.723 102.889C200.056 101.111 200.389 99.3887 200.723 97.722C201.056 96.0553 201.445 94.722 201.778 93.6109L198.445 94.1664C197.889 95.6109 197.389 97.0553 196.834 98.4998C196.278 99.9442 195.723 101.389 195.167 102.778L193.001 102.889ZM195.723 88.1664C195.667 88.8887 195.778 89.4998 196 89.8886C196.223 90.3331 196.667 90.5553 197.334 90.5553C197.445 90.1664 197.667 89.6109 197.889 88.8331C198.167 88.0553 198.389 87.1664 198.667 86.1664C198.945 85.1664 199.167 84.222 199.389 83.222C199.612 82.222 199.723 81.3886 199.778 80.6109C199.778 79.8331 199.723 79.4442 199.612 79.4442C199.334 79.4998 199.001 79.8331 198.612 80.4442C198.167 81.0553 197.778 81.7775 197.389 82.6664C197 83.5553 196.612 84.4998 196.334 85.4442C195.945 86.4442 195.778 87.3331 195.723 88.1664Z" fill="white"/>
<path d="M220.889 82.8331C221 82.2219 221 81.6664 221 81.222C221 80.8331 221 80.4442 221.056 80.1109C221.167 79.6109 221.445 79.2775 221.834 79.0553C222.223 78.8886 222.667 78.8331 223.112 78.8886C224.5 79.1664 225.5 79.5553 226.167 80.1109C226.834 80.6664 227.167 81.4442 227.167 82.5553C227.167 83.0553 227.112 83.6664 227.056 84.3331C226.945 84.9997 226.834 85.722 226.612 86.4997C226.334 87.7775 225.945 89.2775 225.612 91.0553C225.223 92.8331 224.889 94.7219 224.5 96.7219C224.167 98.7219 223.834 100.666 223.556 102.611C223.278 104.555 223.112 106.333 222.945 107.944C222.945 108.333 222.889 108.722 222.889 109.166C222.889 109.611 222.889 109.944 222.889 110.278C222.945 111.611 223.056 112.611 223.334 113.389C223.556 114.166 224 114.5 224.556 114.389C225 114.278 225.556 113.889 226.112 113.111C226.723 112.333 227.334 111.389 228 110.166C228.667 109 229.334 107.611 230.056 106.166C230.723 104.666 231.445 103.166 232.112 101.555C232.778 99.9442 233.445 98.3886 234.112 96.8331C234.723 95.2775 235.278 93.8886 235.778 92.6109C236.167 91.6109 236.556 90.7775 236.834 89.9997C237.112 89.222 237.389 88.6108 237.667 88.1108C238 87.8331 238.223 87.7219 238.389 87.6664C238.834 87.5553 239.223 87.8886 239.667 88.5553L239.167 89.8331C238.556 91.4442 237.834 93.3331 237.056 95.3886C236.278 97.4442 235.445 99.5553 234.5 101.666C233.556 103.778 232.612 105.889 231.612 107.944C230.612 110 229.556 111.833 228.556 113.5C227.556 115.166 226.5 116.5 225.5 117.611C224.445 118.666 223.5 119.333 222.5 119.555C221.334 119.778 220.389 119.722 219.612 119.389C218.834 119 218.167 118.444 217.667 117.611C217.167 116.778 216.834 115.778 216.612 114.611C216.389 113.444 216.278 112.111 216.223 110.722C216.223 110.278 216.223 109.833 216.223 109.333C216.223 108.889 216.223 108.389 216.278 107.944C216.445 104.222 216.945 100.5 217.723 96.7775C218.5 93.0553 219.334 89.3331 220.278 85.5553L220.889 82.8331ZM229.5 66.5553C229.889 67.2219 230.167 67.8331 230.334 68.4442C230.5 69.0553 230.556 69.6109 230.556 70.1109C230.5 71.3886 230.056 72.4997 229.167 73.3331C228.334 74.222 227.445 74.722 226.5 74.9442C225.723 75.1109 225 74.8886 224.389 74.2775C223.778 73.6664 223.5 72.5553 223.5 70.9997C223.5 70.3886 223.612 69.7775 223.778 69.1108C223.945 68.4442 224.223 67.8331 224.5 67.2775C224.778 66.722 225.112 66.2775 225.556 65.8886C225.945 65.4997 226.389 65.2775 226.834 65.1664C227.278 65.0553 227.723 65.1108 228.167 65.3331C228.667 65.5553 229.112 65.9442 229.5 66.5553Z" fill="white"/>
<path d="M261.723 96.1108C260.889 98.1108 259.945 100.166 258.889 102.389C257.834 104.555 256.667 106.611 255.278 108.555C253.889 110.444 252.334 112.111 250.556 113.555C248.778 115 246.723 115.944 244.445 116.389C242.723 116.722 241.278 116.666 240.056 116.055C238.834 115.5 237.834 114.611 237.056 113.389C236.278 112.166 235.723 110.722 235.334 109C234.945 107.277 234.778 105.444 234.723 103.5C234.723 103 234.723 102.555 234.667 102.055C234.667 101.611 234.667 101.111 234.723 100.555V100.611C234.834 98.4996 235.111 96.2774 235.556 94.0552C236 91.7774 236.611 89.5552 237.334 87.3885C238.056 85.1663 238.889 83.1108 239.889 81.1108C240.889 79.1108 241.945 77.333 243.167 75.7219C244.389 74.1108 245.667 72.7774 247.056 71.7219C248.445 70.6663 249.889 69.9996 251.389 69.6663C252.834 69.3885 254.111 69.4441 255.278 69.9441C256.445 70.4441 257.389 71.1663 258.223 72.1108C259.056 73.0552 259.611 74.2774 260.056 75.6107C260.445 76.9996 260.667 78.3885 260.611 79.9441C260.445 82.0552 259.834 84.1663 258.778 86.1108C257.723 88.1108 256.389 89.9441 254.834 91.6108C253.278 93.2774 251.611 94.7774 249.778 96.0552C247.945 97.333 246.223 98.333 244.556 99.1108C244.445 99.7774 244.334 100.444 244.278 101.166C244.223 101.833 244.167 102.611 244.111 103.333C244.111 103.666 244.056 103.944 244.056 104.277C244.056 104.611 244.056 104.889 244.056 105.222C244.056 106.055 244.167 106.833 244.278 107.555C244.389 108.277 244.611 108.944 244.945 109.5C245.278 110.055 245.667 110.5 246.223 110.777C246.778 111.055 247.445 111.166 248.223 111.055C249.445 110.777 250.667 110.055 251.723 108.944C252.834 107.833 253.834 106.555 254.778 105.111C255.723 103.666 256.556 102.111 257.334 100.5C258.111 98.8885 258.778 97.4441 259.389 96.1108V96.1663C260.167 94.4441 260.834 92.7219 261.5 91.0552C262.167 89.3885 262.723 87.8885 263.278 86.5552C263.556 85.9441 263.834 85.2219 264.111 84.4441C264.445 83.6663 264.723 82.9996 264.945 82.3885C265.334 82.1108 265.556 81.9996 265.667 81.9441C265.945 81.8885 266.223 81.9441 266.389 82.1108C266.556 82.2774 266.723 82.4996 266.889 82.7774L266.445 84.1108C265.889 85.6108 265.167 87.4441 264.334 89.5552C263.611 91.6108 262.723 93.833 261.723 96.1108ZM257.445 76.7219C256.945 75.7219 256.334 75.333 255.611 75.4441C255 75.5552 254.334 76.0552 253.611 76.8885C252.889 77.7219 252.167 78.7774 251.445 79.9996C250.723 81.2219 250 82.6108 249.334 84.1108C248.667 85.6108 248 87.1108 247.5 88.5552C246.945 89.9997 246.5 91.3885 246.056 92.7219C245.611 94.0552 245.334 95.1107 245.223 95.8885C246.334 95.4996 247.611 94.833 249.111 93.833C250.556 92.833 252 91.6663 253.334 90.2774C254.667 88.8885 255.834 87.3885 256.778 85.7774C257.723 84.1663 258.278 82.4997 258.334 80.7774C258.389 79.3885 258.111 77.9996 257.445 76.7219Z" fill="white"/>
<path d="M272.223 80.444C272.112 80.8884 272.057 81.2773 272.001 81.6662C271.945 82.0551 271.834 82.444 271.779 82.7773C272.168 82.0551 272.557 81.2773 272.89 80.4996C273.279 79.7218 273.668 78.8884 274.112 78.0551C274.945 76.2773 275.834 74.4995 276.779 72.7218C277.723 70.944 278.668 69.2773 279.668 67.7773C280.668 66.2773 281.779 64.9996 282.945 63.944C284.112 62.8884 285.334 62.2218 286.668 61.944C287.612 61.7773 288.334 61.7773 288.945 61.9996C289.557 62.2218 290.001 62.6107 290.39 63.1662C290.723 63.7218 291.001 64.3884 291.112 65.2218C291.223 66.0551 291.279 66.9995 291.223 67.9995C291.112 70.1107 290.723 72.5551 290.112 75.3329C289.501 78.0551 288.779 80.8329 287.945 83.6662C287.279 86.2218 286.668 88.7218 286.057 91.1662C285.501 93.6107 285.112 95.6662 285.001 97.3329C285.001 97.7218 285.001 98.1662 285.057 98.6662C285.057 99.1662 285.112 99.6107 285.223 100.055C285.279 100.5 285.445 100.833 285.612 101.111C285.779 101.388 286.001 101.5 286.279 101.444C286.723 101.333 287.334 100.777 288.057 99.6662C288.779 98.6107 289.557 97.2773 290.445 95.6662C291.279 94.0551 292.112 92.3329 293.001 90.3884C293.834 88.4996 294.668 86.6662 295.39 84.8884C296.168 83.1107 296.779 81.5551 297.39 80.1107C297.945 78.7218 298.334 77.7218 298.612 77.1107C298.612 76.9995 298.668 76.8884 298.779 76.7218L298.945 76.2218C299.112 75.8329 299.223 75.5551 299.39 75.2773C299.501 74.9996 299.779 74.8884 300.112 74.7773C300.445 74.7218 300.723 74.7773 300.89 74.944C301.057 75.1107 301.223 75.3329 301.39 75.6106C301.168 76.1106 300.945 76.7218 300.668 77.3884C300.39 78.1107 300.168 78.7773 299.89 79.444C299.279 81.0551 298.557 82.7773 297.834 84.6662C297.112 86.5551 296.334 88.4996 295.501 90.3884C294.668 92.3329 293.779 94.1662 292.89 95.9995C291.945 97.8329 291.001 99.4996 290.057 100.944C289.057 102.444 288.112 103.666 287.112 104.611C286.112 105.555 285.112 106.166 284.057 106.388C282.89 106.611 281.945 106.611 281.168 106.388C280.39 106.166 279.779 105.777 279.279 105.166C278.779 104.611 278.445 103.833 278.223 102.944C278.001 102.055 277.834 101.055 277.834 99.944C277.834 99.7218 277.834 99.444 277.834 99.1662C277.834 98.8884 277.834 98.6107 277.89 98.3329C278.001 96.8329 278.223 95.2218 278.557 93.4995C278.89 91.7773 279.279 89.9996 279.723 88.1662C280.168 86.3329 280.612 84.5551 281.112 82.7773C281.612 80.9996 282.112 79.3329 282.557 77.7773C283.168 75.6107 283.723 73.7218 284.168 71.9996C284.668 70.3329 284.89 69.1107 284.945 68.3329C284.945 67.6662 284.834 67.3329 284.501 67.3884C283.89 67.4995 283.223 67.9996 282.501 68.8884C281.723 69.7773 280.945 70.8884 280.112 72.2773C279.279 73.6662 278.39 75.1662 277.557 76.7773C276.723 78.444 275.89 80.0551 275.112 81.7218C274.334 83.3884 273.612 84.944 272.945 86.3884C272.279 87.8329 271.779 89.0551 271.334 89.9996V89.944L270.557 91.6662H270.612C270.112 93.3329 269.668 95.1662 269.279 97.2218C268.945 99.2773 268.723 101.166 268.612 103C268.612 103.333 268.557 103.611 268.557 103.888C268.557 104.166 268.557 104.444 268.557 104.777C268.557 105.666 268.668 106.444 268.779 107.055C268.89 107.666 269.001 108.166 269.112 108.555C269.223 108.888 269.279 109.111 269.279 109.333C269.279 109.833 268.945 110.166 268.223 110.333C267.057 110.555 266.057 110.5 265.223 110.166C264.445 109.777 263.779 109.222 263.334 108.444C262.89 107.666 262.557 106.722 262.334 105.611C262.112 104.5 262.001 103.388 262.001 102.222C262.001 101.833 262.001 101.5 262.001 101.111C262.001 100.722 262.001 100.333 262.057 99.944C262.112 98.6662 262.223 97.3884 262.39 95.9995C262.557 94.6107 262.723 93.2218 262.945 91.7773C263.168 90.3329 263.39 88.944 263.668 87.6107C263.945 86.2218 264.168 84.944 264.445 83.6662C264.834 81.5551 265.223 79.5551 265.501 77.7218C265.834 75.8885 266.001 74.3329 266.057 73.0551C266.057 72.444 266.057 71.944 266.001 71.4996C265.945 71.0551 265.89 70.6662 265.779 70.2773C265.723 70.1107 265.723 69.944 265.668 69.7773C265.668 69.6107 265.612 69.4995 265.612 69.3329C265.612 68.7773 265.834 68.3884 266.223 68.1107C266.612 67.8329 267.001 67.6662 267.501 67.5551C268.723 67.2773 269.779 67.3329 270.501 67.6107C271.279 67.944 271.89 68.3884 272.279 69.0551C272.723 69.7218 273.001 70.4996 273.112 71.3884C273.223 72.2773 273.279 73.2218 273.223 74.1662C273.168 75.1662 273.057 76.2218 272.945 77.2773C272.612 78.4995 272.445 79.4995 272.223 80.444Z" fill="white"/>
<path d="M322.835 99.1664C319.946 99.7775 317.89 99.3886 316.612 97.9442C315.39 96.5553 314.723 94.333 314.668 91.2775C314.668 90.9442 314.668 90.5553 314.668 90.1664C314.668 89.7775 314.668 89.3886 314.723 88.9441C314.723 88.6664 314.723 88.4997 314.723 88.333C314.723 88.1664 314.723 88.0553 314.723 87.8886C314.723 87.7219 314.723 87.5553 314.779 87.3331C314.779 87.1108 314.835 86.833 314.89 86.4441C314.001 88.333 313.057 90.2775 312.001 92.1664C310.946 94.0553 309.835 95.8331 308.612 97.4442C307.39 99.0553 306.168 100.389 304.835 101.5C303.501 102.611 302.112 103.333 300.723 103.611C299.446 103.889 298.335 103.833 297.446 103.555C296.557 103.222 295.835 102.722 295.279 101.944C294.723 101.222 294.335 100.277 294.057 99.1664C293.779 98.0553 293.668 96.8886 293.612 95.6664C293.612 95.3886 293.612 95.0553 293.612 94.7775C293.612 94.4997 293.612 94.1664 293.668 93.8886C293.835 91.9997 294.223 89.833 294.779 87.3886C295.39 84.9997 296.168 82.4997 297.112 79.9442C298.057 77.3886 299.168 74.8886 300.446 72.3886C301.723 69.8886 303.112 67.6664 304.612 65.6108C306.112 63.5553 307.779 61.8886 309.501 60.4997C311.223 59.1108 313.001 58.2219 314.89 57.833C315.779 57.6664 316.612 57.6108 317.39 57.7775C318.168 57.9442 318.89 58.2219 319.557 58.6108L320.001 56.3886C320.335 54.5553 320.612 52.7775 320.946 51.1108C321.223 49.4442 321.501 47.8886 321.723 46.4997C321.946 45.1108 322.168 43.8886 322.279 42.8331C322.446 41.7775 322.501 40.9997 322.501 40.3886C322.501 39.7219 322.501 39.2219 322.446 38.7775C322.39 38.333 322.335 37.9442 322.223 37.6108C322.168 37.4442 322.168 37.2775 322.112 37.1108C322.112 36.9442 322.057 36.7775 322.057 36.6664C322.057 36.1108 322.279 35.7219 322.668 35.4997C323.057 35.2775 323.446 35.0553 323.946 34.9997C325.223 34.7219 326.279 34.7219 327.057 35.0553C327.835 35.333 328.446 35.833 328.835 36.4442C329.223 37.1108 329.501 37.8886 329.612 38.7775C329.723 39.6664 329.779 40.6664 329.723 41.6108C329.668 42.4997 329.557 43.6664 329.335 45.1664C329.112 46.6664 328.89 48.3886 328.557 50.333C328.223 52.2775 327.89 54.333 327.501 56.6108C327.112 58.833 326.723 61.1664 326.279 63.5553C326.168 64.333 326.001 65.2775 325.779 66.3886C325.557 67.4997 325.335 68.6664 325.112 69.9442C324.779 71.6108 324.446 73.3331 324.112 75.222C323.779 77.1108 323.446 78.9442 323.168 80.833C322.89 82.6664 322.668 84.4442 322.501 86.1108C322.335 87.7775 322.279 89.2219 322.279 90.4442C322.279 90.7775 322.279 91.1108 322.279 91.3886C322.279 91.6664 322.335 91.9442 322.39 92.2219C322.612 93.7219 323.223 94.333 324.223 94.1664C324.612 94.1108 325.057 93.8886 325.501 93.5553C325.946 93.222 326.446 92.833 326.89 92.3886C327.335 91.9442 327.779 91.4442 328.223 90.9442C328.668 90.4442 329.001 89.9442 329.335 89.4442C330.168 88.1664 330.946 86.7775 331.723 85.2775C332.501 83.7219 333.223 82.2219 333.89 80.6108C334.557 79.0553 335.168 77.4997 335.779 75.9442C336.335 74.3886 336.89 73.0553 337.335 71.833C337.779 70.6664 338.112 69.7219 338.446 68.8886C338.723 68.0553 339.001 67.4997 339.168 67.1664C339.279 66.9997 339.446 66.9442 339.557 66.833C339.723 66.7775 339.835 66.7219 339.946 66.7219C340.223 66.6664 340.446 66.7219 340.612 66.8886C340.779 67.0553 340.946 67.2775 341.112 67.5553C340.779 68.2775 340.501 69.1108 340.223 69.9997C339.946 70.8886 339.612 71.7775 339.279 72.6108C338.723 74.0553 338.112 75.6108 337.557 77.1664C336.946 78.722 336.335 80.2775 335.723 81.8886C335.057 83.4442 334.446 84.9997 333.723 86.4997C333.057 87.9997 332.335 89.3886 331.612 90.6664C331.057 91.5553 330.501 92.4997 329.89 93.3886C329.279 94.2775 328.612 95.1664 327.89 95.9442C327.168 96.7219 326.446 97.3886 325.612 97.9997C324.723 98.4442 323.835 98.8886 322.835 99.1664ZM316.112 77.833C316.446 75.8886 316.779 73.8886 317.112 71.7775C317.446 69.6664 317.835 67.5553 318.223 65.4442C318.279 64.9997 318.335 64.6108 318.446 64.2219C318.557 63.8331 318.612 63.4442 318.668 62.9997C318.001 62.5553 317.223 62.4442 316.279 62.6664C315.112 62.8886 313.946 63.6664 312.835 64.9442C311.668 66.2219 310.557 67.7775 309.501 69.6664C308.446 71.4997 307.446 73.5553 306.557 75.7775C305.668 77.9997 304.835 80.1664 304.168 82.3331C303.446 84.4997 302.89 86.4997 302.501 88.333C302.057 90.1664 301.835 91.6664 301.779 92.7775C301.723 93.333 301.723 93.8886 301.779 94.4442C301.835 95.0553 301.946 95.5553 302.112 96.0553C302.279 96.5553 302.501 96.8886 302.835 97.1664C303.168 97.3886 303.612 97.4997 304.223 97.3331C304.946 97.1664 305.723 96.7219 306.446 95.9442C307.223 95.1664 308.001 94.2219 308.779 93.1108C309.557 91.9997 310.279 90.7219 311.001 89.333C311.723 87.9442 312.39 86.5553 313.057 85.1664C313.723 83.7775 314.279 82.4442 314.779 81.1108C315.279 79.833 315.723 78.7219 316.112 77.7775V77.833Z" fill="white"/>
<path d="M379.668 58.5C380.224 58 380.668 57.8333 380.946 57.9444C381.224 58.0555 381.501 58.3333 381.724 58.6666L369.501 87.6111C369.501 87.7778 369.501 88.0555 369.501 88.3333C369.501 88.6111 369.446 88.8889 369.446 89.0555C369.279 89.6666 369.057 90.0555 368.668 90.1111C367.668 89.2778 366.446 88.8333 364.89 88.7777C363.335 88.7222 361.612 88.9444 359.724 89.3333C358.446 89.6111 357.224 89.8889 355.89 90.2777C354.612 90.6666 353.279 91 352.001 91.3889C350.835 91.7222 349.668 92.1111 348.557 92.4444C347.446 92.7778 346.39 93.0555 345.446 93.2222C344.612 93.3889 343.89 93.5 343.168 93.5555C342.501 93.6111 341.89 93.6111 341.335 93.5C339.724 93.3333 338.946 92.3889 338.89 90.6666C338.89 89.9444 339.001 89.1111 339.335 88.2222C339.612 87.2777 340.112 86.2222 340.835 85.0555C341.835 83.3333 343.057 81.5555 344.39 79.6111C345.779 77.7222 347.224 75.7777 348.724 73.8889C350.279 71.9444 351.835 70.0555 353.501 68.1666C355.112 66.2778 356.724 64.4444 358.224 62.7777C359.779 61.1111 361.168 59.5 362.557 58.0555C363.89 56.6111 365.057 55.3333 366.057 54.2778L368.112 52.0555C367.724 52 367.112 52.1111 366.39 52.2222C365.835 52.3333 365.168 52.5 364.39 52.7222C363.612 52.9444 362.835 53.1666 362.001 53.3889C360.946 53.7222 359.835 54.0555 358.612 54.3889C357.39 54.7222 356.224 55.0555 355.057 55.2777C353.279 55.6666 351.612 55.8333 350.057 55.8333C348.501 55.8333 347.168 55.4444 346.112 54.6666L338.89 72.8889C338.501 73.1111 338.112 73.2777 337.724 73.2777C337.335 73.3333 337.001 73.1111 336.668 72.7222L344.946 52.1666C344.946 51.8889 344.946 51.5 345.057 50.8889C345.112 50.2778 345.224 49.6666 345.39 49.0555C345.501 48.4444 345.668 47.8889 345.89 47.4444C346.112 47 346.335 46.7222 346.668 46.7222C346.89 46.7222 347.057 46.8333 347.112 47C347.168 47.1666 347.279 47.3889 347.335 47.6666L347.557 48.1666C347.779 48.5 348.112 48.7222 348.612 48.8889C349.112 49.0555 349.668 49.1111 350.39 49.1666C351.057 49.1666 351.835 49.1111 352.724 49C353.557 48.8889 354.446 48.7222 355.39 48.5555C356.724 48.2777 358.057 47.9444 359.335 47.5555C360.668 47.1666 361.946 46.8333 363.112 46.5C364.779 46.0555 366.112 45.7222 367.001 45.5C367.89 45.3333 368.779 45.2778 369.668 45.3889C370.557 45.5 371.335 45.7222 372.057 46.1666C372.724 46.6111 373.279 47.1666 373.612 48C374.001 48.7777 374.057 49.7777 373.89 51.0555C373.835 51.2777 373.779 51.5 373.724 51.7222C373.612 51.9444 373.446 52.0555 373.224 52.1111C373.001 52.1666 372.779 52.1111 372.557 51.9444L372.446 51.8889C370.112 53.8333 367.724 56.1111 365.279 58.8889C362.835 61.6111 360.446 64.5 358.112 67.6111C355.779 70.6666 353.557 73.7777 351.39 76.9444C349.279 80.1111 347.335 83.0555 345.612 85.8888C345.946 86 346.724 85.9444 347.89 85.6666C348.557 85.5 349.39 85.3333 350.279 85.0555C351.168 84.7777 352.112 84.5 353.112 84.2222C354.279 83.8888 355.501 83.5555 356.724 83.2222C357.946 82.8889 359.168 82.5555 360.279 82.3333C361.557 82.0555 362.668 81.8889 363.724 81.8333C364.779 81.7777 365.612 81.8889 366.224 82.2222C366.668 82.4444 367.112 82.7222 367.557 83C367.946 83.2778 368.335 83.6666 368.612 84.1666C368.779 83.7777 368.946 83.3889 369.112 82.9444C369.279 82.5 369.501 81.9444 369.835 81.2222C370.112 80.5 370.501 79.5555 371.001 78.4444C371.501 77.3333 372.112 75.8889 372.89 74.0555C373.668 72.2777 374.612 70.1111 375.724 67.5555C376.835 65 378.168 61.9444 379.724 58.3889L379.668 58.5Z" fill="white"/>
<path d="M179.39 100.944C178.668 104.5 177.946 108 177.224 111.5C176.501 115 175.89 118.166 175.39 121C175.724 121.555 176.057 122.055 176.446 122.666C176.779 123.222 177.168 123.888 177.501 124.666C177.835 125.444 178.168 126.388 178.501 127.5C178.835 128.611 179.168 130 179.446 131.611C180.668 130.444 181.835 128.833 183.001 126.722C184.168 124.611 185.335 122.333 186.39 119.888C187.501 117.388 188.501 114.833 189.446 112.222C190.39 109.611 191.279 107.166 192.112 104.944C192.724 103.277 193.279 101.777 193.724 100.5C194.168 99.2217 194.612 98.1106 195.057 97.2217C195.557 96.8328 195.89 96.7217 196.168 96.7217C196.39 96.7773 196.724 96.9995 197.112 97.444C196.724 98.3884 196.335 99.4995 195.89 100.722C195.446 101.944 194.946 103.277 194.446 104.722C193.557 107.277 192.557 110.055 191.446 113.055C190.335 116.055 189.168 118.944 187.89 121.777C186.612 124.555 185.279 127.111 183.89 129.444C182.501 131.722 181.057 133.5 179.612 134.722C179.668 135.333 179.724 135.999 179.724 136.722C179.779 137.444 179.779 138.166 179.779 138.944C179.835 140.833 179.835 142.888 179.835 145C179.835 147.111 179.779 149.222 179.724 151.277C179.668 152.888 179.557 154.444 179.501 155.888C179.39 157.333 179.279 158.555 179.168 159.555C179.001 160.666 178.89 161.888 178.724 163.277C178.557 164.611 178.335 166 178.057 167.444C177.779 168.833 177.39 170.277 176.946 171.611C176.501 173 175.946 174.222 175.224 175.333C174.501 176.444 173.668 177.444 172.668 178.222C171.668 179.055 170.501 179.555 169.168 179.833C167.724 180.111 166.501 180 165.501 179.444C164.501 178.888 163.668 177.944 163.057 176.666C162.39 175.388 161.946 173.777 161.612 171.833C161.279 169.888 161.112 167.722 161.057 165.277C161.001 162.444 161.112 159.277 161.39 155.722C161.668 152.222 162.057 148.499 162.612 144.611C163.112 140.722 163.724 136.666 164.446 132.555C165.168 128.444 165.89 124.333 166.668 120.222C167.446 116.111 168.224 112.166 169.057 108.333C169.835 104.5 170.612 100.888 171.335 97.555C171.724 95.6106 172.112 93.7217 172.501 91.7773C172.89 89.8328 173.279 88.0551 173.612 86.3329C173.946 84.6662 174.224 83.1662 174.446 81.8328C174.668 80.4995 174.835 79.4995 174.89 78.7217C174.946 78.3328 174.946 77.9995 174.946 77.6662C174.946 77.3884 174.946 77.0551 174.946 76.7773C174.946 76.3884 174.946 76.0551 174.946 75.7217C174.946 75.3884 174.89 75.1106 174.89 74.8328C174.835 74.5551 174.835 74.2773 174.779 74.0551C174.779 73.8328 174.779 73.6106 174.779 73.444C174.89 72.8328 175.112 72.3884 175.557 72.0551C176.001 71.7773 176.446 71.5551 176.946 71.4995C178.168 71.3328 179.168 71.3884 179.946 71.6662C180.724 71.944 181.39 72.3884 181.835 73.0551C182.335 73.6662 182.668 74.444 182.89 75.3884C183.112 76.2773 183.224 77.2773 183.279 78.3328C183.279 78.8328 183.279 79.3328 183.279 79.8884C183.279 80.4439 183.224 80.9439 183.168 81.4439C183.112 82.1662 182.946 83.2217 182.668 84.4995C182.446 85.8328 182.168 87.3328 181.779 89.0551C181.446 90.7773 181.057 92.6662 180.668 94.7217C180.224 96.6662 179.835 98.7773 179.39 100.944ZM177.279 139.222C177.279 138.499 177.224 137.888 177.224 137.277C177.168 136.722 177.168 136.222 177.112 135.777H177.057C176.501 135.833 175.89 135.833 175.168 135.833C174.446 135.833 173.724 135.611 172.946 135.111C172.89 135.5 172.835 135.888 172.779 136.222C172.724 136.555 172.668 136.944 172.612 137.277C172.112 140.666 171.668 144.166 171.279 147.666C170.89 151.166 170.501 154.888 170.224 158.833C170.057 161.333 170.057 163.666 170.057 165.888C170.112 168.055 170.335 169.888 170.724 171.333C171.112 172.777 171.724 173.555 172.612 173.666C173.057 173.555 173.501 173.111 173.946 172.333C174.335 171.555 174.724 170.555 175.057 169.277C175.39 168 175.668 166.555 175.946 164.944C176.224 163.277 176.39 161.555 176.557 159.777C176.668 158.444 176.835 157.055 176.89 155.611C176.946 154.166 177.057 152.722 177.112 151.333C177.224 149.055 177.279 146.888 177.279 144.777C177.335 142.666 177.335 140.833 177.279 139.222ZM173.779 129.888C174.224 130.5 174.779 131.055 175.446 131.611C176.112 132.166 176.612 132.444 177.001 132.5C176.724 130.555 176.39 128.944 175.946 127.666C175.501 126.388 175.057 125.5 174.501 125L173.779 129.888Z" fill="white"/>
</g>
<defs>
<clipPath id="clip0_0_590">
<rect width="400" height="180" fill="white"/>
</clipPath>
</defs>
</svg>
