<svg width="20" height="20" viewBox="0 0 20 20" fill="none" xmlns="http://www.w3.org/2000/svg">
<path d="M18.3087 15.2748C18.3087 15.5748 18.242 15.8831 18.1003 16.1831C17.9587 16.4831 17.7753 16.7664 17.5337 17.0331C17.1253 17.4831 16.6753 17.8081 16.167 18.0164C15.667 18.2248 15.1253 18.3331 14.542 18.3331C13.692 18.3331 12.7837 18.1331 11.8253 17.7248C10.867 17.3164 9.90866 16.7664 8.95866 16.0748C8.00033 15.3748 7.09199 14.5998 6.22533 13.7414C5.36699 12.8748 4.59199 11.9664 3.90033 11.0164C3.21699 10.0664 2.66699 9.11644 2.26699 8.17478C1.86699 7.22478 1.66699 6.31644 1.66699 5.44978C1.66699 4.88311 1.76699 4.34144 1.96699 3.84144C2.16699 3.33311 2.48366 2.86644 2.92533 2.44978C3.45866 1.92478 4.04199 1.66644 4.65866 1.66644C4.89199 1.66644 5.12533 1.71644 5.33366 1.81644C5.55033 1.91644 5.74199 2.06644 5.89199 2.28311L7.82533 5.00811C7.97533 5.21644 8.08366 5.40811 8.15866 5.59144C8.23366 5.76644 8.27533 5.94144 8.27533 6.09978C8.27533 6.29978 8.21699 6.49978 8.10033 6.69144C7.99199 6.88311 7.83366 7.08311 7.63366 7.28311L7.00033 7.94144C6.90866 8.03311 6.86699 8.14144 6.86699 8.27478C6.86699 8.34144 6.87533 8.39978 6.89199 8.46644C6.91699 8.53311 6.94199 8.58311 6.95866 8.63311C7.10866 8.90811 7.36699 9.26644 7.73366 9.69978C8.10866 10.1331 8.50866 10.5748 8.94199 11.0164C9.39199 11.4581 9.82533 11.8664 10.267 12.2414C10.7003 12.6081 11.0587 12.8581 11.342 13.0081C11.3837 13.0248 11.4337 13.0498 11.492 13.0748C11.5587 13.0998 11.6253 13.1081 11.7003 13.1081C11.842 13.1081 11.9503 13.0581 12.042 12.9664L12.6753 12.3414C12.8837 12.1331 13.0837 11.9748 13.2753 11.8748C13.467 11.7581 13.6587 11.6998 13.867 11.6998C14.0253 11.6998 14.192 11.7331 14.3753 11.8081C14.5587 11.8831 14.7503 11.9914 14.9587 12.1331L17.717 14.0914C17.9337 14.2414 18.0837 14.4164 18.1753 14.6248C18.2587 14.8331 18.3087 15.0414 18.3087 15.2748Z" stroke="#515165" stroke-width="1.5" stroke-miterlimit="10"/>
</svg>
