<svg width="21" height="20" viewBox="0 0 21 20" fill="none" xmlns="http://www.w3.org/2000/svg">
<path d="M10.888 18.3337C15.4904 18.3337 19.2214 14.6027 19.2214 10.0003C19.2214 5.39795 15.4904 1.66699 10.888 1.66699C6.28565 1.66699 2.55469 5.39795 2.55469 10.0003C2.55469 14.6027 6.28565 18.3337 10.888 18.3337Z" stroke="#949494" stroke-width="1.5" stroke-linecap="round" stroke-linejoin="round"/>
<g opacity="0.4">
<path d="M7.55534 2.5H8.38867C6.76367 7.36667 6.76367 12.6333 8.38867 17.5H7.55534" stroke="#949494" stroke-width="1.5" stroke-linecap="round" stroke-linejoin="round"/>
<path d="M13.3887 2.5C15.0137 7.36667 15.0137 12.6333 13.3887 17.5" stroke="#949494" stroke-width="1.5" stroke-linecap="round" stroke-linejoin="round"/>
<path d="M3.38867 13.3333V12.5C8.25534 14.125 13.522 14.125 18.3887 12.5V13.3333" stroke="#949494" stroke-width="1.5" stroke-linecap="round" stroke-linejoin="round"/>
<path d="M3.38867 7.5C8.25534 5.875 13.522 5.875 18.3887 7.5" stroke="#949494" stroke-width="1.5" stroke-linecap="round" stroke-linejoin="round"/>
</g>
</svg>
