<svg width="89" height="40" viewBox="0 0 89 40" fill="none" xmlns="http://www.w3.org/2000/svg">
<g clip-path="url(#clip0_117_5597)">
<path d="M15.9762 29.2343C15.8898 29.2343 15.8034 29.222 15.7169 29.2096C13.4577 28.8146 10.3466 27.4812 7.18607 25.5553C2.58113 22.7652 0.18607 19.4442 0.0502676 15.7035C-0.0731893 12.0121 1.9515 8.3084 5.112 6.46889C7.32187 5.18494 9.90212 4.72815 12.3836 5.18494C14.9885 5.66642 17.3219 7.11087 19.1367 9.34543C19.6552 9.98741 19.5564 10.9133 18.9145 11.4319C18.2725 11.9504 17.3466 11.8516 16.828 11.2096C14.149 7.90099 10.0503 7.02445 6.60582 9.02445C4.37126 10.3331 2.92681 12.9627 3.02558 15.5923C3.12434 18.2714 5.03792 20.7775 8.72928 23.0244C12.9021 25.5553 15.5318 26.1603 16.2478 26.2837C17.0503 26.4195 17.5935 27.1973 17.4453 27.9998C17.3095 28.7405 16.6799 29.2343 15.9762 29.2343Z" fill="#FD6769"/>
<path d="M32.519 12.6911C32.4079 12.6911 32.2844 12.6788 32.1733 12.6541C31.3832 12.4566 30.8894 11.6541 31.0869 10.864C31.2968 9.98743 31.5313 8.27138 30.7042 6.55533C29.5313 4.13557 26.7042 2.6294 24.1239 3.04916C21.8276 3.41953 20.3955 5.29607 19.6425 6.30841C18.9141 7.27138 18.4079 8.23434 18.0869 9.25903C17.84 10.0368 17.0128 10.4813 16.235 10.2343C15.4573 9.98742 15.0128 9.16026 15.2597 8.38249C15.6795 7.02446 16.3462 5.75286 17.2721 4.51829C18.2104 3.27138 20.1733 0.678784 23.6548 0.123228C27.5437 -0.506401 31.6301 1.65409 33.3708 5.25903C34.6054 7.81459 34.2721 10.3084 33.9758 11.5677C33.7906 12.2467 33.1857 12.6911 32.519 12.6911Z" fill="#FD6769"/>
<path d="M25.9272 19.0614C25.8532 19.6417 25.7791 20.3207 25.6927 21.0861C25.6063 21.8516 25.5075 22.654 25.4087 23.4812C25.31 24.3084 25.2112 25.1479 25.1001 25.9874C24.989 26.8269 24.8902 27.617 24.8038 28.3577C24.705 29.0985 24.6186 29.7651 24.5445 30.3577C24.4705 30.9503 24.3964 31.4071 24.347 31.7158C24.2729 31.9874 24.1865 32.2466 24.0754 32.5059C23.9643 32.7651 23.8285 32.9997 23.668 33.1972C23.5075 33.4071 23.2976 33.5676 23.063 33.7034C22.8285 33.8392 22.5445 33.9133 22.2112 33.9256C22.0754 33.9009 21.9519 33.8516 21.8532 33.7898C21.7544 33.7281 21.7421 33.617 21.8038 33.4565C21.8038 33.3701 21.8285 33.2837 21.8779 33.1972C21.9272 33.1232 21.9766 33.0121 22.0137 32.8886C22.063 32.7528 22.1124 32.617 22.1618 32.4442L22.1495 32.4565C22.2729 31.938 22.3717 31.3701 22.4705 30.7651C22.5692 30.1479 22.6433 29.5182 22.7297 28.8516C22.8038 28.1849 22.8779 27.5182 22.9396 26.8392C23.0013 26.1602 23.063 25.5059 23.1124 24.8639C23.1618 24.3331 23.2112 23.8269 23.2482 23.3454C23.2976 22.8639 23.3347 22.4071 23.384 21.9874C23.4334 21.5676 23.4828 21.1849 23.5322 20.8392C23.5816 20.4935 23.6433 20.1972 23.705 19.9627C23.347 20.2837 22.9519 20.58 22.5322 20.8763C22.1124 21.1602 21.6927 21.3824 21.2853 21.5306C21.0507 21.6047 20.8408 21.6417 20.6433 21.6293C20.4458 21.6293 20.2729 21.58 20.1248 21.5059C19.9766 21.4318 19.8655 21.3207 19.7914 21.1726C19.7174 21.0244 19.6803 20.8392 19.6927 20.6293C19.705 20.4812 19.7297 20.3207 19.7914 20.1479C19.8408 19.975 19.9272 19.7775 20.0507 19.5676C20.2235 19.2343 20.4458 18.9133 20.7174 18.5923C20.989 18.2713 21.2729 17.9627 21.5569 17.6787C21.8532 17.3948 22.1371 17.1355 22.4211 16.9133C22.705 16.6787 22.9396 16.4935 23.1371 16.3577C23.4828 16.1108 23.8532 15.8639 24.2606 15.6293C24.668 15.3948 25.0754 15.1849 25.4951 14.9874C25.9149 14.7898 26.3346 14.617 26.7667 14.4812C27.1988 14.333 27.6063 14.2343 28.0013 14.1602C28.5816 14.0491 29.1371 14.0368 29.668 14.0985C30.1988 14.1602 30.6556 14.3454 31.063 14.6417C31.4581 14.938 31.7791 15.3577 32.0137 15.9009C32.2482 16.4442 32.3717 17.1355 32.384 17.9627C32.384 18.0244 32.384 18.0861 32.384 18.1726C32.384 18.2466 32.384 18.3207 32.3717 18.3948C32.347 19.0491 32.2359 19.7034 32.0507 20.3577C31.8655 21.0244 31.6063 21.654 31.2606 22.2466C30.9272 22.8392 30.5075 23.3824 30.0137 23.8763C29.5198 24.3701 28.9519 24.7775 28.3223 25.0861C29.1495 25.2837 29.7791 25.6293 30.2112 26.1355C30.6433 26.6417 30.9026 27.2343 30.989 27.9133C31.0013 28.0738 31.026 28.2466 31.026 28.4195C31.0384 28.5923 31.026 28.7651 31.026 28.938C30.989 29.7034 30.8161 30.4442 30.5322 31.1602C30.2482 31.8886 29.8655 32.5676 29.4087 33.2219C28.9396 33.8763 28.4211 34.4812 27.8285 35.0491C27.2359 35.617 26.6186 36.1108 25.9766 36.5429C25.3347 36.975 24.6803 37.3454 24.026 37.6417C23.3717 37.938 22.7421 38.1479 22.1495 38.2713C21.7297 38.3577 21.3223 38.3948 20.9272 38.3948C20.2482 38.3824 19.6186 38.2466 19.0507 38.0121C18.4828 37.7775 17.989 37.4318 17.5939 36.9874C17.1865 36.5429 16.8779 36.0121 16.668 35.3701C16.4581 34.7281 16.3717 34.0121 16.4087 33.1972C16.4211 32.938 16.4458 32.6911 16.4828 32.4318C16.5198 32.1726 16.5692 31.9133 16.6309 31.6417C16.7791 31.0491 17.0013 30.4935 17.31 29.9503C17.6186 29.4195 17.9519 28.938 18.3347 28.5182C18.7174 28.0985 19.1124 27.7528 19.5322 27.4689C19.9519 27.1849 20.347 27.0121 20.7174 26.938C20.9766 26.8886 21.2112 26.8763 21.4334 26.9256C21.6556 26.975 21.8408 27.0861 22.0013 27.2466C22.1618 27.4195 22.2729 27.654 22.347 27.9503C22.4211 28.2466 22.4581 28.6293 22.4334 29.0861C22.4334 29.1726 22.4211 29.259 22.4087 29.3701C22.3964 29.4812 22.384 29.5676 22.3717 29.6664C22.2729 29.8516 22.1865 29.9503 22.1001 29.975C22.0137 29.9874 21.9519 29.9627 21.9026 29.901C21.9149 29.4935 21.9026 29.1602 21.8532 28.8886C21.8038 28.617 21.7421 28.3948 21.6433 28.2343C21.5569 28.0738 21.4458 27.9627 21.3223 27.9133C21.1988 27.8516 21.0507 27.8392 20.9026 27.8763C20.668 27.9256 20.4211 28.0614 20.1618 28.2837C19.9026 28.5059 19.6433 28.7775 19.3964 29.1108C19.1495 29.4442 18.9272 29.8145 18.7174 30.2343C18.5075 30.654 18.347 31.0738 18.2359 31.5059C18.1618 31.8022 18.1001 32.0985 18.0507 32.4071C18.0013 32.7034 17.9766 32.9874 17.9643 33.2466C17.9396 33.9009 17.989 34.5059 18.1248 35.0491C18.2606 35.5923 18.4705 36.0491 18.7421 36.4195C19.026 36.7898 19.3717 37.0738 19.7914 37.259C20.2112 37.4442 20.6927 37.5182 21.2359 37.4812C21.3223 37.4812 21.4087 37.4689 21.4828 37.4565C21.5692 37.4442 21.6433 37.4318 21.7297 37.4071C22.2606 37.296 22.7914 37.0861 23.347 36.7651C23.9026 36.4442 24.4458 36.0491 24.9643 35.58C25.4828 35.1108 25.9766 34.58 26.4334 33.9997C26.8902 33.4195 27.2976 32.8022 27.6433 32.1602C27.989 31.5182 28.2606 30.8763 28.4581 30.2219C28.6556 29.5676 28.7544 28.9256 28.7421 28.3084C28.7421 27.9133 28.6803 27.5553 28.5692 27.2466C28.4581 26.9256 28.2853 26.6664 28.0507 26.4442C27.8161 26.2343 27.5075 26.0738 27.1371 25.975C26.7667 25.8763 26.31 25.8392 25.7914 25.8886C25.7667 25.8639 25.7421 25.8145 25.7421 25.7528C25.7421 25.6911 25.7421 25.6293 25.7544 25.5553C25.7668 25.4812 25.7791 25.4071 25.8161 25.3454C25.8408 25.2713 25.8779 25.2219 25.9272 25.1849C26.5692 24.8392 27.1124 24.4195 27.5816 23.9503C28.0507 23.4812 28.4334 22.9627 28.7421 22.4195C29.0507 21.8763 29.2853 21.3084 29.4458 20.7281C29.6063 20.1479 29.705 19.58 29.7297 19.0121C29.7297 18.938 29.7421 18.8639 29.7421 18.7898C29.7421 18.7158 29.7421 18.654 29.7421 18.58C29.7421 18.1108 29.6803 17.7158 29.5816 17.3701C29.4828 17.0368 29.3347 16.7528 29.1618 16.5306C28.989 16.3084 28.7791 16.1355 28.5322 16.0244C28.2853 15.9133 28.026 15.8392 27.7297 15.8022C27.3593 15.7528 26.9396 15.7775 26.4828 15.8763C26.0013 15.975 25.4951 16.1479 24.9643 16.3948C24.4334 16.6417 23.9396 16.9133 23.4581 17.2096C22.8408 17.6293 22.31 18.0491 21.8655 18.4688C21.4211 18.8886 21.1001 19.2466 20.9026 19.5553C20.7914 19.7281 20.705 19.8886 20.6433 20.0367C20.5816 20.1849 20.5445 20.3084 20.5445 20.4195C20.5322 20.5676 20.5816 20.654 20.705 20.7034C20.8161 20.7405 20.989 20.7158 21.2235 20.5923C21.3593 20.5182 21.5075 20.4195 21.668 20.296C21.8285 20.1726 22.0013 20.0491 22.1742 19.9133C22.347 19.7775 22.5322 19.6293 22.705 19.4812C22.8779 19.333 23.0507 19.1849 23.2235 19.0368C23.4581 18.8269 23.6803 18.6293 23.8902 18.4565C24.1124 18.2713 24.2729 18.1355 24.3964 18.0614C24.5445 17.9627 24.6803 17.8886 24.8161 17.8145C24.9519 17.7528 25.0754 17.7034 25.1742 17.6787C25.3347 17.6417 25.4705 17.654 25.5692 17.7034C25.668 17.7528 25.7544 17.8516 25.8038 17.975C25.8655 18.0985 25.9026 18.259 25.9149 18.4442C25.9272 18.6293 25.9272 18.8269 25.9272 19.0614Z" fill="#FD6769"/>
<path d="M88.8404 23.5183C83.8033 24.3701 78.791 25.3331 73.8157 26.4195C68.828 27.5059 63.8774 28.7035 58.9515 30.0121C56.4947 30.6664 54.0379 31.3578 51.5935 32.0738C49.149 32.7899 46.7169 33.5306 44.2848 34.2961C41.8651 35.0738 39.4453 35.864 37.0379 36.6911C34.6305 37.5183 32.2354 38.3701 29.8527 39.2467C29.0873 39.5306 28.2354 39.1356 27.9515 38.3701C27.6675 37.6047 28.0626 36.7529 28.828 36.4689C28.8527 36.4566 28.8774 36.4566 28.8897 36.4442C31.3342 35.6788 33.791 34.938 36.2478 34.222C38.7046 33.5059 41.1737 32.8269 43.6552 32.1603C46.1367 31.5059 48.6181 30.8763 51.0996 30.2837C53.5935 29.6911 56.0873 29.1232 58.5811 28.58C63.5811 27.5059 68.6058 26.543 73.6552 25.6911C78.7169 24.8516 83.7786 24.1356 88.8404 23.5183Z" fill="#515165"/>
<path d="M37.3952 25.7032C37.21 26.1477 37.0001 26.6044 36.7655 27.0983C36.531 27.5798 36.2717 28.0365 35.9631 28.4686C35.6544 28.8884 35.3087 29.2588 34.9137 29.5797C34.5186 29.9007 34.0618 30.1106 33.5556 30.2094C33.1729 30.2835 32.8519 30.2711 32.5803 30.1353C32.3087 30.0118 32.0865 29.8143 31.9137 29.5427C31.7408 29.2711 31.6174 28.9501 31.531 28.5674C31.4445 28.1847 31.4075 27.7773 31.3952 27.3452C31.3952 27.2341 31.3952 27.1353 31.3828 27.0242C31.3828 26.9254 31.3828 26.8143 31.3952 26.6909V26.7032C31.4198 26.2341 31.4816 25.7402 31.5803 25.2464C31.6791 24.7402 31.8149 24.2464 31.9754 23.7649C32.1359 23.2711 32.3211 22.8143 32.5433 22.3699C32.7655 21.9254 33.0001 21.5304 33.2717 21.1723C33.5433 20.8143 33.8273 20.518 34.1359 20.2835C34.4445 20.0489 34.7655 19.9007 35.0989 19.8267C35.4198 19.7649 35.7038 19.7773 35.9631 19.8884C36.2223 19.9995 36.4322 20.16 36.6174 20.3699C36.7902 20.5921 36.926 20.8514 37.0248 21.1477C37.1112 21.4563 37.1606 21.7649 37.1482 22.1106C37.1112 22.5797 36.9754 23.0489 36.7408 23.481C36.5063 23.9254 36.21 24.3328 35.8643 24.7032C35.5186 25.0736 35.1482 25.4069 34.7408 25.6909C34.3334 25.9748 33.9507 26.197 33.5803 26.3699C33.5557 26.518 33.531 26.6662 33.5186 26.8267C33.5063 26.9748 33.4939 27.1477 33.4816 27.3081C33.4816 27.3822 33.4692 27.444 33.4692 27.518C33.4692 27.5921 33.4692 27.6538 33.4692 27.7279C33.4692 27.9131 33.4939 28.0859 33.5186 28.2464C33.5433 28.4069 33.5927 28.5551 33.6668 28.6785C33.7408 28.802 33.8273 28.9007 33.9507 28.9625C34.0742 29.0242 34.2223 29.0489 34.3952 29.0242C34.6668 28.9625 34.9384 28.802 35.1729 28.5551C35.4198 28.3081 35.6421 28.0242 35.8519 27.7032C36.0618 27.3822 36.247 27.0365 36.4198 26.6785C36.5927 26.3205 36.7408 25.9995 36.8766 25.7032V25.7156C37.0495 25.3328 37.1976 24.9501 37.3458 24.5797C37.4939 24.2094 37.6174 23.876 37.7408 23.5798C37.8026 23.4439 37.8643 23.2835 37.926 23.1106C38.0001 22.9378 38.0618 22.7896 38.1112 22.6538C38.1976 22.5921 38.247 22.5674 38.2717 22.5551C38.3334 22.5427 38.3952 22.5551 38.4322 22.5921C38.4692 22.6291 38.5063 22.6785 38.5433 22.7402L38.4445 23.0365C38.3211 23.3699 38.1606 23.7773 37.9754 24.2464C37.8273 24.7156 37.6174 25.197 37.3952 25.7032ZM36.4569 21.3946C36.3458 21.1723 36.21 21.0859 36.0495 21.1106C35.9137 21.1353 35.7655 21.2464 35.605 21.4316C35.4445 21.6168 35.284 21.8514 35.1236 22.123C34.9631 22.3946 34.8026 22.7032 34.6544 23.0365C34.5063 23.3699 34.3581 23.7032 34.247 24.0242C34.1236 24.3452 34.0248 24.6538 33.926 24.9501C33.8273 25.2464 33.7655 25.481 33.7408 25.6538C33.9877 25.5674 34.2717 25.4193 34.605 25.197C34.926 24.9748 35.247 24.7156 35.5433 24.4069C35.8396 24.0983 36.0989 23.7649 36.3087 23.4069C36.5186 23.0489 36.6421 22.6785 36.6544 22.2958C36.6668 21.9872 36.605 21.6909 36.4569 21.3946Z" fill="#515165"/>
<path d="M42.8899 22.8637L43.6059 20.9995C43.359 21.0242 43.1368 20.9995 42.9639 20.9008C42.7788 20.8143 42.6306 20.6785 42.5195 20.5057C42.396 20.3329 42.322 20.1353 42.2602 19.9008C42.2109 19.6662 42.1862 19.4316 42.2109 19.1724C42.2356 18.9008 42.2973 18.6168 42.396 18.3082C42.4948 17.9995 42.6306 17.7156 42.7788 17.444C42.9393 17.1724 43.1244 16.9501 43.3467 16.7526C43.5565 16.5551 43.8035 16.4316 44.0627 16.3822C44.396 16.3082 44.6306 16.3699 44.7664 16.5551C44.9022 16.7403 44.9763 17.0613 44.9639 17.4934C44.9516 17.7279 44.9146 17.9872 44.8652 18.2588C44.8158 18.5304 44.7541 18.7896 44.6923 19.0242C44.6306 19.2711 44.5689 19.481 44.5195 19.6785C44.4578 19.8761 44.4207 20.0242 44.396 20.123C44.5689 20.1353 44.7417 20.1353 44.9022 20.0983C45.0627 20.0736 45.2232 20.0489 45.3714 20.0119C45.5195 19.9748 45.6676 19.9501 45.7788 19.9378C45.9022 19.9255 46.001 19.9255 46.0874 19.9625C46.1738 19.9995 46.2355 20.0736 46.2726 20.1724C46.3096 20.2711 46.322 20.4193 46.3096 20.6292C46.2973 20.7773 46.2849 20.9254 46.2479 21.0613L46.1491 21.5921C46.0874 21.9008 46.0257 22.2341 45.9639 22.5798C45.9022 22.9255 45.8405 23.2711 45.7911 23.6168C45.7417 23.9625 45.6923 24.2835 45.643 24.5921C45.5936 24.9008 45.5689 25.1724 45.5565 25.4069C45.5442 25.6785 45.5689 25.9008 45.6183 26.0613C45.6676 26.2341 45.7417 26.3205 45.8158 26.3082C45.9516 26.2217 46.0997 26.0613 46.2602 25.8143C46.4331 25.5798 46.5936 25.2958 46.7664 24.9625C46.9392 24.6292 47.1121 24.2711 47.2973 23.8884C47.4825 23.5057 47.6553 23.123 47.8158 22.7403C47.9763 22.3576 48.1368 21.9872 48.2726 21.6415C48.4084 21.2958 48.5318 20.9872 48.643 20.7279L48.68 20.6292H48.6676C48.7047 20.5427 48.7417 20.4687 48.7664 20.4069C48.8034 20.3452 48.8528 20.3082 48.9393 20.2958C49.038 20.2711 49.1244 20.3452 49.2232 20.4934L49.1121 20.7773C49.0133 21.0366 48.9022 21.3329 48.7788 21.6662C48.6553 21.9995 48.5072 22.3575 48.359 22.7279C48.2109 23.0983 48.0504 23.481 47.8775 23.8637C47.7047 24.2464 47.5318 24.6168 47.359 24.9748C47.1862 25.3329 47.0133 25.6538 46.8281 25.9625C46.643 26.2588 46.4701 26.5057 46.3096 26.7032C46.1615 26.8761 46.001 27.0242 45.7911 27.16C45.5936 27.2958 45.396 27.3822 45.1862 27.4193C45.001 27.4563 44.8281 27.4316 44.7047 27.3452C44.5689 27.2464 44.4578 27.1106 44.3714 26.9254C44.2849 26.7403 44.2232 26.518 44.1738 26.2588C44.1368 25.9995 44.1121 25.7279 44.0997 25.4316C44.0997 25.3452 44.0997 25.2464 44.0997 25.1477C44.0997 25.0489 44.0997 24.9625 44.1121 24.8637C44.1244 24.6539 44.1491 24.3699 44.1985 23.9995C44.2479 23.6415 44.3096 23.2588 44.3837 22.8637C44.4578 22.4687 44.5318 22.0859 44.6059 21.7156C44.68 21.3452 44.7664 21.0489 44.8405 20.802L44.0997 20.9255C43.9763 21.2464 43.8652 21.5674 43.7417 21.8884C43.6183 22.2094 43.4948 22.5304 43.3713 22.839L42.8899 22.8637ZM43.4948 19.5921C43.4825 19.7526 43.5072 19.8884 43.5565 19.9748C43.6059 20.0736 43.7047 20.123 43.8528 20.123C43.8775 20.0366 43.9269 19.9131 43.9763 19.7403C44.038 19.5674 44.0874 19.3699 44.1491 19.1477C44.2109 18.9254 44.2602 18.7156 44.3096 18.4934C44.359 18.2711 44.3837 18.0859 44.396 17.9131C44.396 17.7403 44.3837 17.6538 44.359 17.6538C44.2973 17.6662 44.2232 17.7403 44.1368 17.8761C44.038 18.0119 43.9516 18.1724 43.8652 18.3699C43.7788 18.5674 43.6923 18.7773 43.6306 18.9872C43.5442 19.2094 43.5072 19.4069 43.4948 19.5921Z" fill="#515165"/>
<path d="M49.0859 18.4069C49.1106 18.2711 49.1106 18.1476 49.1106 18.0489C49.1106 17.9625 49.1106 17.876 49.1229 17.802C49.1476 17.6909 49.2093 17.6168 49.2957 17.5674C49.3822 17.5304 49.4809 17.518 49.5797 17.5304C49.8883 17.5921 50.1106 17.6785 50.2587 17.802C50.4068 17.9254 50.4809 18.0983 50.4809 18.3452C50.4809 18.4563 50.4686 18.5921 50.4562 18.7402C50.4315 18.8884 50.4069 19.0489 50.3575 19.2217C50.2957 19.5057 50.2093 19.839 50.1352 20.2341C50.0488 20.6291 49.9747 21.0489 49.8883 21.4933C49.8143 21.9378 49.7402 22.3699 49.6785 22.802C49.6167 23.2341 49.5797 23.6291 49.5427 23.9871C49.5427 24.0736 49.5303 24.16 49.5303 24.2588C49.5303 24.3575 49.5303 24.4316 49.5303 24.5057C49.5427 24.802 49.5673 25.0242 49.6291 25.197C49.6785 25.3699 49.7772 25.4439 49.9007 25.4192C49.9994 25.3946 50.1229 25.3081 50.2464 25.1353C50.3822 24.9625 50.518 24.7526 50.6661 24.481C50.8143 24.2217 50.9624 23.9131 51.1229 23.5921C51.271 23.2587 51.4315 22.9254 51.5797 22.5674C51.7278 22.2094 51.876 21.8637 52.0241 21.518C52.1599 21.1723 52.2834 20.8637 52.3945 20.5797C52.4809 20.3575 52.5673 20.1723 52.6291 19.9995C52.6908 19.8267 52.7525 19.6908 52.8143 19.5797C52.8883 19.518 52.9377 19.4933 52.9748 19.481C53.0735 19.4563 53.1599 19.5304 53.2587 19.6785L53.1476 19.9625C53.0118 20.3205 52.8513 20.7402 52.6785 21.197C52.5056 21.6538 52.3204 22.123 52.1106 22.5921C51.9007 23.0612 51.6908 23.5304 51.4686 23.9871C51.2464 24.4439 51.0118 24.8513 50.7896 25.2217C50.5673 25.5921 50.3328 25.8884 50.1106 26.1353C49.876 26.3699 49.6661 26.518 49.4439 26.5674C49.1846 26.6168 48.9748 26.6044 48.8019 26.5304C48.6291 26.4439 48.4809 26.3205 48.3698 26.1353C48.2587 25.9501 48.1846 25.7279 48.1352 25.4686C48.0859 25.2094 48.0612 24.9131 48.0488 24.6044C48.0488 24.5057 48.0488 24.4069 48.0488 24.2958C48.0488 24.197 48.0488 24.0859 48.0612 23.9871C48.0982 23.16 48.2093 22.3328 48.3822 21.5057C48.555 20.6785 48.7402 19.8513 48.9501 19.0118L49.0859 18.4069ZM50.9994 14.7896C51.0859 14.9378 51.1476 15.0736 51.1846 15.2094C51.2217 15.3452 51.234 15.4686 51.234 15.5797C51.2217 15.8637 51.1229 16.1106 50.9254 16.2958C50.7402 16.4933 50.5427 16.6044 50.3328 16.6538C50.1599 16.6909 49.9994 16.6415 49.8636 16.5057C49.7278 16.3699 49.6661 16.1229 49.6661 15.7773C49.6661 15.6415 49.6908 15.5057 49.7278 15.3575C49.7649 15.2094 49.8266 15.0736 49.8883 14.9501C49.9501 14.8267 50.0241 14.7279 50.1229 14.6415C50.2093 14.555 50.3081 14.5057 50.4068 14.481C50.5056 14.4563 50.6044 14.4686 50.7031 14.518C50.8143 14.5674 50.913 14.6538 50.9994 14.7896Z" fill="#515165"/>
<path d="M58.1608 21.3575C57.9756 21.8019 57.7657 22.2587 57.5312 22.7525C57.2966 23.234 57.0373 23.6908 56.7287 24.1229C56.42 24.5427 56.0744 24.913 55.6793 25.234C55.2842 25.555 54.8274 25.7649 54.3213 25.8636C53.9386 25.9377 53.6176 25.9254 53.346 25.7896C53.0744 25.6661 52.8521 25.4686 52.6793 25.197C52.5065 24.9254 52.383 24.6044 52.2966 24.2217C52.2102 23.839 52.1731 23.4315 52.1608 22.9994C52.1608 22.8883 52.1608 22.7896 52.1484 22.6785C52.1484 22.5797 52.1484 22.4686 52.1608 22.3451V22.3575C52.1855 21.8883 52.2472 21.3945 52.346 20.9007C52.4447 20.3945 52.5805 19.9007 52.741 19.4192C52.9015 18.9254 53.0867 18.4686 53.3089 18.0241C53.5311 17.5797 53.7657 17.1846 54.0373 16.8266C54.3089 16.4686 54.5929 16.1723 54.9015 15.9377C55.2102 15.7032 55.5312 15.555 55.8645 15.4809C56.1855 15.4192 56.4694 15.4315 56.7287 15.5427C56.9879 15.6538 57.1978 15.8143 57.383 16.0241C57.5682 16.234 57.6916 16.5056 57.7904 16.8019C57.8768 17.1106 57.9262 17.4192 57.9139 17.7649C57.8768 18.234 57.741 18.7032 57.5065 19.1352C57.2719 19.5797 56.9756 19.9871 56.6299 20.3575C56.2842 20.7278 55.9139 21.0612 55.5065 21.3451C55.099 21.6291 54.7163 21.8513 54.346 22.0241C54.3213 22.1723 54.2966 22.3204 54.2842 22.4809C54.2719 22.6291 54.2595 22.8019 54.2472 22.9624C54.2472 23.0365 54.2349 23.0982 54.2349 23.1723C54.2349 23.2464 54.2349 23.3081 54.2349 23.3822C54.2349 23.5674 54.2595 23.7402 54.2842 23.9007C54.3089 24.0612 54.3583 24.2093 54.4324 24.3328C54.5065 24.4562 54.5929 24.555 54.7163 24.6167C54.8398 24.6785 54.9879 24.7032 55.1608 24.6785C55.4324 24.6167 55.704 24.4562 55.9386 24.2093C56.1855 23.9624 56.4077 23.6785 56.6176 23.3575C56.8274 23.0365 57.0126 22.6908 57.1855 22.3328C57.3583 21.9748 57.5065 21.6538 57.6423 21.3575V21.3698C57.8151 20.9871 57.9633 20.6044 58.1114 20.234C58.2595 19.8636 58.383 19.5303 58.5065 19.234C58.5682 19.0982 58.6299 18.9377 58.6916 18.7649C58.7657 18.592 58.8275 18.4439 58.8768 18.3081C58.9633 18.2464 59.0126 18.2217 59.0373 18.2093C59.0991 18.197 59.1608 18.2093 59.1978 18.2464C59.2349 18.2834 59.2719 18.3328 59.3089 18.3945L59.2102 18.6908C59.0867 19.0241 58.9262 19.4315 58.741 19.9007C58.5805 20.3575 58.383 20.8513 58.1608 21.3575ZM57.2102 17.0488C57.0991 16.8266 56.9632 16.7402 56.8028 16.7649C56.667 16.7896 56.5188 16.9007 56.3583 17.0859C56.1978 17.2711 56.0373 17.5056 55.8768 17.7772C55.7163 18.0488 55.5558 18.3575 55.4077 18.6908C55.2595 19.0241 55.1114 19.3575 55.0003 19.6785C54.8768 19.9994 54.7781 20.3081 54.6793 20.6044C54.5805 20.9007 54.5188 21.1352 54.4941 21.3081C54.741 21.2217 55.025 21.0735 55.3583 20.8513C55.6793 20.6291 56.0003 20.3698 56.2966 20.0612C56.5929 19.7525 56.8521 19.4192 57.062 19.0612C57.2719 18.7032 57.3953 18.3328 57.4077 17.9501C57.42 17.6414 57.3583 17.3328 57.2102 17.0488Z" fill="#515165"/>
<path d="M60.4943 17.8758C60.4696 17.9746 60.4572 18.061 60.4449 18.1474C60.4325 18.2338 60.4078 18.3202 60.3955 18.3943C60.4819 18.2338 60.5683 18.061 60.6424 17.8881C60.7288 17.7153 60.8153 17.5301 60.914 17.3449C61.0992 16.9499 61.2967 16.5548 61.5066 16.1597C61.7165 15.7647 61.9264 15.3943 62.1486 15.061C62.3708 14.7276 62.6177 14.4437 62.877 14.2091C63.1362 13.9746 63.4078 13.8264 63.7041 13.7647C63.914 13.7276 64.0745 13.7276 64.2103 13.777C64.3461 13.8264 64.4449 13.9128 64.5313 14.0363C64.6054 14.1597 64.6671 14.3079 64.6918 14.4931C64.7165 14.6783 64.7288 14.8881 64.7165 15.1104C64.6918 15.5795 64.6054 16.1227 64.4696 16.74C64.3338 17.3449 64.1733 17.9622 63.9881 18.5918C63.8399 19.1597 63.7041 19.7153 63.5683 20.2585C63.4449 20.8017 63.3585 21.2585 63.3338 21.6289C63.3338 21.7153 63.3338 21.8141 63.3461 21.9252C63.3461 22.0363 63.3585 22.135 63.3832 22.2338C63.3955 22.3326 63.4325 22.4067 63.4696 22.4684C63.5066 22.5301 63.556 22.5548 63.6177 22.5425C63.7165 22.5178 63.8523 22.3943 64.0128 22.1474C64.1733 21.9128 64.3461 21.6165 64.5436 21.2585C64.7288 20.9005 64.914 20.5178 65.1116 20.0857C65.2967 19.6659 65.4819 19.2585 65.6424 18.8634C65.8153 18.4684 65.9511 18.1227 66.0869 17.8017C66.2103 17.4931 66.2967 17.2709 66.3585 17.1351C66.3585 17.1104 66.3708 17.0857 66.3955 17.0486L66.4325 16.9375C66.4696 16.8511 66.4943 16.7894 66.5313 16.7276C66.556 16.6659 66.6177 16.6412 66.6918 16.6165C66.7659 16.6042 66.8276 16.6165 66.8646 16.6536C66.9017 16.6906 66.9387 16.74 66.9757 16.8017C66.9264 16.9128 66.877 17.0486 66.8153 17.1968C66.7535 17.3573 66.7041 17.5054 66.6424 17.6536C66.5066 18.0116 66.3461 18.3943 66.1856 18.8141C66.0251 19.2338 65.8523 19.6659 65.6671 20.0857C65.4819 20.5178 65.2844 20.9252 65.0869 21.3326C64.877 21.74 64.6671 22.1104 64.4572 22.4313C64.235 22.7647 64.0251 23.0363 63.8029 23.2462C63.5807 23.456 63.3585 23.5918 63.1239 23.6412C62.8646 23.6906 62.6548 23.6906 62.4819 23.6412C62.3091 23.5918 62.1733 23.5054 62.0622 23.3696C61.9511 23.2462 61.877 23.0733 61.8276 22.8758C61.7782 22.6783 61.7412 22.456 61.7412 22.2091C61.7412 22.1597 61.7412 22.098 61.7412 22.0363C61.7412 21.9746 61.7412 21.9128 61.7535 21.8511C61.7782 21.5178 61.8276 21.1597 61.9017 20.777C61.9757 20.3943 62.0622 19.9993 62.1609 19.5918C62.2597 19.1844 62.3585 18.7894 62.4696 18.3943C62.5807 17.9992 62.6918 17.6289 62.7906 17.2832C62.9264 16.8017 63.0498 16.382 63.1486 15.9992C63.2597 15.6289 63.3091 15.3573 63.3214 15.1844C63.3214 15.0363 63.2967 14.9622 63.2227 14.9746C63.0869 14.9992 62.9387 15.1104 62.7782 15.3079C62.6054 15.5054 62.4325 15.7523 62.2474 16.061C62.0622 16.3696 61.8646 16.703 61.6794 17.061C61.4943 17.4313 61.3091 17.7894 61.1362 18.1597C60.9634 18.5301 60.8029 18.8758 60.6548 19.1968C60.5066 19.5178 60.3955 19.7894 60.2967 19.9992V19.9869L60.1239 20.3696H60.1362C60.0251 20.74 59.9264 21.1474 59.8399 21.6042C59.7659 22.061 59.7165 22.4807 59.6918 22.8881C59.6918 22.9622 59.6795 23.0239 59.6795 23.0857C59.6795 23.1474 59.6795 23.2091 59.6795 23.2832C59.6795 23.4807 59.7041 23.6536 59.7288 23.7894C59.7535 23.9252 59.7782 24.0363 59.8029 24.1227C59.8276 24.1968 59.8399 24.2462 59.8399 24.2955C59.8399 24.4067 59.7659 24.4807 59.6054 24.5178C59.3461 24.5671 59.1239 24.5548 58.9387 24.4807C58.7659 24.3943 58.6177 24.2709 58.519 24.098C58.4202 23.9252 58.3461 23.7153 58.2967 23.4684C58.2474 23.2215 58.2227 22.9746 58.2227 22.7153C58.2227 22.6289 58.2227 22.5548 58.2227 22.4684C58.2227 22.382 58.2227 22.2955 58.235 22.2091C58.2474 21.9252 58.272 21.6412 58.3091 21.3326C58.3461 21.0239 58.3832 20.7153 58.4325 20.3943C58.4819 20.0733 58.5313 19.7647 58.593 19.4684C58.6548 19.1597 58.7041 18.8758 58.7659 18.5918C58.8523 18.1227 58.9387 17.6783 59.0004 17.2709C59.0745 16.8634 59.1116 16.5178 59.1239 16.2338C59.1239 16.098 59.1239 15.9869 59.1115 15.8881C59.0992 15.7894 59.0869 15.703 59.0622 15.6165C59.0498 15.5795 59.0498 15.5425 59.0375 15.5054C59.0375 15.4684 59.0251 15.4437 59.0251 15.4067C59.0251 15.2832 59.0745 15.1968 59.1609 15.1351C59.2474 15.0733 59.3338 15.0363 59.4449 15.0116C59.7165 14.9499 59.9511 14.9622 60.1116 15.0239C60.2844 15.098 60.4202 15.1968 60.5066 15.3449C60.6054 15.4931 60.6671 15.6659 60.6918 15.8634C60.7165 16.061 60.7288 16.2709 60.7165 16.4807C60.7041 16.703 60.6794 16.9375 60.6548 17.1721C60.5807 17.4437 60.5436 17.6659 60.4943 17.8758Z" fill="#515165"/>
<path d="M71.7419 22.0365C71.0999 22.1723 70.6431 22.0859 70.3592 21.7649C70.0876 21.4563 69.9394 20.9625 69.9271 20.2835C69.9271 20.2094 69.9271 20.123 69.9271 20.0365C69.9271 19.9501 69.9271 19.8637 69.9394 19.7649C69.9394 19.7032 69.9394 19.6662 69.9394 19.6291C69.9394 19.5921 69.9394 19.5674 69.9394 19.5304C69.9394 19.4933 69.9394 19.4563 69.9517 19.4069C69.9517 19.3575 69.9641 19.2958 69.9764 19.2094C69.7789 19.6291 69.569 20.0612 69.3345 20.481C69.0999 20.9007 68.853 21.2958 68.5814 21.6538C68.3098 22.0119 68.0382 22.3081 67.7419 22.5551C67.4456 22.802 67.1369 22.9625 66.8283 23.0242C66.5443 23.0859 66.2974 23.0736 66.0999 23.0119C65.9024 22.9378 65.7419 22.8267 65.6184 22.6538C65.495 22.4933 65.4085 22.2835 65.3468 22.0365C65.2851 21.7896 65.2604 21.5304 65.248 21.2588C65.248 21.197 65.248 21.123 65.248 21.0612C65.248 20.9995 65.248 20.9254 65.2604 20.8637C65.2974 20.4439 65.3838 19.9625 65.5073 19.4193C65.6431 18.8884 65.8159 18.3328 66.0258 17.7649C66.2357 17.197 66.4826 16.6415 66.7666 16.0859C67.0505 15.5304 67.3592 15.0365 67.6925 14.5798C68.0258 14.123 68.3962 13.7526 68.7789 13.4439C69.1616 13.1353 69.5567 12.9378 69.9764 12.8514C70.174 12.8143 70.3592 12.802 70.532 12.839C70.7048 12.876 70.8653 12.9378 71.0135 13.0242L71.1122 12.5304C71.1863 12.123 71.248 11.7279 71.3221 11.3575C71.3839 10.9872 71.4456 10.6415 71.495 10.3328C71.5443 10.0242 71.5937 9.75259 71.6184 9.51802C71.6555 9.28345 71.6678 9.11061 71.6678 8.97481C71.6678 8.82666 71.6678 8.71555 71.6555 8.61678C71.6431 8.51802 71.6308 8.4316 71.6061 8.35753C71.5937 8.32049 71.5937 8.28345 71.5814 8.24641C71.5814 8.20938 71.569 8.17234 71.569 8.14765C71.569 8.02419 71.6184 7.93777 71.7048 7.88839C71.7913 7.83901 71.8777 7.78963 71.9888 7.77728C72.2727 7.71555 72.5073 7.71555 72.6801 7.78963C72.853 7.85135 72.9888 7.96247 73.0752 8.09827C73.1616 8.24642 73.2234 8.41925 73.248 8.61678C73.2727 8.81432 73.2851 9.03654 73.2727 9.24642C73.2604 9.44395 73.2357 9.7032 73.1863 10.0365C73.1369 10.3699 73.0876 10.7526 73.0135 11.1847C72.9394 11.6168 72.8653 12.0736 72.7789 12.5797C72.6925 13.0736 72.6061 13.5921 72.5073 14.123C72.4826 14.2958 72.4456 14.5057 72.3962 14.7526C72.3468 14.9995 72.2974 15.2588 72.248 15.5427C72.174 15.9131 72.0999 16.2958 72.0258 16.7156C71.9518 17.1353 71.8777 17.5427 71.8159 17.9625C71.7542 18.3699 71.7048 18.7649 71.6678 19.1353C71.6308 19.5057 71.6184 19.8267 71.6184 20.0983C71.6184 20.1723 71.6184 20.2464 71.6184 20.3081C71.6184 20.3699 71.6308 20.4316 71.6431 20.4933C71.6925 20.8267 71.8283 20.9625 72.0505 20.9254C72.1369 20.9131 72.2357 20.8637 72.3345 20.7896C72.4332 20.7156 72.5443 20.6291 72.6431 20.5304C72.7419 20.4316 72.8406 20.3205 72.9394 20.2094C73.0382 20.0983 73.1122 19.9872 73.1863 19.876C73.3715 19.5921 73.5443 19.2835 73.7172 18.9501C73.89 18.6044 74.0505 18.2711 74.1987 17.9131C74.3468 17.5674 74.4826 17.2217 74.6184 16.876C74.7419 16.5304 74.8653 16.2341 74.9641 15.9625C75.0629 15.7032 75.1369 15.4933 75.211 15.3081C75.2727 15.123 75.3345 14.9995 75.3715 14.9254C75.3962 14.8884 75.4332 14.876 75.4579 14.8514C75.495 14.839 75.5197 14.8267 75.5443 14.8267C75.6061 14.8143 75.6555 14.8267 75.6925 14.8637C75.7295 14.9007 75.7666 14.9501 75.8036 15.0118C75.7295 15.1723 75.6678 15.3575 75.6061 15.5551C75.5443 15.7526 75.4703 15.9501 75.3962 16.1353C75.2727 16.4563 75.1369 16.802 75.0135 17.1477C74.8777 17.4933 74.7419 17.839 74.6061 18.197C74.4579 18.5427 74.3221 18.8884 74.1616 19.2217C74.0135 19.5551 73.853 19.8637 73.6925 20.1477C73.569 20.3452 73.4456 20.5551 73.3098 20.7526C73.174 20.9501 73.0258 21.1477 72.8653 21.3205C72.7048 21.4933 72.5443 21.6415 72.3592 21.7773C72.1616 21.876 71.9641 21.9748 71.7419 22.0365ZM70.248 17.2958C70.3221 16.8637 70.3962 16.4193 70.4703 15.9501C70.5443 15.481 70.6308 15.0118 70.7172 14.5427C70.7295 14.4439 70.7419 14.3575 70.7666 14.2711C70.7913 14.1847 70.8036 14.0983 70.8159 13.9995C70.6678 13.9007 70.495 13.876 70.2851 13.9254C70.0258 13.9748 69.7666 14.1476 69.5196 14.4316C69.2604 14.7156 69.0135 15.0612 68.7789 15.481C68.5443 15.8884 68.3221 16.3452 68.1246 16.839C67.9271 17.3328 67.7419 17.8143 67.5937 18.2958C67.4332 18.7773 67.3098 19.2217 67.2234 19.6291C67.1246 20.0365 67.0752 20.3699 67.0629 20.6168C67.0505 20.7402 67.0505 20.8637 67.0629 20.9872C67.0752 21.123 67.0999 21.2341 67.1369 21.3452C67.174 21.4563 67.2234 21.5304 67.2974 21.5921C67.3715 21.6415 67.4703 21.6662 67.6061 21.6291C67.7666 21.5921 67.9394 21.4933 68.0999 21.3205C68.2727 21.1477 68.4456 20.9378 68.6184 20.6909C68.7913 20.4439 68.9517 20.16 69.1122 19.8514C69.2727 19.5427 69.4209 19.2341 69.569 18.9254C69.7172 18.6168 69.8406 18.3205 69.9517 18.0242C70.0629 17.7402 70.1616 17.4933 70.248 17.2835V17.2958Z" fill="#515165"/>
<path d="M84.37 12.9995C84.4935 12.8884 84.5922 12.8514 84.654 12.8761C84.7157 12.9008 84.7774 12.9625 84.8268 13.0366L82.1107 19.4687C82.1107 19.5057 82.1107 19.5674 82.1107 19.6292C82.1107 19.6909 82.0984 19.7526 82.0984 19.7897C82.0614 19.9255 82.012 20.0119 81.9256 20.0242C81.7033 19.8391 81.4317 19.7403 81.0861 19.7279C80.7404 19.7156 80.3577 19.765 79.9379 19.8514C79.654 19.9131 79.3824 19.9749 79.0861 20.0613C78.8021 20.1477 78.5058 20.2218 78.2219 20.3082C77.9626 20.3823 77.7033 20.4687 77.4564 20.5428C77.2095 20.6168 76.9749 20.6786 76.7651 20.7156C76.5799 20.7526 76.4194 20.7773 76.2589 20.7897C76.1108 20.802 75.975 20.802 75.8515 20.7773C75.4935 20.7403 75.3206 20.5304 75.3083 20.1477C75.3083 19.9872 75.333 19.802 75.407 19.6045C75.4688 19.3946 75.5799 19.16 75.7404 18.9008C75.9626 18.5181 76.2342 18.123 76.5305 17.6909C76.8391 17.2711 77.1601 16.8391 77.4935 16.4193C77.8391 15.9872 78.1848 15.5674 78.5552 15.1477C78.9132 14.7279 79.2712 14.3205 79.6046 13.9502C79.9503 13.5798 80.2589 13.2218 80.5675 12.9008C80.8638 12.5798 81.1231 12.2958 81.3453 12.0613L81.8021 11.5674C81.7157 11.5551 81.5799 11.5798 81.4194 11.6045C81.2959 11.6292 81.1478 11.6662 80.975 11.7156C80.8021 11.765 80.6293 11.8144 80.4441 11.8637C80.2095 11.9378 79.9626 12.0119 79.691 12.086C79.4194 12.16 79.1601 12.2341 78.9009 12.2835C78.5058 12.3699 78.1354 12.407 77.7898 12.407C77.4441 12.407 77.1478 12.3205 76.9132 12.1477L75.3083 16.1971C75.2219 16.2465 75.1354 16.2835 75.049 16.2835C74.9626 16.2958 74.8885 16.2465 74.8145 16.16L76.654 11.5921C76.654 11.5304 76.654 11.444 76.6786 11.3082C76.691 11.1724 76.7157 11.0366 76.7527 10.9008C76.7774 10.765 76.8145 10.6415 76.8638 10.5428C76.9132 10.444 76.9626 10.3823 77.0367 10.3823C77.0861 10.3823 77.1231 10.407 77.1354 10.444C77.1478 10.481 77.1725 10.5304 77.1848 10.5921L77.2342 10.7033C77.2836 10.7773 77.3577 10.8267 77.4688 10.8637C77.5799 10.9008 77.7033 10.9131 77.8638 10.9255C78.012 10.9255 78.1848 10.9131 78.3824 10.8884C78.5675 10.8637 78.7651 10.8267 78.9749 10.7897C79.2712 10.7279 79.5675 10.6539 79.8515 10.5674C80.1478 10.481 80.4317 10.407 80.691 10.3329C81.0614 10.2341 81.3577 10.16 81.5552 10.1107C81.7527 10.0736 81.9503 10.0613 82.1478 10.086C82.3453 10.1107 82.5182 10.16 82.6787 10.2588C82.8268 10.3576 82.9503 10.481 83.0243 10.6662C83.1108 10.8391 83.1231 11.0613 83.0861 11.3452C83.0737 11.3946 83.0614 11.444 83.049 11.4934C83.0243 11.5428 82.9873 11.5674 82.9379 11.5798C82.8885 11.5921 82.8391 11.5798 82.7898 11.5428L82.7651 11.5304C82.2466 11.9625 81.7157 12.4687 81.1725 13.086C80.6293 13.6909 80.0984 14.3329 79.5799 15.0242C79.0614 15.7033 78.5675 16.3946 78.0861 17.0983C77.6169 17.802 77.1848 18.4563 76.8021 19.086C76.8762 19.1107 77.049 19.0983 77.3083 19.0366C77.4564 18.9995 77.6416 18.9625 77.8391 18.9008C78.0367 18.839 78.2465 18.7773 78.4688 18.7156C78.728 18.6415 78.9996 18.5674 79.2712 18.4934C79.5428 18.4193 79.8145 18.3452 80.0614 18.2958C80.3453 18.2341 80.5922 18.1971 80.8268 18.1847C81.0614 18.1724 81.2466 18.1971 81.3824 18.2712C81.4811 18.3205 81.5799 18.3823 81.6786 18.444C81.7651 18.5057 81.8515 18.5921 81.9132 18.7032C81.9503 18.6168 81.9873 18.5304 82.0243 18.4316C82.0614 18.3329 82.1108 18.2094 82.1848 18.0489C82.2466 17.8884 82.333 17.6786 82.4441 17.4316C82.5552 17.1847 82.691 16.8637 82.8638 16.4563C83.0367 16.0613 83.2466 15.5798 83.4935 15.0119C83.7404 14.444 84.0367 13.765 84.3824 12.9749L84.37 12.9995Z" fill="#515165"/>
<path d="M39.8643 22.4316C39.7038 23.2217 39.5433 23.9995 39.3828 24.7773C39.2223 25.5551 39.0865 26.2588 38.9754 26.8884C39.0495 27.0118 39.1235 27.123 39.21 27.2588C39.284 27.3822 39.3704 27.5304 39.4445 27.7032C39.5186 27.876 39.5927 28.0859 39.6667 28.3328C39.7408 28.5797 39.8149 28.8884 39.8766 29.2464C40.1482 28.9872 40.4075 28.6291 40.6667 28.16C40.926 27.6909 41.1853 27.1847 41.4198 26.6415C41.6667 26.0859 41.889 25.518 42.0988 24.9378C42.3087 24.3575 42.5062 23.8143 42.6914 23.3205C42.8272 22.9501 42.9507 22.6168 43.0495 22.3328C43.1482 22.0489 43.247 21.802 43.3457 21.6044C43.4569 21.518 43.5309 21.4933 43.5927 21.4933C43.642 21.5057 43.7161 21.5551 43.8025 21.6538C43.7161 21.8637 43.6297 22.1106 43.5309 22.3822C43.4322 22.6538 43.3211 22.9501 43.2099 23.2711C43.0124 23.839 42.7902 24.4563 42.5433 25.123C42.2964 25.7896 42.0371 26.4316 41.7532 27.0612C41.4692 27.6785 41.1729 28.2464 40.8643 28.7649C40.5556 29.2711 40.2346 29.6662 39.9137 29.9378C39.926 30.0736 39.9383 30.2217 39.9383 30.3822C39.9507 30.5427 39.9507 30.7032 39.9507 30.876C39.963 31.2958 39.963 31.7526 39.963 32.2217C39.963 32.6909 39.9507 33.16 39.9383 33.6168C39.926 33.9748 39.9013 34.3205 39.889 34.6415C39.8643 34.9625 39.8396 35.2341 39.8149 35.4563C39.7779 35.7032 39.7532 35.9748 39.7161 36.2835C39.6791 36.5797 39.6297 36.8884 39.568 37.2094C39.5062 37.518 39.4198 37.839 39.3211 38.1353C39.2223 38.4439 39.0988 38.7155 38.9383 38.9625C38.7779 39.2094 38.5927 39.4316 38.3704 39.6044C38.1482 39.7896 37.889 39.9007 37.5927 39.9625C37.2717 40.0242 37.0001 39.9995 36.7779 39.876C36.5556 39.7526 36.3704 39.5427 36.2346 39.2588C36.0865 38.9748 35.9877 38.6168 35.9137 38.1847C35.8396 37.7526 35.8025 37.2711 35.7902 36.7279C35.7779 36.0983 35.8025 35.3946 35.8643 34.6044C35.926 33.8267 36.0124 32.9995 36.1359 32.1353C36.247 31.2711 36.3828 30.3699 36.5433 29.4563C36.7038 28.5427 36.8643 27.6291 37.0371 26.7156C37.2099 25.802 37.3828 24.9254 37.568 24.0736C37.7408 23.2217 37.9137 22.4192 38.0741 21.6785C38.1606 21.2464 38.247 20.8267 38.3334 20.3946C38.4198 19.9625 38.5062 19.5674 38.5803 19.1847C38.6544 18.8143 38.7161 18.481 38.7655 18.1847C38.8149 17.8884 38.8519 17.6662 38.8643 17.4933C38.8766 17.4069 38.8766 17.3328 38.8766 17.2588C38.8766 17.197 38.8766 17.123 38.8766 17.0612C38.8766 16.9748 38.8766 16.9007 38.8766 16.8267C38.8766 16.7526 38.8643 16.6909 38.8643 16.6291C38.8519 16.5674 38.8519 16.5057 38.8396 16.4563C38.8396 16.4069 38.8396 16.3575 38.8396 16.3205C38.8643 16.1847 38.9137 16.0859 39.0124 16.0118C39.1112 15.9501 39.2099 15.9007 39.3211 15.8884C39.5927 15.8514 39.8149 15.8637 39.9877 15.9254C40.1606 15.9872 40.3087 16.0859 40.4075 16.2341C40.5186 16.3699 40.5927 16.5427 40.642 16.7526C40.6914 16.9501 40.7161 17.1723 40.7285 17.4069C40.7285 17.518 40.7285 17.6291 40.7285 17.7526C40.7285 17.876 40.7161 17.9871 40.7038 18.0983C40.6914 18.2588 40.6544 18.4933 40.5927 18.7773C40.5433 19.0736 40.4816 19.4069 40.3951 19.7896C40.3211 20.1723 40.2346 20.5921 40.1482 21.0489C40.0495 21.481 39.963 21.9501 39.8643 22.4316ZM39.3951 30.9378C39.3951 30.7773 39.3828 30.6415 39.3828 30.5057C39.3704 30.3822 39.3704 30.2711 39.3581 30.1723H39.3458C39.2223 30.1847 39.0865 30.1847 38.926 30.1847C38.7655 30.1847 38.605 30.1353 38.4322 30.0242C38.4198 30.1106 38.4075 30.197 38.3951 30.2711C38.3828 30.3452 38.3704 30.4316 38.3581 30.5057C38.247 31.2588 38.1482 32.0365 38.0618 32.8143C37.9754 33.5921 37.889 34.4193 37.8272 35.2958C37.7902 35.8514 37.7902 36.3699 37.7902 36.8637C37.8025 37.3452 37.8519 37.7526 37.9383 38.0736C38.0248 38.3946 38.1606 38.5674 38.3581 38.5921C38.4569 38.5674 38.5556 38.4686 38.6544 38.2958C38.7408 38.123 38.8272 37.9007 38.9013 37.6168C38.9754 37.3328 39.0371 37.0118 39.0988 36.6538C39.1606 36.2835 39.1976 35.9007 39.2346 35.5057C39.2593 35.2094 39.2964 34.9007 39.3087 34.5797C39.3211 34.2588 39.3458 33.9378 39.3581 33.6291C39.3828 33.123 39.3951 32.6415 39.3951 32.1723C39.4075 31.7032 39.4075 31.2958 39.3951 30.9378ZM38.6174 28.8637C38.7161 28.9995 38.8396 29.123 38.9877 29.2464C39.1359 29.3699 39.247 29.4316 39.3334 29.4439C39.2717 29.0118 39.1976 28.6538 39.0988 28.3699C39.0001 28.0859 38.9013 27.8884 38.7779 27.7773L38.6174 28.8637Z" fill="#515165"/>
</g>
<defs>
<clipPath id="clip0_117_5597">
<rect width="88.8889" height="40" fill="white"/>
</clipPath>
</defs>
</svg>
