<svg width="21" height="20" viewBox="0 0 21 20" fill="none" xmlns="http://www.w3.org/2000/svg">
<path d="M19.2223 8.33366V10.8337C19.2223 14.167 17.5557 15.8337 14.2223 15.8337H13.8057C13.5473 15.8337 13.2973 15.9587 13.139 16.167L11.889 17.8337C11.339 18.567 10.439 18.567 9.889 17.8337L8.639 16.167C8.50566 15.9837 8.19733 15.8337 7.97233 15.8337H7.55566C4.22233 15.8337 2.55566 15.0003 2.55566 10.8337V6.66699C2.55566 3.33366 4.22233 1.66699 7.55566 1.66699H12.5557" stroke="#2A2A2A" stroke-width="1.5" stroke-miterlimit="10" stroke-linecap="round" stroke-linejoin="round"/>
<path d="M17.139 5.83366C18.2896 5.83366 19.2223 4.90092 19.2223 3.75033C19.2223 2.59973 18.2896 1.66699 17.139 1.66699C15.9884 1.66699 15.0557 2.59973 15.0557 3.75033C15.0557 4.90092 15.9884 5.83366 17.139 5.83366Z" stroke="#FD6769" stroke-width="1.5" stroke-linecap="round" stroke-linejoin="round"/>
<path opacity="0.4" d="M14.2187 9.16667H14.2262" stroke="#2A2A2A" stroke-width="2" stroke-linecap="round" stroke-linejoin="round"/>
<path opacity="0.4" d="M10.8847 9.16667H10.8922" stroke="#2A2A2A" stroke-width="2" stroke-linecap="round" stroke-linejoin="round"/>
<path opacity="0.4" d="M7.55076 9.16667H7.55825" stroke="#2A2A2A" stroke-width="2" stroke-linecap="round" stroke-linejoin="round"/>
</svg>
