<svg width="21" height="20" viewBox="0 0 21 20" fill="none" xmlns="http://www.w3.org/2000/svg">
<path d="M7.58317 15.8333H7.1665C3.83317 15.8333 2.1665 15 2.1665 10.8333V6.66666C2.1665 3.33332 3.83317 1.66666 7.1665 1.66666H13.8332C17.1665 1.66666 18.8332 3.33332 18.8332 6.66666V10.8333C18.8332 14.1667 17.1665 15.8333 13.8332 15.8333H13.4165C13.1582 15.8333 12.9082 15.9583 12.7498 16.1667L11.4998 17.8333C10.9498 18.5667 10.0498 18.5667 9.49984 17.8333L8.24984 16.1667C8.1165 15.9833 7.80817 15.8333 7.58317 15.8333Z" stroke="#949494" stroke-width="1.5" stroke-miterlimit="10" stroke-linecap="round" stroke-linejoin="round"/>
<path opacity="0.4" d="M13.8305 9.16667H13.838" stroke="#949494" stroke-width="2" stroke-linecap="round" stroke-linejoin="round"/>
<path opacity="0.4" d="M10.4961 9.16667H10.5036" stroke="#949494" stroke-width="2" stroke-linecap="round" stroke-linejoin="round"/>
<path opacity="0.4" d="M7.16209 9.16667H7.16957" stroke="#949494" stroke-width="2" stroke-linecap="round" stroke-linejoin="round"/>
</svg>
