<svg width="21" height="20" viewBox="0 0 21 20" fill="none" xmlns="http://www.w3.org/2000/svg">
<path opacity="0.4" d="M6.7334 15.2917L9.31673 17.2917C9.65006 17.625 10.4001 17.7917 10.9001 17.7917H14.0667C15.0667 17.7917 16.1501 17.0417 16.4001 16.0417L18.4001 9.95835C18.8167 8.79168 18.0667 7.79168 16.8167 7.79168H13.4834C12.9834 7.79168 12.5667 7.37501 12.6501 6.79168L13.0667 4.12501C13.2334 3.37501 12.7334 2.54168 11.9834 2.29168C11.3167 2.04168 10.4834 2.37501 10.1501 2.87501L6.7334 7.95835" stroke="#949494" stroke-width="1.5" stroke-miterlimit="10"/>
<path d="M2.4834 15.2917V7.12499C2.4834 5.95832 2.9834 5.54166 4.15007 5.54166H4.9834C6.15006 5.54166 6.65007 5.95832 6.65007 7.12499V15.2917C6.65007 16.4583 6.15006 16.875 4.9834 16.875H4.15007C2.9834 16.875 2.4834 16.4583 2.4834 15.2917Z" stroke="#949494" stroke-width="1.5" stroke-linecap="round" stroke-linejoin="round"/>
</svg>
