<svg width="20" height="20" viewBox="0 0 20 20" fill="none" xmlns="http://www.w3.org/2000/svg">
<path d="M15.033 11.2913C14.683 11.633 14.483 12.1247 14.533 12.6497C14.608 13.5497 15.433 14.208 16.333 14.208H17.9163V15.1997C17.9163 16.9247 16.508 18.333 14.783 18.333H5.21634C3.49134 18.333 2.08301 16.9247 2.08301 15.1997V9.59135C2.08301 7.86635 3.49134 6.45801 5.21634 6.45801H14.783C16.508 6.45801 17.9163 7.86635 17.9163 9.59135V10.7914H16.233C15.7663 10.7914 15.3413 10.9747 15.033 11.2913Z" stroke="#949494" stroke-width="1.5" stroke-linecap="round" stroke-linejoin="round"/>
<path opacity="0.4" d="M2.08301 10.3421V6.53379C2.08301 5.54212 2.69134 4.65875 3.61634 4.30875L10.233 1.80875C11.2663 1.41708 12.3747 2.18377 12.3747 3.29211V6.45876" stroke="#949494" stroke-width="1.5" stroke-linecap="round" stroke-linejoin="round"/>
<path d="M18.7997 11.642V13.3587C18.7997 13.817 18.433 14.192 17.9663 14.2086H16.333C15.433 14.2086 14.608 13.5503 14.533 12.6503C14.483 12.1253 14.683 11.6336 15.033 11.292C15.3413 10.9753 15.7663 10.792 16.233 10.792H17.9663C18.433 10.8087 18.7997 11.1836 18.7997 11.642Z" stroke="#949494" stroke-width="1.5" stroke-linecap="round" stroke-linejoin="round"/>
<path opacity="0.4" d="M5.83301 10H11.6663" stroke="#949494" stroke-width="1.5" stroke-linecap="round" stroke-linejoin="round"/>
</svg>
