<svg
  width="20"
  height="20"
  viewBox="0 0 20 20"
  fill="none"
  xmlns="http://www.w3.org/2000/svg"
>
<path
    d="M10.4417 17.0167H5.17499C2.54166 17.0167 1.66666 15.2667 1.66666 13.5083V6.49167C1.66666 3.85834 2.54166 2.98334 5.17499 2.98334H10.4417C13.075 2.98334 13.95 3.85834 13.95 6.49167V13.5083C13.95 16.1417 13.0667 17.0167 10.4417 17.0167Z"
    stroke="#515165"
    stroke-width="1.5"
    stroke-linecap="round"
    stroke-linejoin="round"
  />
<path
    opacity="0.4"
    d="M16.2667 14.25L13.95 12.625V7.36665L16.2667 5.74165C17.4 4.94999 18.3333 5.43332 18.3333 6.82499V13.175C18.3333 14.5667 17.4 15.05 16.2667 14.25Z"
    stroke="#515165"
    stroke-width="1.5"
    stroke-linecap="round"
    stroke-linejoin="round"
  />
<path
    opacity="0.4"
    d="M9.58334 9.16669C10.2737 9.16669 10.8333 8.60704 10.8333 7.91669C10.8333 7.22633 10.2737 6.66669 9.58334 6.66669C8.89299 6.66669 8.33334 7.22633 8.33334 7.91669C8.33334 8.60704 8.89299 9.16669 9.58334 9.16669Z"
    stroke="#515165"
    stroke-width="1.5"
    stroke-linecap="round"
    stroke-linejoin="round"
  />
</svg>
