<svg width="21" height="20" viewBox="0 0 21 20" fill="none" xmlns="http://www.w3.org/2000/svg">
<path d="M8.52279 9.05866C8.43945 9.05033 8.33945 9.05033 8.24779 9.05866C6.26445 8.99199 4.68945 7.36699 4.68945 5.36699C4.68945 3.32533 6.33945 1.66699 8.38945 1.66699C10.4311 1.66699 12.0895 3.32533 12.0895 5.36699C12.0811 7.36699 10.5061 8.99199 8.52279 9.05866Z" stroke="#949494" stroke-width="1.5" stroke-linecap="round" stroke-linejoin="round"/>
<path opacity="0.4" d="M14.5634 3.33301C16.1801 3.33301 17.4801 4.64134 17.4801 6.24967C17.4801 7.82467 16.2301 9.10801 14.6717 9.16634C14.6051 9.15801 14.5301 9.15801 14.4551 9.16634" stroke="#949494" stroke-width="1.5" stroke-linecap="round" stroke-linejoin="round"/>
<path d="M4.35625 12.133C2.33958 13.483 2.33958 15.683 4.35625 17.0247C6.64792 18.558 10.4063 18.558 12.6979 17.0247C14.7146 15.6747 14.7146 13.4747 12.6979 12.133C10.4146 10.608 6.65625 10.608 4.35625 12.133Z" stroke="#949494" stroke-width="1.5" stroke-linecap="round" stroke-linejoin="round"/>
<path opacity="0.4" d="M16.1719 16.667C16.7719 16.542 17.3385 16.3003 17.8052 15.942C19.1052 14.967 19.1052 13.3587 17.8052 12.3837C17.3469 12.0337 16.7885 11.8003 16.1969 11.667" stroke="#949494" stroke-width="1.5" stroke-linecap="round" stroke-linejoin="round"/>
</svg>
