<svg width="21" height="20" viewBox="0 0 21 20" fill="none" xmlns="http://www.w3.org/2000/svg">
<g opacity="0.4">
<path d="M7.55469 9.5C7.55469 10.1417 8.05469 10.6667 8.66302 10.6667H9.91302C10.4464 10.6667 10.8797 10.2083 10.8797 9.65C10.8797 9.04167 10.613 8.825 10.2214 8.68333L8.22135 7.98333C7.82135 7.84167 7.55469 7.625 7.55469 7.01667C7.55469 6.45833 7.98802 6 8.52135 6H9.77135C10.388 6.00833 10.888 6.525 10.888 7.16667" stroke="white" stroke-width="1.5" stroke-linecap="round" stroke-linejoin="round"/>
<path d="M9.2207 10.708V11.3247" stroke="white" stroke-width="1.5" stroke-linecap="round" stroke-linejoin="round"/>
<path d="M9.2207 5.3418V5.9918" stroke="white" stroke-width="1.5" stroke-linecap="round" stroke-linejoin="round"/>
</g>
<path d="M9.21302 14.9837C12.8903 14.9837 15.8714 12.0026 15.8714 8.32533C15.8714 4.64803 12.8903 1.66699 9.21302 1.66699C5.53572 1.66699 2.55469 4.64803 2.55469 8.32533C2.55469 12.0026 5.53572 14.9837 9.21302 14.9837Z" stroke="white" stroke-width="1.5" stroke-linecap="round" stroke-linejoin="round"/>
<path opacity="0.4" d="M11.7051 16.5663C12.4551 17.6247 13.6801 18.3163 15.0801 18.3163C17.3551 18.3163 19.2051 16.4663 19.2051 14.1913C19.2051 12.808 18.5217 11.583 17.4801 10.833" stroke="white" stroke-width="1.5" stroke-linecap="round" stroke-linejoin="round"/>
</svg>
