<svg width="16" height="16" viewBox="0 0 16 16" fill="none" xmlns="http://www.w3.org/2000/svg">
<path d="M14.9111 13.676L11.3361 9.958C12.223 8.90084 12.7226 7.57274 12.7525 6.19318C12.7823 4.81362 12.3406 3.46515 11.5004 2.3706C10.6601 1.27605 9.47153 0.500934 8.1311 0.173328C6.79067 -0.154278 5.37857 -0.014765 4.12816 0.568814C2.87775 1.15239 1.86386 2.14511 1.25402 3.38293C0.644188 4.62074 0.474906 6.02957 0.774152 7.37662C1.0734 8.72367 1.82326 9.92832 2.89983 10.7915C3.9764 11.6547 5.31525 12.1247 6.69514 12.124C7.93917 12.1264 9.15318 11.742 10.1691 11.024L13.7691 14.77C13.8414 14.8449 13.9276 14.9048 14.023 14.9463C14.1184 14.9878 14.221 15.0101 14.325 15.012C14.429 15.0138 14.5323 14.9952 14.6291 14.9571C14.7259 14.919 14.8143 14.8622 14.8891 14.79C14.964 14.7178 15.0239 14.6315 15.0654 14.5361C15.1069 14.4408 15.1292 14.3381 15.1311 14.2341C15.133 14.1301 15.1143 14.0268 15.0762 13.93C15.0381 13.8332 14.9814 13.7449 14.9091 13.67L14.9111 13.676ZM6.69514 1.578C7.58159 1.578 8.44814 1.84087 9.1852 2.33336C9.92226 2.82585 10.4967 3.52584 10.836 4.34482C11.1752 5.1638 11.264 6.06498 11.091 6.9344C10.9181 7.80382 10.4912 8.60244 9.86439 9.22926C9.23757 9.85608 8.43895 10.2829 7.56953 10.4559C6.70011 10.6288 5.79893 10.5401 4.97995 10.2008C4.16097 9.8616 3.46098 9.28713 2.96849 8.55007C2.476 7.81301 2.21314 6.94646 2.21314 6.06C2.21446 4.87171 2.6871 3.73246 3.52735 2.89221C4.3676 2.05196 5.50684 1.57933 6.69514 1.578Z" fill="#2A2A2A"/>
</svg>
