<svg width="21" height="20" viewBox="0 0 21 20" fill="none" xmlns="http://www.w3.org/2000/svg">
<path opacity="0.34" d="M10.5 12.5C11.8807 12.5 13 11.3807 13 10C13 8.61929 11.8807 7.5 10.5 7.5C9.11929 7.5 8 8.61929 8 10C8 11.3807 9.11929 12.5 10.5 12.5Z" stroke="#2A2A2A" stroke-width="1.5" stroke-miterlimit="10" stroke-linecap="round" stroke-linejoin="round"/>
<path d="M2.1665 10.7333V9.26666C2.1665 8.4 2.87484 7.68333 3.74984 7.68333C5.25817 7.68333 5.87484 6.61666 5.1165 5.30833C4.68317 4.55833 4.9415 3.58333 5.69984 3.15L7.1415 2.325C7.79984 1.93333 8.64984 2.16666 9.0415 2.825L9.13317 2.98333C9.88317 4.29166 11.1165 4.29166 11.8748 2.98333L11.9665 2.825C12.3582 2.16666 13.2082 1.93333 13.8665 2.325L15.3082 3.15C16.0665 3.58333 16.3248 4.55833 15.8915 5.30833C15.1332 6.61666 15.7498 7.68333 17.2582 7.68333C18.1248 7.68333 18.8415 8.39166 18.8415 9.26666V10.7333C18.8415 11.6 18.1332 12.3167 17.2582 12.3167C15.7498 12.3167 15.1332 13.3833 15.8915 14.6917C16.3248 15.45 16.0665 16.4167 15.3082 16.85L13.8665 17.675C13.2082 18.0667 12.3582 17.8333 11.9665 17.175L11.8748 17.0167C11.1248 15.7083 9.8915 15.7083 9.13317 17.0167L9.0415 17.175C8.64984 17.8333 7.79984 18.0667 7.1415 17.675L5.69984 16.85C4.9415 16.4167 4.68317 15.4417 5.1165 14.6917C5.87484 13.3833 5.25817 12.3167 3.74984 12.3167C2.87484 12.3167 2.1665 11.6 2.1665 10.7333Z" stroke="#2A2A2A" stroke-width="1.5" stroke-miterlimit="10" stroke-linecap="round" stroke-linejoin="round"/>
</svg>
