<svg width="21" height="20" viewBox="0 0 21 20" fill="none" xmlns="http://www.w3.org/2000/svg">
<path opacity="0.4" d="M10.6331 9.05832C10.5498 9.04999 10.4498 9.04999 10.3581 9.05832C8.3748 8.99166 6.7998 7.36666 6.7998 5.36666C6.7998 3.32499 8.4498 1.66666 10.4998 1.66666C12.5415 1.66666 14.1998 3.32499 14.1998 5.36666C14.1915 7.36666 12.6165 8.99166 10.6331 9.05832Z" stroke="#2A2A2A" stroke-width="1.5" stroke-linecap="round" stroke-linejoin="round"/>
<path d="M6.4666 12.1333C4.44993 13.4833 4.44993 15.6833 6.4666 17.025C8.75827 18.5583 12.5166 18.5583 14.8083 17.025C16.8249 15.675 16.8249 13.475 14.8083 12.1333C12.5249 10.6083 8.7666 10.6083 6.4666 12.1333Z" stroke="#2A2A2A" stroke-width="1.5" stroke-linecap="round" stroke-linejoin="round"/>
</svg>
