<svg width="20" height="20" viewBox="0 0 20 20" fill="none" xmlns="http://www.w3.org/2000/svg">
<path d="M10.442 17.0164H5.17533C2.54199 17.0164 1.66699 15.2664 1.66699 13.5081V6.49143C1.66699 3.85809 2.54199 2.98309 5.17533 2.98309H10.442C13.0753 2.98309 13.9503 3.85809 13.9503 6.49143V13.5081C13.9503 16.1414 13.067 17.0164 10.442 17.0164Z" stroke="#515165" stroke-width="1.5" stroke-linecap="round" stroke-linejoin="round"/>
<path opacity="0.4" d="M16.2669 14.2497L13.9502 12.6247V7.36641L16.2669 5.74141C17.4002 4.94974 18.3335 5.43308 18.3335 6.82474V13.1747C18.3335 14.5664 17.4002 15.0497 16.2669 14.2497Z" stroke="#515165" stroke-width="1.5" stroke-linecap="round" stroke-linejoin="round"/>
<path opacity="0.4" d="M9.58301 9.16644C10.2734 9.16644 10.833 8.6068 10.833 7.91644C10.833 7.22609 10.2734 6.66644 9.58301 6.66644C8.89265 6.66644 8.33301 7.22609 8.33301 7.91644C8.33301 8.6068 8.89265 9.16644 9.58301 9.16644Z" stroke="#515165" stroke-width="1.5" stroke-linecap="round" stroke-linejoin="round"/>
</svg>
